M48
; DRILL file {KiCad (6.0.1)} date Wed Mar 23 16:26:41 2022
; FORMAT={-:-/ absolute / inch / decimal}
; #@! TF.CreationDate,2022-03-23T16:26:41+01:00
; #@! TF.GenerationSoftware,Kicad,Pcbnew,(6.0.1)
; #@! TF.FileFunction,MixedPlating,1,2
FMAT,2
INCH
; #@! TA.AperFunction,Plated,PTH,ComponentDrill
T1C0.0394
%
G90
G05
T1
X6.5451Y-3.6762
X6.5451Y-3.7762
X6.5451Y-3.8762
X6.5451Y-3.9762
X6.5451Y-4.0762
X6.6451Y-3.6762
X6.6451Y-3.7762
X6.6451Y-3.8762
X6.6451Y-3.9762
X6.6451Y-4.0762
X7.0335Y-3.676
X7.0335Y-3.776
X7.0335Y-3.876
X7.0335Y-3.976
X7.0335Y-4.076
X7.1335Y-3.676
X7.1335Y-3.776
X7.1335Y-3.876
X7.1335Y-3.976
X7.1335Y-4.076
T0
M30
