%TF.GenerationSoftware,KiCad,Pcbnew,(6.0.1)*%
%TF.CreationDate,2022-03-23T16:25:01+01:00*%
%TF.ProjectId,pcb_v1,7063625f-7631-42e6-9b69-6361645f7063,v1*%
%TF.SameCoordinates,Original*%
%TF.FileFunction,Legend,Bot*%
%TF.FilePolarity,Positive*%
%FSLAX46Y46*%
G04 Gerber Fmt 4.6, Leading zero omitted, Abs format (unit mm)*
G04 Created by KiCad (PCBNEW (6.0.1)) date 2022-03-23 16:25:01*
%MOMM*%
%LPD*%
G01*
G04 APERTURE LIST*
%ADD10C,0.150000*%
%ADD11C,0.120000*%
G04 APERTURE END LIST*
D10*
X142813096Y-125378781D02*
X142732284Y-125351844D01*
X142651471Y-125271032D01*
X142597597Y-125163282D01*
X142597597Y-125055532D01*
X142624534Y-124974720D01*
X142705346Y-124840033D01*
X142786158Y-124759221D01*
X142920845Y-124678409D01*
X143001658Y-124651471D01*
X143109407Y-124651471D01*
X143217157Y-124705346D01*
X143271032Y-124759221D01*
X143324906Y-124866971D01*
X143324906Y-124920845D01*
X143136345Y-125109407D01*
X143028595Y-125001658D01*
X143621218Y-125109407D02*
X143055532Y-125675093D01*
X143271032Y-125890592D01*
X143351844Y-125917529D01*
X143405719Y-125917529D01*
X143486531Y-125890592D01*
X143567343Y-125809780D01*
X143594280Y-125728967D01*
X143594280Y-125675093D01*
X143567343Y-125594280D01*
X143351844Y-125378781D01*
X144483215Y-125971404D02*
X144159966Y-125648155D01*
X144321590Y-125809780D02*
X143755905Y-126375465D01*
X143782842Y-126240778D01*
X143782842Y-126133028D01*
X143755905Y-126052216D01*
%TO.C,R1*%
X194676666Y-51672380D02*
X195010000Y-51196190D01*
X195248095Y-51672380D02*
X195248095Y-50672380D01*
X194867142Y-50672380D01*
X194771904Y-50720000D01*
X194724285Y-50767619D01*
X194676666Y-50862857D01*
X194676666Y-51005714D01*
X194724285Y-51100952D01*
X194771904Y-51148571D01*
X194867142Y-51196190D01*
X195248095Y-51196190D01*
X193724285Y-51672380D02*
X194295714Y-51672380D01*
X194010000Y-51672380D02*
X194010000Y-50672380D01*
X194105238Y-50815238D01*
X194200476Y-50910476D01*
X194295714Y-50958095D01*
%TO.C,R4*%
X153726666Y-73692380D02*
X154060000Y-73216190D01*
X154298095Y-73692380D02*
X154298095Y-72692380D01*
X153917142Y-72692380D01*
X153821904Y-72740000D01*
X153774285Y-72787619D01*
X153726666Y-72882857D01*
X153726666Y-73025714D01*
X153774285Y-73120952D01*
X153821904Y-73168571D01*
X153917142Y-73216190D01*
X154298095Y-73216190D01*
X152869523Y-73025714D02*
X152869523Y-73692380D01*
X153107619Y-72644761D02*
X153345714Y-73359047D01*
X152726666Y-73359047D01*
%TO.C,J8*%
X140972380Y-132266666D02*
X141686666Y-132266666D01*
X141829523Y-132219047D01*
X141924761Y-132123809D01*
X141972380Y-131980952D01*
X141972380Y-131885714D01*
X141400952Y-132885714D02*
X141353333Y-132790476D01*
X141305714Y-132742857D01*
X141210476Y-132695238D01*
X141162857Y-132695238D01*
X141067619Y-132742857D01*
X141020000Y-132790476D01*
X140972380Y-132885714D01*
X140972380Y-133076190D01*
X141020000Y-133171428D01*
X141067619Y-133219047D01*
X141162857Y-133266666D01*
X141210476Y-133266666D01*
X141305714Y-133219047D01*
X141353333Y-133171428D01*
X141400952Y-133076190D01*
X141400952Y-132885714D01*
X141448571Y-132790476D01*
X141496190Y-132742857D01*
X141591428Y-132695238D01*
X141781904Y-132695238D01*
X141877142Y-132742857D01*
X141924761Y-132790476D01*
X141972380Y-132885714D01*
X141972380Y-133076190D01*
X141924761Y-133171428D01*
X141877142Y-133219047D01*
X141781904Y-133266666D01*
X141591428Y-133266666D01*
X141496190Y-133219047D01*
X141448571Y-133171428D01*
X141400952Y-133076190D01*
%TO.C,R3*%
X153716666Y-75812380D02*
X154050000Y-75336190D01*
X154288095Y-75812380D02*
X154288095Y-74812380D01*
X153907142Y-74812380D01*
X153811904Y-74860000D01*
X153764285Y-74907619D01*
X153716666Y-75002857D01*
X153716666Y-75145714D01*
X153764285Y-75240952D01*
X153811904Y-75288571D01*
X153907142Y-75336190D01*
X154288095Y-75336190D01*
X153383333Y-74812380D02*
X152764285Y-74812380D01*
X153097619Y-75193333D01*
X152954761Y-75193333D01*
X152859523Y-75240952D01*
X152811904Y-75288571D01*
X152764285Y-75383809D01*
X152764285Y-75621904D01*
X152811904Y-75717142D01*
X152859523Y-75764761D01*
X152954761Y-75812380D01*
X153240476Y-75812380D01*
X153335714Y-75764761D01*
X153383333Y-75717142D01*
%TO.C,J7*%
X81089109Y-174938772D02*
X81799082Y-174860390D01*
X81935851Y-174797382D01*
X82020063Y-174692268D01*
X82051718Y-174545049D01*
X82041267Y-174450386D01*
X81130913Y-175317424D02*
X81204069Y-175980064D01*
X82151001Y-175444347D01*
%TO.C,R2*%
X198326666Y-51662380D02*
X198660000Y-51186190D01*
X198898095Y-51662380D02*
X198898095Y-50662380D01*
X198517142Y-50662380D01*
X198421904Y-50710000D01*
X198374285Y-50757619D01*
X198326666Y-50852857D01*
X198326666Y-50995714D01*
X198374285Y-51090952D01*
X198421904Y-51138571D01*
X198517142Y-51186190D01*
X198898095Y-51186190D01*
X197945714Y-50757619D02*
X197898095Y-50710000D01*
X197802857Y-50662380D01*
X197564761Y-50662380D01*
X197469523Y-50710000D01*
X197421904Y-50757619D01*
X197374285Y-50852857D01*
X197374285Y-50948095D01*
X197421904Y-51090952D01*
X197993333Y-51662380D01*
X197374285Y-51662380D01*
%TO.C,C22*%
X178222857Y-45057142D02*
X178270476Y-45104761D01*
X178413333Y-45152380D01*
X178508571Y-45152380D01*
X178651428Y-45104761D01*
X178746666Y-45009523D01*
X178794285Y-44914285D01*
X178841904Y-44723809D01*
X178841904Y-44580952D01*
X178794285Y-44390476D01*
X178746666Y-44295238D01*
X178651428Y-44200000D01*
X178508571Y-44152380D01*
X178413333Y-44152380D01*
X178270476Y-44200000D01*
X178222857Y-44247619D01*
X177841904Y-44247619D02*
X177794285Y-44200000D01*
X177699047Y-44152380D01*
X177460952Y-44152380D01*
X177365714Y-44200000D01*
X177318095Y-44247619D01*
X177270476Y-44342857D01*
X177270476Y-44438095D01*
X177318095Y-44580952D01*
X177889523Y-45152380D01*
X177270476Y-45152380D01*
X176889523Y-44247619D02*
X176841904Y-44200000D01*
X176746666Y-44152380D01*
X176508571Y-44152380D01*
X176413333Y-44200000D01*
X176365714Y-44247619D01*
X176318095Y-44342857D01*
X176318095Y-44438095D01*
X176365714Y-44580952D01*
X176937142Y-45152380D01*
X176318095Y-45152380D01*
%TO.C,J2*%
X106684246Y-170955871D02*
X106773769Y-170247217D01*
X106744431Y-170099518D01*
X106661880Y-169993095D01*
X106526118Y-169927946D01*
X106431631Y-169916010D01*
X107121374Y-170915098D02*
X107162650Y-170968310D01*
X107251168Y-171027490D01*
X107487386Y-171057331D01*
X107587842Y-171022024D01*
X107641053Y-170980749D01*
X107700233Y-170892230D01*
X107712170Y-170797743D01*
X107682831Y-170650044D01*
X107187527Y-170011502D01*
X107801694Y-170089089D01*
%TO.C,D17*%
X177904285Y-66072380D02*
X177904285Y-65072380D01*
X177666190Y-65072380D01*
X177523333Y-65120000D01*
X177428095Y-65215238D01*
X177380476Y-65310476D01*
X177332857Y-65500952D01*
X177332857Y-65643809D01*
X177380476Y-65834285D01*
X177428095Y-65929523D01*
X177523333Y-66024761D01*
X177666190Y-66072380D01*
X177904285Y-66072380D01*
X176380476Y-66072380D02*
X176951904Y-66072380D01*
X176666190Y-66072380D02*
X176666190Y-65072380D01*
X176761428Y-65215238D01*
X176856666Y-65310476D01*
X176951904Y-65358095D01*
X176047142Y-65072380D02*
X175380476Y-65072380D01*
X175809047Y-66072380D01*
%TO.C,C19*%
X201137142Y-72687142D02*
X201184761Y-72639523D01*
X201232380Y-72496666D01*
X201232380Y-72401428D01*
X201184761Y-72258571D01*
X201089523Y-72163333D01*
X200994285Y-72115714D01*
X200803809Y-72068095D01*
X200660952Y-72068095D01*
X200470476Y-72115714D01*
X200375238Y-72163333D01*
X200280000Y-72258571D01*
X200232380Y-72401428D01*
X200232380Y-72496666D01*
X200280000Y-72639523D01*
X200327619Y-72687142D01*
X201232380Y-73639523D02*
X201232380Y-73068095D01*
X201232380Y-73353809D02*
X200232380Y-73353809D01*
X200375238Y-73258571D01*
X200470476Y-73163333D01*
X200518095Y-73068095D01*
X201232380Y-74115714D02*
X201232380Y-74306190D01*
X201184761Y-74401428D01*
X201137142Y-74449047D01*
X200994285Y-74544285D01*
X200803809Y-74591904D01*
X200422857Y-74591904D01*
X200327619Y-74544285D01*
X200280000Y-74496666D01*
X200232380Y-74401428D01*
X200232380Y-74210952D01*
X200280000Y-74115714D01*
X200327619Y-74068095D01*
X200422857Y-74020476D01*
X200660952Y-74020476D01*
X200756190Y-74068095D01*
X200803809Y-74115714D01*
X200851428Y-74210952D01*
X200851428Y-74401428D01*
X200803809Y-74496666D01*
X200756190Y-74544285D01*
X200660952Y-74591904D01*
%TO.C,J1*%
X115565575Y-112671409D02*
X115941972Y-113278475D01*
X116057723Y-113374795D01*
X116188851Y-113405551D01*
X116335357Y-113370743D01*
X116416299Y-113320557D01*
X115242638Y-114048258D02*
X115728291Y-113747140D01*
X115485465Y-113897699D02*
X114958509Y-113047806D01*
X115114730Y-113119033D01*
X115245859Y-113149789D01*
X115351894Y-113140074D01*
%TO.C,C24*%
X178152857Y-49777142D02*
X178200476Y-49824761D01*
X178343333Y-49872380D01*
X178438571Y-49872380D01*
X178581428Y-49824761D01*
X178676666Y-49729523D01*
X178724285Y-49634285D01*
X178771904Y-49443809D01*
X178771904Y-49300952D01*
X178724285Y-49110476D01*
X178676666Y-49015238D01*
X178581428Y-48920000D01*
X178438571Y-48872380D01*
X178343333Y-48872380D01*
X178200476Y-48920000D01*
X178152857Y-48967619D01*
X177771904Y-48967619D02*
X177724285Y-48920000D01*
X177629047Y-48872380D01*
X177390952Y-48872380D01*
X177295714Y-48920000D01*
X177248095Y-48967619D01*
X177200476Y-49062857D01*
X177200476Y-49158095D01*
X177248095Y-49300952D01*
X177819523Y-49872380D01*
X177200476Y-49872380D01*
X176343333Y-49205714D02*
X176343333Y-49872380D01*
X176581428Y-48824761D02*
X176819523Y-49539047D01*
X176200476Y-49539047D01*
%TO.C,L1*%
X180006666Y-66082380D02*
X180482857Y-66082380D01*
X180482857Y-65082380D01*
X179149523Y-66082380D02*
X179720952Y-66082380D01*
X179435238Y-66082380D02*
X179435238Y-65082380D01*
X179530476Y-65225238D01*
X179625714Y-65320476D01*
X179720952Y-65368095D01*
%TO.C,C23*%
X178142857Y-47427142D02*
X178190476Y-47474761D01*
X178333333Y-47522380D01*
X178428571Y-47522380D01*
X178571428Y-47474761D01*
X178666666Y-47379523D01*
X178714285Y-47284285D01*
X178761904Y-47093809D01*
X178761904Y-46950952D01*
X178714285Y-46760476D01*
X178666666Y-46665238D01*
X178571428Y-46570000D01*
X178428571Y-46522380D01*
X178333333Y-46522380D01*
X178190476Y-46570000D01*
X178142857Y-46617619D01*
X177761904Y-46617619D02*
X177714285Y-46570000D01*
X177619047Y-46522380D01*
X177380952Y-46522380D01*
X177285714Y-46570000D01*
X177238095Y-46617619D01*
X177190476Y-46712857D01*
X177190476Y-46808095D01*
X177238095Y-46950952D01*
X177809523Y-47522380D01*
X177190476Y-47522380D01*
X176857142Y-46522380D02*
X176238095Y-46522380D01*
X176571428Y-46903333D01*
X176428571Y-46903333D01*
X176333333Y-46950952D01*
X176285714Y-46998571D01*
X176238095Y-47093809D01*
X176238095Y-47331904D01*
X176285714Y-47427142D01*
X176333333Y-47474761D01*
X176428571Y-47522380D01*
X176714285Y-47522380D01*
X176809523Y-47474761D01*
X176857142Y-47427142D01*
%TO.C,J5*%
X211947073Y-37207174D02*
X212036596Y-36498520D01*
X212007258Y-36350821D01*
X211924707Y-36244398D01*
X211788945Y-36179249D01*
X211694458Y-36167313D01*
X212891944Y-37326539D02*
X212419508Y-37266856D01*
X212431947Y-36788452D01*
X212473223Y-36841664D01*
X212561741Y-36900844D01*
X212797959Y-36930685D01*
X212898415Y-36895378D01*
X212951626Y-36854103D01*
X213010806Y-36765584D01*
X213040648Y-36529366D01*
X213005341Y-36428911D01*
X212964065Y-36375699D01*
X212875546Y-36316519D01*
X212639329Y-36286678D01*
X212538873Y-36321985D01*
X212485661Y-36363260D01*
%TO.C,C17*%
X205587142Y-72627142D02*
X205634761Y-72579523D01*
X205682380Y-72436666D01*
X205682380Y-72341428D01*
X205634761Y-72198571D01*
X205539523Y-72103333D01*
X205444285Y-72055714D01*
X205253809Y-72008095D01*
X205110952Y-72008095D01*
X204920476Y-72055714D01*
X204825238Y-72103333D01*
X204730000Y-72198571D01*
X204682380Y-72341428D01*
X204682380Y-72436666D01*
X204730000Y-72579523D01*
X204777619Y-72627142D01*
X205682380Y-73579523D02*
X205682380Y-73008095D01*
X205682380Y-73293809D02*
X204682380Y-73293809D01*
X204825238Y-73198571D01*
X204920476Y-73103333D01*
X204968095Y-73008095D01*
X204682380Y-73912857D02*
X204682380Y-74579523D01*
X205682380Y-74150952D01*
%TO.C,U2*%
X209531904Y-54082380D02*
X209531904Y-54891904D01*
X209484285Y-54987142D01*
X209436666Y-55034761D01*
X209341428Y-55082380D01*
X209150952Y-55082380D01*
X209055714Y-55034761D01*
X209008095Y-54987142D01*
X208960476Y-54891904D01*
X208960476Y-54082380D01*
X208531904Y-54177619D02*
X208484285Y-54130000D01*
X208389047Y-54082380D01*
X208150952Y-54082380D01*
X208055714Y-54130000D01*
X208008095Y-54177619D01*
X207960476Y-54272857D01*
X207960476Y-54368095D01*
X208008095Y-54510952D01*
X208579523Y-55082380D01*
X207960476Y-55082380D01*
%TO.C,J6*%
X150137897Y-41744114D02*
X150645611Y-42246539D01*
X150780649Y-42313176D01*
X150915334Y-42312471D01*
X151049666Y-42244423D01*
X151116656Y-42176728D01*
X149501492Y-42387218D02*
X149635472Y-42251828D01*
X149736310Y-42217628D01*
X149803652Y-42217275D01*
X149972185Y-42250065D01*
X150141071Y-42350197D01*
X150411851Y-42618157D01*
X150446051Y-42718995D01*
X150446404Y-42786337D01*
X150413262Y-42887527D01*
X150279282Y-43022918D01*
X150178444Y-43057118D01*
X150111102Y-43057471D01*
X150009911Y-43024328D01*
X149840673Y-42856853D01*
X149806473Y-42756016D01*
X149806121Y-42688673D01*
X149839263Y-42587483D01*
X149973243Y-42452093D01*
X150074081Y-42417892D01*
X150141423Y-42417540D01*
X150242613Y-42450682D01*
%TO.C,U1*%
X157111904Y-103287380D02*
X157111904Y-104096904D01*
X157064285Y-104192142D01*
X157016666Y-104239761D01*
X156921428Y-104287380D01*
X156730952Y-104287380D01*
X156635714Y-104239761D01*
X156588095Y-104192142D01*
X156540476Y-104096904D01*
X156540476Y-103287380D01*
X155540476Y-104287380D02*
X156111904Y-104287380D01*
X155826190Y-104287380D02*
X155826190Y-103287380D01*
X155921428Y-103430238D01*
X156016666Y-103525476D01*
X156111904Y-103573095D01*
X168436158Y-84636844D02*
X168355346Y-84609906D01*
X168274534Y-84529094D01*
X168220659Y-84421345D01*
X168220659Y-84313595D01*
X168247597Y-84232783D01*
X168328409Y-84098096D01*
X168409221Y-84017284D01*
X168543908Y-83936471D01*
X168624720Y-83909534D01*
X168732470Y-83909534D01*
X168840219Y-83963409D01*
X168894094Y-84017284D01*
X168947969Y-84125033D01*
X168947969Y-84178908D01*
X168759407Y-84367470D01*
X168651658Y-84259720D01*
X169244280Y-84367470D02*
X168678595Y-84933155D01*
X169567529Y-84690719D01*
X169001844Y-85256404D01*
X169836903Y-84960093D02*
X169271218Y-85525778D01*
X169405905Y-85660465D01*
X169513654Y-85714340D01*
X169621404Y-85714340D01*
X169702216Y-85687402D01*
X169836903Y-85606590D01*
X169917715Y-85525778D01*
X169998528Y-85391091D01*
X170025465Y-85310279D01*
X170025465Y-85202529D01*
X169971590Y-85094780D01*
X169836903Y-84960093D01*
X168447722Y-112588407D02*
X168366910Y-112561470D01*
X168286097Y-112480658D01*
X168232223Y-112372908D01*
X168232223Y-112265158D01*
X168259160Y-112184346D01*
X168339972Y-112049659D01*
X168420784Y-111968847D01*
X168555471Y-111888035D01*
X168636284Y-111861097D01*
X168744033Y-111861097D01*
X168851783Y-111914972D01*
X168905658Y-111968847D01*
X168959532Y-112076597D01*
X168959532Y-112130471D01*
X168770971Y-112319033D01*
X168663221Y-112211284D01*
X169255844Y-112319033D02*
X168690158Y-112884719D01*
X168905658Y-113100218D01*
X168986470Y-113127155D01*
X169040345Y-113127155D01*
X169121157Y-113100218D01*
X169201969Y-113019406D01*
X169228906Y-112938593D01*
X169228906Y-112884719D01*
X169201969Y-112803906D01*
X168986470Y-112588407D01*
X169282781Y-113369592D02*
X169282781Y-113423467D01*
X169309719Y-113504279D01*
X169444406Y-113638966D01*
X169525218Y-113665903D01*
X169579093Y-113665903D01*
X169659905Y-113638966D01*
X169713780Y-113585091D01*
X169767654Y-113477341D01*
X169767654Y-112830844D01*
X170117841Y-113181030D01*
X170117841Y-113827528D02*
X170037028Y-113800590D01*
X169983154Y-113800590D01*
X169902341Y-113827528D01*
X169875404Y-113854465D01*
X169848467Y-113935277D01*
X169848467Y-113989152D01*
X169875404Y-114069964D01*
X169983154Y-114177714D01*
X170063966Y-114204651D01*
X170117841Y-114204651D01*
X170198653Y-114177714D01*
X170225590Y-114150776D01*
X170252528Y-114069964D01*
X170252528Y-114016089D01*
X170225590Y-113935277D01*
X170117841Y-113827528D01*
X170090903Y-113746715D01*
X170090903Y-113692841D01*
X170117841Y-113612028D01*
X170225590Y-113504279D01*
X170306402Y-113477341D01*
X170360277Y-113477341D01*
X170441089Y-113504279D01*
X170548839Y-113612028D01*
X170575776Y-113692841D01*
X170575776Y-113746715D01*
X170548839Y-113827528D01*
X170441089Y-113935277D01*
X170360277Y-113962215D01*
X170306402Y-113962215D01*
X170225590Y-113935277D01*
X168436158Y-122736844D02*
X168355346Y-122709906D01*
X168274534Y-122629094D01*
X168220659Y-122521345D01*
X168220659Y-122413595D01*
X168247597Y-122332783D01*
X168328409Y-122198096D01*
X168409221Y-122117284D01*
X168543908Y-122036471D01*
X168624720Y-122009534D01*
X168732470Y-122009534D01*
X168840219Y-122063409D01*
X168894094Y-122117284D01*
X168947969Y-122225033D01*
X168947969Y-122278908D01*
X168759407Y-122467470D01*
X168651658Y-122359720D01*
X169244280Y-122467470D02*
X168678595Y-123033155D01*
X169567529Y-122790719D01*
X169001844Y-123356404D01*
X169836903Y-123060093D02*
X169271218Y-123625778D01*
X169405905Y-123760465D01*
X169513654Y-123814340D01*
X169621404Y-123814340D01*
X169702216Y-123787402D01*
X169836903Y-123706590D01*
X169917715Y-123625778D01*
X169998528Y-123491091D01*
X170025465Y-123410279D01*
X170025465Y-123302529D01*
X169971590Y-123194780D01*
X169836903Y-123060093D01*
X169188375Y-101891564D02*
X168730439Y-101972377D01*
X168865126Y-101568316D02*
X168299441Y-102134001D01*
X168514940Y-102349500D01*
X168595752Y-102376438D01*
X168649627Y-102376438D01*
X168730439Y-102349500D01*
X168811251Y-102268688D01*
X168838189Y-102187876D01*
X168838189Y-102134001D01*
X168811251Y-102053189D01*
X168595752Y-101837690D01*
X168865126Y-102699687D02*
X169323062Y-102241751D01*
X169403874Y-102214813D01*
X169457749Y-102214813D01*
X169538561Y-102241751D01*
X169646311Y-102349500D01*
X169673248Y-102430312D01*
X169673248Y-102484187D01*
X169646311Y-102564999D01*
X169188375Y-103022935D01*
X170023435Y-102726624D02*
X169457749Y-103292309D01*
X170346683Y-103049873D01*
X169780998Y-103615558D01*
X142763096Y-120223781D02*
X142682284Y-120196844D01*
X142601471Y-120116032D01*
X142547597Y-120008282D01*
X142547597Y-119900532D01*
X142574534Y-119819720D01*
X142655346Y-119685033D01*
X142736158Y-119604221D01*
X142870845Y-119523409D01*
X142951658Y-119496471D01*
X143059407Y-119496471D01*
X143167157Y-119550346D01*
X143221032Y-119604221D01*
X143274906Y-119711971D01*
X143274906Y-119765845D01*
X143086345Y-119954407D01*
X142978595Y-119846658D01*
X143571218Y-119954407D02*
X143005532Y-120520093D01*
X143221032Y-120735592D01*
X143301844Y-120762529D01*
X143355719Y-120762529D01*
X143436531Y-120735592D01*
X143517343Y-120654780D01*
X143544280Y-120573967D01*
X143544280Y-120520093D01*
X143517343Y-120439280D01*
X143301844Y-120223781D01*
X143598155Y-121004966D02*
X143598155Y-121058841D01*
X143625093Y-121139653D01*
X143759780Y-121274340D01*
X143840592Y-121301277D01*
X143894467Y-121301277D01*
X143975279Y-121274340D01*
X144029154Y-121220465D01*
X144083028Y-121112715D01*
X144083028Y-120466218D01*
X144433215Y-120816404D01*
X168447722Y-99634407D02*
X168366910Y-99607470D01*
X168286097Y-99526658D01*
X168232223Y-99418908D01*
X168232223Y-99311158D01*
X168259160Y-99230346D01*
X168339972Y-99095659D01*
X168420784Y-99014847D01*
X168555471Y-98934035D01*
X168636284Y-98907097D01*
X168744033Y-98907097D01*
X168851783Y-98960972D01*
X168905658Y-99014847D01*
X168959532Y-99122597D01*
X168959532Y-99176471D01*
X168770971Y-99365033D01*
X168663221Y-99257284D01*
X169255844Y-99365033D02*
X168690158Y-99930719D01*
X168905658Y-100146218D01*
X168986470Y-100173155D01*
X169040345Y-100173155D01*
X169121157Y-100146218D01*
X169201969Y-100065406D01*
X169228906Y-99984593D01*
X169228906Y-99930719D01*
X169201969Y-99849906D01*
X168986470Y-99634407D01*
X169282781Y-100415592D02*
X169282781Y-100469467D01*
X169309719Y-100550279D01*
X169444406Y-100684966D01*
X169525218Y-100711903D01*
X169579093Y-100711903D01*
X169659905Y-100684966D01*
X169713780Y-100631091D01*
X169767654Y-100523341D01*
X169767654Y-99876844D01*
X170117841Y-100227030D01*
X169821529Y-100954340D02*
X169821529Y-101008215D01*
X169848467Y-101089027D01*
X169983154Y-101223714D01*
X170063966Y-101250651D01*
X170117841Y-101250651D01*
X170198653Y-101223714D01*
X170252528Y-101169839D01*
X170306402Y-101062089D01*
X170306402Y-100415592D01*
X170656589Y-100765778D01*
X142836158Y-122736844D02*
X142755346Y-122709906D01*
X142674534Y-122629094D01*
X142620659Y-122521345D01*
X142620659Y-122413595D01*
X142647597Y-122332783D01*
X142728409Y-122198096D01*
X142809221Y-122117284D01*
X142943908Y-122036471D01*
X143024720Y-122009534D01*
X143132470Y-122009534D01*
X143240219Y-122063409D01*
X143294094Y-122117284D01*
X143347969Y-122225033D01*
X143347969Y-122278908D01*
X143159407Y-122467470D01*
X143051658Y-122359720D01*
X143644280Y-122467470D02*
X143078595Y-123033155D01*
X143967529Y-122790719D01*
X143401844Y-123356404D01*
X144236903Y-123060093D02*
X143671218Y-123625778D01*
X143805905Y-123760465D01*
X143913654Y-123814340D01*
X144021404Y-123814340D01*
X144102216Y-123787402D01*
X144236903Y-123706590D01*
X144317715Y-123625778D01*
X144398528Y-123491091D01*
X144425465Y-123410279D01*
X144425465Y-123302529D01*
X144371590Y-123194780D01*
X144236903Y-123060093D01*
X142863096Y-127843781D02*
X142782284Y-127816844D01*
X142701471Y-127736032D01*
X142647597Y-127628282D01*
X142647597Y-127520532D01*
X142674534Y-127439720D01*
X142755346Y-127305033D01*
X142836158Y-127224221D01*
X142970845Y-127143409D01*
X143051658Y-127116471D01*
X143159407Y-127116471D01*
X143267157Y-127170346D01*
X143321032Y-127224221D01*
X143374906Y-127331971D01*
X143374906Y-127385845D01*
X143186345Y-127574407D01*
X143078595Y-127466658D01*
X143671218Y-127574407D02*
X143105532Y-128140093D01*
X143321032Y-128355592D01*
X143401844Y-128382529D01*
X143455719Y-128382529D01*
X143536531Y-128355592D01*
X143617343Y-128274780D01*
X143644280Y-128193967D01*
X143644280Y-128140093D01*
X143617343Y-128059280D01*
X143401844Y-127843781D01*
X143778967Y-128813528D02*
X143832842Y-128867402D01*
X143913654Y-128894340D01*
X143967529Y-128894340D01*
X144048341Y-128867402D01*
X144183028Y-128786590D01*
X144317715Y-128651903D01*
X144398528Y-128517216D01*
X144425465Y-128436404D01*
X144425465Y-128382529D01*
X144398528Y-128301717D01*
X144344653Y-128247842D01*
X144263841Y-128220905D01*
X144209966Y-128220905D01*
X144129154Y-128247842D01*
X143994467Y-128328654D01*
X143859780Y-128463341D01*
X143778967Y-128598028D01*
X143752030Y-128678841D01*
X143752030Y-128732715D01*
X143778967Y-128813528D01*
X142863096Y-115143781D02*
X142782284Y-115116844D01*
X142701471Y-115036032D01*
X142647597Y-114928282D01*
X142647597Y-114820532D01*
X142674534Y-114739720D01*
X142755346Y-114605033D01*
X142836158Y-114524221D01*
X142970845Y-114443409D01*
X143051658Y-114416471D01*
X143159407Y-114416471D01*
X143267157Y-114470346D01*
X143321032Y-114524221D01*
X143374906Y-114631971D01*
X143374906Y-114685845D01*
X143186345Y-114874407D01*
X143078595Y-114766658D01*
X143671218Y-114874407D02*
X143105532Y-115440093D01*
X143321032Y-115655592D01*
X143401844Y-115682529D01*
X143455719Y-115682529D01*
X143536531Y-115655592D01*
X143617343Y-115574780D01*
X143644280Y-115493967D01*
X143644280Y-115440093D01*
X143617343Y-115359280D01*
X143401844Y-115143781D01*
X144102216Y-116059653D02*
X144479340Y-115682529D01*
X143752030Y-116140465D02*
X144021404Y-115601717D01*
X144371590Y-115951903D01*
X168447722Y-86934407D02*
X168366910Y-86907470D01*
X168286097Y-86826658D01*
X168232223Y-86718908D01*
X168232223Y-86611158D01*
X168259160Y-86530346D01*
X168339972Y-86395659D01*
X168420784Y-86314847D01*
X168555471Y-86234035D01*
X168636284Y-86207097D01*
X168744033Y-86207097D01*
X168851783Y-86260972D01*
X168905658Y-86314847D01*
X168959532Y-86422597D01*
X168959532Y-86476471D01*
X168770971Y-86665033D01*
X168663221Y-86557284D01*
X169255844Y-86665033D02*
X168690158Y-87230719D01*
X168905658Y-87446218D01*
X168986470Y-87473155D01*
X169040345Y-87473155D01*
X169121157Y-87446218D01*
X169201969Y-87365406D01*
X169228906Y-87284593D01*
X169228906Y-87230719D01*
X169201969Y-87149906D01*
X168986470Y-86934407D01*
X170117841Y-87527030D02*
X169794592Y-87203781D01*
X169956216Y-87365406D02*
X169390531Y-87931091D01*
X169417468Y-87796404D01*
X169417468Y-87688654D01*
X169390531Y-87607842D01*
X170117841Y-88173528D02*
X170037028Y-88146590D01*
X169983154Y-88146590D01*
X169902341Y-88173528D01*
X169875404Y-88200465D01*
X169848467Y-88281277D01*
X169848467Y-88335152D01*
X169875404Y-88415964D01*
X169983154Y-88523714D01*
X170063966Y-88550651D01*
X170117841Y-88550651D01*
X170198653Y-88523714D01*
X170225590Y-88496776D01*
X170252528Y-88415964D01*
X170252528Y-88362089D01*
X170225590Y-88281277D01*
X170117841Y-88173528D01*
X170090903Y-88092715D01*
X170090903Y-88038841D01*
X170117841Y-87958028D01*
X170225590Y-87850279D01*
X170306402Y-87823341D01*
X170360277Y-87823341D01*
X170441089Y-87850279D01*
X170548839Y-87958028D01*
X170575776Y-88038841D01*
X170575776Y-88092715D01*
X170548839Y-88173528D01*
X170441089Y-88281277D01*
X170360277Y-88308215D01*
X170306402Y-88308215D01*
X170225590Y-88281277D01*
X168303129Y-127307690D02*
X169057377Y-126930566D01*
X168680253Y-127684813D01*
X169326751Y-127792563D02*
X169434500Y-127846438D01*
X169488375Y-127846438D01*
X169569187Y-127819500D01*
X169650000Y-127738688D01*
X169676937Y-127657876D01*
X169676937Y-127604001D01*
X169650000Y-127523189D01*
X169434500Y-127307690D01*
X168868815Y-127873375D01*
X169057377Y-128061937D01*
X169138189Y-128088874D01*
X169192064Y-128088874D01*
X169272876Y-128061937D01*
X169326751Y-128008062D01*
X169353688Y-127927250D01*
X169353688Y-127873375D01*
X169326751Y-127792563D01*
X169138189Y-127604001D01*
X169434500Y-128439061D02*
X169892436Y-127981125D01*
X169973248Y-127954187D01*
X170027123Y-127954187D01*
X170107935Y-127981125D01*
X170215685Y-128088874D01*
X170242622Y-128169687D01*
X170242622Y-128223561D01*
X170215685Y-128304374D01*
X169757749Y-128762309D01*
X170538934Y-128465998D02*
X170646683Y-128519873D01*
X170781370Y-128654560D01*
X170808308Y-128735372D01*
X170808308Y-128789247D01*
X170781370Y-128870059D01*
X170727496Y-128923934D01*
X170646683Y-128950871D01*
X170592809Y-128950871D01*
X170511996Y-128923934D01*
X170377309Y-128843122D01*
X170296497Y-128816184D01*
X170242622Y-128816184D01*
X170161810Y-128843122D01*
X170107935Y-128896996D01*
X170080998Y-128977809D01*
X170080998Y-129031683D01*
X170107935Y-129112496D01*
X170242622Y-129247183D01*
X170350372Y-129301057D01*
X168436158Y-97336844D02*
X168355346Y-97309906D01*
X168274534Y-97229094D01*
X168220659Y-97121345D01*
X168220659Y-97013595D01*
X168247597Y-96932783D01*
X168328409Y-96798096D01*
X168409221Y-96717284D01*
X168543908Y-96636471D01*
X168624720Y-96609534D01*
X168732470Y-96609534D01*
X168840219Y-96663409D01*
X168894094Y-96717284D01*
X168947969Y-96825033D01*
X168947969Y-96878908D01*
X168759407Y-97067470D01*
X168651658Y-96959720D01*
X169244280Y-97067470D02*
X168678595Y-97633155D01*
X169567529Y-97390719D01*
X169001844Y-97956404D01*
X169836903Y-97660093D02*
X169271218Y-98225778D01*
X169405905Y-98360465D01*
X169513654Y-98414340D01*
X169621404Y-98414340D01*
X169702216Y-98387402D01*
X169836903Y-98306590D01*
X169917715Y-98225778D01*
X169998528Y-98091091D01*
X170025465Y-98010279D01*
X170025465Y-97902529D01*
X169971590Y-97794780D01*
X169836903Y-97660093D01*
X142863096Y-107523781D02*
X142782284Y-107496844D01*
X142701471Y-107416032D01*
X142647597Y-107308282D01*
X142647597Y-107200532D01*
X142674534Y-107119720D01*
X142755346Y-106985033D01*
X142836158Y-106904221D01*
X142970845Y-106823409D01*
X143051658Y-106796471D01*
X143159407Y-106796471D01*
X143267157Y-106850346D01*
X143321032Y-106904221D01*
X143374906Y-107011971D01*
X143374906Y-107065845D01*
X143186345Y-107254407D01*
X143078595Y-107146658D01*
X143671218Y-107254407D02*
X143105532Y-107820093D01*
X143321032Y-108035592D01*
X143401844Y-108062529D01*
X143455719Y-108062529D01*
X143536531Y-108035592D01*
X143617343Y-107954780D01*
X143644280Y-107873967D01*
X143644280Y-107820093D01*
X143617343Y-107739280D01*
X143401844Y-107523781D01*
X143913654Y-108628215D02*
X143805905Y-108520465D01*
X143778967Y-108439653D01*
X143778967Y-108385778D01*
X143805905Y-108251091D01*
X143886717Y-108116404D01*
X144102216Y-107900905D01*
X144183028Y-107873967D01*
X144236903Y-107873967D01*
X144317715Y-107900905D01*
X144425465Y-108008654D01*
X144452402Y-108089467D01*
X144452402Y-108143341D01*
X144425465Y-108224154D01*
X144290778Y-108358841D01*
X144209966Y-108385778D01*
X144156091Y-108385778D01*
X144075279Y-108358841D01*
X143967529Y-108251091D01*
X143940592Y-108170279D01*
X143940592Y-108116404D01*
X143967529Y-108035592D01*
X142836158Y-110036844D02*
X142755346Y-110009906D01*
X142674534Y-109929094D01*
X142620659Y-109821345D01*
X142620659Y-109713595D01*
X142647597Y-109632783D01*
X142728409Y-109498096D01*
X142809221Y-109417284D01*
X142943908Y-109336471D01*
X143024720Y-109309534D01*
X143132470Y-109309534D01*
X143240219Y-109363409D01*
X143294094Y-109417284D01*
X143347969Y-109525033D01*
X143347969Y-109578908D01*
X143159407Y-109767470D01*
X143051658Y-109659720D01*
X143644280Y-109767470D02*
X143078595Y-110333155D01*
X143967529Y-110090719D01*
X143401844Y-110656404D01*
X144236903Y-110360093D02*
X143671218Y-110925778D01*
X143805905Y-111060465D01*
X143913654Y-111114340D01*
X144021404Y-111114340D01*
X144102216Y-111087402D01*
X144236903Y-111006590D01*
X144317715Y-110925778D01*
X144398528Y-110791091D01*
X144425465Y-110710279D01*
X144425465Y-110602529D01*
X144371590Y-110494780D01*
X144236903Y-110360093D01*
X142339722Y-94554407D02*
X142258910Y-94527470D01*
X142178097Y-94446658D01*
X142124223Y-94338908D01*
X142124223Y-94231158D01*
X142151160Y-94150346D01*
X142231972Y-94015659D01*
X142312784Y-93934847D01*
X142447471Y-93854035D01*
X142528284Y-93827097D01*
X142636033Y-93827097D01*
X142743783Y-93880972D01*
X142797658Y-93934847D01*
X142851532Y-94042597D01*
X142851532Y-94096471D01*
X142662971Y-94285033D01*
X142555221Y-94177284D01*
X143147844Y-94285033D02*
X142582158Y-94850719D01*
X142797658Y-95066218D01*
X142878470Y-95093155D01*
X142932345Y-95093155D01*
X143013157Y-95066218D01*
X143093969Y-94985406D01*
X143120906Y-94904593D01*
X143120906Y-94850719D01*
X143093969Y-94769906D01*
X142878470Y-94554407D01*
X144009841Y-95147030D02*
X143686592Y-94823781D01*
X143848216Y-94985406D02*
X143282531Y-95551091D01*
X143309468Y-95416404D01*
X143309468Y-95308654D01*
X143282531Y-95227842D01*
X143794341Y-96062902D02*
X143848216Y-96116776D01*
X143929028Y-96143714D01*
X143982903Y-96143714D01*
X144063715Y-96116776D01*
X144198402Y-96035964D01*
X144333089Y-95901277D01*
X144413902Y-95766590D01*
X144440839Y-95685778D01*
X144440839Y-95631903D01*
X144413902Y-95551091D01*
X144360027Y-95497216D01*
X144279215Y-95470279D01*
X144225340Y-95470279D01*
X144144528Y-95497216D01*
X144009841Y-95578028D01*
X143875154Y-95712715D01*
X143794341Y-95847402D01*
X143767404Y-95928215D01*
X143767404Y-95982089D01*
X143794341Y-96062902D01*
X142836158Y-97336844D02*
X142755346Y-97309906D01*
X142674534Y-97229094D01*
X142620659Y-97121345D01*
X142620659Y-97013595D01*
X142647597Y-96932783D01*
X142728409Y-96798096D01*
X142809221Y-96717284D01*
X142943908Y-96636471D01*
X143024720Y-96609534D01*
X143132470Y-96609534D01*
X143240219Y-96663409D01*
X143294094Y-96717284D01*
X143347969Y-96825033D01*
X143347969Y-96878908D01*
X143159407Y-97067470D01*
X143051658Y-96959720D01*
X143644280Y-97067470D02*
X143078595Y-97633155D01*
X143967529Y-97390719D01*
X143401844Y-97956404D01*
X144236903Y-97660093D02*
X143671218Y-98225778D01*
X143805905Y-98360465D01*
X143913654Y-98414340D01*
X144021404Y-98414340D01*
X144102216Y-98387402D01*
X144236903Y-98306590D01*
X144317715Y-98225778D01*
X144398528Y-98091091D01*
X144425465Y-98010279D01*
X144425465Y-97902529D01*
X144371590Y-97794780D01*
X144236903Y-97660093D01*
X142863096Y-99903781D02*
X142782284Y-99876844D01*
X142701471Y-99796032D01*
X142647597Y-99688282D01*
X142647597Y-99580532D01*
X142674534Y-99499720D01*
X142755346Y-99365033D01*
X142836158Y-99284221D01*
X142970845Y-99203409D01*
X143051658Y-99176471D01*
X143159407Y-99176471D01*
X143267157Y-99230346D01*
X143321032Y-99284221D01*
X143374906Y-99391971D01*
X143374906Y-99445845D01*
X143186345Y-99634407D01*
X143078595Y-99526658D01*
X143671218Y-99634407D02*
X143105532Y-100200093D01*
X143321032Y-100415592D01*
X143401844Y-100442529D01*
X143455719Y-100442529D01*
X143536531Y-100415592D01*
X143617343Y-100334780D01*
X143644280Y-100253967D01*
X143644280Y-100200093D01*
X143617343Y-100119280D01*
X143401844Y-99903781D01*
X144263841Y-100227030D02*
X144371590Y-100334780D01*
X144398528Y-100415592D01*
X144398528Y-100469467D01*
X144371590Y-100604154D01*
X144290778Y-100738841D01*
X144075279Y-100954340D01*
X143994467Y-100981277D01*
X143940592Y-100981277D01*
X143859780Y-100954340D01*
X143752030Y-100846590D01*
X143725093Y-100765778D01*
X143725093Y-100711903D01*
X143752030Y-100631091D01*
X143886717Y-100496404D01*
X143967529Y-100469467D01*
X144021404Y-100469467D01*
X144102216Y-100496404D01*
X144209966Y-100604154D01*
X144236903Y-100684966D01*
X144236903Y-100738841D01*
X144209966Y-100819653D01*
X142863096Y-117683781D02*
X142782284Y-117656844D01*
X142701471Y-117576032D01*
X142647597Y-117468282D01*
X142647597Y-117360532D01*
X142674534Y-117279720D01*
X142755346Y-117145033D01*
X142836158Y-117064221D01*
X142970845Y-116983409D01*
X143051658Y-116956471D01*
X143159407Y-116956471D01*
X143267157Y-117010346D01*
X143321032Y-117064221D01*
X143374906Y-117171971D01*
X143374906Y-117225845D01*
X143186345Y-117414407D01*
X143078595Y-117306658D01*
X143671218Y-117414407D02*
X143105532Y-117980093D01*
X143321032Y-118195592D01*
X143401844Y-118222529D01*
X143455719Y-118222529D01*
X143536531Y-118195592D01*
X143617343Y-118114780D01*
X143644280Y-118033967D01*
X143644280Y-117980093D01*
X143617343Y-117899280D01*
X143401844Y-117683781D01*
X143617343Y-118491903D02*
X143967529Y-118842089D01*
X143994467Y-118438028D01*
X144075279Y-118518841D01*
X144156091Y-118545778D01*
X144209966Y-118545778D01*
X144290778Y-118518841D01*
X144425465Y-118384154D01*
X144452402Y-118303341D01*
X144452402Y-118249467D01*
X144425465Y-118168654D01*
X144263841Y-118007030D01*
X144183028Y-117980093D01*
X144129154Y-117980093D01*
X168504788Y-114301226D02*
X168774162Y-114570600D01*
X168612537Y-114085727D02*
X168235414Y-114839974D01*
X168989661Y-114462850D01*
X169178223Y-114651412D02*
X168612537Y-115217097D01*
X168747224Y-115351784D01*
X168854974Y-115405659D01*
X168962723Y-115405659D01*
X169043536Y-115378722D01*
X169178223Y-115297910D01*
X169259035Y-115217097D01*
X169339847Y-115082410D01*
X169366784Y-115001598D01*
X169366784Y-114893849D01*
X169312910Y-114786099D01*
X169178223Y-114651412D01*
X170013282Y-115594221D02*
X170013282Y-115540346D01*
X169959407Y-115432597D01*
X169905532Y-115378722D01*
X169797783Y-115324847D01*
X169690033Y-115324847D01*
X169609221Y-115351784D01*
X169474534Y-115432597D01*
X169393722Y-115513409D01*
X169312910Y-115648096D01*
X169285972Y-115728908D01*
X169285972Y-115836658D01*
X169339847Y-115944407D01*
X169393722Y-115998282D01*
X169501471Y-116052157D01*
X169555346Y-116052157D01*
X170228781Y-115594221D02*
X170659780Y-116025219D01*
X170094094Y-116698654D02*
X170848341Y-116321531D01*
X170471218Y-117075778D01*
X171548714Y-117021903D02*
X171090778Y-117102715D01*
X171225465Y-116698654D02*
X170659780Y-117264340D01*
X170875279Y-117479839D01*
X170956091Y-117506776D01*
X171009966Y-117506776D01*
X171090778Y-117479839D01*
X171171590Y-117399027D01*
X171198528Y-117318215D01*
X171198528Y-117264340D01*
X171171590Y-117183528D01*
X170956091Y-116968028D01*
X171494839Y-117560651D02*
X171683401Y-117749213D01*
X172060524Y-117533714D02*
X171791150Y-117264340D01*
X171225465Y-117830025D01*
X171494839Y-118099399D01*
X172195211Y-118261024D02*
X172006650Y-118072462D01*
X172302961Y-117776150D02*
X171737276Y-118341836D01*
X172006650Y-118611210D01*
X168239847Y-117344407D02*
X168590033Y-117694593D01*
X168616971Y-117290532D01*
X168697783Y-117371345D01*
X168778595Y-117398282D01*
X168832470Y-117398282D01*
X168913282Y-117371345D01*
X169047969Y-117236658D01*
X169074906Y-117155845D01*
X169074906Y-117101971D01*
X169047969Y-117021158D01*
X168886345Y-116859534D01*
X168805532Y-116832597D01*
X168751658Y-116832597D01*
X168751658Y-117856218D02*
X169505905Y-117479094D01*
X169128781Y-118233341D01*
X169263468Y-118368028D02*
X169613654Y-118718215D01*
X169640592Y-118314154D01*
X169721404Y-118394966D01*
X169802216Y-118421903D01*
X169856091Y-118421903D01*
X169936903Y-118394966D01*
X170071590Y-118260279D01*
X170098528Y-118179467D01*
X170098528Y-118125592D01*
X170071590Y-118044780D01*
X169909966Y-117883155D01*
X169829154Y-117856218D01*
X169775279Y-117856218D01*
X168270473Y-124765033D02*
X169024720Y-124387910D01*
X168647597Y-125142157D01*
X169347969Y-124765033D02*
X169455719Y-124818908D01*
X169590406Y-124953595D01*
X169617343Y-125034407D01*
X169617343Y-125088282D01*
X169590406Y-125169094D01*
X169536531Y-125222969D01*
X169455719Y-125249906D01*
X169401844Y-125249906D01*
X169321032Y-125222969D01*
X169186345Y-125142157D01*
X169105532Y-125115219D01*
X169051658Y-125115219D01*
X168970845Y-125142157D01*
X168916971Y-125196032D01*
X168890033Y-125276844D01*
X168890033Y-125330719D01*
X168916971Y-125411531D01*
X169051658Y-125546218D01*
X169159407Y-125600093D01*
X169778967Y-125680905D02*
X170048341Y-125411531D01*
X169294094Y-125788654D02*
X169778967Y-125680905D01*
X169671218Y-126165778D01*
X170371590Y-125788654D02*
X170479340Y-125842529D01*
X170614027Y-125977216D01*
X170640964Y-126058028D01*
X170640964Y-126111903D01*
X170614027Y-126192715D01*
X170560152Y-126246590D01*
X170479340Y-126273528D01*
X170425465Y-126273528D01*
X170344653Y-126246590D01*
X170209966Y-126165778D01*
X170129154Y-126138841D01*
X170075279Y-126138841D01*
X169994467Y-126165778D01*
X169940592Y-126219653D01*
X169913654Y-126300465D01*
X169913654Y-126354340D01*
X169940592Y-126435152D01*
X170075279Y-126569839D01*
X170183028Y-126623714D01*
X168447722Y-81854407D02*
X168366910Y-81827470D01*
X168286097Y-81746658D01*
X168232223Y-81638908D01*
X168232223Y-81531158D01*
X168259160Y-81450346D01*
X168339972Y-81315659D01*
X168420784Y-81234847D01*
X168555471Y-81154035D01*
X168636284Y-81127097D01*
X168744033Y-81127097D01*
X168851783Y-81180972D01*
X168905658Y-81234847D01*
X168959532Y-81342597D01*
X168959532Y-81396471D01*
X168770971Y-81585033D01*
X168663221Y-81477284D01*
X169255844Y-81585033D02*
X168690158Y-82150719D01*
X168905658Y-82366218D01*
X168986470Y-82393155D01*
X169040345Y-82393155D01*
X169121157Y-82366218D01*
X169201969Y-82285406D01*
X169228906Y-82204593D01*
X169228906Y-82150719D01*
X169201969Y-82069906D01*
X168986470Y-81854407D01*
X170117841Y-82447030D02*
X169794592Y-82123781D01*
X169956216Y-82285406D02*
X169390531Y-82851091D01*
X169417468Y-82716404D01*
X169417468Y-82608654D01*
X169390531Y-82527842D01*
X169740717Y-83201277D02*
X170117841Y-83578401D01*
X170441089Y-82770279D01*
X142963096Y-105013781D02*
X142882284Y-104986844D01*
X142801471Y-104906032D01*
X142747597Y-104798282D01*
X142747597Y-104690532D01*
X142774534Y-104609720D01*
X142855346Y-104475033D01*
X142936158Y-104394221D01*
X143070845Y-104313409D01*
X143151658Y-104286471D01*
X143259407Y-104286471D01*
X143367157Y-104340346D01*
X143421032Y-104394221D01*
X143474906Y-104501971D01*
X143474906Y-104555845D01*
X143286345Y-104744407D01*
X143178595Y-104636658D01*
X143771218Y-104744407D02*
X143205532Y-105310093D01*
X143421032Y-105525592D01*
X143501844Y-105552529D01*
X143555719Y-105552529D01*
X143636531Y-105525592D01*
X143717343Y-105444780D01*
X143744280Y-105363967D01*
X143744280Y-105310093D01*
X143717343Y-105229280D01*
X143501844Y-105013781D01*
X143717343Y-105821903D02*
X144094467Y-106199027D01*
X144417715Y-105390905D01*
X168447722Y-79314407D02*
X168366910Y-79287470D01*
X168286097Y-79206658D01*
X168232223Y-79098908D01*
X168232223Y-78991158D01*
X168259160Y-78910346D01*
X168339972Y-78775659D01*
X168420784Y-78694847D01*
X168555471Y-78614035D01*
X168636284Y-78587097D01*
X168744033Y-78587097D01*
X168851783Y-78640972D01*
X168905658Y-78694847D01*
X168959532Y-78802597D01*
X168959532Y-78856471D01*
X168770971Y-79045033D01*
X168663221Y-78937284D01*
X169255844Y-79045033D02*
X168690158Y-79610719D01*
X168905658Y-79826218D01*
X168986470Y-79853155D01*
X169040345Y-79853155D01*
X169121157Y-79826218D01*
X169201969Y-79745406D01*
X169228906Y-79664593D01*
X169228906Y-79610719D01*
X169201969Y-79529906D01*
X168986470Y-79314407D01*
X170117841Y-79907030D02*
X169794592Y-79583781D01*
X169956216Y-79745406D02*
X169390531Y-80311091D01*
X169417468Y-80176404D01*
X169417468Y-80068654D01*
X169390531Y-79987842D01*
X170037028Y-80957589D02*
X169929279Y-80849839D01*
X169902341Y-80769027D01*
X169902341Y-80715152D01*
X169929279Y-80580465D01*
X170010091Y-80445778D01*
X170225590Y-80230279D01*
X170306402Y-80203341D01*
X170360277Y-80203341D01*
X170441089Y-80230279D01*
X170548839Y-80338028D01*
X170575776Y-80418841D01*
X170575776Y-80472715D01*
X170548839Y-80553528D01*
X170414152Y-80688215D01*
X170333340Y-80715152D01*
X170279465Y-80715152D01*
X170198653Y-80688215D01*
X170090903Y-80580465D01*
X170063966Y-80499653D01*
X170063966Y-80445778D01*
X170090903Y-80364966D01*
X168272131Y-119876691D02*
X168622317Y-120226877D01*
X168649255Y-119822816D01*
X168730067Y-119903629D01*
X168810879Y-119930566D01*
X168864754Y-119930566D01*
X168945566Y-119903629D01*
X169080253Y-119768942D01*
X169107190Y-119688129D01*
X169107190Y-119634255D01*
X169080253Y-119553442D01*
X168918629Y-119391818D01*
X168837816Y-119364881D01*
X168783942Y-119364881D01*
X168783942Y-120388502D02*
X169538189Y-120011378D01*
X169161065Y-120765625D01*
X169295752Y-120900312D02*
X169645938Y-121250499D01*
X169672876Y-120846438D01*
X169753688Y-120927250D01*
X169834500Y-120954187D01*
X169888375Y-120954187D01*
X169969187Y-120927250D01*
X170103874Y-120792563D01*
X170130812Y-120711751D01*
X170130812Y-120657876D01*
X170103874Y-120577064D01*
X169942250Y-120415439D01*
X169861438Y-120388502D01*
X169807563Y-120388502D01*
X170373248Y-120738688D02*
X170804247Y-121169687D01*
X170588748Y-121654560D02*
X170777309Y-121843122D01*
X171154433Y-121627622D02*
X170885059Y-121358248D01*
X170319374Y-121923934D01*
X170588748Y-122193308D01*
X171396870Y-121870059D02*
X170831184Y-122435744D01*
X171720118Y-122193308D01*
X171154433Y-122758993D01*
X168447722Y-92014407D02*
X168366910Y-91987470D01*
X168286097Y-91906658D01*
X168232223Y-91798908D01*
X168232223Y-91691158D01*
X168259160Y-91610346D01*
X168339972Y-91475659D01*
X168420784Y-91394847D01*
X168555471Y-91314035D01*
X168636284Y-91287097D01*
X168744033Y-91287097D01*
X168851783Y-91340972D01*
X168905658Y-91394847D01*
X168959532Y-91502597D01*
X168959532Y-91556471D01*
X168770971Y-91745033D01*
X168663221Y-91637284D01*
X169255844Y-91745033D02*
X168690158Y-92310719D01*
X168905658Y-92526218D01*
X168986470Y-92553155D01*
X169040345Y-92553155D01*
X169121157Y-92526218D01*
X169201969Y-92445406D01*
X169228906Y-92364593D01*
X169228906Y-92310719D01*
X169201969Y-92229906D01*
X168986470Y-92014407D01*
X169282781Y-92795592D02*
X169282781Y-92849467D01*
X169309719Y-92930279D01*
X169444406Y-93064966D01*
X169525218Y-93091903D01*
X169579093Y-93091903D01*
X169659905Y-93064966D01*
X169713780Y-93011091D01*
X169767654Y-92903341D01*
X169767654Y-92256844D01*
X170117841Y-92607030D01*
X169902341Y-93522902D02*
X169956216Y-93576776D01*
X170037028Y-93603714D01*
X170090903Y-93603714D01*
X170171715Y-93576776D01*
X170306402Y-93495964D01*
X170441089Y-93361277D01*
X170521902Y-93226590D01*
X170548839Y-93145778D01*
X170548839Y-93091903D01*
X170521902Y-93011091D01*
X170468027Y-92957216D01*
X170387215Y-92930279D01*
X170333340Y-92930279D01*
X170252528Y-92957216D01*
X170117841Y-93038028D01*
X169983154Y-93172715D01*
X169902341Y-93307402D01*
X169875404Y-93388215D01*
X169875404Y-93442089D01*
X169902341Y-93522902D01*
X142339722Y-79314407D02*
X142258910Y-79287470D01*
X142178097Y-79206658D01*
X142124223Y-79098908D01*
X142124223Y-78991158D01*
X142151160Y-78910346D01*
X142231972Y-78775659D01*
X142312784Y-78694847D01*
X142447471Y-78614035D01*
X142528284Y-78587097D01*
X142636033Y-78587097D01*
X142743783Y-78640972D01*
X142797658Y-78694847D01*
X142851532Y-78802597D01*
X142851532Y-78856471D01*
X142662971Y-79045033D01*
X142555221Y-78937284D01*
X143147844Y-79045033D02*
X142582158Y-79610719D01*
X142797658Y-79826218D01*
X142878470Y-79853155D01*
X142932345Y-79853155D01*
X143013157Y-79826218D01*
X143093969Y-79745406D01*
X143120906Y-79664593D01*
X143120906Y-79610719D01*
X143093969Y-79529906D01*
X142878470Y-79314407D01*
X144009841Y-79907030D02*
X143686592Y-79583781D01*
X143848216Y-79745406D02*
X143282531Y-80311091D01*
X143309468Y-80176404D01*
X143309468Y-80068654D01*
X143282531Y-79987842D01*
X143955966Y-80984526D02*
X143686592Y-80715152D01*
X143929028Y-80418841D01*
X143929028Y-80472715D01*
X143955966Y-80553528D01*
X144090653Y-80688215D01*
X144171465Y-80715152D01*
X144225340Y-80715152D01*
X144306152Y-80688215D01*
X144440839Y-80553528D01*
X144467776Y-80472715D01*
X144467776Y-80418841D01*
X144440839Y-80338028D01*
X144306152Y-80203341D01*
X144225340Y-80176404D01*
X144171465Y-80176404D01*
X168447722Y-89474407D02*
X168366910Y-89447470D01*
X168286097Y-89366658D01*
X168232223Y-89258908D01*
X168232223Y-89151158D01*
X168259160Y-89070346D01*
X168339972Y-88935659D01*
X168420784Y-88854847D01*
X168555471Y-88774035D01*
X168636284Y-88747097D01*
X168744033Y-88747097D01*
X168851783Y-88800972D01*
X168905658Y-88854847D01*
X168959532Y-88962597D01*
X168959532Y-89016471D01*
X168770971Y-89205033D01*
X168663221Y-89097284D01*
X169255844Y-89205033D02*
X168690158Y-89770719D01*
X168905658Y-89986218D01*
X168986470Y-90013155D01*
X169040345Y-90013155D01*
X169121157Y-89986218D01*
X169201969Y-89905406D01*
X169228906Y-89824593D01*
X169228906Y-89770719D01*
X169201969Y-89689906D01*
X168986470Y-89474407D01*
X170117841Y-90067030D02*
X169794592Y-89743781D01*
X169956216Y-89905406D02*
X169390531Y-90471091D01*
X169417468Y-90336404D01*
X169417468Y-90228654D01*
X169390531Y-90147842D01*
X170387215Y-90336404D02*
X170494964Y-90444154D01*
X170521902Y-90524966D01*
X170521902Y-90578841D01*
X170494964Y-90713528D01*
X170414152Y-90848215D01*
X170198653Y-91063714D01*
X170117841Y-91090651D01*
X170063966Y-91090651D01*
X169983154Y-91063714D01*
X169875404Y-90955964D01*
X169848467Y-90875152D01*
X169848467Y-90821277D01*
X169875404Y-90740465D01*
X170010091Y-90605778D01*
X170090903Y-90578841D01*
X170144778Y-90578841D01*
X170225590Y-90605778D01*
X170333340Y-90713528D01*
X170360277Y-90794340D01*
X170360277Y-90848215D01*
X170333340Y-90929027D01*
X142193722Y-89474407D02*
X142112910Y-89447470D01*
X142032097Y-89366658D01*
X141978223Y-89258908D01*
X141978223Y-89151158D01*
X142005160Y-89070346D01*
X142085972Y-88935659D01*
X142166784Y-88854847D01*
X142301471Y-88774035D01*
X142382284Y-88747097D01*
X142490033Y-88747097D01*
X142597783Y-88800972D01*
X142651658Y-88854847D01*
X142705532Y-88962597D01*
X142705532Y-89016471D01*
X142516971Y-89205033D01*
X142409221Y-89097284D01*
X143001844Y-89205033D02*
X142436158Y-89770719D01*
X142651658Y-89986218D01*
X142732470Y-90013155D01*
X142786345Y-90013155D01*
X142867157Y-89986218D01*
X142947969Y-89905406D01*
X142974906Y-89824593D01*
X142974906Y-89770719D01*
X142947969Y-89689906D01*
X142732470Y-89474407D01*
X143863841Y-90067030D02*
X143540592Y-89743781D01*
X143702216Y-89905406D02*
X143136531Y-90471091D01*
X143163468Y-90336404D01*
X143163468Y-90228654D01*
X143136531Y-90147842D01*
X143567529Y-90794340D02*
X143567529Y-90848215D01*
X143594467Y-90929027D01*
X143729154Y-91063714D01*
X143809966Y-91090651D01*
X143863841Y-91090651D01*
X143944653Y-91063714D01*
X143998528Y-91009839D01*
X144052402Y-90902089D01*
X144052402Y-90255592D01*
X144402589Y-90605778D01*
X142193722Y-92014407D02*
X142112910Y-91987470D01*
X142032097Y-91906658D01*
X141978223Y-91798908D01*
X141978223Y-91691158D01*
X142005160Y-91610346D01*
X142085972Y-91475659D01*
X142166784Y-91394847D01*
X142301471Y-91314035D01*
X142382284Y-91287097D01*
X142490033Y-91287097D01*
X142597783Y-91340972D01*
X142651658Y-91394847D01*
X142705532Y-91502597D01*
X142705532Y-91556471D01*
X142516971Y-91745033D01*
X142409221Y-91637284D01*
X143001844Y-91745033D02*
X142436158Y-92310719D01*
X142651658Y-92526218D01*
X142732470Y-92553155D01*
X142786345Y-92553155D01*
X142867157Y-92526218D01*
X142947969Y-92445406D01*
X142974906Y-92364593D01*
X142974906Y-92310719D01*
X142947969Y-92229906D01*
X142732470Y-92014407D01*
X143863841Y-92607030D02*
X143540592Y-92283781D01*
X143702216Y-92445406D02*
X143136531Y-93011091D01*
X143163468Y-92876404D01*
X143163468Y-92768654D01*
X143136531Y-92687842D01*
X144402589Y-93145778D02*
X144079340Y-92822529D01*
X144240964Y-92984154D02*
X143675279Y-93549839D01*
X143702216Y-93415152D01*
X143702216Y-93307402D01*
X143675279Y-93226590D01*
X168447722Y-104714407D02*
X168366910Y-104687470D01*
X168286097Y-104606658D01*
X168232223Y-104498908D01*
X168232223Y-104391158D01*
X168259160Y-104310346D01*
X168339972Y-104175659D01*
X168420784Y-104094847D01*
X168555471Y-104014035D01*
X168636284Y-103987097D01*
X168744033Y-103987097D01*
X168851783Y-104040972D01*
X168905658Y-104094847D01*
X168959532Y-104202597D01*
X168959532Y-104256471D01*
X168770971Y-104445033D01*
X168663221Y-104337284D01*
X169255844Y-104445033D02*
X168690158Y-105010719D01*
X168905658Y-105226218D01*
X168986470Y-105253155D01*
X169040345Y-105253155D01*
X169121157Y-105226218D01*
X169201969Y-105145406D01*
X169228906Y-105064593D01*
X169228906Y-105010719D01*
X169201969Y-104929906D01*
X168986470Y-104714407D01*
X169282781Y-105495592D02*
X169282781Y-105549467D01*
X169309719Y-105630279D01*
X169444406Y-105764966D01*
X169525218Y-105791903D01*
X169579093Y-105791903D01*
X169659905Y-105764966D01*
X169713780Y-105711091D01*
X169767654Y-105603341D01*
X169767654Y-104956844D01*
X170117841Y-105307030D01*
X170037028Y-106357589D02*
X169929279Y-106249839D01*
X169902341Y-106169027D01*
X169902341Y-106115152D01*
X169929279Y-105980465D01*
X170010091Y-105845778D01*
X170225590Y-105630279D01*
X170306402Y-105603341D01*
X170360277Y-105603341D01*
X170441089Y-105630279D01*
X170548839Y-105738028D01*
X170575776Y-105818841D01*
X170575776Y-105872715D01*
X170548839Y-105953528D01*
X170414152Y-106088215D01*
X170333340Y-106115152D01*
X170279465Y-106115152D01*
X170198653Y-106088215D01*
X170090903Y-105980465D01*
X170063966Y-105899653D01*
X170063966Y-105845778D01*
X170090903Y-105764966D01*
X142863096Y-112603781D02*
X142782284Y-112576844D01*
X142701471Y-112496032D01*
X142647597Y-112388282D01*
X142647597Y-112280532D01*
X142674534Y-112199720D01*
X142755346Y-112065033D01*
X142836158Y-111984221D01*
X142970845Y-111903409D01*
X143051658Y-111876471D01*
X143159407Y-111876471D01*
X143267157Y-111930346D01*
X143321032Y-111984221D01*
X143374906Y-112091971D01*
X143374906Y-112145845D01*
X143186345Y-112334407D01*
X143078595Y-112226658D01*
X143671218Y-112334407D02*
X143105532Y-112900093D01*
X143321032Y-113115592D01*
X143401844Y-113142529D01*
X143455719Y-113142529D01*
X143536531Y-113115592D01*
X143617343Y-113034780D01*
X143644280Y-112953967D01*
X143644280Y-112900093D01*
X143617343Y-112819280D01*
X143401844Y-112603781D01*
X143940592Y-113735152D02*
X143671218Y-113465778D01*
X143913654Y-113169467D01*
X143913654Y-113223341D01*
X143940592Y-113304154D01*
X144075279Y-113438841D01*
X144156091Y-113465778D01*
X144209966Y-113465778D01*
X144290778Y-113438841D01*
X144425465Y-113304154D01*
X144452402Y-113223341D01*
X144452402Y-113169467D01*
X144425465Y-113088654D01*
X144290778Y-112953967D01*
X144209966Y-112927030D01*
X144156091Y-112927030D01*
X142863096Y-102443781D02*
X142782284Y-102416844D01*
X142701471Y-102336032D01*
X142647597Y-102228282D01*
X142647597Y-102120532D01*
X142674534Y-102039720D01*
X142755346Y-101905033D01*
X142836158Y-101824221D01*
X142970845Y-101743409D01*
X143051658Y-101716471D01*
X143159407Y-101716471D01*
X143267157Y-101770346D01*
X143321032Y-101824221D01*
X143374906Y-101931971D01*
X143374906Y-101985845D01*
X143186345Y-102174407D01*
X143078595Y-102066658D01*
X143671218Y-102174407D02*
X143105532Y-102740093D01*
X143321032Y-102955592D01*
X143401844Y-102982529D01*
X143455719Y-102982529D01*
X143536531Y-102955592D01*
X143617343Y-102874780D01*
X143644280Y-102793967D01*
X143644280Y-102740093D01*
X143617343Y-102659280D01*
X143401844Y-102443781D01*
X143994467Y-103144154D02*
X143913654Y-103117216D01*
X143859780Y-103117216D01*
X143778967Y-103144154D01*
X143752030Y-103171091D01*
X143725093Y-103251903D01*
X143725093Y-103305778D01*
X143752030Y-103386590D01*
X143859780Y-103494340D01*
X143940592Y-103521277D01*
X143994467Y-103521277D01*
X144075279Y-103494340D01*
X144102216Y-103467402D01*
X144129154Y-103386590D01*
X144129154Y-103332715D01*
X144102216Y-103251903D01*
X143994467Y-103144154D01*
X143967529Y-103063341D01*
X143967529Y-103009467D01*
X143994467Y-102928654D01*
X144102216Y-102820905D01*
X144183028Y-102793967D01*
X144236903Y-102793967D01*
X144317715Y-102820905D01*
X144425465Y-102928654D01*
X144452402Y-103009467D01*
X144452402Y-103063341D01*
X144425465Y-103144154D01*
X144317715Y-103251903D01*
X144236903Y-103278841D01*
X144183028Y-103278841D01*
X144102216Y-103251903D01*
X142836158Y-84636844D02*
X142755346Y-84609906D01*
X142674534Y-84529094D01*
X142620659Y-84421345D01*
X142620659Y-84313595D01*
X142647597Y-84232783D01*
X142728409Y-84098096D01*
X142809221Y-84017284D01*
X142943908Y-83936471D01*
X143024720Y-83909534D01*
X143132470Y-83909534D01*
X143240219Y-83963409D01*
X143294094Y-84017284D01*
X143347969Y-84125033D01*
X143347969Y-84178908D01*
X143159407Y-84367470D01*
X143051658Y-84259720D01*
X143644280Y-84367470D02*
X143078595Y-84933155D01*
X143967529Y-84690719D01*
X143401844Y-85256404D01*
X144236903Y-84960093D02*
X143671218Y-85525778D01*
X143805905Y-85660465D01*
X143913654Y-85714340D01*
X144021404Y-85714340D01*
X144102216Y-85687402D01*
X144236903Y-85606590D01*
X144317715Y-85525778D01*
X144398528Y-85391091D01*
X144425465Y-85310279D01*
X144425465Y-85202529D01*
X144371590Y-85094780D01*
X144236903Y-84960093D01*
X142293722Y-81854407D02*
X142212910Y-81827470D01*
X142132097Y-81746658D01*
X142078223Y-81638908D01*
X142078223Y-81531158D01*
X142105160Y-81450346D01*
X142185972Y-81315659D01*
X142266784Y-81234847D01*
X142401471Y-81154035D01*
X142482284Y-81127097D01*
X142590033Y-81127097D01*
X142697783Y-81180972D01*
X142751658Y-81234847D01*
X142805532Y-81342597D01*
X142805532Y-81396471D01*
X142616971Y-81585033D01*
X142509221Y-81477284D01*
X143101844Y-81585033D02*
X142536158Y-82150719D01*
X142751658Y-82366218D01*
X142832470Y-82393155D01*
X142886345Y-82393155D01*
X142967157Y-82366218D01*
X143047969Y-82285406D01*
X143074906Y-82204593D01*
X143074906Y-82150719D01*
X143047969Y-82069906D01*
X142832470Y-81854407D01*
X143963841Y-82447030D02*
X143640592Y-82123781D01*
X143802216Y-82285406D02*
X143236531Y-82851091D01*
X143263468Y-82716404D01*
X143263468Y-82608654D01*
X143236531Y-82527842D01*
X144071590Y-83309027D02*
X144448714Y-82931903D01*
X143721404Y-83389839D02*
X143990778Y-82851091D01*
X144340964Y-83201277D01*
X142339722Y-86934407D02*
X142258910Y-86907470D01*
X142178097Y-86826658D01*
X142124223Y-86718908D01*
X142124223Y-86611158D01*
X142151160Y-86530346D01*
X142231972Y-86395659D01*
X142312784Y-86314847D01*
X142447471Y-86234035D01*
X142528284Y-86207097D01*
X142636033Y-86207097D01*
X142743783Y-86260972D01*
X142797658Y-86314847D01*
X142851532Y-86422597D01*
X142851532Y-86476471D01*
X142662971Y-86665033D01*
X142555221Y-86557284D01*
X143147844Y-86665033D02*
X142582158Y-87230719D01*
X142797658Y-87446218D01*
X142878470Y-87473155D01*
X142932345Y-87473155D01*
X143013157Y-87446218D01*
X143093969Y-87365406D01*
X143120906Y-87284593D01*
X143120906Y-87230719D01*
X143093969Y-87149906D01*
X142878470Y-86934407D01*
X144009841Y-87527030D02*
X143686592Y-87203781D01*
X143848216Y-87365406D02*
X143282531Y-87931091D01*
X143309468Y-87796404D01*
X143309468Y-87688654D01*
X143282531Y-87607842D01*
X143632717Y-88281277D02*
X143982903Y-88631463D01*
X144009841Y-88227402D01*
X144090653Y-88308215D01*
X144171465Y-88335152D01*
X144225340Y-88335152D01*
X144306152Y-88308215D01*
X144440839Y-88173528D01*
X144467776Y-88092715D01*
X144467776Y-88038841D01*
X144440839Y-87958028D01*
X144279215Y-87796404D01*
X144198402Y-87769467D01*
X144144528Y-87769467D01*
X168501597Y-109094035D02*
X168770971Y-109363409D01*
X168609346Y-108878536D02*
X168232223Y-109632783D01*
X168986470Y-109255659D01*
X168932595Y-110279280D02*
X168851783Y-110252343D01*
X168770971Y-110171531D01*
X168717096Y-110063781D01*
X168717096Y-109956032D01*
X168744033Y-109875219D01*
X168824845Y-109740532D01*
X168905658Y-109659720D01*
X169040345Y-109578908D01*
X169121157Y-109551971D01*
X169228906Y-109551971D01*
X169336656Y-109605845D01*
X169390531Y-109659720D01*
X169444406Y-109767470D01*
X169444406Y-109821345D01*
X169255844Y-110009906D01*
X169148094Y-109902157D01*
X169740717Y-110009906D02*
X169175032Y-110575592D01*
X170063966Y-110333155D01*
X169498280Y-110898841D01*
X170333340Y-110602529D02*
X169767654Y-111168215D01*
X169902341Y-111302902D01*
X170010091Y-111356776D01*
X170117841Y-111356776D01*
X170198653Y-111329839D01*
X170333340Y-111249027D01*
X170414152Y-111168215D01*
X170494964Y-111033528D01*
X170521902Y-110952715D01*
X170521902Y-110844966D01*
X170468027Y-110737216D01*
X170333340Y-110602529D01*
X168447722Y-107244407D02*
X168366910Y-107217470D01*
X168286097Y-107136658D01*
X168232223Y-107028908D01*
X168232223Y-106921158D01*
X168259160Y-106840346D01*
X168339972Y-106705659D01*
X168420784Y-106624847D01*
X168555471Y-106544035D01*
X168636284Y-106517097D01*
X168744033Y-106517097D01*
X168851783Y-106570972D01*
X168905658Y-106624847D01*
X168959532Y-106732597D01*
X168959532Y-106786471D01*
X168770971Y-106975033D01*
X168663221Y-106867284D01*
X169255844Y-106975033D02*
X168690158Y-107540719D01*
X168905658Y-107756218D01*
X168986470Y-107783155D01*
X169040345Y-107783155D01*
X169121157Y-107756218D01*
X169201969Y-107675406D01*
X169228906Y-107594593D01*
X169228906Y-107540719D01*
X169201969Y-107459906D01*
X168986470Y-107244407D01*
X169282781Y-108025592D02*
X169282781Y-108079467D01*
X169309719Y-108160279D01*
X169444406Y-108294966D01*
X169525218Y-108321903D01*
X169579093Y-108321903D01*
X169659905Y-108294966D01*
X169713780Y-108241091D01*
X169767654Y-108133341D01*
X169767654Y-107486844D01*
X170117841Y-107837030D01*
X169740717Y-108591277D02*
X170117841Y-108968401D01*
X170441089Y-108160279D01*
X168447722Y-94544407D02*
X168366910Y-94517470D01*
X168286097Y-94436658D01*
X168232223Y-94328908D01*
X168232223Y-94221158D01*
X168259160Y-94140346D01*
X168339972Y-94005659D01*
X168420784Y-93924847D01*
X168555471Y-93844035D01*
X168636284Y-93817097D01*
X168744033Y-93817097D01*
X168851783Y-93870972D01*
X168905658Y-93924847D01*
X168959532Y-94032597D01*
X168959532Y-94086471D01*
X168770971Y-94275033D01*
X168663221Y-94167284D01*
X169255844Y-94275033D02*
X168690158Y-94840719D01*
X168905658Y-95056218D01*
X168986470Y-95083155D01*
X169040345Y-95083155D01*
X169121157Y-95056218D01*
X169201969Y-94975406D01*
X169228906Y-94894593D01*
X169228906Y-94840719D01*
X169201969Y-94759906D01*
X168986470Y-94544407D01*
X169282781Y-95325592D02*
X169282781Y-95379467D01*
X169309719Y-95460279D01*
X169444406Y-95594966D01*
X169525218Y-95621903D01*
X169579093Y-95621903D01*
X169659905Y-95594966D01*
X169713780Y-95541091D01*
X169767654Y-95433341D01*
X169767654Y-94786844D01*
X170117841Y-95137030D01*
X170656589Y-95675778D02*
X170333340Y-95352529D01*
X170494964Y-95514154D02*
X169929279Y-96079839D01*
X169956216Y-95945152D01*
X169956216Y-95837402D01*
X169929279Y-95756590D01*
%TO.C,C20*%
X189792857Y-65217142D02*
X189840476Y-65264761D01*
X189983333Y-65312380D01*
X190078571Y-65312380D01*
X190221428Y-65264761D01*
X190316666Y-65169523D01*
X190364285Y-65074285D01*
X190411904Y-64883809D01*
X190411904Y-64740952D01*
X190364285Y-64550476D01*
X190316666Y-64455238D01*
X190221428Y-64360000D01*
X190078571Y-64312380D01*
X189983333Y-64312380D01*
X189840476Y-64360000D01*
X189792857Y-64407619D01*
X189411904Y-64407619D02*
X189364285Y-64360000D01*
X189269047Y-64312380D01*
X189030952Y-64312380D01*
X188935714Y-64360000D01*
X188888095Y-64407619D01*
X188840476Y-64502857D01*
X188840476Y-64598095D01*
X188888095Y-64740952D01*
X189459523Y-65312380D01*
X188840476Y-65312380D01*
X188221428Y-64312380D02*
X188126190Y-64312380D01*
X188030952Y-64360000D01*
X187983333Y-64407619D01*
X187935714Y-64502857D01*
X187888095Y-64693333D01*
X187888095Y-64931428D01*
X187935714Y-65121904D01*
X187983333Y-65217142D01*
X188030952Y-65264761D01*
X188126190Y-65312380D01*
X188221428Y-65312380D01*
X188316666Y-65264761D01*
X188364285Y-65217142D01*
X188411904Y-65121904D01*
X188459523Y-64931428D01*
X188459523Y-64693333D01*
X188411904Y-64502857D01*
X188364285Y-64407619D01*
X188316666Y-64360000D01*
X188221428Y-64312380D01*
%TO.C,J4*%
X222253877Y-61546450D02*
X222630274Y-62153516D01*
X222746025Y-62249836D01*
X222877153Y-62280592D01*
X223023659Y-62245784D01*
X223104601Y-62195598D01*
X221660578Y-62306517D02*
X222011882Y-62873112D01*
X221662189Y-61857283D02*
X222240941Y-62338883D01*
X221714817Y-62665094D01*
%TO.C,J3*%
X164016541Y-149222113D02*
X164524255Y-149724538D01*
X164659293Y-149791175D01*
X164793978Y-149790470D01*
X164928310Y-149722422D01*
X164995300Y-149654727D01*
X163748581Y-149492894D02*
X163313146Y-149932912D01*
X163818392Y-149963939D01*
X163717907Y-150065482D01*
X163684765Y-150166672D01*
X163685117Y-150234015D01*
X163719317Y-150334852D01*
X163888555Y-150502327D01*
X163989746Y-150535470D01*
X164057088Y-150535117D01*
X164157926Y-150500917D01*
X164358896Y-150297831D01*
X164392038Y-150196641D01*
X164391685Y-150129298D01*
%TO.C,C21*%
X198792857Y-50207142D02*
X198840476Y-50254761D01*
X198983333Y-50302380D01*
X199078571Y-50302380D01*
X199221428Y-50254761D01*
X199316666Y-50159523D01*
X199364285Y-50064285D01*
X199411904Y-49873809D01*
X199411904Y-49730952D01*
X199364285Y-49540476D01*
X199316666Y-49445238D01*
X199221428Y-49350000D01*
X199078571Y-49302380D01*
X198983333Y-49302380D01*
X198840476Y-49350000D01*
X198792857Y-49397619D01*
X198411904Y-49397619D02*
X198364285Y-49350000D01*
X198269047Y-49302380D01*
X198030952Y-49302380D01*
X197935714Y-49350000D01*
X197888095Y-49397619D01*
X197840476Y-49492857D01*
X197840476Y-49588095D01*
X197888095Y-49730952D01*
X198459523Y-50302380D01*
X197840476Y-50302380D01*
X196888095Y-50302380D02*
X197459523Y-50302380D01*
X197173809Y-50302380D02*
X197173809Y-49302380D01*
X197269047Y-49445238D01*
X197364285Y-49540476D01*
X197459523Y-49588095D01*
%TO.C,C18*%
X203377142Y-72647142D02*
X203424761Y-72599523D01*
X203472380Y-72456666D01*
X203472380Y-72361428D01*
X203424761Y-72218571D01*
X203329523Y-72123333D01*
X203234285Y-72075714D01*
X203043809Y-72028095D01*
X202900952Y-72028095D01*
X202710476Y-72075714D01*
X202615238Y-72123333D01*
X202520000Y-72218571D01*
X202472380Y-72361428D01*
X202472380Y-72456666D01*
X202520000Y-72599523D01*
X202567619Y-72647142D01*
X203472380Y-73599523D02*
X203472380Y-73028095D01*
X203472380Y-73313809D02*
X202472380Y-73313809D01*
X202615238Y-73218571D01*
X202710476Y-73123333D01*
X202758095Y-73028095D01*
X202900952Y-74170952D02*
X202853333Y-74075714D01*
X202805714Y-74028095D01*
X202710476Y-73980476D01*
X202662857Y-73980476D01*
X202567619Y-74028095D01*
X202520000Y-74075714D01*
X202472380Y-74170952D01*
X202472380Y-74361428D01*
X202520000Y-74456666D01*
X202567619Y-74504285D01*
X202662857Y-74551904D01*
X202710476Y-74551904D01*
X202805714Y-74504285D01*
X202853333Y-74456666D01*
X202900952Y-74361428D01*
X202900952Y-74170952D01*
X202948571Y-74075714D01*
X202996190Y-74028095D01*
X203091428Y-73980476D01*
X203281904Y-73980476D01*
X203377142Y-74028095D01*
X203424761Y-74075714D01*
X203472380Y-74170952D01*
X203472380Y-74361428D01*
X203424761Y-74456666D01*
X203377142Y-74504285D01*
X203281904Y-74551904D01*
X203091428Y-74551904D01*
X202996190Y-74504285D01*
X202948571Y-74456666D01*
X202900952Y-74361428D01*
D11*
%TO.C,R1*%
X194737064Y-53605000D02*
X194282936Y-53605000D01*
X194737064Y-52135000D02*
X194282936Y-52135000D01*
%TO.C,R4*%
X156627064Y-73965000D02*
X156172936Y-73965000D01*
X156627064Y-72495000D02*
X156172936Y-72495000D01*
%TO.C,kibuzzard-6233C670*%
G36*
X92630619Y-156407437D02*
G01*
X92890969Y-156407437D01*
X92890969Y-156020087D01*
X93086231Y-156020087D01*
X93086231Y-157002750D01*
X92890969Y-157002750D01*
X92890969Y-156569362D01*
X92630619Y-156569362D01*
X92630619Y-157002750D01*
X92435356Y-157002750D01*
X92435356Y-156020087D01*
X92630619Y-156020087D01*
X92630619Y-156407437D01*
G37*
G36*
X93656144Y-156029612D02*
G01*
X93651381Y-156116131D01*
X93639475Y-156212175D01*
X93624394Y-156309806D01*
X93608519Y-156399500D01*
X93494219Y-156399500D01*
X93478344Y-156309806D01*
X93463263Y-156212175D01*
X93452150Y-156116131D01*
X93448181Y-156029612D01*
X93448181Y-155924837D01*
X93656144Y-155924837D01*
X93656144Y-156029612D01*
G37*
G36*
X88005636Y-156246703D02*
G01*
X88094337Y-156259800D01*
X88175102Y-156280041D01*
X88253881Y-156305837D01*
X88253881Y-157002750D01*
X88057031Y-157002750D01*
X88057031Y-156448712D01*
X87976069Y-156433631D01*
X87895106Y-156429662D01*
X87852244Y-156431250D01*
X87799856Y-156436806D01*
X87746675Y-156445537D01*
X87701431Y-156455062D01*
X87666506Y-156274087D01*
X87727625Y-156259006D01*
X87795094Y-156249481D01*
X87857800Y-156243925D01*
X87903044Y-156242337D01*
X88005636Y-156246703D01*
G37*
G36*
X91865444Y-156842412D02*
G01*
X91954344Y-156850350D01*
X92050387Y-156800344D01*
X92068842Y-156737042D01*
X92074994Y-156647150D01*
X92074994Y-156256625D01*
X92270256Y-156256625D01*
X92270256Y-156672550D01*
X92267081Y-156745575D01*
X92257556Y-156812250D01*
X92210725Y-156922581D01*
X92117856Y-156994813D01*
X92050784Y-157013863D01*
X91967044Y-157020213D01*
X91879930Y-157016641D01*
X91799562Y-157005925D01*
X91728323Y-156991638D01*
X91668594Y-156977350D01*
X91668594Y-156256625D01*
X91865444Y-156256625D01*
X91865444Y-156842412D01*
G37*
G36*
X89755656Y-156069300D02*
G01*
X89755656Y-156256625D01*
X89925519Y-156256625D01*
X89925519Y-156418550D01*
X89755656Y-156418550D01*
X89755656Y-156724938D01*
X89750894Y-156809670D01*
X89736606Y-156876544D01*
X89681044Y-156966238D01*
X89592144Y-157009100D01*
X89471494Y-157020213D01*
X89350050Y-157010688D01*
X89233369Y-156978938D01*
X89260356Y-156810663D01*
X89310362Y-156831300D01*
X89354812Y-156843206D01*
X89399262Y-156848763D01*
X89449269Y-156850350D01*
X89495306Y-156845588D01*
X89530231Y-156826538D01*
X89552456Y-156786850D01*
X89560394Y-156720175D01*
X89560394Y-156418550D01*
X89247656Y-156418550D01*
X89247656Y-156256625D01*
X89560394Y-156256625D01*
X89560394Y-156037550D01*
X89755656Y-156069300D01*
G37*
G36*
X96962906Y-156593175D02*
G01*
X97031169Y-156664613D01*
X97056569Y-156774150D01*
X97034344Y-156889244D01*
X96970844Y-156965444D01*
X96871625Y-157007513D01*
X96742244Y-157020213D01*
X96642628Y-157017038D01*
X96553331Y-157007513D01*
X96426331Y-156985288D01*
X96426331Y-156858288D01*
X96613656Y-156858288D01*
X96666044Y-156862256D01*
X96727956Y-156863050D01*
X96826381Y-156841619D01*
X96864481Y-156769388D01*
X96851781Y-156723350D01*
X96817650Y-156696363D01*
X96767644Y-156682869D01*
X96708906Y-156678900D01*
X96659694Y-156681281D01*
X96613656Y-156686838D01*
X96613656Y-156858288D01*
X96426331Y-156858288D01*
X96426331Y-156540787D01*
X96442206Y-156414581D01*
X96494594Y-156319331D01*
X96592225Y-156259006D01*
X96661083Y-156242933D01*
X96745419Y-156237575D01*
X96815666Y-156240155D01*
X96883531Y-156247894D01*
X96986719Y-156270912D01*
X96959731Y-156428075D01*
X96876388Y-156409025D01*
X96769231Y-156401087D01*
X96696206Y-156410414D01*
X96648581Y-156438394D01*
X96613656Y-156531262D01*
X96613656Y-156555075D01*
X96676759Y-156545550D01*
X96748594Y-156542375D01*
X96864481Y-156554281D01*
X96962906Y-156593175D01*
G37*
G36*
X97750306Y-156182012D02*
G01*
X97421694Y-156182012D01*
X97421694Y-156663025D01*
X97433402Y-156755298D01*
X97468525Y-156813044D01*
X97522698Y-156843405D01*
X97591556Y-156853525D01*
X97690775Y-156829713D01*
X97778881Y-156780500D01*
X97853494Y-156936075D01*
X97740781Y-156997988D01*
X97665772Y-157017038D01*
X97574094Y-157023388D01*
X97485988Y-157016442D01*
X97412169Y-156995606D01*
X97351645Y-156962864D01*
X97303425Y-156920200D01*
X97243100Y-156809075D01*
X97229408Y-156743591D01*
X97224844Y-156674138D01*
X97224844Y-156020087D01*
X97750306Y-156020087D01*
X97750306Y-156182012D01*
G37*
G36*
X95811175Y-156383625D02*
G01*
X95826455Y-156450102D01*
X95842131Y-156516181D01*
X95858403Y-156581666D01*
X95875469Y-156646356D01*
X95908806Y-156766213D01*
X95955638Y-156646356D01*
X95978061Y-156581467D01*
X95999294Y-156515387D01*
X96019336Y-156448712D01*
X96038188Y-156382037D01*
X96070731Y-156256625D01*
X96273931Y-156256625D01*
X96244563Y-156363037D01*
X96213606Y-156464786D01*
X96181063Y-156561871D01*
X96146931Y-156654294D01*
X96100365Y-156769917D01*
X96053798Y-156876544D01*
X96007231Y-156974175D01*
X96062794Y-157064663D01*
X96154869Y-157102763D01*
X96208050Y-157097206D01*
X96264406Y-157077363D01*
X96300919Y-157240875D01*
X96233450Y-157261513D01*
X96143756Y-157269450D01*
X96041363Y-157255163D01*
X95961988Y-157211506D01*
X95896900Y-157136100D01*
X95837369Y-157026563D01*
X95799070Y-156938059D01*
X95763550Y-156847175D01*
X95730411Y-156754108D01*
X95699256Y-156659056D01*
X95669689Y-156561822D01*
X95641313Y-156462206D01*
X95612936Y-156360408D01*
X95583369Y-156256625D01*
X95783394Y-156256625D01*
X95811175Y-156383625D01*
G37*
G36*
X89132562Y-156725334D02*
G01*
X89111131Y-156802725D01*
X89076405Y-156868408D01*
X89029375Y-156922581D01*
X88970637Y-156965047D01*
X88900787Y-156995606D01*
X88820420Y-157014061D01*
X88730131Y-157020213D01*
X88601544Y-157008306D01*
X88493594Y-156978938D01*
X88520581Y-156812250D01*
X88610275Y-156837650D01*
X88722194Y-156850350D01*
X88808712Y-156839833D01*
X88877769Y-156808281D01*
X88923012Y-156758473D01*
X88938094Y-156693188D01*
X88453906Y-156693188D01*
X88451525Y-156659850D01*
X88450731Y-156620163D01*
X88455863Y-156558250D01*
X88639644Y-156558250D01*
X88938094Y-156558250D01*
X88924600Y-156499512D01*
X88896025Y-156448712D01*
X88849987Y-156413787D01*
X88784106Y-156401087D01*
X88717431Y-156414581D01*
X88672981Y-156450300D01*
X88647581Y-156500306D01*
X88639644Y-156558250D01*
X88455863Y-156558250D01*
X88460256Y-156505245D01*
X88488831Y-156410260D01*
X88536456Y-156335206D01*
X88602426Y-156280967D01*
X88686034Y-156248423D01*
X88787281Y-156237575D01*
X88853162Y-156243925D01*
X88917456Y-156262975D01*
X88977384Y-156294527D01*
X89030169Y-156338381D01*
X89074619Y-156394539D01*
X89109544Y-156463000D01*
X89132166Y-156543566D01*
X89139706Y-156636038D01*
X89132562Y-156725334D01*
G37*
G36*
X94025238Y-156282819D02*
G01*
X94062345Y-156196697D01*
X94111756Y-156127244D01*
X94173470Y-156074261D01*
X94247488Y-156037550D01*
X94331823Y-156016119D01*
X94424494Y-156008975D01*
X94534031Y-156013737D01*
X94659444Y-156032787D01*
X94659444Y-156991638D01*
X94552288Y-157009894D01*
X94449894Y-157015450D01*
X94354048Y-157008505D01*
X94266538Y-156987669D01*
X94188948Y-156951752D01*
X94122869Y-156899563D01*
X94069092Y-156830308D01*
X94028413Y-156743194D01*
X94002814Y-156637030D01*
X93994281Y-156510625D01*
X94192719Y-156510625D01*
X94195695Y-156580673D01*
X94204625Y-156644769D01*
X94244313Y-156750338D01*
X94317338Y-156820188D01*
X94429256Y-156845588D01*
X94446719Y-156845588D01*
X94464181Y-156844000D01*
X94464181Y-156183600D01*
X94435606Y-156179631D01*
X94407031Y-156178837D01*
X94300669Y-156206619D01*
X94235581Y-156280437D01*
X94202244Y-156386800D01*
X94192719Y-156510625D01*
X93994281Y-156510625D01*
X94002020Y-156386998D01*
X94025238Y-156282819D01*
G37*
G36*
X90430741Y-156242139D02*
G01*
X90497019Y-156255831D01*
X90596237Y-156306631D01*
X90653387Y-156381244D01*
X90671644Y-156470937D01*
X90647831Y-156568569D01*
X90587506Y-156632863D01*
X90506544Y-156674931D01*
X90419231Y-156704300D01*
X90361287Y-156723350D01*
X90312075Y-156743194D01*
X90278737Y-156767800D01*
X90266831Y-156802725D01*
X90304931Y-156844794D01*
X90414469Y-156855113D01*
X90542262Y-156836063D01*
X90660531Y-156794788D01*
X90690694Y-156958300D01*
X90581156Y-156997988D01*
X90505750Y-157014656D01*
X90416056Y-157020213D01*
X90328347Y-157015847D01*
X90255719Y-157002750D01*
X90150150Y-156955125D01*
X90092206Y-156883688D01*
X90074744Y-156796375D01*
X90098556Y-156697156D01*
X90159675Y-156630481D01*
X90243019Y-156586825D01*
X90331919Y-156555075D01*
X90388275Y-156535231D01*
X90434312Y-156513800D01*
X90466062Y-156489194D01*
X90477969Y-156458237D01*
X90451775Y-156419344D01*
X90350969Y-156401087D01*
X90222381Y-156419344D01*
X90138244Y-156445537D01*
X90108081Y-156280437D01*
X90216825Y-156248687D01*
X90282111Y-156240353D01*
X90352556Y-156237575D01*
X90430741Y-156242139D01*
G37*
G36*
X91513019Y-156072475D02*
G01*
X91306644Y-156072475D01*
X91306644Y-156705888D01*
X91291166Y-156841420D01*
X91244731Y-156940044D01*
X91164562Y-157000170D01*
X91047881Y-157020213D01*
X90959775Y-157013863D01*
X90893894Y-156998781D01*
X90850237Y-156982113D01*
X90828806Y-156971000D01*
X90854206Y-156813838D01*
X90906594Y-156834475D01*
X91005019Y-156850350D01*
X91081219Y-156823363D01*
X91111381Y-156720175D01*
X91111381Y-155910550D01*
X91513019Y-155910550D01*
X91513019Y-156072475D01*
G37*
%TO.C,J8*%
X137480000Y-138310000D02*
X137480000Y-129680000D01*
X137716195Y-138310000D02*
X137716195Y-129680000D01*
X140080000Y-129680000D02*
X127260000Y-129680000D01*
X138188575Y-138310000D02*
X138188575Y-129680000D01*
X139841905Y-138310000D02*
X139841905Y-129680000D01*
X132400000Y-138310000D02*
X132400000Y-129680000D01*
X139605715Y-138310000D02*
X139605715Y-129680000D01*
X138897145Y-138310000D02*
X138897145Y-129680000D01*
X127260000Y-138310000D02*
X127260000Y-129680000D01*
X139723810Y-138310000D02*
X139723810Y-129680000D01*
X139110000Y-129680000D02*
X139110000Y-129330000D01*
X133310000Y-129680000D02*
X133310000Y-129270000D01*
X140080000Y-127110000D02*
X138750000Y-127110000D01*
X139133335Y-138310000D02*
X139133335Y-129680000D01*
X139015240Y-138310000D02*
X139015240Y-129680000D01*
X138542860Y-138310000D02*
X138542860Y-129680000D01*
X138390000Y-129680000D02*
X138390000Y-129330000D01*
X139251430Y-138310000D02*
X139251430Y-129680000D01*
X131490000Y-129680000D02*
X131490000Y-129270000D01*
X134940000Y-138310000D02*
X134940000Y-129680000D01*
X128230000Y-129680000D02*
X128230000Y-129270000D01*
X139487620Y-138310000D02*
X139487620Y-129680000D01*
X135850000Y-129680000D02*
X135850000Y-129270000D01*
X137598100Y-138310000D02*
X137598100Y-129680000D01*
X130770000Y-129680000D02*
X130770000Y-129270000D01*
X129860000Y-138310000D02*
X129860000Y-129680000D01*
X138070480Y-138310000D02*
X138070480Y-129680000D01*
X128950000Y-129680000D02*
X128950000Y-129270000D01*
X138306670Y-138310000D02*
X138306670Y-129680000D01*
X140080000Y-128220000D02*
X140080000Y-127110000D01*
X137952385Y-138310000D02*
X137952385Y-129680000D01*
X140080000Y-138310000D02*
X127260000Y-138310000D01*
X139960000Y-138310000D02*
X139960000Y-129680000D01*
X138779050Y-138310000D02*
X138779050Y-129680000D01*
X138660955Y-138310000D02*
X138660955Y-129680000D01*
X140080000Y-138310000D02*
X140080000Y-129680000D01*
X137834290Y-138310000D02*
X137834290Y-129680000D01*
X138424765Y-138310000D02*
X138424765Y-129680000D01*
X139369525Y-138310000D02*
X139369525Y-129680000D01*
X136570000Y-129680000D02*
X136570000Y-129270000D01*
X134030000Y-129680000D02*
X134030000Y-129270000D01*
%TO.C,kibuzzard-6234ACD1*%
G36*
X136666569Y-125743356D02*
G01*
X136686214Y-125828684D01*
X136692763Y-125938619D01*
X136684384Y-126050008D01*
X136659249Y-126140760D01*
X136617356Y-126210875D01*
X136526273Y-126278145D01*
X136403838Y-126300569D01*
X136329820Y-126293822D01*
X136269694Y-126273581D01*
X136180794Y-126204525D01*
X136123644Y-126112450D01*
X136084750Y-126016406D01*
X136060937Y-125955288D01*
X136031569Y-125899725D01*
X135993469Y-125859244D01*
X135943462Y-125843369D01*
X135880844Y-125860655D01*
X135843274Y-125912513D01*
X135830750Y-125998944D01*
X135846625Y-126110863D01*
X135884725Y-126198969D01*
X135733912Y-126256119D01*
X135687875Y-126142613D01*
X135672397Y-126069389D01*
X135667237Y-125984656D01*
X135675881Y-125887378D01*
X135701810Y-125805092D01*
X135745025Y-125737800D01*
X135837894Y-125670530D01*
X135960925Y-125648106D01*
X136077606Y-125673506D01*
X136156187Y-125737800D01*
X136208575Y-125824319D01*
X136245088Y-125916394D01*
X136272869Y-125983069D01*
X136306206Y-126043394D01*
X136348275Y-126087844D01*
X136402250Y-126105306D01*
X136449081Y-126098163D01*
X136490356Y-126071969D01*
X136518931Y-126020375D01*
X136529250Y-125938619D01*
X136523694Y-125859442D01*
X136507025Y-125793363D01*
X136459400Y-125690969D01*
X136618150Y-125633819D01*
X136666569Y-125743356D01*
G37*
G36*
X136295987Y-124826277D02*
G01*
X136397884Y-124846816D01*
X136485693Y-124881046D01*
X136559413Y-124928969D01*
X136633496Y-125012930D01*
X136677946Y-125118763D01*
X136692763Y-125246469D01*
X136687405Y-125333186D01*
X136671331Y-125409187D01*
X136624500Y-125521106D01*
X136470513Y-125471894D01*
X136505438Y-125391725D01*
X136522900Y-125265519D01*
X136500477Y-125152211D01*
X136433206Y-125075812D01*
X136364679Y-125043622D01*
X136278690Y-125024307D01*
X136175237Y-125017869D01*
X136086337Y-125023227D01*
X136013312Y-125039300D01*
X135909331Y-125094862D01*
X135853769Y-125172650D01*
X135837100Y-125262344D01*
X135853769Y-125380612D01*
X135894250Y-125468719D01*
X135738675Y-125519519D01*
X135719625Y-125486975D01*
X135695812Y-125433794D01*
X135675969Y-125359975D01*
X135667237Y-125265519D01*
X135675770Y-125172452D01*
X135701369Y-125086925D01*
X135743437Y-125010725D01*
X135801381Y-124945637D01*
X135874605Y-124892655D01*
X135962512Y-124852769D01*
X136064509Y-124827766D01*
X136180000Y-124819431D01*
X136295987Y-124826277D01*
G37*
%TO.C,kibuzzard-6234ACFA*%
G36*
X131612125Y-125430675D02*
G01*
X131450200Y-125430675D01*
X131450200Y-125009987D01*
X130629462Y-125009987D01*
X130629462Y-124813137D01*
X131612125Y-124813137D01*
X131612125Y-125430675D01*
G37*
G36*
X131235987Y-123956384D02*
G01*
X131337884Y-123976922D01*
X131425693Y-124011152D01*
X131499413Y-124059075D01*
X131573496Y-124143036D01*
X131617946Y-124248869D01*
X131632763Y-124376575D01*
X131627405Y-124463292D01*
X131611331Y-124539294D01*
X131564500Y-124651212D01*
X131410513Y-124602000D01*
X131445438Y-124521831D01*
X131462900Y-124395625D01*
X131440477Y-124282317D01*
X131373206Y-124205919D01*
X131304679Y-124173728D01*
X131218690Y-124154413D01*
X131115237Y-124147975D01*
X131026337Y-124153333D01*
X130953312Y-124169406D01*
X130849331Y-124224969D01*
X130793769Y-124302756D01*
X130777100Y-124392450D01*
X130793769Y-124510719D01*
X130834250Y-124598825D01*
X130678675Y-124649625D01*
X130659625Y-124617081D01*
X130635812Y-124563900D01*
X130615969Y-124490081D01*
X130607237Y-124395625D01*
X130615770Y-124302558D01*
X130641369Y-124217031D01*
X130683437Y-124140831D01*
X130741381Y-124075744D01*
X130814605Y-124022761D01*
X130902512Y-123982875D01*
X131004509Y-123957872D01*
X131120000Y-123949537D01*
X131235987Y-123956384D01*
G37*
G36*
X131612125Y-125760875D02*
G01*
X131162863Y-125760875D01*
X131252556Y-125844219D01*
X131307722Y-125886883D01*
X131366856Y-125927563D01*
X131428769Y-125965464D01*
X131492269Y-125999794D01*
X131612125Y-126049800D01*
X131612125Y-126270463D01*
X131541283Y-126244666D01*
X131468456Y-126211725D01*
X131395431Y-126173030D01*
X131323994Y-126129969D01*
X131255533Y-126083336D01*
X131191438Y-126033925D01*
X131133097Y-125983522D01*
X131081900Y-125933913D01*
X131023559Y-125982133D01*
X130962837Y-126028369D01*
X130901520Y-126072223D01*
X130841394Y-126113300D01*
X130783053Y-126150805D01*
X130727094Y-126183944D01*
X130629462Y-126237125D01*
X130629462Y-126016463D01*
X130724712Y-125968838D01*
X130831075Y-125906131D01*
X130939025Y-125833900D01*
X131037450Y-125760875D01*
X130629462Y-125760875D01*
X130629462Y-125565613D01*
X131612125Y-125565613D01*
X131612125Y-125760875D01*
G37*
%TO.C,R3*%
X156627064Y-76095000D02*
X156172936Y-76095000D01*
X156627064Y-74625000D02*
X156172936Y-74625000D01*
%TO.C,kibuzzard-6233C5FE*%
G36*
X131803939Y-156336728D02*
G01*
X131824775Y-156403006D01*
X131848191Y-156471467D01*
X131872400Y-156540325D01*
X131897205Y-156608389D01*
X131922406Y-156674469D01*
X131968444Y-156793531D01*
X132012100Y-156674469D01*
X132034920Y-156608389D01*
X132057344Y-156540325D01*
X132078973Y-156471467D01*
X132099412Y-156403006D01*
X132117867Y-156336728D01*
X132133544Y-156274419D01*
X132338331Y-156274419D01*
X132304547Y-156384899D01*
X132269870Y-156490914D01*
X132234300Y-156592464D01*
X132197837Y-156689550D01*
X132148890Y-156810641D01*
X132100471Y-156920972D01*
X132052581Y-157020544D01*
X131889069Y-157020544D01*
X131840385Y-156920972D01*
X131789585Y-156810641D01*
X131736669Y-156689550D01*
X131697080Y-156592464D01*
X131659278Y-156490914D01*
X131623262Y-156384899D01*
X131589031Y-156274419D01*
X131787469Y-156274419D01*
X131803939Y-156336728D01*
G37*
G36*
X135773681Y-156120431D02*
G01*
X135791144Y-156215681D01*
X135810988Y-156318670D01*
X135832419Y-156424437D01*
X135855438Y-156530800D01*
X135880044Y-156635575D01*
X135905444Y-156733802D01*
X135930844Y-156820519D01*
X135956442Y-156732611D01*
X135982438Y-156633988D01*
X136007838Y-156529213D01*
X136031650Y-156422850D01*
X136053677Y-156317281D01*
X136073719Y-156214887D01*
X136090388Y-156120233D01*
X136102294Y-156037881D01*
X136308669Y-156037881D01*
X136290413Y-156126781D01*
X136264219Y-156237906D01*
X136243228Y-156321074D01*
X136220474Y-156407592D01*
X136195956Y-156497463D01*
X136170027Y-156589097D01*
X136143040Y-156680907D01*
X136114994Y-156772894D01*
X136073322Y-156903863D01*
X136034031Y-157020544D01*
X135832419Y-157020544D01*
X135802080Y-156935965D01*
X135772447Y-156849447D01*
X135743519Y-156760988D01*
X135715738Y-156672088D01*
X135689544Y-156584246D01*
X135664938Y-156497463D01*
X135631203Y-156371058D01*
X135601438Y-156250606D01*
X135575839Y-156138687D01*
X135554606Y-156037881D01*
X135759394Y-156037881D01*
X135773681Y-156120431D01*
G37*
G36*
X139447950Y-156743128D02*
G01*
X139426519Y-156820519D01*
X139391792Y-156886202D01*
X139344763Y-156940375D01*
X139286025Y-156982841D01*
X139216175Y-157013400D01*
X139135808Y-157031855D01*
X139045519Y-157038006D01*
X138916931Y-157026100D01*
X138808981Y-156996731D01*
X138835969Y-156830044D01*
X138925663Y-156855444D01*
X139037581Y-156868144D01*
X139124100Y-156857627D01*
X139193156Y-156826075D01*
X139238400Y-156776267D01*
X139253481Y-156710981D01*
X138769294Y-156710981D01*
X138766913Y-156677644D01*
X138766119Y-156637956D01*
X138771251Y-156576044D01*
X138955031Y-156576044D01*
X139253481Y-156576044D01*
X139239988Y-156517306D01*
X139211413Y-156466506D01*
X139165375Y-156431581D01*
X139099494Y-156418881D01*
X139032819Y-156432375D01*
X138988369Y-156468094D01*
X138962969Y-156518100D01*
X138955031Y-156576044D01*
X138771251Y-156576044D01*
X138775644Y-156523039D01*
X138804219Y-156428053D01*
X138851844Y-156353000D01*
X138917813Y-156298760D01*
X139001422Y-156266217D01*
X139102669Y-156255369D01*
X139168550Y-156261719D01*
X139232844Y-156280769D01*
X139292772Y-156312320D01*
X139345556Y-156356175D01*
X139390006Y-156412333D01*
X139424931Y-156480794D01*
X139447553Y-156561359D01*
X139455094Y-156653831D01*
X139447950Y-156743128D01*
G37*
G36*
X137571128Y-156259933D02*
G01*
X137637406Y-156273625D01*
X137736625Y-156324425D01*
X137793775Y-156399037D01*
X137812031Y-156488731D01*
X137788219Y-156586363D01*
X137727894Y-156650656D01*
X137646931Y-156692725D01*
X137559619Y-156722094D01*
X137501675Y-156741144D01*
X137452463Y-156760988D01*
X137419125Y-156785594D01*
X137407219Y-156820519D01*
X137445319Y-156862588D01*
X137554856Y-156872906D01*
X137682650Y-156853856D01*
X137800919Y-156812581D01*
X137831081Y-156976094D01*
X137721544Y-157015781D01*
X137646138Y-157032450D01*
X137556444Y-157038006D01*
X137468734Y-157033641D01*
X137396106Y-157020544D01*
X137290538Y-156972919D01*
X137232594Y-156901481D01*
X137215131Y-156814169D01*
X137238944Y-156714950D01*
X137300063Y-156648275D01*
X137383406Y-156604619D01*
X137472306Y-156572869D01*
X137528663Y-156553025D01*
X137574700Y-156531594D01*
X137606450Y-156506988D01*
X137618356Y-156476031D01*
X137592163Y-156437137D01*
X137491356Y-156418881D01*
X137362769Y-156437137D01*
X137278631Y-156463331D01*
X137248469Y-156298231D01*
X137357213Y-156266481D01*
X137422498Y-156258147D01*
X137492944Y-156255369D01*
X137571128Y-156259933D01*
G37*
G36*
X132430406Y-156486350D02*
G01*
X132461164Y-156419278D01*
X132502637Y-156362525D01*
X132553834Y-156316884D01*
X132613762Y-156283150D01*
X132681430Y-156262314D01*
X132755844Y-156255369D01*
X132829266Y-156262314D01*
X132897131Y-156283150D01*
X132957655Y-156316884D01*
X133009050Y-156362525D01*
X133050722Y-156419278D01*
X133082075Y-156486350D01*
X133101720Y-156562352D01*
X133108269Y-156645894D01*
X133101919Y-156730627D01*
X133082869Y-156807025D01*
X133052111Y-156874295D01*
X133010637Y-156931644D01*
X132959441Y-156978078D01*
X132899512Y-157012606D01*
X132831448Y-157034038D01*
X132755844Y-157041181D01*
X132680239Y-157034038D01*
X132612175Y-157012606D01*
X132552445Y-156978078D01*
X132501844Y-156931644D01*
X132460966Y-156874295D01*
X132430406Y-156807025D01*
X132411356Y-156730627D01*
X132405125Y-156647481D01*
X132605031Y-156647481D01*
X132614755Y-156737969D01*
X132643925Y-156809406D01*
X132692145Y-156855841D01*
X132759019Y-156871319D01*
X132827480Y-156855841D01*
X132874112Y-156809406D01*
X132900902Y-156737969D01*
X132909831Y-156647481D01*
X132900108Y-156557192D01*
X132870937Y-156486350D01*
X132822717Y-156440511D01*
X132755844Y-156425231D01*
X132687383Y-156440511D01*
X132640750Y-156486350D01*
X132613961Y-156557192D01*
X132605031Y-156647481D01*
X132405125Y-156647481D01*
X132405006Y-156645894D01*
X132411356Y-156562352D01*
X132430406Y-156486350D01*
G37*
G36*
X133848044Y-155952156D02*
G01*
X133848044Y-157020544D01*
X133652781Y-157020544D01*
X133652781Y-156445869D01*
X133610712Y-156434756D01*
X133557531Y-156428406D01*
X133467044Y-156474444D01*
X133449184Y-156535166D01*
X133443231Y-156625256D01*
X133443231Y-157020544D01*
X133247969Y-157020544D01*
X133247969Y-156599856D01*
X133251541Y-156527030D01*
X133262256Y-156460950D01*
X133309881Y-156353000D01*
X133398781Y-156283150D01*
X133461091Y-156264695D01*
X133536894Y-156258544D01*
X133595631Y-156265687D01*
X133652781Y-156280769D01*
X133652781Y-155918819D01*
X133848044Y-155952156D01*
G37*
G36*
X135372044Y-156610969D02*
G01*
X135440306Y-156682406D01*
X135465706Y-156791944D01*
X135443481Y-156907038D01*
X135379981Y-156983238D01*
X135280762Y-157025306D01*
X135151381Y-157038006D01*
X135051766Y-157034831D01*
X134962469Y-157025306D01*
X134835469Y-157003081D01*
X134835469Y-156876081D01*
X135022794Y-156876081D01*
X135075181Y-156880050D01*
X135137094Y-156880844D01*
X135235519Y-156859413D01*
X135273619Y-156787181D01*
X135260919Y-156741144D01*
X135226787Y-156714156D01*
X135176781Y-156700663D01*
X135118044Y-156696694D01*
X135068831Y-156699075D01*
X135022794Y-156704631D01*
X135022794Y-156876081D01*
X134835469Y-156876081D01*
X134835469Y-156558581D01*
X134851344Y-156432375D01*
X134903731Y-156337125D01*
X135001362Y-156276800D01*
X135070220Y-156260727D01*
X135154556Y-156255369D01*
X135224803Y-156257948D01*
X135292669Y-156265687D01*
X135395856Y-156288706D01*
X135368869Y-156445869D01*
X135285525Y-156426819D01*
X135178369Y-156418881D01*
X135105344Y-156428208D01*
X135057719Y-156456187D01*
X135022794Y-156549056D01*
X135022794Y-156572869D01*
X135085897Y-156563344D01*
X135157731Y-156560169D01*
X135273619Y-156572075D01*
X135372044Y-156610969D01*
G37*
G36*
X131510450Y-156743128D02*
G01*
X131489019Y-156820519D01*
X131454292Y-156886202D01*
X131407262Y-156940375D01*
X131348525Y-156982841D01*
X131278675Y-157013400D01*
X131198308Y-157031855D01*
X131108019Y-157038006D01*
X130979431Y-157026100D01*
X130871481Y-156996731D01*
X130898469Y-156830044D01*
X130988162Y-156855444D01*
X131100081Y-156868144D01*
X131186600Y-156857627D01*
X131255656Y-156826075D01*
X131300900Y-156776267D01*
X131315981Y-156710981D01*
X130831794Y-156710981D01*
X130829412Y-156677644D01*
X130828619Y-156637956D01*
X130833751Y-156576044D01*
X131017531Y-156576044D01*
X131315981Y-156576044D01*
X131302487Y-156517306D01*
X131273912Y-156466506D01*
X131227875Y-156431581D01*
X131161994Y-156418881D01*
X131095319Y-156432375D01*
X131050869Y-156468094D01*
X131025469Y-156518100D01*
X131017531Y-156576044D01*
X130833751Y-156576044D01*
X130838144Y-156523039D01*
X130866719Y-156428053D01*
X130914344Y-156353000D01*
X130980313Y-156298760D01*
X131063922Y-156266217D01*
X131165169Y-156255369D01*
X131231050Y-156261719D01*
X131295344Y-156280769D01*
X131355272Y-156312320D01*
X131408056Y-156356175D01*
X131452506Y-156412333D01*
X131487431Y-156480794D01*
X131510053Y-156561359D01*
X131517594Y-156653831D01*
X131510450Y-156743128D01*
G37*
G36*
X134432045Y-156261719D02*
G01*
X134512412Y-156271244D01*
X134583255Y-156284341D01*
X134641794Y-156298231D01*
X134641794Y-157020544D01*
X134446531Y-157020544D01*
X134446531Y-156434756D01*
X134401287Y-156429994D01*
X134357631Y-156428406D01*
X134260794Y-156474444D01*
X134242934Y-156535166D01*
X134236981Y-156625256D01*
X134236981Y-157020544D01*
X134041719Y-157020544D01*
X134041719Y-156599856D01*
X134045291Y-156527030D01*
X134056006Y-156460950D01*
X134104425Y-156353000D01*
X134197294Y-156283150D01*
X134263572Y-156264695D01*
X134344931Y-156258544D01*
X134432045Y-156261719D01*
G37*
G36*
X138400795Y-156261719D02*
G01*
X138481163Y-156271244D01*
X138552005Y-156284341D01*
X138610544Y-156298231D01*
X138610544Y-157020544D01*
X138415281Y-157020544D01*
X138415281Y-156434756D01*
X138370038Y-156429994D01*
X138326381Y-156428406D01*
X138229544Y-156474444D01*
X138211684Y-156535166D01*
X138205731Y-156625256D01*
X138205731Y-157020544D01*
X138010469Y-157020544D01*
X138010469Y-156599856D01*
X138014041Y-156527030D01*
X138024756Y-156460950D01*
X138073175Y-156353000D01*
X138166044Y-156283150D01*
X138232322Y-156264695D01*
X138313681Y-156258544D01*
X138400795Y-156261719D01*
G37*
G36*
X140128194Y-156199806D02*
G01*
X139799581Y-156199806D01*
X139799581Y-156680819D01*
X139811289Y-156773092D01*
X139846413Y-156830838D01*
X139900586Y-156861198D01*
X139969444Y-156871319D01*
X140068663Y-156847506D01*
X140156769Y-156798294D01*
X140231381Y-156953869D01*
X140118669Y-157015781D01*
X140043659Y-157034831D01*
X139951981Y-157041181D01*
X139863875Y-157034236D01*
X139790056Y-157013400D01*
X139729533Y-156980658D01*
X139681313Y-156937994D01*
X139620988Y-156826869D01*
X139607295Y-156761384D01*
X139602731Y-156691931D01*
X139602731Y-156037881D01*
X140128194Y-156037881D01*
X140128194Y-156199806D01*
G37*
%TO.C,J7*%
X76327281Y-176355736D02*
X75800556Y-171584723D01*
X80502298Y-175351529D02*
X78613772Y-175560024D01*
X69176156Y-180475338D02*
X68780015Y-176887139D01*
X77515736Y-172904479D02*
X77186533Y-169922596D01*
X67538920Y-165645440D02*
X76603844Y-164644663D01*
X78241080Y-179474561D02*
X77844939Y-175886362D01*
X76857331Y-166940713D02*
X76603844Y-164644663D01*
X68450813Y-173905256D02*
X68121610Y-170923373D01*
X68812936Y-177185327D02*
X77877860Y-176184550D01*
X67792407Y-167941490D02*
X67538920Y-165645440D01*
X70363515Y-177014142D02*
X69836790Y-172243129D01*
X69176156Y-180475338D02*
X78241080Y-179474561D01*
X80355254Y-174019621D02*
X80502298Y-175351529D01*
X75800556Y-171584723D02*
G75*
G03*
X69836790Y-172243129I-2981883J-329203D01*
G01*
%TO.C,R2*%
X198387064Y-53595000D02*
X197932936Y-53595000D01*
X198387064Y-52125000D02*
X197932936Y-52125000D01*
%TO.C,C22*%
X181241252Y-45455000D02*
X180718748Y-45455000D01*
X181241252Y-43985000D02*
X180718748Y-43985000D01*
%TO.C,J2*%
X107943852Y-175776127D02*
X120662762Y-177382899D01*
X108269718Y-173196628D02*
X107943852Y-175776127D01*
X109915097Y-170783823D02*
X108595585Y-170617130D01*
X111175083Y-170942997D02*
X121314495Y-172223902D01*
X121314495Y-172223902D02*
X120662762Y-177382899D01*
X111175083Y-170942997D02*
X110849216Y-173522495D01*
X108595585Y-170617130D02*
X108428891Y-171936643D01*
X110849216Y-173522495D02*
X108269718Y-173196628D01*
%TO.C,D17*%
X178330000Y-64590000D02*
X175030000Y-64590000D01*
X178330000Y-64590000D02*
X178330000Y-57690000D01*
X175030000Y-64590000D02*
X175030000Y-57690000D01*
%TO.C,C19*%
X201535000Y-70201252D02*
X201535000Y-69678748D01*
X200065000Y-70201252D02*
X200065000Y-69678748D01*
%TO.C,J1*%
X112177410Y-115491383D02*
X103491507Y-120876871D01*
X111646961Y-109701856D02*
X100751337Y-116457429D01*
X113256774Y-114822149D02*
X114387131Y-114121298D01*
X112177410Y-115491383D02*
X110807325Y-113281662D01*
X110807325Y-113281662D02*
X113017046Y-111911577D01*
X103491507Y-120876871D02*
X100751337Y-116457429D01*
X114387131Y-114121298D02*
X113686280Y-112990941D01*
X113017046Y-111911577D02*
X111646961Y-109701856D01*
%TO.C,REF\u002A\u002A*%
G36*
X118289550Y-148662437D02*
G01*
X118355984Y-148672300D01*
X118646365Y-148718408D01*
X118885666Y-148762794D01*
X119080046Y-148807579D01*
X119235666Y-148854888D01*
X119358685Y-148906841D01*
X119455264Y-148965562D01*
X119531563Y-149033174D01*
X119593741Y-149111797D01*
X119596934Y-149116594D01*
X119670954Y-149274072D01*
X119712855Y-149461882D01*
X119720067Y-149660331D01*
X119690022Y-149849722D01*
X119686763Y-149860827D01*
X119616224Y-150002507D01*
X119501389Y-150134628D01*
X119355461Y-150244720D01*
X119191645Y-150320317D01*
X119168693Y-150325358D01*
X119085707Y-150333616D01*
X118970106Y-150338009D01*
X118839492Y-150337668D01*
X118820365Y-150337155D01*
X118597128Y-150315333D01*
X118408337Y-150260568D01*
X118236926Y-150165955D01*
X118065830Y-150024588D01*
X117953941Y-149905503D01*
X117813078Y-149695821D01*
X117714583Y-149455399D01*
X117656628Y-149179279D01*
X117637385Y-148862503D01*
X117636951Y-148566461D01*
X118289550Y-148662437D01*
G37*
G36*
X106718807Y-147062189D02*
G01*
X106988561Y-147099245D01*
X107225296Y-147180136D01*
X107436419Y-147307941D01*
X107629333Y-147485737D01*
X107756989Y-147647356D01*
X107884280Y-147879366D01*
X107979211Y-148152820D01*
X107983856Y-148170931D01*
X108010742Y-148329218D01*
X108026300Y-148523701D01*
X108030579Y-148735638D01*
X108023629Y-148946289D01*
X108005498Y-149136914D01*
X107976236Y-149288771D01*
X107883203Y-149549872D01*
X107743351Y-149798929D01*
X107566288Y-150005030D01*
X107353927Y-150165994D01*
X107108179Y-150279639D01*
X107003034Y-150308792D01*
X106789763Y-150340666D01*
X106558643Y-150348006D01*
X106332314Y-150330611D01*
X106133418Y-150288280D01*
X105975618Y-150224426D01*
X105808200Y-150128667D01*
X105658809Y-150016499D01*
X105547341Y-149901070D01*
X105448281Y-149748408D01*
X105347279Y-149539755D01*
X105270284Y-149317767D01*
X105249495Y-149220438D01*
X105228481Y-149045887D01*
X105217102Y-148842800D01*
X105215385Y-148628322D01*
X105223354Y-148419598D01*
X105241036Y-148233772D01*
X105268455Y-148087990D01*
X105275954Y-148060844D01*
X105379193Y-147782014D01*
X105517859Y-147546894D01*
X105690504Y-147357497D01*
X105895681Y-147215835D01*
X105959373Y-147183256D01*
X106103147Y-147121999D01*
X106245000Y-147083809D01*
X106404851Y-147064267D01*
X106602619Y-147058954D01*
X106718807Y-147062189D01*
G37*
G36*
X92194266Y-148586690D02*
G01*
X92268281Y-148592699D01*
X92387208Y-148606923D01*
X92539671Y-148627594D01*
X92714297Y-148652945D01*
X92899709Y-148681210D01*
X93084535Y-148710621D01*
X93257398Y-148739412D01*
X93406925Y-148765815D01*
X93521740Y-148788063D01*
X93590470Y-148804390D01*
X93768631Y-148869138D01*
X93940038Y-148965027D01*
X94065637Y-149085095D01*
X94151748Y-149235712D01*
X94204696Y-149423247D01*
X94218675Y-149552357D01*
X94200633Y-149756069D01*
X94136241Y-149943447D01*
X94030424Y-150105510D01*
X93888106Y-150233278D01*
X93714209Y-150317770D01*
X93683741Y-150324257D01*
X93593288Y-150333210D01*
X93471667Y-150337986D01*
X93336468Y-150337661D01*
X93277987Y-150336047D01*
X93147754Y-150328777D01*
X93050767Y-150314645D01*
X92968356Y-150290117D01*
X92881849Y-150251664D01*
X92697585Y-150144625D01*
X92524950Y-149996397D01*
X92378847Y-149807560D01*
X92362888Y-149782376D01*
X92268709Y-149604257D01*
X92201316Y-149411260D01*
X92156798Y-149189445D01*
X92131245Y-148924873D01*
X92111022Y-148586605D01*
X92188534Y-148586605D01*
X92194266Y-148586690D01*
G37*
G36*
X96799852Y-147057187D02*
G01*
X97033172Y-147077110D01*
X97232958Y-147131375D01*
X97414830Y-147225749D01*
X97594408Y-147365996D01*
X97662507Y-147435600D01*
X97779056Y-147592527D01*
X97883356Y-147777725D01*
X97967565Y-147974318D01*
X98023841Y-148165434D01*
X98044342Y-148334199D01*
X98044342Y-148410623D01*
X95668591Y-148410623D01*
X95668591Y-148309885D01*
X95674387Y-148232485D01*
X95690212Y-148120433D01*
X95712548Y-148000182D01*
X95727447Y-147934728D01*
X95815644Y-147670000D01*
X95938428Y-147451506D01*
X96094863Y-147280092D01*
X96284011Y-147156606D01*
X96504935Y-147081893D01*
X96756699Y-147056800D01*
X96799852Y-147057187D01*
G37*
G36*
X140392049Y-148739823D02*
G01*
X140392102Y-148801658D01*
X140392656Y-149450695D01*
X140392725Y-149532144D01*
X140393128Y-150267587D01*
X140393253Y-150947066D01*
X140393137Y-151416363D01*
X140393099Y-151571496D01*
X140392662Y-152141793D01*
X140391940Y-152658871D01*
X140390930Y-153123646D01*
X140389628Y-153537032D01*
X140388032Y-153899944D01*
X140386139Y-154213298D01*
X140385576Y-154281314D01*
X140383946Y-154478008D01*
X140381451Y-154694990D01*
X140378649Y-154865158D01*
X140377676Y-154904027D01*
X140375539Y-154989428D01*
X140372117Y-155068714D01*
X140368381Y-155103932D01*
X140311064Y-155230808D01*
X140201776Y-155360601D01*
X140061144Y-155453414D01*
X140054787Y-155455945D01*
X140044522Y-155458924D01*
X140030425Y-155461786D01*
X140011353Y-155464533D01*
X139986164Y-155467166D01*
X139953716Y-155469690D01*
X139912866Y-155472105D01*
X139862472Y-155474415D01*
X139801393Y-155476621D01*
X139728486Y-155478727D01*
X139642608Y-155480734D01*
X139542617Y-155482644D01*
X139427371Y-155484461D01*
X139295728Y-155486186D01*
X139146546Y-155487823D01*
X138978681Y-155489372D01*
X138790993Y-155490837D01*
X138582339Y-155492220D01*
X138351576Y-155493523D01*
X138097562Y-155494748D01*
X137819156Y-155495899D01*
X137515214Y-155496977D01*
X137184595Y-155497985D01*
X136826156Y-155498925D01*
X136438755Y-155499799D01*
X136021249Y-155500611D01*
X135572498Y-155501361D01*
X135091357Y-155502053D01*
X134576686Y-155502688D01*
X134027341Y-155503270D01*
X133442181Y-155503801D01*
X132820063Y-155504283D01*
X132159845Y-155504718D01*
X131460385Y-155505108D01*
X130720540Y-155505457D01*
X129939169Y-155505766D01*
X129115128Y-155506038D01*
X128247277Y-155506274D01*
X127334471Y-155506479D01*
X126375570Y-155506653D01*
X125369432Y-155506800D01*
X124314912Y-155506921D01*
X123210871Y-155507019D01*
X122056164Y-155507096D01*
X120849651Y-155507155D01*
X119590188Y-155507198D01*
X118276634Y-155507227D01*
X116907846Y-155507245D01*
X115482682Y-155507254D01*
X114000000Y-155507256D01*
X112780184Y-155507255D01*
X111344741Y-155507247D01*
X109965879Y-155507231D01*
X108642458Y-155507204D01*
X107373333Y-155507163D01*
X106157364Y-155507108D01*
X104993407Y-155507034D01*
X103880321Y-155506940D01*
X102816964Y-155506823D01*
X101802192Y-155506682D01*
X100834864Y-155506512D01*
X99913838Y-155506314D01*
X99037971Y-155506083D01*
X98206121Y-155505817D01*
X97417146Y-155505515D01*
X96669903Y-155505174D01*
X95963251Y-155504791D01*
X95296047Y-155504364D01*
X94667148Y-155503891D01*
X94075414Y-155503370D01*
X93519700Y-155502797D01*
X92998866Y-155502171D01*
X92511768Y-155501490D01*
X92057265Y-155500750D01*
X91634214Y-155499950D01*
X91241473Y-155499087D01*
X90877900Y-155498159D01*
X90542353Y-155497164D01*
X90233688Y-155496099D01*
X89950765Y-155494961D01*
X89692441Y-155493749D01*
X89457573Y-155492460D01*
X89245020Y-155491092D01*
X89053638Y-155489642D01*
X88882287Y-155488108D01*
X88729823Y-155486488D01*
X88595104Y-155484779D01*
X88476988Y-155482979D01*
X88374333Y-155481085D01*
X88285996Y-155479096D01*
X88210836Y-155477008D01*
X88147710Y-155474820D01*
X88095476Y-155472529D01*
X88052991Y-155470133D01*
X88019113Y-155467629D01*
X87992701Y-155465015D01*
X87972611Y-155462289D01*
X87957702Y-155459449D01*
X87946831Y-155456491D01*
X87938856Y-155453414D01*
X87817786Y-155377376D01*
X87702836Y-155252098D01*
X87631619Y-155103932D01*
X87628074Y-155071697D01*
X87624635Y-154994785D01*
X87624352Y-154983759D01*
X137581666Y-154983759D01*
X137591788Y-155006277D01*
X137620377Y-155025253D01*
X137701286Y-155068906D01*
X137816440Y-155125417D01*
X137953665Y-155189278D01*
X138100785Y-155254981D01*
X138245628Y-155317018D01*
X138376019Y-155369880D01*
X138479784Y-155408059D01*
X138496370Y-155413476D01*
X138676514Y-155456365D01*
X138863783Y-155476398D01*
X139038258Y-155472557D01*
X139180023Y-155443826D01*
X139271147Y-155402785D01*
X139399265Y-155306618D01*
X139496066Y-155184316D01*
X139557427Y-155046559D01*
X139579222Y-154904027D01*
X139557327Y-154767400D01*
X139487617Y-154647358D01*
X139440945Y-154599986D01*
X139346183Y-154533454D01*
X139225447Y-154484356D01*
X139067937Y-154448813D01*
X138862852Y-154422945D01*
X138813654Y-154417971D01*
X138635871Y-154397158D01*
X138450643Y-154372072D01*
X138290938Y-154347087D01*
X138221993Y-154335566D01*
X138115030Y-154319461D01*
X138039528Y-154310467D01*
X138008610Y-154310293D01*
X138006692Y-154312806D01*
X137980351Y-154350236D01*
X137928893Y-154424593D01*
X137858674Y-154526665D01*
X137776051Y-154647241D01*
X137688447Y-154777500D01*
X137626257Y-154876655D01*
X137591909Y-154942979D01*
X137581666Y-154983759D01*
X87624352Y-154983759D01*
X87621509Y-154872938D01*
X87618691Y-154705241D01*
X87616179Y-154490780D01*
X87613970Y-154228639D01*
X87612283Y-153954041D01*
X128280266Y-153954041D01*
X128421368Y-154076514D01*
X128687953Y-154283407D01*
X129032581Y-154496736D01*
X129402531Y-154675976D01*
X129782905Y-154814035D01*
X130158806Y-154903818D01*
X130208795Y-154911920D01*
X130355617Y-154931269D01*
X130493740Y-154943869D01*
X130598760Y-154947306D01*
X130622452Y-154946636D01*
X130760202Y-154939854D01*
X130907650Y-154928718D01*
X131051141Y-154914693D01*
X131177016Y-154899241D01*
X131271619Y-154883824D01*
X131321294Y-154869907D01*
X131324888Y-154855837D01*
X131301549Y-154819340D01*
X131244923Y-154758613D01*
X131151871Y-154670564D01*
X131019251Y-154552105D01*
X130843924Y-154400143D01*
X130324272Y-153954041D01*
X128280266Y-153954041D01*
X87612283Y-153954041D01*
X87612061Y-153917903D01*
X87611867Y-153874456D01*
X130457856Y-153874456D01*
X131003635Y-154339537D01*
X131039997Y-154370442D01*
X131217804Y-154518910D01*
X131367540Y-154639294D01*
X131485418Y-154728700D01*
X131567650Y-154784235D01*
X131610446Y-154803006D01*
X131611160Y-154802984D01*
X131681821Y-154790078D01*
X131791290Y-154757988D01*
X131925276Y-154711896D01*
X132069485Y-154656989D01*
X132209627Y-154598451D01*
X132331409Y-154541467D01*
X132344446Y-154534795D01*
X132468066Y-154466190D01*
X132607676Y-154381693D01*
X132735495Y-154298040D01*
X132827639Y-154228602D01*
X132937194Y-154135830D01*
X133051812Y-154030872D01*
X133163206Y-153922098D01*
X133263087Y-153817877D01*
X133343167Y-153726577D01*
X133395157Y-153656566D01*
X133410771Y-153616214D01*
X133409148Y-153612834D01*
X133378256Y-153574222D01*
X133312500Y-153500861D01*
X133217133Y-153398347D01*
X133154457Y-153332349D01*
X134788098Y-153332349D01*
X135181195Y-153595443D01*
X135212733Y-153616214D01*
X135451714Y-153773609D01*
X135790206Y-153989791D01*
X136136624Y-154204528D01*
X136477213Y-154409436D01*
X136798218Y-154596133D01*
X137085885Y-154756236D01*
X137152091Y-154791179D01*
X137257878Y-154843351D01*
X137286455Y-154855837D01*
X137340042Y-154879250D01*
X137384845Y-154892609D01*
X137386167Y-154892485D01*
X137419933Y-154866557D01*
X137476340Y-154803373D01*
X137547121Y-154714349D01*
X137624011Y-154610906D01*
X137698745Y-154504462D01*
X137763056Y-154406436D01*
X137808678Y-154328247D01*
X137827346Y-154281314D01*
X137824740Y-154272996D01*
X137781116Y-154240135D01*
X137688339Y-154196860D01*
X137552194Y-154146016D01*
X137482764Y-154121479D01*
X137150992Y-153989620D01*
X136787817Y-153823858D01*
X136402801Y-153628981D01*
X136005506Y-153409780D01*
X135605494Y-153171042D01*
X135463890Y-153086201D01*
X135341626Y-153019589D01*
X135254746Y-152980430D01*
X135209536Y-152971886D01*
X135198859Y-152977143D01*
X135144592Y-153015513D01*
X135065576Y-153080149D01*
X134974938Y-153160498D01*
X134788098Y-153332349D01*
X133154457Y-153332349D01*
X133097407Y-153272276D01*
X132958576Y-153128242D01*
X132805891Y-152971842D01*
X132738930Y-152903724D01*
X132579133Y-152741977D01*
X132453691Y-152616887D01*
X132357927Y-152524362D01*
X132287166Y-152460308D01*
X132236731Y-152420630D01*
X132201946Y-152401236D01*
X132178136Y-152398031D01*
X132160625Y-152406921D01*
X132147683Y-152417931D01*
X132092262Y-152465018D01*
X132000987Y-152542533D01*
X131879634Y-152645573D01*
X131733975Y-152769236D01*
X131569786Y-152908620D01*
X131392841Y-153058823D01*
X131307205Y-153131590D01*
X131130448Y-153282270D01*
X130966436Y-153422716D01*
X130821580Y-153547401D01*
X130702290Y-153650798D01*
X130614977Y-153727380D01*
X130566053Y-153771619D01*
X130457856Y-153874456D01*
X87611867Y-153874456D01*
X87610449Y-153557657D01*
X87610074Y-153440762D01*
X127815024Y-153440762D01*
X127815916Y-153445006D01*
X127841912Y-153486650D01*
X127896638Y-153555390D01*
X127970302Y-153638741D01*
X128126031Y-153807390D01*
X130297513Y-153807390D01*
X131189807Y-153043140D01*
X131256762Y-152985741D01*
X131447643Y-152821507D01*
X131622643Y-152670071D01*
X131776967Y-152535640D01*
X131905819Y-152422420D01*
X132004404Y-152334619D01*
X132067924Y-152276443D01*
X132091586Y-152252100D01*
X132087496Y-152227489D01*
X132048941Y-152161685D01*
X131976469Y-152065949D01*
X131875479Y-151946224D01*
X131751372Y-151808452D01*
X131609545Y-151658575D01*
X131566534Y-151615036D01*
X132801670Y-151615036D01*
X132816484Y-151641876D01*
X132870936Y-151704000D01*
X132959963Y-151794101D01*
X133077822Y-151907044D01*
X133218765Y-152037690D01*
X133377049Y-152180904D01*
X133457335Y-152252100D01*
X133546926Y-152331548D01*
X133722653Y-152484487D01*
X133898484Y-152634583D01*
X134068673Y-152776699D01*
X134227476Y-152905700D01*
X134369145Y-153016447D01*
X134468688Y-153090773D01*
X134563081Y-153158084D01*
X134631969Y-153203619D01*
X134664975Y-153220229D01*
X134665660Y-153220174D01*
X134700418Y-153200403D01*
X134764704Y-153152404D01*
X134845874Y-153086877D01*
X134931284Y-153014522D01*
X135008290Y-152946040D01*
X135064248Y-152892131D01*
X135086514Y-152863494D01*
X135078426Y-152852588D01*
X135031482Y-152814056D01*
X134951905Y-152756835D01*
X134850307Y-152688772D01*
X134837518Y-152680473D01*
X134732801Y-152611957D01*
X134672804Y-152565112D01*
X134659881Y-152532451D01*
X134696392Y-152506486D01*
X134784691Y-152479731D01*
X134927136Y-152444699D01*
X135165430Y-152372778D01*
X135456025Y-152253629D01*
X135735926Y-152106529D01*
X135754552Y-152095351D01*
X135872244Y-152019516D01*
X136004044Y-151927677D01*
X136139465Y-151827921D01*
X136268017Y-151728335D01*
X136379214Y-151637009D01*
X136462566Y-151562028D01*
X136507587Y-151511481D01*
X136515445Y-151495533D01*
X136522940Y-151464040D01*
X136525953Y-151416363D01*
X136524004Y-151346510D01*
X136516614Y-151248487D01*
X136503304Y-151116302D01*
X136483595Y-150943961D01*
X136457006Y-150725472D01*
X136423059Y-150454841D01*
X136399846Y-150273442D01*
X136370819Y-150052581D01*
X136344089Y-149855735D01*
X136320629Y-149689746D01*
X136301411Y-149561455D01*
X136287407Y-149477703D01*
X136279590Y-149445332D01*
X136268165Y-149445551D01*
X136207035Y-149457141D01*
X136098597Y-149481712D01*
X135948771Y-149517802D01*
X135763480Y-149563947D01*
X135548645Y-149618685D01*
X135310188Y-149680552D01*
X135054032Y-149748086D01*
X134241077Y-149964064D01*
X133846520Y-150068886D01*
X133324584Y-150830921D01*
X133258692Y-150927288D01*
X133135872Y-151107846D01*
X133026394Y-151270005D01*
X132934246Y-151407785D01*
X132863417Y-151515204D01*
X132817895Y-151586281D01*
X132801670Y-151615036D01*
X131566534Y-151615036D01*
X131455400Y-151502536D01*
X131294336Y-151346278D01*
X131131751Y-151195744D01*
X131050431Y-151122721D01*
X130911951Y-150999907D01*
X130790356Y-150893997D01*
X130692256Y-150810652D01*
X130624259Y-150755534D01*
X130592977Y-150734304D01*
X130570591Y-150737489D01*
X130497051Y-150752810D01*
X130379662Y-150779116D01*
X130225637Y-150814660D01*
X130042185Y-150857698D01*
X129836517Y-150906485D01*
X129615844Y-150959278D01*
X129387376Y-151014331D01*
X129158324Y-151069900D01*
X128935898Y-151124240D01*
X128727308Y-151175606D01*
X128539766Y-151222254D01*
X128380482Y-151262440D01*
X128256666Y-151294418D01*
X128231046Y-151301373D01*
X128175528Y-151316444D01*
X128144280Y-151326774D01*
X128142077Y-151335671D01*
X128131815Y-151392695D01*
X128114621Y-151495652D01*
X128091724Y-151636650D01*
X128064352Y-151807795D01*
X128033735Y-152001193D01*
X128001103Y-152208951D01*
X127967685Y-152423175D01*
X127934711Y-152635972D01*
X127903409Y-152839450D01*
X127875010Y-153025713D01*
X127850742Y-153186869D01*
X127831836Y-153315025D01*
X127819520Y-153402287D01*
X127815024Y-153440762D01*
X87610074Y-153440762D01*
X87609132Y-153146987D01*
X87608106Y-152684977D01*
X87607369Y-152170712D01*
X87606917Y-151603277D01*
X87606748Y-150981758D01*
X87606858Y-150305239D01*
X87607246Y-149572804D01*
X87607907Y-148783540D01*
X87608840Y-147936531D01*
X87611947Y-145385111D01*
X89010623Y-145385111D01*
X89105947Y-145336067D01*
X89129471Y-145325398D01*
X89250174Y-145296648D01*
X89421247Y-145287569D01*
X89544466Y-145293731D01*
X89714066Y-145332167D01*
X89847626Y-145410854D01*
X89953626Y-145535607D01*
X90040544Y-145712240D01*
X90052103Y-145743171D01*
X90074438Y-145817954D01*
X90090789Y-145904263D01*
X90102592Y-146013879D01*
X90111283Y-146158588D01*
X90118299Y-146350173D01*
X90132791Y-146826789D01*
X89127944Y-146826789D01*
X89127944Y-147149422D01*
X90125173Y-147149422D01*
X90125173Y-150581062D01*
X90477136Y-150581062D01*
X91796998Y-150581062D01*
X92119630Y-150581062D01*
X92121355Y-150207101D01*
X92122906Y-150058513D01*
X92126611Y-149954041D01*
X92133193Y-149895359D01*
X92143409Y-149875892D01*
X92158018Y-149889068D01*
X92324569Y-150121641D01*
X92536571Y-150338766D01*
X92770155Y-150502298D01*
X93024281Y-150611372D01*
X93181094Y-150647827D01*
X93449914Y-150667405D01*
X93707554Y-150645809D01*
X93951589Y-150578056D01*
X94159408Y-150464217D01*
X94330924Y-150304340D01*
X94466051Y-150098474D01*
X94471856Y-150087088D01*
X94517136Y-149993771D01*
X94545556Y-149917450D01*
X94561021Y-149839215D01*
X94567436Y-149740154D01*
X94568707Y-149601357D01*
X94567981Y-149498803D01*
X94562778Y-149385324D01*
X94549794Y-149299869D01*
X94525831Y-149224237D01*
X94487692Y-149140227D01*
X94360924Y-148944683D01*
X94180569Y-148771077D01*
X94120511Y-148733256D01*
X95287298Y-148733256D01*
X98082280Y-148733256D01*
X98063477Y-148955690D01*
X98058010Y-149013559D01*
X98004797Y-149326383D01*
X97914314Y-149596744D01*
X97911738Y-149601357D01*
X97785043Y-149828271D01*
X97615463Y-150024588D01*
X97541142Y-150091340D01*
X97386122Y-150203312D01*
X97223766Y-150278005D01*
X97037930Y-150321779D01*
X96812471Y-150340996D01*
X96747667Y-150342503D01*
X96454613Y-150324749D01*
X96182347Y-150262759D01*
X95917985Y-150152655D01*
X95648641Y-149990557D01*
X95603930Y-149960645D01*
X95541110Y-149921707D01*
X95509323Y-149906466D01*
X95501819Y-149925094D01*
X95495170Y-149988131D01*
X95492610Y-150080324D01*
X95492610Y-150254182D01*
X95661259Y-150356024D01*
X95805896Y-150438350D01*
X95951886Y-150506563D01*
X96108330Y-150561268D01*
X96299192Y-150612084D01*
X96524035Y-150650862D01*
X96780485Y-150665989D01*
X97031907Y-150654156D01*
X97254806Y-150615282D01*
X97357084Y-150581062D01*
X99364203Y-150581062D01*
X99716166Y-150581062D01*
X99716166Y-148706190D01*
X100641869Y-148706190D01*
X100649735Y-148949586D01*
X100671824Y-149173014D01*
X100708146Y-149358004D01*
X100708231Y-149358315D01*
X100822165Y-149675849D01*
X100980693Y-149957144D01*
X101182445Y-150199769D01*
X101291086Y-150301479D01*
X101473602Y-150437460D01*
X101670862Y-150536671D01*
X101809902Y-150581062D01*
X101903776Y-150611033D01*
X101935798Y-150618902D01*
X102160562Y-150655930D01*
X102411909Y-150665058D01*
X102458909Y-150664339D01*
X102603268Y-150660628D01*
X102710899Y-150653604D01*
X102799108Y-150641009D01*
X102885203Y-150620583D01*
X102986489Y-150590068D01*
X103039856Y-150572197D01*
X103317584Y-150444000D01*
X103562221Y-150268401D01*
X103771441Y-150047770D01*
X103942919Y-149784478D01*
X104074330Y-149480896D01*
X104091214Y-149430239D01*
X104119261Y-149333412D01*
X104138861Y-149237536D01*
X104152075Y-149127707D01*
X104160965Y-148989023D01*
X104167593Y-148806582D01*
X104169384Y-148742019D01*
X104171409Y-148614223D01*
X104861870Y-148614223D01*
X104862923Y-148829573D01*
X104872165Y-149034425D01*
X104889605Y-149212918D01*
X104915253Y-149349191D01*
X105019923Y-149643565D01*
X105172893Y-149924661D01*
X105364427Y-150168440D01*
X105439261Y-150243575D01*
X105640834Y-150404841D01*
X105865152Y-150524371D01*
X106127643Y-150611112D01*
X106397310Y-150657894D01*
X106689602Y-150667049D01*
X106980978Y-150638176D01*
X107221183Y-150581062D01*
X109244342Y-150581062D01*
X109600462Y-150581062D01*
X109600462Y-149351771D01*
X109600470Y-149302664D01*
X109601056Y-148983866D01*
X109602685Y-148717256D01*
X109605527Y-148497159D01*
X109609749Y-148317903D01*
X109615522Y-148173814D01*
X109623013Y-148059218D01*
X109632393Y-147968442D01*
X109643830Y-147895814D01*
X109651958Y-147855464D01*
X109725598Y-147604178D01*
X109830516Y-147402019D01*
X109968289Y-147247593D01*
X110140494Y-147139510D01*
X110348709Y-147076376D01*
X110594511Y-147056800D01*
X110736310Y-147065282D01*
X110984702Y-147121813D01*
X111207293Y-147230483D01*
X111402698Y-147390292D01*
X111569533Y-147600240D01*
X111706413Y-147859328D01*
X111785566Y-148043995D01*
X111794602Y-149312528D01*
X111803639Y-150581062D01*
X112152194Y-150581062D01*
X113262587Y-150581062D01*
X113618707Y-150581062D01*
X113618707Y-149351771D01*
X113618715Y-149302664D01*
X113619301Y-148983866D01*
X113620930Y-148717256D01*
X113623771Y-148497159D01*
X113627994Y-148317903D01*
X113633766Y-148173814D01*
X113641258Y-148059218D01*
X113650638Y-147968442D01*
X113662075Y-147895814D01*
X113670203Y-147855464D01*
X113743843Y-147604178D01*
X113848761Y-147402019D01*
X113986534Y-147247593D01*
X114158739Y-147139510D01*
X114366954Y-147076376D01*
X114612756Y-147056800D01*
X114754555Y-147065282D01*
X115002947Y-147121813D01*
X115225538Y-147230483D01*
X115420943Y-147390292D01*
X115587778Y-147600240D01*
X115724657Y-147859328D01*
X115803810Y-148043995D01*
X115812847Y-149312528D01*
X115821883Y-150581062D01*
X116170439Y-150581062D01*
X117281005Y-150581062D01*
X117636951Y-150581062D01*
X117636951Y-149838711D01*
X117749051Y-150012151D01*
X117893035Y-150199507D01*
X118108013Y-150392400D01*
X118366492Y-150546107D01*
X118453380Y-150586296D01*
X118543653Y-150620815D01*
X118631159Y-150641325D01*
X118736373Y-150652298D01*
X118879771Y-150658207D01*
X119091462Y-150656469D01*
X119295531Y-150631221D01*
X119455914Y-150581062D01*
X120775289Y-150581062D01*
X123239030Y-150581062D01*
X123239030Y-149996486D01*
X126351256Y-149996486D01*
X126358564Y-150066623D01*
X126377056Y-150171158D01*
X126407717Y-150317602D01*
X126451534Y-150513465D01*
X126468399Y-150581062D01*
X126553737Y-150923097D01*
X126736338Y-151509916D01*
X126952746Y-152054298D01*
X127204852Y-152560815D01*
X127494547Y-153034036D01*
X127584089Y-153162198D01*
X127647679Y-153242312D01*
X127685025Y-153273524D01*
X127697228Y-153257048D01*
X127699244Y-153239533D01*
X127708980Y-153169722D01*
X127725854Y-153053657D01*
X127748834Y-152898310D01*
X127776886Y-152710651D01*
X127808976Y-152497651D01*
X127844073Y-152266281D01*
X127990918Y-151301373D01*
X127924731Y-151237015D01*
X127919776Y-151232217D01*
X127843280Y-151160961D01*
X127737152Y-151065679D01*
X127607545Y-150951586D01*
X127460613Y-150823895D01*
X127302512Y-150687821D01*
X127139394Y-150548578D01*
X126977414Y-150411381D01*
X126822727Y-150281443D01*
X126681487Y-150163981D01*
X126559848Y-150064207D01*
X126463964Y-149987337D01*
X126399989Y-149938584D01*
X126374078Y-149923164D01*
X126366249Y-149929365D01*
X126354146Y-149953237D01*
X126351256Y-149996486D01*
X123239030Y-149996486D01*
X123239030Y-149790555D01*
X126501232Y-149790555D01*
X126520142Y-149809770D01*
X126578930Y-149863552D01*
X126672560Y-149947110D01*
X126795954Y-150055965D01*
X126944030Y-150185636D01*
X127111708Y-150331646D01*
X127293910Y-150489514D01*
X127456403Y-150628954D01*
X127629464Y-150775116D01*
X127785378Y-150904329D01*
X127918757Y-151012242D01*
X128024215Y-151094504D01*
X128096366Y-151146765D01*
X128129822Y-151164673D01*
X128143610Y-151162795D01*
X128211143Y-151149105D01*
X128323371Y-151123787D01*
X128473028Y-151088654D01*
X128652848Y-151045521D01*
X128855566Y-150996202D01*
X129073917Y-150942511D01*
X129300636Y-150886262D01*
X129528456Y-150829269D01*
X129750113Y-150773348D01*
X129958342Y-150720311D01*
X130145876Y-150671973D01*
X130305450Y-150630149D01*
X130429799Y-150596653D01*
X130511657Y-150573298D01*
X130543760Y-150561899D01*
X130555283Y-150533221D01*
X130705940Y-150533221D01*
X130709816Y-150579090D01*
X130734106Y-150623893D01*
X130786420Y-150681199D01*
X130874368Y-150764575D01*
X130926675Y-150812954D01*
X131024613Y-150899770D01*
X131083726Y-150944059D01*
X131104775Y-150944916D01*
X131088519Y-150901434D01*
X131035720Y-150812707D01*
X130947136Y-150677829D01*
X130734536Y-150361085D01*
X130713865Y-150478406D01*
X130705940Y-150533221D01*
X130555283Y-150533221D01*
X130558018Y-150526414D01*
X130574245Y-150448246D01*
X130587685Y-150346420D01*
X130606845Y-150155773D01*
X130406351Y-149818475D01*
X130364809Y-149747032D01*
X130280844Y-149597294D01*
X130181197Y-149414792D01*
X130147594Y-149352051D01*
X130864750Y-149352051D01*
X130876697Y-149387043D01*
X130923814Y-149466266D01*
X131002709Y-149579533D01*
X131109113Y-149721580D01*
X131238760Y-149887145D01*
X131387380Y-150070964D01*
X131457760Y-150155773D01*
X131550706Y-150267775D01*
X131724471Y-150472315D01*
X131904406Y-150679320D01*
X132086244Y-150883528D01*
X132142413Y-150944916D01*
X132265716Y-151079676D01*
X132379587Y-151200940D01*
X132486522Y-151312214D01*
X132574559Y-151401090D01*
X132636798Y-151460607D01*
X132666341Y-151483806D01*
X132669513Y-151482895D01*
X132700923Y-151450836D01*
X132758357Y-151378600D01*
X132836907Y-151273329D01*
X132931663Y-151142164D01*
X133037716Y-150992247D01*
X133150156Y-150830720D01*
X133264075Y-150664723D01*
X133374562Y-150501397D01*
X133476709Y-150347885D01*
X133565607Y-150211327D01*
X133636345Y-150098864D01*
X133684015Y-150017639D01*
X133703708Y-149974793D01*
X133704402Y-149964064D01*
X133701874Y-149900266D01*
X133693854Y-149789817D01*
X133681125Y-149640221D01*
X133664475Y-149458982D01*
X133644688Y-149253603D01*
X133622549Y-149031588D01*
X133598844Y-148800441D01*
X133574358Y-148567665D01*
X133549877Y-148340765D01*
X133526187Y-148127244D01*
X133504072Y-147934606D01*
X133484318Y-147770355D01*
X133467710Y-147641994D01*
X133455035Y-147557028D01*
X133447076Y-147522960D01*
X133430018Y-147521970D01*
X133362254Y-147532072D01*
X133250027Y-147554206D01*
X133100568Y-147586579D01*
X132921108Y-147627398D01*
X132718881Y-147674870D01*
X132501116Y-147727201D01*
X132275046Y-147782598D01*
X132047903Y-147839269D01*
X131826919Y-147895419D01*
X131644515Y-147942724D01*
X131619324Y-147949257D01*
X131432351Y-147998988D01*
X131324629Y-148028661D01*
X131273231Y-148042819D01*
X131149196Y-148078958D01*
X131121504Y-148087990D01*
X131067478Y-148105611D01*
X131035308Y-148120984D01*
X131032379Y-148129923D01*
X131020681Y-148188357D01*
X131003860Y-148289818D01*
X130983415Y-148423487D01*
X130960845Y-148578542D01*
X130937648Y-148744164D01*
X130915326Y-148909532D01*
X130895375Y-149063825D01*
X130879296Y-149196223D01*
X130868588Y-149295905D01*
X130864750Y-149352051D01*
X130147594Y-149352051D01*
X130072397Y-149211648D01*
X129960971Y-148999983D01*
X129853448Y-148791916D01*
X129506033Y-148112422D01*
X129984988Y-148112422D01*
X129985369Y-148114169D01*
X130005688Y-148151598D01*
X130053356Y-148228501D01*
X130123375Y-148337110D01*
X130210746Y-148469656D01*
X130310472Y-148618369D01*
X130331422Y-148649339D01*
X130460359Y-148838524D01*
X130560987Y-148982883D01*
X130636394Y-149086300D01*
X130689668Y-149152660D01*
X130723897Y-149185849D01*
X130742170Y-149189751D01*
X130747575Y-149168252D01*
X130748346Y-149154845D01*
X130755212Y-149087993D01*
X130768046Y-148979721D01*
X130785449Y-148841578D01*
X130806025Y-148685118D01*
X130814768Y-148619043D01*
X130834389Y-148463653D01*
X130850208Y-148328342D01*
X130860787Y-148225784D01*
X130864686Y-148168648D01*
X130864896Y-148087990D01*
X130424942Y-148087990D01*
X130346101Y-148088386D01*
X130203321Y-148091339D01*
X130088783Y-148096704D01*
X130012627Y-148103920D01*
X129984988Y-148112422D01*
X129506033Y-148112422D01*
X129501039Y-148102655D01*
X128402989Y-148086703D01*
X128013446Y-148429827D01*
X127959852Y-148477037D01*
X127806631Y-148612030D01*
X127627295Y-148770054D01*
X127434434Y-148940013D01*
X127240641Y-149110810D01*
X127058507Y-149271351D01*
X126923171Y-149391468D01*
X126784776Y-149516194D01*
X126667638Y-149623820D01*
X126577503Y-149708992D01*
X126520119Y-149766355D01*
X126501232Y-149790555D01*
X123239030Y-149790555D01*
X123239030Y-147293348D01*
X126177326Y-147293348D01*
X126178413Y-147545515D01*
X126181362Y-147812507D01*
X126186010Y-148085140D01*
X126192193Y-148354227D01*
X126199749Y-148610584D01*
X126208513Y-148845025D01*
X126218323Y-149048364D01*
X126229016Y-149211417D01*
X126240429Y-149324997D01*
X126255192Y-149427163D01*
X126274259Y-149543645D01*
X126290904Y-149628975D01*
X126302684Y-149669627D01*
X126310401Y-149680136D01*
X126342435Y-149699981D01*
X126361363Y-149686944D01*
X126419413Y-149639187D01*
X126510697Y-149561063D01*
X126629695Y-149457509D01*
X126770889Y-149333464D01*
X126928759Y-149193864D01*
X127097786Y-149043648D01*
X127272452Y-148887753D01*
X127447238Y-148731116D01*
X127616625Y-148578676D01*
X127775094Y-148435370D01*
X127917126Y-148306135D01*
X128037202Y-148195909D01*
X128129804Y-148109629D01*
X128189412Y-148052234D01*
X128210508Y-148028661D01*
X128204086Y-148020377D01*
X128160349Y-147977852D01*
X128079146Y-147903451D01*
X127965071Y-147801250D01*
X127822719Y-147675326D01*
X127656683Y-147529753D01*
X127471559Y-147368609D01*
X127271940Y-147195970D01*
X127062288Y-147015948D01*
X126831760Y-146820295D01*
X126642450Y-146662664D01*
X126493222Y-146542144D01*
X126382945Y-146457825D01*
X126310486Y-146408795D01*
X126274711Y-146394143D01*
X126268058Y-146395179D01*
X126239924Y-146409136D01*
X126220664Y-146446030D01*
X126206251Y-146517740D01*
X126192657Y-146636143D01*
X126186866Y-146717657D01*
X126181389Y-146870234D01*
X126178263Y-147065192D01*
X126177326Y-147293348D01*
X123239030Y-147293348D01*
X123239030Y-146330762D01*
X126501535Y-146330762D01*
X126507733Y-146337505D01*
X126551334Y-146377544D01*
X126632611Y-146449525D01*
X126746878Y-146549378D01*
X126889453Y-146673035D01*
X127055650Y-146816426D01*
X127240785Y-146975482D01*
X127440174Y-147146135D01*
X128370996Y-147941339D01*
X128899355Y-147941339D01*
X129057119Y-147940820D01*
X129205377Y-147939229D01*
X129322729Y-147936763D01*
X129399926Y-147933620D01*
X129427713Y-147929998D01*
X129427439Y-147928743D01*
X129413822Y-147891466D01*
X129382070Y-147809546D01*
X129335496Y-147691396D01*
X129277413Y-147545428D01*
X129211134Y-147380056D01*
X129185874Y-147316723D01*
X129106994Y-147113158D01*
X129025493Y-146895185D01*
X128943692Y-146669736D01*
X128863917Y-146443744D01*
X128788489Y-146224143D01*
X128719733Y-146017864D01*
X128659970Y-145831842D01*
X128611525Y-145673008D01*
X128576721Y-145548296D01*
X128557881Y-145464639D01*
X128557327Y-145428969D01*
X128568012Y-145441525D01*
X128597886Y-145497621D01*
X128641266Y-145588768D01*
X128692960Y-145704422D01*
X128749658Y-145829857D01*
X128839372Y-146018407D01*
X128947231Y-146237709D01*
X129067502Y-146476610D01*
X129194452Y-146723956D01*
X129322347Y-146968592D01*
X129445453Y-147199366D01*
X129558037Y-147405124D01*
X129654365Y-147574711D01*
X129859873Y-147926674D01*
X130362384Y-147934699D01*
X130864896Y-147942724D01*
X130863535Y-147861373D01*
X130861581Y-147834094D01*
X130853052Y-147750389D01*
X130838565Y-147621107D01*
X130818996Y-147453711D01*
X130795224Y-147255662D01*
X130768123Y-147034424D01*
X130738570Y-146797459D01*
X130615728Y-145820946D01*
X130767749Y-145820946D01*
X130774300Y-145902921D01*
X130787038Y-146030084D01*
X130805223Y-146195724D01*
X130828118Y-146393127D01*
X130854982Y-146615583D01*
X130885079Y-146856379D01*
X130914117Y-147081838D01*
X130943728Y-147305123D01*
X130970918Y-147503504D01*
X130994735Y-147670317D01*
X131014227Y-147798900D01*
X131028440Y-147882591D01*
X131036422Y-147914725D01*
X131060841Y-147912074D01*
X131135840Y-147897156D01*
X131254248Y-147871251D01*
X131408904Y-147836091D01*
X131592648Y-147793408D01*
X131798318Y-147744932D01*
X132018754Y-147692396D01*
X132246793Y-147637530D01*
X132475276Y-147582067D01*
X132697040Y-147527739D01*
X132904925Y-147476275D01*
X133091771Y-147429409D01*
X133111710Y-147424314D01*
X133585888Y-147424314D01*
X133706966Y-148555402D01*
X133711339Y-148596229D01*
X133738702Y-148850270D01*
X133764620Y-149088635D01*
X133788303Y-149304214D01*
X133808962Y-149489897D01*
X133825806Y-149638575D01*
X133838046Y-149743138D01*
X133844891Y-149796478D01*
X133848131Y-149815521D01*
X133872031Y-149884312D01*
X133910488Y-149903994D01*
X133919263Y-149902814D01*
X133979165Y-149889761D01*
X134084523Y-149863935D01*
X134228038Y-149827311D01*
X134402410Y-149781866D01*
X134600339Y-149729578D01*
X134814527Y-149672423D01*
X135037673Y-149612377D01*
X135262478Y-149551418D01*
X135481644Y-149491523D01*
X135652149Y-149444515D01*
X136437895Y-149444515D01*
X136438857Y-149456526D01*
X136445886Y-149520388D01*
X136458981Y-149631447D01*
X136477256Y-149782406D01*
X136499824Y-149965968D01*
X136525796Y-150174834D01*
X136554286Y-150401706D01*
X136569554Y-150522049D01*
X136597441Y-150738279D01*
X136622945Y-150931518D01*
X136645102Y-151094720D01*
X136662948Y-151220840D01*
X136675518Y-151302834D01*
X136681847Y-151333656D01*
X136682225Y-151333919D01*
X136706797Y-151316967D01*
X136757330Y-151265595D01*
X136823377Y-151190379D01*
X136881854Y-151119404D01*
X137136037Y-150771742D01*
X137348289Y-150412604D01*
X137513745Y-150051036D01*
X137627536Y-149696083D01*
X137650535Y-149604111D01*
X137673640Y-149513648D01*
X137688145Y-149459180D01*
X137689922Y-149450695D01*
X137685889Y-149435821D01*
X137665419Y-149424840D01*
X137621476Y-149417165D01*
X137547021Y-149412214D01*
X137435019Y-149409401D01*
X137278431Y-149408142D01*
X137070221Y-149407852D01*
X136869837Y-149408488D01*
X136699128Y-149410871D01*
X136576253Y-149415336D01*
X136495539Y-149422212D01*
X136451311Y-149431829D01*
X136437895Y-149444515D01*
X135652149Y-149444515D01*
X135687869Y-149434667D01*
X135873855Y-149382828D01*
X136032303Y-149337983D01*
X136155913Y-149302108D01*
X136237385Y-149277180D01*
X136269420Y-149265176D01*
X136271395Y-149259286D01*
X136277185Y-149228965D01*
X136437644Y-149228965D01*
X136440320Y-149231909D01*
X136483760Y-149240710D01*
X136572422Y-149248132D01*
X136696021Y-149254092D01*
X136844268Y-149258507D01*
X137006875Y-149261295D01*
X137173556Y-149262373D01*
X137334022Y-149261657D01*
X137477986Y-149259065D01*
X137595160Y-149254514D01*
X137675257Y-149247921D01*
X137707990Y-149239203D01*
X137708466Y-149238254D01*
X137717544Y-149196596D01*
X137728990Y-149114403D01*
X137740444Y-149008445D01*
X137747767Y-148801658D01*
X137733046Y-148537425D01*
X137696828Y-148250555D01*
X137641621Y-147956685D01*
X137569930Y-147671456D01*
X137484264Y-147410504D01*
X137430434Y-147272515D01*
X137357830Y-147100643D01*
X137289340Y-146953735D01*
X137228783Y-146839392D01*
X137179979Y-146765214D01*
X137146745Y-146738799D01*
X137110317Y-146743530D01*
X137029654Y-146760950D01*
X136930408Y-146786783D01*
X136830155Y-146819844D01*
X136821256Y-146825049D01*
X136770328Y-146854836D01*
X136746191Y-146896772D01*
X136739933Y-146935911D01*
X136727073Y-147025720D01*
X136708783Y-147157805D01*
X136686083Y-147324444D01*
X136659996Y-147517912D01*
X136631544Y-147730486D01*
X136601749Y-147954441D01*
X136571632Y-148182054D01*
X136542215Y-148405601D01*
X136514521Y-148617358D01*
X136489570Y-148809602D01*
X136468385Y-148974608D01*
X136451988Y-149104653D01*
X136441401Y-149192014D01*
X136437644Y-149228965D01*
X136277185Y-149228965D01*
X136281389Y-149206946D01*
X136297739Y-149106817D01*
X136319403Y-148966303D01*
X136345335Y-148792807D01*
X136374492Y-148593733D01*
X136405828Y-148376486D01*
X136438300Y-148148469D01*
X136470863Y-147917085D01*
X136502473Y-147689738D01*
X136532084Y-147473832D01*
X136558654Y-147276772D01*
X136581138Y-147105959D01*
X136598490Y-146968799D01*
X136609668Y-146872694D01*
X136613626Y-146825049D01*
X136604423Y-146813038D01*
X136557899Y-146766131D01*
X136477476Y-146689660D01*
X136369188Y-146589260D01*
X136239071Y-146470565D01*
X136093161Y-146339209D01*
X136041890Y-146293322D01*
X135871356Y-146140498D01*
X135699515Y-145986242D01*
X135537633Y-145840678D01*
X135396974Y-145713934D01*
X135288804Y-145616136D01*
X135004912Y-145358715D01*
X134295400Y-146391515D01*
X133585888Y-147424314D01*
X133111710Y-147424314D01*
X133250414Y-147388871D01*
X133373696Y-147356393D01*
X133454454Y-147333706D01*
X133485527Y-147322543D01*
X133487991Y-147319384D01*
X133523357Y-147270373D01*
X133584890Y-147181920D01*
X133668367Y-147060309D01*
X133769563Y-146911823D01*
X133884256Y-146742744D01*
X134008220Y-146559356D01*
X134137233Y-146367941D01*
X134267069Y-146174782D01*
X134393505Y-145986163D01*
X134512317Y-145808365D01*
X134619282Y-145647673D01*
X134710174Y-145510370D01*
X134780771Y-145402737D01*
X134826847Y-145331058D01*
X134844180Y-145301616D01*
X134841710Y-145293482D01*
X134811210Y-145265900D01*
X134776580Y-145243190D01*
X135123901Y-145243190D01*
X135140553Y-145264532D01*
X135177202Y-145301616D01*
X135196249Y-145320889D01*
X135286361Y-145407470D01*
X135406041Y-145519733D01*
X135550446Y-145653135D01*
X135714730Y-145803135D01*
X135894049Y-145965191D01*
X135931733Y-145999056D01*
X136148339Y-146192477D01*
X136326234Y-146348794D01*
X136468793Y-146470777D01*
X136579392Y-146561201D01*
X136661404Y-146622835D01*
X136718207Y-146658454D01*
X136753173Y-146670828D01*
X136820700Y-146668115D01*
X136918385Y-146650360D01*
X137008264Y-146622733D01*
X137064949Y-146591680D01*
X137067226Y-146581231D01*
X137048722Y-146527616D01*
X137001777Y-146437864D01*
X136931066Y-146319360D01*
X136841262Y-146179489D01*
X136737040Y-146025634D01*
X136623073Y-145865181D01*
X136504035Y-145705512D01*
X136492028Y-145689942D01*
X136382237Y-145554307D01*
X136248611Y-145397997D01*
X136106941Y-145239137D01*
X135973015Y-145095856D01*
X135660392Y-144771565D01*
X135396420Y-144996518D01*
X135295502Y-145083607D01*
X135208639Y-145160722D01*
X135148387Y-145216678D01*
X135123901Y-145243190D01*
X134776580Y-145243190D01*
X134744322Y-145222035D01*
X134638300Y-145160366D01*
X134490396Y-145079369D01*
X134297863Y-144977522D01*
X134057956Y-144853305D01*
X133767927Y-144705193D01*
X133598742Y-144619336D01*
X133357289Y-144497419D01*
X133160345Y-144399084D01*
X133003189Y-144322197D01*
X132881101Y-144264628D01*
X132789358Y-144224243D01*
X132723241Y-144198912D01*
X132678029Y-144186501D01*
X132649001Y-144184879D01*
X132631436Y-144191914D01*
X132629479Y-144193474D01*
X132577603Y-144236229D01*
X132490771Y-144309234D01*
X132374669Y-144407611D01*
X132234982Y-144526479D01*
X132077395Y-144660961D01*
X131907594Y-144806177D01*
X131731265Y-144957248D01*
X131554093Y-145109295D01*
X131381763Y-145257440D01*
X131219962Y-145396802D01*
X131074374Y-145522505D01*
X130950685Y-145629667D01*
X130854580Y-145713411D01*
X130791746Y-145768857D01*
X130767867Y-145791126D01*
X130767749Y-145820946D01*
X130615728Y-145820946D01*
X130614967Y-145814896D01*
X130292645Y-145645314D01*
X130279841Y-145638588D01*
X130162184Y-145577319D01*
X130003838Y-145495528D01*
X129815000Y-145398450D01*
X129605869Y-145291320D01*
X129386642Y-145179371D01*
X129167519Y-145067838D01*
X128364715Y-144659943D01*
X127429215Y-145485269D01*
X127314302Y-145586854D01*
X127124127Y-145755918D01*
X126951163Y-145910866D01*
X126799897Y-146047610D01*
X126674815Y-146162060D01*
X126580403Y-146250128D01*
X126521148Y-146307725D01*
X126501535Y-146330762D01*
X123239030Y-146330762D01*
X123239030Y-146174108D01*
X126236749Y-146174108D01*
X126242069Y-146227464D01*
X126252405Y-146246165D01*
X126288297Y-146269515D01*
X126291021Y-146269097D01*
X126311035Y-146258532D01*
X126347983Y-146231817D01*
X126404830Y-146186391D01*
X126484546Y-146119693D01*
X126590097Y-146029162D01*
X126724451Y-145912236D01*
X126890575Y-145766355D01*
X127091435Y-145588957D01*
X127330001Y-145377480D01*
X127609238Y-145129365D01*
X127621101Y-145118810D01*
X127777706Y-144978617D01*
X127918480Y-144851041D01*
X128037785Y-144741314D01*
X128129984Y-144654665D01*
X128189437Y-144596327D01*
X128210508Y-144571529D01*
X128190776Y-144549451D01*
X128172183Y-144532300D01*
X128489275Y-144532300D01*
X128489628Y-144533459D01*
X128519732Y-144556717D01*
X128544453Y-144571529D01*
X128591331Y-144599617D01*
X128694482Y-144656457D01*
X128819241Y-144721535D01*
X128918482Y-144772222D01*
X129071687Y-144850820D01*
X129256231Y-144945752D01*
X129461031Y-145051311D01*
X129675005Y-145161788D01*
X129887070Y-145271477D01*
X129917942Y-145287442D01*
X130108091Y-145384899D01*
X130281266Y-145472208D01*
X130430470Y-145545947D01*
X130548710Y-145602697D01*
X130628992Y-145639037D01*
X130664321Y-145651548D01*
X130668938Y-145649695D01*
X130711316Y-145619841D01*
X130791389Y-145556722D01*
X130904195Y-145464469D01*
X131044770Y-145347212D01*
X131208152Y-145209079D01*
X131389379Y-145054200D01*
X131583487Y-144886706D01*
X131636324Y-144840907D01*
X131829174Y-144673854D01*
X132008648Y-144518554D01*
X132169592Y-144379457D01*
X132306851Y-144261011D01*
X132415271Y-144167666D01*
X132489697Y-144103870D01*
X132524973Y-144074074D01*
X132586552Y-144024253D01*
X132516732Y-143482392D01*
X132494498Y-143312695D01*
X132473528Y-143158140D01*
X132455708Y-143032384D01*
X132450123Y-142995732D01*
X132605026Y-142995732D01*
X132610844Y-143075158D01*
X132623153Y-143189559D01*
X132640323Y-143327404D01*
X132660722Y-143477165D01*
X132682721Y-143627312D01*
X132704687Y-143766316D01*
X132724991Y-143882648D01*
X132742002Y-143964778D01*
X132754088Y-144001177D01*
X132763383Y-144007800D01*
X132791751Y-144024253D01*
X132818697Y-144039881D01*
X132917937Y-144094202D01*
X133055472Y-144167785D01*
X133225673Y-144257648D01*
X133422910Y-144360811D01*
X133641554Y-144474293D01*
X133875974Y-144595115D01*
X133995243Y-144656344D01*
X134220737Y-144771911D01*
X134426872Y-144877306D01*
X134608183Y-144969749D01*
X134759203Y-145046460D01*
X134874466Y-145104661D01*
X134948507Y-145141570D01*
X134975859Y-145154410D01*
X134983697Y-145150359D01*
X135027245Y-145116864D01*
X135098377Y-145057100D01*
X135186785Y-144980269D01*
X135282162Y-144895573D01*
X135374202Y-144812213D01*
X135452596Y-144739393D01*
X135507039Y-144686312D01*
X135527223Y-144662173D01*
X135512471Y-144639355D01*
X135455768Y-144584960D01*
X135363457Y-144507573D01*
X135242921Y-144412670D01*
X135101546Y-144305728D01*
X134946715Y-144192223D01*
X134785814Y-144077631D01*
X134626226Y-143967430D01*
X134475337Y-143867094D01*
X134340531Y-143782102D01*
X134266796Y-143738355D01*
X134109984Y-143650101D01*
X133932659Y-143555142D01*
X133742056Y-143456898D01*
X133545407Y-143358786D01*
X133349946Y-143264227D01*
X133162907Y-143176638D01*
X132991524Y-143099438D01*
X132843030Y-143036046D01*
X132724660Y-142989882D01*
X132643645Y-142964363D01*
X132607222Y-142962909D01*
X132605026Y-142995732D01*
X132450123Y-142995732D01*
X132442427Y-142945229D01*
X132435077Y-142906474D01*
X132432695Y-142903768D01*
X132390371Y-142882200D01*
X132301026Y-142845831D01*
X132171738Y-142797269D01*
X132009588Y-142739120D01*
X131821654Y-142673991D01*
X131615016Y-142604489D01*
X130806791Y-142336561D01*
X130339719Y-142462565D01*
X130178123Y-142506159D01*
X129872647Y-142588568D01*
X129180896Y-143549737D01*
X129124022Y-143628835D01*
X128977356Y-143833509D01*
X128843308Y-144021569D01*
X128725504Y-144187861D01*
X128627573Y-144327232D01*
X128553139Y-144434531D01*
X128505831Y-144504605D01*
X128489275Y-144532300D01*
X128172183Y-144532300D01*
X128131851Y-144495095D01*
X128040111Y-144414100D01*
X127921986Y-144311858D01*
X127783901Y-144193762D01*
X127632284Y-144065202D01*
X127473563Y-143931573D01*
X127314164Y-143798266D01*
X127160515Y-143670674D01*
X127019043Y-143554188D01*
X126896175Y-143454201D01*
X126798338Y-143376106D01*
X126731961Y-143325294D01*
X126703469Y-143307159D01*
X126687504Y-143329716D01*
X126663546Y-143404140D01*
X126634132Y-143524046D01*
X126600319Y-143682738D01*
X126563167Y-143873517D01*
X126523734Y-144089684D01*
X126483077Y-144324541D01*
X126442256Y-144571391D01*
X126402328Y-144823534D01*
X126364352Y-145074272D01*
X126329386Y-145316908D01*
X126298489Y-145544743D01*
X126272718Y-145751079D01*
X126253132Y-145929217D01*
X126240790Y-146072459D01*
X126236749Y-146174108D01*
X123239030Y-146174108D01*
X123239030Y-145330946D01*
X122857737Y-145330946D01*
X122857737Y-150258429D01*
X120775289Y-150258429D01*
X120775289Y-150581062D01*
X119455914Y-150581062D01*
X119468672Y-150577072D01*
X119623642Y-150489843D01*
X119773197Y-150365350D01*
X119803305Y-150335247D01*
X119943826Y-150147387D01*
X120037231Y-149930410D01*
X120080857Y-149692540D01*
X120072044Y-149442001D01*
X120027642Y-149248542D01*
X119926820Y-149031745D01*
X119776198Y-148845737D01*
X119575946Y-148690675D01*
X119326233Y-148566715D01*
X119027229Y-148474015D01*
X118929471Y-148453297D01*
X118783250Y-148426080D01*
X118606281Y-148395655D01*
X118412595Y-148364431D01*
X118216224Y-148334817D01*
X117636951Y-148250773D01*
X117637461Y-148118053D01*
X117638588Y-148078274D01*
X117655261Y-147924594D01*
X117687740Y-147758213D01*
X117730730Y-147602918D01*
X117778935Y-147482497D01*
X117808098Y-147431925D01*
X117917953Y-147294578D01*
X118053018Y-147179775D01*
X118194226Y-147104853D01*
X118264088Y-147085330D01*
X118423940Y-147063343D01*
X118605705Y-147059411D01*
X118787425Y-147073509D01*
X118947141Y-147105616D01*
X119119139Y-147165971D01*
X119364206Y-147284022D01*
X119582667Y-147425958D01*
X119644300Y-147471788D01*
X119705699Y-147514307D01*
X119735603Y-147530715D01*
X119736658Y-147530218D01*
X119742709Y-147496764D01*
X119744879Y-147421199D01*
X119742682Y-147318071D01*
X119734065Y-147105427D01*
X119487600Y-146981847D01*
X119419137Y-146948889D01*
X119090676Y-146826388D01*
X118755322Y-146757571D01*
X118421962Y-146744416D01*
X118261779Y-146759378D01*
X118012958Y-146820322D01*
X117800837Y-146926671D01*
X117623733Y-147079683D01*
X117479960Y-147280612D01*
X117367837Y-147530715D01*
X117354766Y-147568724D01*
X117341533Y-147612355D01*
X117330571Y-147659484D01*
X117321618Y-147715627D01*
X117314412Y-147786300D01*
X117308689Y-147877019D01*
X117304190Y-147993301D01*
X117300651Y-148140661D01*
X117297810Y-148324616D01*
X117295406Y-148550682D01*
X117293177Y-148824376D01*
X117290860Y-149151212D01*
X117281005Y-150581062D01*
X116170439Y-150581062D01*
X116170439Y-146826789D01*
X115818476Y-146826789D01*
X115818476Y-147508070D01*
X115696302Y-147325113D01*
X115658735Y-147272460D01*
X115490889Y-147091648D01*
X115286548Y-146937311D01*
X115062481Y-146822741D01*
X115006314Y-146802029D01*
X114922299Y-146778912D01*
X114827672Y-146764809D01*
X114706441Y-146757646D01*
X114542610Y-146755350D01*
X114399006Y-146756113D01*
X114276828Y-146761236D01*
X114182947Y-146772916D01*
X114101238Y-146793267D01*
X114015574Y-146824400D01*
X113920803Y-146868874D01*
X113731406Y-147004006D01*
X113569098Y-147188325D01*
X113436327Y-147418709D01*
X113335542Y-147692032D01*
X113324433Y-147736067D01*
X113314073Y-147792822D01*
X113305422Y-147863763D01*
X113298255Y-147954449D01*
X113292349Y-148070439D01*
X113287481Y-148217294D01*
X113283426Y-148400572D01*
X113279962Y-148625832D01*
X113276865Y-148898634D01*
X113273910Y-149224538D01*
X113262587Y-150581062D01*
X112152194Y-150581062D01*
X112152194Y-146826789D01*
X111800231Y-146826789D01*
X111800231Y-147508070D01*
X111678057Y-147325113D01*
X111640490Y-147272460D01*
X111472644Y-147091648D01*
X111268303Y-146937311D01*
X111044237Y-146822741D01*
X110988069Y-146802029D01*
X110904054Y-146778912D01*
X110809427Y-146764809D01*
X110688196Y-146757646D01*
X110524365Y-146755350D01*
X110380761Y-146756113D01*
X110258583Y-146761236D01*
X110164702Y-146772916D01*
X110082993Y-146793267D01*
X109997329Y-146824400D01*
X109902558Y-146868874D01*
X109713162Y-147004006D01*
X109550854Y-147188325D01*
X109418083Y-147418709D01*
X109317297Y-147692032D01*
X109306188Y-147736067D01*
X109295829Y-147792822D01*
X109287177Y-147863763D01*
X109280010Y-147954449D01*
X109274105Y-148070439D01*
X109269236Y-148217294D01*
X109265182Y-148400572D01*
X109261717Y-148625832D01*
X109258949Y-148869688D01*
X109258620Y-148898634D01*
X109255665Y-149224538D01*
X109244342Y-150581062D01*
X107221183Y-150581062D01*
X107255632Y-150572871D01*
X107497758Y-150472732D01*
X107535333Y-150450494D01*
X107636791Y-150377788D01*
X107751093Y-150283351D01*
X107859936Y-150181885D01*
X108013701Y-150008357D01*
X108166344Y-149773320D01*
X108277659Y-149511432D01*
X108350621Y-149215342D01*
X108388210Y-148877700D01*
X108388664Y-148869688D01*
X108387212Y-148492451D01*
X108339983Y-148143914D01*
X108247711Y-147827600D01*
X108111131Y-147547034D01*
X107974946Y-147354186D01*
X107762022Y-147138826D01*
X107513471Y-146967631D01*
X107233103Y-146842629D01*
X106924731Y-146765846D01*
X106592165Y-146739308D01*
X106426184Y-146743433D01*
X106196831Y-146770178D01*
X105985627Y-146825891D01*
X105770244Y-146915356D01*
X105565532Y-147036756D01*
X105350966Y-147224480D01*
X105168589Y-147455875D01*
X105022302Y-147725854D01*
X104916004Y-148029330D01*
X104907755Y-148063811D01*
X104884295Y-148215481D01*
X104868997Y-148404239D01*
X104863323Y-148571405D01*
X104861870Y-148614223D01*
X104171409Y-148614223D01*
X104172088Y-148571405D01*
X104169465Y-148438408D01*
X104160401Y-148327151D01*
X104143785Y-148221756D01*
X104118501Y-148106344D01*
X104091307Y-148003571D01*
X103975046Y-147698831D01*
X103815905Y-147430638D01*
X103616839Y-147201982D01*
X103380807Y-147015853D01*
X103110763Y-146875239D01*
X102809666Y-146783130D01*
X102583451Y-146749385D01*
X102291315Y-146742208D01*
X102002501Y-146772132D01*
X101732344Y-146837370D01*
X101496181Y-146936137D01*
X101300460Y-147068582D01*
X101109529Y-147256549D01*
X100942768Y-147484063D01*
X100806934Y-147741820D01*
X100708783Y-148020517D01*
X100703521Y-148040874D01*
X100668770Y-148233365D01*
X100648217Y-148461293D01*
X100641869Y-148706190D01*
X99716166Y-148706190D01*
X99716166Y-145008314D01*
X99364203Y-145008314D01*
X99364203Y-150581062D01*
X97357084Y-150581062D01*
X97430374Y-150556541D01*
X97675846Y-150424795D01*
X97893190Y-150244809D01*
X98079093Y-150020123D01*
X98230246Y-149754278D01*
X98343337Y-149450817D01*
X98366544Y-149365257D01*
X98385775Y-149274335D01*
X98398619Y-149177352D01*
X98406290Y-149061164D01*
X98410002Y-148912625D01*
X98410970Y-148718591D01*
X98410940Y-148693587D01*
X98406108Y-148446641D01*
X98390976Y-148243046D01*
X98362623Y-148069162D01*
X98318124Y-147911349D01*
X98254557Y-147755967D01*
X98169000Y-147589376D01*
X98086268Y-147459206D01*
X97946678Y-147286283D01*
X97785672Y-147124786D01*
X97617831Y-146988986D01*
X97457737Y-146893158D01*
X97242073Y-146809260D01*
X96964913Y-146747910D01*
X96688946Y-146734933D01*
X96421996Y-146769179D01*
X96171884Y-146849499D01*
X95946431Y-146974742D01*
X95753459Y-147143758D01*
X95690506Y-147216230D01*
X95576951Y-147375990D01*
X95486784Y-147554636D01*
X95409112Y-147772046D01*
X95391989Y-147835516D01*
X95361603Y-147982070D01*
X95333202Y-148156333D01*
X95309525Y-148338605D01*
X95293311Y-148509185D01*
X95287298Y-148648373D01*
X95287298Y-148733256D01*
X94120511Y-148733256D01*
X93951110Y-148626576D01*
X93674134Y-148512404D01*
X93641993Y-148503213D01*
X93540832Y-148479943D01*
X93397746Y-148451283D01*
X93223396Y-148419231D01*
X93028445Y-148385787D01*
X92823556Y-148352949D01*
X92134295Y-148246476D01*
X92142801Y-148057245D01*
X92162564Y-147877613D01*
X92210232Y-147675383D01*
X92279055Y-147493063D01*
X92363117Y-147349656D01*
X92375835Y-147333717D01*
X92487343Y-147227442D01*
X92623103Y-147139661D01*
X92652937Y-147124677D01*
X92736319Y-147088545D01*
X92815970Y-147067990D01*
X92912654Y-147058991D01*
X93047131Y-147057524D01*
X93110012Y-147058794D01*
X93354796Y-147084509D01*
X93582575Y-147146961D01*
X93808074Y-147251234D01*
X94046018Y-147402413D01*
X94062254Y-147413856D01*
X94148967Y-147473157D01*
X94214361Y-147514921D01*
X94245337Y-147530715D01*
X94245478Y-147530709D01*
X94253311Y-147503230D01*
X94256641Y-147432531D01*
X94254746Y-147333719D01*
X94252465Y-147284852D01*
X94244685Y-147197559D01*
X94227091Y-147143090D01*
X94191256Y-147103078D01*
X94128753Y-147059157D01*
X94063770Y-147018694D01*
X93808640Y-146896300D01*
X93522998Y-146807089D01*
X93223352Y-146755368D01*
X92926212Y-146745443D01*
X92860602Y-146748573D01*
X92731042Y-146758895D01*
X92631048Y-146776509D01*
X92539919Y-146805906D01*
X92488581Y-146828677D01*
X92436955Y-146851576D01*
X92401469Y-146869259D01*
X92207289Y-146999006D01*
X92050933Y-147168310D01*
X91929564Y-147380923D01*
X91840344Y-147640595D01*
X91837328Y-147652846D01*
X91827324Y-147706686D01*
X91819038Y-147777809D01*
X91812325Y-147871387D01*
X91807040Y-147992593D01*
X91803040Y-148146597D01*
X91800180Y-148338572D01*
X91798316Y-148573689D01*
X91797303Y-148857120D01*
X91796998Y-149194037D01*
X91796998Y-150581062D01*
X90477136Y-150581062D01*
X90477136Y-147151343D01*
X90807101Y-147143050D01*
X91137067Y-147134757D01*
X91145899Y-146981717D01*
X91154732Y-146828677D01*
X90808602Y-146820401D01*
X90462471Y-146812124D01*
X90446491Y-146298845D01*
X90442116Y-146170684D01*
X90434128Y-146001122D01*
X90424002Y-145872138D01*
X90410445Y-145772504D01*
X90392161Y-145690988D01*
X90367858Y-145616361D01*
X90303286Y-145473040D01*
X90167184Y-145280229D01*
X89990154Y-145129295D01*
X89773210Y-145021254D01*
X89728414Y-145007838D01*
X89604857Y-144986145D01*
X89459578Y-144974349D01*
X89312364Y-144972964D01*
X89183002Y-144982508D01*
X89091282Y-145003494D01*
X89049382Y-145024095D01*
X89023516Y-145055481D01*
X89012763Y-145112102D01*
X89010623Y-145210651D01*
X89010623Y-145385111D01*
X87611947Y-145385111D01*
X87614779Y-143059877D01*
X126752861Y-143059877D01*
X126753589Y-143118630D01*
X126767858Y-143148958D01*
X126778313Y-143158086D01*
X126829880Y-143201661D01*
X126917972Y-143275407D01*
X127036872Y-143374559D01*
X127180862Y-143494352D01*
X127344226Y-143630023D01*
X127521247Y-143776808D01*
X127612106Y-143852101D01*
X127784078Y-143994663D01*
X127940141Y-144124108D01*
X128074442Y-144235575D01*
X128181127Y-144324205D01*
X128254341Y-144385139D01*
X128288232Y-144413515D01*
X128292365Y-144416979D01*
X128326492Y-144434526D01*
X128360200Y-144417181D01*
X128409385Y-144357606D01*
X128441784Y-144313629D01*
X128504775Y-144227437D01*
X128593526Y-144105654D01*
X128703646Y-143954312D01*
X128830745Y-143779447D01*
X128970434Y-143587090D01*
X129118322Y-143383275D01*
X129754500Y-142506159D01*
X129735434Y-142283391D01*
X129734122Y-142268310D01*
X129723015Y-142155466D01*
X129712896Y-142072133D01*
X129856134Y-142072133D01*
X129858049Y-142141104D01*
X129865402Y-142236315D01*
X129876528Y-142322239D01*
X129897116Y-142392815D01*
X129926328Y-142417644D01*
X129949594Y-142417131D01*
X130019823Y-142405122D01*
X130115366Y-142382391D01*
X130222496Y-142353001D01*
X130327486Y-142321015D01*
X130416609Y-142290495D01*
X130476137Y-142265507D01*
X130492343Y-142250111D01*
X130461275Y-142234118D01*
X130388191Y-142205798D01*
X130287871Y-142170688D01*
X130174069Y-142133191D01*
X130060537Y-142097710D01*
X129961027Y-142068647D01*
X129889293Y-142050405D01*
X129859085Y-142047386D01*
X129856134Y-142072133D01*
X129712896Y-142072133D01*
X129711899Y-142063926D01*
X129702999Y-142012285D01*
X129679066Y-141983495D01*
X129612968Y-141940194D01*
X129522009Y-141897584D01*
X129302986Y-141806830D01*
X129067244Y-141701337D01*
X128841139Y-141592828D01*
X128639955Y-141488648D01*
X128478977Y-141396146D01*
X128324437Y-141296583D01*
X128174821Y-141189842D01*
X128029047Y-141072605D01*
X127873088Y-140933543D01*
X127692916Y-140761328D01*
X127634197Y-140704153D01*
X127544883Y-140619586D01*
X127485292Y-140569084D01*
X127447790Y-140547535D01*
X127424745Y-140549827D01*
X127408527Y-140570849D01*
X127390241Y-140616393D01*
X127357939Y-140714496D01*
X127315285Y-140854644D01*
X127264417Y-141028987D01*
X127207474Y-141229676D01*
X127146594Y-141448860D01*
X127083917Y-141678690D01*
X127021581Y-141911315D01*
X126961725Y-142138887D01*
X126906486Y-142353555D01*
X126858005Y-142547469D01*
X126818418Y-142712780D01*
X126789866Y-142841637D01*
X126766379Y-142962856D01*
X126752861Y-143059877D01*
X87614779Y-143059877D01*
X87617436Y-140877798D01*
X87705427Y-140752871D01*
X87733134Y-140717605D01*
X87825262Y-140627587D01*
X87922685Y-140559699D01*
X88051951Y-140491455D01*
X139948048Y-140491455D01*
X140077315Y-140559699D01*
X140114419Y-140582059D01*
X140213711Y-140662241D01*
X140294573Y-140752871D01*
X140382563Y-140877798D01*
X140384234Y-142250111D01*
X140387172Y-144662173D01*
X140389509Y-146581231D01*
X140391160Y-147936531D01*
X140392049Y-148739823D01*
G37*
G36*
X102646267Y-147073501D02*
G01*
X102859035Y-147118780D01*
X102972652Y-147160312D01*
X103201877Y-147287995D01*
X103400579Y-147462452D01*
X103565294Y-147679519D01*
X103692559Y-147935031D01*
X103778909Y-148224822D01*
X103786919Y-148266497D01*
X103809150Y-148448714D01*
X103819259Y-148656966D01*
X103817281Y-148870388D01*
X103803251Y-149068115D01*
X103777206Y-149229283D01*
X103763153Y-149285298D01*
X103661066Y-149570619D01*
X103518233Y-149815660D01*
X103336171Y-150018661D01*
X103116400Y-150177864D01*
X102860437Y-150291511D01*
X102739845Y-150319650D01*
X102559391Y-150338352D01*
X102357954Y-150341200D01*
X102154719Y-150328767D01*
X101968872Y-150301628D01*
X101819598Y-150260357D01*
X101783650Y-150245374D01*
X101600817Y-150136456D01*
X101428289Y-149982472D01*
X101275602Y-149794796D01*
X101152292Y-149584799D01*
X101067895Y-149363856D01*
X101047956Y-149280111D01*
X101017205Y-149082689D01*
X100999008Y-148860695D01*
X100994822Y-148636133D01*
X101006105Y-148431004D01*
X101007438Y-148418406D01*
X101064287Y-148089716D01*
X101158956Y-147805672D01*
X101291381Y-147566366D01*
X101461500Y-147371892D01*
X101669246Y-147222341D01*
X101914558Y-147117806D01*
X101948241Y-147108006D01*
X102166432Y-147068089D01*
X102407253Y-147056595D01*
X102646267Y-147073501D01*
G37*
%TO.C,C24*%
X181231252Y-50175000D02*
X180708748Y-50175000D01*
X181231252Y-48705000D02*
X180708748Y-48705000D01*
%TO.C,kibuzzard-6234B02F*%
G36*
X137404938Y-79266400D02*
G01*
X137454944Y-79464044D01*
X137490663Y-79692644D01*
X137504950Y-79926006D01*
X137487091Y-80198659D01*
X137433513Y-80435594D01*
X137347788Y-80636809D01*
X137233488Y-80802306D01*
X136931069Y-81021381D01*
X136552450Y-81092819D01*
X136276225Y-81060540D01*
X136044450Y-80963702D01*
X135857125Y-80802306D01*
X135715308Y-80575294D01*
X135620058Y-80281606D01*
X135571375Y-79921244D01*
X135299912Y-79945056D01*
X134980825Y-79968869D01*
X134980825Y-80983281D01*
X134495050Y-80983281D01*
X134495050Y-79478331D01*
X134858786Y-79460472D01*
X135235619Y-79435469D01*
X135623167Y-79402131D01*
X136019050Y-79359269D01*
X136029170Y-79686691D01*
X136059531Y-79945056D01*
X136173831Y-80290337D01*
X136350044Y-80452262D01*
X136576263Y-80492744D01*
X136733425Y-80468931D01*
X136869156Y-80380825D01*
X136966788Y-80204612D01*
X137004887Y-79921244D01*
X136994172Y-79698597D01*
X136962025Y-79516431D01*
X136866775Y-79249731D01*
X137352550Y-79130669D01*
X137404938Y-79266400D01*
G37*
G36*
X134761750Y-81461913D02*
G01*
X135095125Y-81540494D01*
X135344627Y-81603465D01*
X135604183Y-81671727D01*
X135873794Y-81745281D01*
X136148696Y-81823069D01*
X136424127Y-81904031D01*
X136700088Y-81988169D01*
X137092994Y-82113184D01*
X137443038Y-82231056D01*
X137443038Y-82835894D01*
X137189302Y-82926910D01*
X136929746Y-83015810D01*
X136664369Y-83102594D01*
X136397669Y-83185938D01*
X136134144Y-83264519D01*
X135873794Y-83338338D01*
X135494580Y-83439541D01*
X135133225Y-83528838D01*
X134797469Y-83605633D01*
X134495050Y-83669331D01*
X134495050Y-83054969D01*
X134742700Y-83012106D01*
X135028450Y-82959719D01*
X135337417Y-82900188D01*
X135654719Y-82835894D01*
X135973806Y-82766838D01*
X136288131Y-82693019D01*
X136582811Y-82616819D01*
X136842963Y-82540619D01*
X136579239Y-82463823D01*
X136283369Y-82385838D01*
X135969044Y-82309638D01*
X135649956Y-82238200D01*
X135333250Y-82172120D01*
X135026069Y-82111994D01*
X134742105Y-82061988D01*
X134495050Y-82026269D01*
X134495050Y-81407144D01*
X134761750Y-81461913D01*
G37*
%TO.C,kibuzzard-6234AD1C*%
G36*
X129091331Y-125757488D02*
G01*
X129005408Y-125794000D01*
X128909563Y-125836863D01*
X128810542Y-125882900D01*
X128715094Y-125928938D01*
X128813519Y-125975570D01*
X128911944Y-126020219D01*
X129006003Y-126060502D01*
X129091331Y-126094038D01*
X129091331Y-126305175D01*
X128987350Y-126262313D01*
X128923850Y-126233142D01*
X128855588Y-126199606D01*
X128783952Y-126162498D01*
X128710331Y-126122613D01*
X128637306Y-126080941D01*
X128567456Y-126038475D01*
X128108669Y-126289300D01*
X128108669Y-126092450D01*
X128422994Y-125928938D01*
X128108669Y-125773363D01*
X128108669Y-125562225D01*
X128572219Y-125819400D01*
X128641870Y-125780506D01*
X128714300Y-125740025D01*
X128787127Y-125699742D01*
X128857969Y-125661444D01*
X128925438Y-125625725D01*
X128988144Y-125593181D01*
X129091331Y-125546350D01*
X129091331Y-125757488D01*
G37*
G36*
X128270594Y-125033587D02*
G01*
X129091331Y-125033587D01*
X129091331Y-125230437D01*
X128270594Y-125230437D01*
X128270594Y-125489200D01*
X128108669Y-125489200D01*
X128108669Y-124774825D01*
X128270594Y-124774825D01*
X128270594Y-125033587D01*
G37*
%TO.C,kibuzzard-6234ACC3*%
G36*
X139316888Y-125754469D02*
G01*
X139230964Y-125790981D01*
X139135119Y-125833844D01*
X139036098Y-125879881D01*
X138940650Y-125925919D01*
X139039075Y-125972552D01*
X139137500Y-126017200D01*
X139231559Y-126057483D01*
X139316888Y-126091019D01*
X139316888Y-126302156D01*
X139212906Y-126259294D01*
X139149406Y-126230123D01*
X139081144Y-126196588D01*
X139009508Y-126159480D01*
X138935888Y-126119594D01*
X138862863Y-126077922D01*
X138793012Y-126035456D01*
X138334225Y-126286281D01*
X138334225Y-126089431D01*
X138648550Y-125925919D01*
X138334225Y-125770344D01*
X138334225Y-125559206D01*
X138797775Y-125816381D01*
X138867427Y-125777488D01*
X138939856Y-125737006D01*
X139012683Y-125696723D01*
X139083525Y-125658425D01*
X139150994Y-125622706D01*
X139213700Y-125590163D01*
X139316888Y-125543331D01*
X139316888Y-125754469D01*
G37*
G36*
X138328669Y-124949606D02*
G01*
X138336606Y-124880550D01*
X138348512Y-124817844D01*
X139316888Y-124817844D01*
X139316888Y-125013106D01*
X138954938Y-125013106D01*
X138954938Y-125114706D01*
X139044830Y-125168483D01*
X139133531Y-125218687D01*
X139223423Y-125264130D01*
X139316888Y-125303619D01*
X139316888Y-125508406D01*
X139212906Y-125463162D01*
X139103369Y-125408394D01*
X138998594Y-125349656D01*
X138907313Y-125292506D01*
X138862466Y-125361959D01*
X138800950Y-125408394D01*
X138727131Y-125434587D01*
X138645375Y-125443319D01*
X138568183Y-125436770D01*
X138501706Y-125417125D01*
X138400900Y-125341719D01*
X138366372Y-125287744D01*
X138342162Y-125224244D01*
X138327875Y-125152012D01*
X138323112Y-125071844D01*
X138492975Y-125071844D01*
X138502103Y-125142091D01*
X138529487Y-125197256D01*
X138576319Y-125232975D01*
X138643787Y-125244881D01*
X138754119Y-125200431D01*
X138783289Y-125142091D01*
X138793012Y-125055969D01*
X138793012Y-125013106D01*
X138497737Y-125013106D01*
X138493769Y-125044856D01*
X138492975Y-125071844D01*
X138323112Y-125071844D01*
X138324700Y-125016281D01*
X138328669Y-124949606D01*
G37*
%TO.C,L1*%
X191960000Y-64130000D02*
X191960000Y-51530000D01*
X188960000Y-64130000D02*
X191960000Y-64130000D01*
X182360000Y-51530000D02*
X179360000Y-51530000D01*
X179360000Y-64130000D02*
X182360000Y-64130000D01*
X191960000Y-51530000D02*
X188960000Y-51530000D01*
X179360000Y-51530000D02*
X179360000Y-64130000D01*
%TO.C,C23*%
X181241252Y-46325000D02*
X180718748Y-46325000D01*
X181241252Y-47795000D02*
X180718748Y-47795000D01*
%TO.C,J5*%
X198085505Y-35016098D02*
X198737238Y-29857101D01*
X211130282Y-34043372D02*
X211456148Y-31463873D01*
X211456148Y-31463873D02*
X198737238Y-29857101D01*
X210804415Y-36622870D02*
X210971109Y-35303357D01*
X208550784Y-33717505D02*
X211130282Y-34043372D01*
X209484903Y-36456177D02*
X210804415Y-36622870D01*
X208224917Y-36297003D02*
X198085505Y-35016098D01*
X208224917Y-36297003D02*
X208550784Y-33717505D01*
%TO.C,kibuzzard-6233C627*%
G36*
X115144302Y-156241719D02*
G01*
X115224669Y-156251244D01*
X115295511Y-156264341D01*
X115354050Y-156278231D01*
X115354050Y-157000544D01*
X115158787Y-157000544D01*
X115158787Y-156414756D01*
X115113544Y-156409994D01*
X115069887Y-156408406D01*
X114973050Y-156454444D01*
X114955191Y-156515166D01*
X114949237Y-156605256D01*
X114949237Y-157000544D01*
X114753975Y-157000544D01*
X114753975Y-156579856D01*
X114757547Y-156507030D01*
X114768262Y-156440950D01*
X114816681Y-156333000D01*
X114909550Y-156263150D01*
X114975828Y-156244695D01*
X115057187Y-156238544D01*
X115144302Y-156241719D01*
G37*
G36*
X117778956Y-156723128D02*
G01*
X117757525Y-156800519D01*
X117722798Y-156866202D01*
X117675769Y-156920375D01*
X117617031Y-156962841D01*
X117547181Y-156993400D01*
X117466814Y-157011855D01*
X117376525Y-157018006D01*
X117247937Y-157006100D01*
X117139987Y-156976731D01*
X117166975Y-156810044D01*
X117256669Y-156835444D01*
X117368587Y-156848144D01*
X117455106Y-156837627D01*
X117524162Y-156806075D01*
X117569406Y-156756267D01*
X117584487Y-156690981D01*
X117100300Y-156690981D01*
X117097919Y-156657644D01*
X117097125Y-156617956D01*
X117102257Y-156556044D01*
X117286037Y-156556044D01*
X117584487Y-156556044D01*
X117570994Y-156497306D01*
X117542419Y-156446506D01*
X117496381Y-156411581D01*
X117430500Y-156398881D01*
X117363825Y-156412375D01*
X117319375Y-156448094D01*
X117293975Y-156498100D01*
X117286037Y-156556044D01*
X117102257Y-156556044D01*
X117106650Y-156503039D01*
X117135225Y-156408053D01*
X117182850Y-156333000D01*
X117248819Y-156278760D01*
X117332428Y-156246217D01*
X117433675Y-156235369D01*
X117499556Y-156241719D01*
X117563850Y-156260769D01*
X117623778Y-156292320D01*
X117676562Y-156336175D01*
X117721012Y-156392333D01*
X117755937Y-156460794D01*
X117778559Y-156541359D01*
X117786100Y-156633831D01*
X117778956Y-156723128D01*
G37*
G36*
X119195800Y-156067094D02*
G01*
X119195800Y-156254419D01*
X119365662Y-156254419D01*
X119365662Y-156416344D01*
X119195800Y-156416344D01*
X119195800Y-156722731D01*
X119191037Y-156807464D01*
X119176750Y-156874338D01*
X119121187Y-156964031D01*
X119032287Y-157006894D01*
X118911637Y-157018006D01*
X118790194Y-157008481D01*
X118673512Y-156976731D01*
X118700500Y-156808456D01*
X118750506Y-156829094D01*
X118794956Y-156841000D01*
X118839406Y-156846556D01*
X118889412Y-156848144D01*
X118935450Y-156843381D01*
X118970375Y-156824331D01*
X118992600Y-156784644D01*
X119000537Y-156717969D01*
X119000537Y-156416344D01*
X118687800Y-156416344D01*
X118687800Y-156254419D01*
X119000537Y-156254419D01*
X119000537Y-156035344D01*
X119195800Y-156067094D01*
G37*
G36*
X125463052Y-156241719D02*
G01*
X125543419Y-156251244D01*
X125614261Y-156264341D01*
X125672800Y-156278231D01*
X125672800Y-157000544D01*
X125477538Y-157000544D01*
X125477538Y-156414756D01*
X125432294Y-156409994D01*
X125388638Y-156408406D01*
X125291800Y-156454444D01*
X125273941Y-156515166D01*
X125267988Y-156605256D01*
X125267988Y-157000544D01*
X125072725Y-157000544D01*
X125072725Y-156579856D01*
X125076297Y-156507030D01*
X125087013Y-156440950D01*
X125135431Y-156333000D01*
X125228300Y-156263150D01*
X125294578Y-156244695D01*
X125375938Y-156238544D01*
X125463052Y-156241719D01*
G37*
G36*
X123074503Y-156004299D02*
G01*
X123156789Y-156030228D01*
X123224081Y-156073444D01*
X123291352Y-156166312D01*
X123313775Y-156289344D01*
X123288375Y-156406025D01*
X123224081Y-156484606D01*
X123137563Y-156536994D01*
X123045488Y-156573506D01*
X122978813Y-156601288D01*
X122918488Y-156634625D01*
X122874038Y-156676694D01*
X122856575Y-156730669D01*
X122863719Y-156777500D01*
X122889913Y-156818775D01*
X122941506Y-156847350D01*
X123023263Y-156857669D01*
X123102439Y-156852113D01*
X123168519Y-156835444D01*
X123270913Y-156787819D01*
X123328063Y-156946569D01*
X123218525Y-156994988D01*
X123133197Y-157014633D01*
X123023263Y-157021181D01*
X122911873Y-157012803D01*
X122821121Y-156987667D01*
X122751006Y-156945775D01*
X122683736Y-156854692D01*
X122661313Y-156732256D01*
X122668059Y-156658239D01*
X122688300Y-156598113D01*
X122757356Y-156509213D01*
X122849431Y-156452062D01*
X122945475Y-156413169D01*
X123006594Y-156389356D01*
X123062156Y-156359987D01*
X123102638Y-156321887D01*
X123118513Y-156271881D01*
X123101226Y-156209263D01*
X123049368Y-156171692D01*
X122962938Y-156159169D01*
X122851019Y-156175044D01*
X122762913Y-156213144D01*
X122705763Y-156062331D01*
X122819269Y-156016294D01*
X122892492Y-156000816D01*
X122977225Y-155995656D01*
X123074503Y-156004299D01*
G37*
G36*
X126177030Y-156244497D02*
G01*
X126265731Y-156257594D01*
X126346495Y-156277834D01*
X126425275Y-156303631D01*
X126425275Y-157000544D01*
X126228425Y-157000544D01*
X126228425Y-156446506D01*
X126147463Y-156431425D01*
X126066500Y-156427456D01*
X126023638Y-156429044D01*
X125971250Y-156434600D01*
X125918069Y-156443331D01*
X125872825Y-156452856D01*
X125837900Y-156271881D01*
X125899019Y-156256800D01*
X125966488Y-156247275D01*
X126029194Y-156241719D01*
X126074438Y-156240131D01*
X126177030Y-156244497D01*
G37*
G36*
X118402050Y-156067094D02*
G01*
X118402050Y-156254419D01*
X118571912Y-156254419D01*
X118571912Y-156416344D01*
X118402050Y-156416344D01*
X118402050Y-156722731D01*
X118397287Y-156807464D01*
X118383000Y-156874338D01*
X118327437Y-156964031D01*
X118238537Y-157006894D01*
X118117887Y-157018006D01*
X117996444Y-157008481D01*
X117879762Y-156976731D01*
X117906750Y-156808456D01*
X117956756Y-156829094D01*
X118001206Y-156841000D01*
X118045656Y-156846556D01*
X118095662Y-156848144D01*
X118141700Y-156843381D01*
X118176625Y-156824331D01*
X118198850Y-156784644D01*
X118206787Y-156717969D01*
X118206787Y-156416344D01*
X117894050Y-156416344D01*
X117894050Y-156254419D01*
X118206787Y-156254419D01*
X118206787Y-156035344D01*
X118402050Y-156067094D01*
G37*
G36*
X124255163Y-156466350D02*
G01*
X124285920Y-156399278D01*
X124327394Y-156342525D01*
X124378591Y-156296884D01*
X124438519Y-156263150D01*
X124506186Y-156242314D01*
X124580600Y-156235369D01*
X124654022Y-156242314D01*
X124721888Y-156263150D01*
X124782411Y-156296884D01*
X124833806Y-156342525D01*
X124875478Y-156399278D01*
X124906831Y-156466350D01*
X124926477Y-156542352D01*
X124933025Y-156625894D01*
X124926675Y-156710627D01*
X124907625Y-156787025D01*
X124876867Y-156854295D01*
X124835394Y-156911644D01*
X124784197Y-156958078D01*
X124724269Y-156992606D01*
X124656205Y-157014038D01*
X124580600Y-157021181D01*
X124504995Y-157014038D01*
X124436931Y-156992606D01*
X124377202Y-156958078D01*
X124326600Y-156911644D01*
X124285722Y-156854295D01*
X124255163Y-156787025D01*
X124236113Y-156710627D01*
X124229882Y-156627481D01*
X124429788Y-156627481D01*
X124439511Y-156717969D01*
X124468681Y-156789406D01*
X124516902Y-156835841D01*
X124583775Y-156851319D01*
X124652236Y-156835841D01*
X124698869Y-156789406D01*
X124725658Y-156717969D01*
X124734588Y-156627481D01*
X124724864Y-156537192D01*
X124695694Y-156466350D01*
X124647473Y-156420511D01*
X124580600Y-156405231D01*
X124512139Y-156420511D01*
X124465506Y-156466350D01*
X124438717Y-156537192D01*
X124429788Y-156627481D01*
X124229882Y-156627481D01*
X124229763Y-156625894D01*
X124236113Y-156542352D01*
X124255163Y-156466350D01*
G37*
G36*
X121704050Y-155932156D02*
G01*
X121704050Y-157000544D01*
X121508788Y-157000544D01*
X121508788Y-156425869D01*
X121466719Y-156414756D01*
X121413538Y-156408406D01*
X121323050Y-156454444D01*
X121305191Y-156515166D01*
X121299238Y-156605256D01*
X121299238Y-157000544D01*
X121103975Y-157000544D01*
X121103975Y-156579856D01*
X121107547Y-156507030D01*
X121118263Y-156440950D01*
X121165888Y-156333000D01*
X121254788Y-156263150D01*
X121317097Y-156244695D01*
X121392900Y-156238544D01*
X121451638Y-156245687D01*
X121508788Y-156260769D01*
X121508788Y-155898819D01*
X121704050Y-155932156D01*
G37*
G36*
X119718087Y-156840206D02*
G01*
X119806987Y-156848144D01*
X119903031Y-156798138D01*
X119921486Y-156734836D01*
X119927637Y-156644944D01*
X119927637Y-156254419D01*
X120122900Y-156254419D01*
X120122900Y-156670344D01*
X120119725Y-156743369D01*
X120110200Y-156810044D01*
X120063369Y-156920375D01*
X119970500Y-156992606D01*
X119903428Y-157011656D01*
X119819687Y-157018006D01*
X119732573Y-157014434D01*
X119652206Y-157003719D01*
X119580967Y-156989431D01*
X119521237Y-156975144D01*
X119521237Y-156254419D01*
X119718087Y-156254419D01*
X119718087Y-156840206D01*
G37*
G36*
X122204311Y-156243108D02*
G01*
X122292219Y-156266325D01*
X122365442Y-156302837D01*
X122424775Y-156350462D01*
X122470416Y-156408208D01*
X122502563Y-156475081D01*
X122521613Y-156548900D01*
X122527963Y-156627481D01*
X122521811Y-156707253D01*
X122503356Y-156781469D01*
X122471805Y-156848144D01*
X122426363Y-156905294D01*
X122366633Y-156952125D01*
X122292219Y-156987844D01*
X122202327Y-157010466D01*
X122096163Y-157018006D01*
X122021947Y-157015427D01*
X121958050Y-157007688D01*
X121858038Y-156981494D01*
X121886613Y-156821156D01*
X121977894Y-156841794D01*
X122073938Y-156848144D01*
X122193198Y-156833459D01*
X122271581Y-156789406D01*
X122315039Y-156719556D01*
X122329525Y-156627481D01*
X122316825Y-156538581D01*
X122275550Y-156467938D01*
X122200144Y-156421900D01*
X122083463Y-156405231D01*
X121984244Y-156413962D01*
X121913600Y-156433806D01*
X121870738Y-156276644D01*
X121980275Y-156244894D01*
X122100925Y-156235369D01*
X122204311Y-156243108D01*
G37*
G36*
X116814550Y-156067094D02*
G01*
X116814550Y-156254419D01*
X116984412Y-156254419D01*
X116984412Y-156416344D01*
X116814550Y-156416344D01*
X116814550Y-156722731D01*
X116809787Y-156807464D01*
X116795500Y-156874338D01*
X116739937Y-156964031D01*
X116651037Y-157006894D01*
X116530387Y-157018006D01*
X116408944Y-157008481D01*
X116292262Y-156976731D01*
X116319250Y-156808456D01*
X116369256Y-156829094D01*
X116413706Y-156841000D01*
X116458156Y-156846556D01*
X116508162Y-156848144D01*
X116554200Y-156843381D01*
X116589125Y-156824331D01*
X116611350Y-156784644D01*
X116619287Y-156717969D01*
X116619287Y-156416344D01*
X116306550Y-156416344D01*
X116306550Y-156254419D01*
X116619287Y-156254419D01*
X116619287Y-156035344D01*
X116814550Y-156067094D01*
G37*
G36*
X126580850Y-157000544D02*
G01*
X126607044Y-156889133D01*
X126633555Y-156780961D01*
X126660384Y-156676027D01*
X126677580Y-156611606D01*
X126869775Y-156611606D01*
X127061863Y-156611606D01*
X127042019Y-156510006D01*
X127019794Y-156412375D01*
X126994394Y-156313950D01*
X126965025Y-156208381D01*
X126935656Y-156313950D01*
X126910256Y-156412375D01*
X126888825Y-156510006D01*
X126869775Y-156611606D01*
X126677580Y-156611606D01*
X126687530Y-156574332D01*
X126714994Y-156475875D01*
X126749571Y-156356465D01*
X126784248Y-156240330D01*
X126819025Y-156127468D01*
X126853900Y-156017881D01*
X127066625Y-156017881D01*
X127100260Y-156126575D01*
X127134491Y-156238345D01*
X127169316Y-156353191D01*
X127204738Y-156471113D01*
X127233249Y-156568744D01*
X127261634Y-156670503D01*
X127289891Y-156776389D01*
X127318022Y-156886403D01*
X127346025Y-157000544D01*
X127142825Y-157000544D01*
X127098375Y-156773531D01*
X126836438Y-156773531D01*
X126790400Y-157000544D01*
X126580850Y-157000544D01*
G37*
G36*
X116191456Y-156723128D02*
G01*
X116170025Y-156800519D01*
X116135298Y-156866202D01*
X116088269Y-156920375D01*
X116029531Y-156962841D01*
X115959681Y-156993400D01*
X115879314Y-157011855D01*
X115789025Y-157018006D01*
X115660437Y-157006100D01*
X115552487Y-156976731D01*
X115579475Y-156810044D01*
X115669169Y-156835444D01*
X115781087Y-156848144D01*
X115867606Y-156837627D01*
X115936662Y-156806075D01*
X115981906Y-156756267D01*
X115996987Y-156690981D01*
X115512800Y-156690981D01*
X115510419Y-156657644D01*
X115509625Y-156617956D01*
X115514757Y-156556044D01*
X115698537Y-156556044D01*
X115996987Y-156556044D01*
X115983494Y-156497306D01*
X115954919Y-156446506D01*
X115908881Y-156411581D01*
X115843000Y-156398881D01*
X115776325Y-156412375D01*
X115731875Y-156448094D01*
X115706475Y-156498100D01*
X115698537Y-156556044D01*
X115514757Y-156556044D01*
X115519150Y-156503039D01*
X115547725Y-156408053D01*
X115595350Y-156333000D01*
X115661319Y-156278760D01*
X115744928Y-156246217D01*
X115846175Y-156235369D01*
X115912056Y-156241719D01*
X115976350Y-156260769D01*
X116036278Y-156292320D01*
X116089062Y-156336175D01*
X116133512Y-156392333D01*
X116168437Y-156460794D01*
X116191059Y-156541359D01*
X116198600Y-156633831D01*
X116191456Y-156723128D01*
G37*
G36*
X120286412Y-156466350D02*
G01*
X120317170Y-156399278D01*
X120358644Y-156342525D01*
X120409841Y-156296884D01*
X120469769Y-156263150D01*
X120537436Y-156242314D01*
X120611850Y-156235369D01*
X120685272Y-156242314D01*
X120753137Y-156263150D01*
X120813661Y-156296884D01*
X120865056Y-156342525D01*
X120906728Y-156399278D01*
X120938081Y-156466350D01*
X120957727Y-156542352D01*
X120964275Y-156625894D01*
X120957925Y-156710627D01*
X120938875Y-156787025D01*
X120908117Y-156854295D01*
X120866644Y-156911644D01*
X120815447Y-156958078D01*
X120755519Y-156992606D01*
X120687455Y-157014038D01*
X120611850Y-157021181D01*
X120536245Y-157014038D01*
X120468181Y-156992606D01*
X120408452Y-156958078D01*
X120357850Y-156911644D01*
X120316972Y-156854295D01*
X120286412Y-156787025D01*
X120267362Y-156710627D01*
X120261131Y-156627481D01*
X120461037Y-156627481D01*
X120470761Y-156717969D01*
X120499931Y-156789406D01*
X120548152Y-156835841D01*
X120615025Y-156851319D01*
X120683486Y-156835841D01*
X120730119Y-156789406D01*
X120756908Y-156717969D01*
X120765837Y-156627481D01*
X120756114Y-156537192D01*
X120726944Y-156466350D01*
X120678723Y-156420511D01*
X120611850Y-156405231D01*
X120543389Y-156420511D01*
X120496756Y-156466350D01*
X120469967Y-156537192D01*
X120461037Y-156627481D01*
X120261131Y-156627481D01*
X120261012Y-156625894D01*
X120267362Y-156542352D01*
X120286412Y-156466350D01*
G37*
%TO.C,kibuzzard-6234ACE5*%
G36*
X133759261Y-124019381D02*
G01*
X133863044Y-124040812D01*
X133951150Y-124075341D01*
X134023381Y-124121775D01*
X134079738Y-124179520D01*
X134120219Y-124247981D01*
X134144627Y-124326364D01*
X134152763Y-124413875D01*
X134148794Y-124510911D01*
X134136888Y-124592469D01*
X134108313Y-124701212D01*
X133617775Y-124701212D01*
X133617775Y-124505950D01*
X133976550Y-124505950D01*
X133981313Y-124467850D01*
X133982900Y-124429750D01*
X133962064Y-124334897D01*
X133899556Y-124266237D01*
X133833675Y-124235369D01*
X133747156Y-124216849D01*
X133640000Y-124210675D01*
X133567173Y-124214048D01*
X133501094Y-124224169D01*
X133393144Y-124268619D01*
X133322500Y-124347200D01*
X133297100Y-124464675D01*
X133314562Y-124569450D01*
X133354250Y-124655175D01*
X133198675Y-124705975D01*
X133179625Y-124673431D01*
X133155812Y-124618662D01*
X133135969Y-124540081D01*
X133127237Y-124437687D01*
X133135373Y-124351566D01*
X133159781Y-124271000D01*
X133200461Y-124198372D01*
X133257412Y-124136062D01*
X133330239Y-124084866D01*
X133418544Y-124045575D01*
X133521930Y-124020572D01*
X133640000Y-124012237D01*
X133759261Y-124019381D01*
G37*
G36*
X134132125Y-125012362D02*
G01*
X133479662Y-125012362D01*
X133588583Y-125071365D01*
X133697326Y-125127721D01*
X133805894Y-125181431D01*
X133914461Y-125232496D01*
X134023205Y-125280915D01*
X134132125Y-125326688D01*
X134132125Y-125483850D01*
X133149462Y-125483850D01*
X133149462Y-125307638D01*
X133754300Y-125307638D01*
X133692388Y-125279658D01*
X133620950Y-125246519D01*
X133543559Y-125209213D01*
X133463787Y-125168731D01*
X133382627Y-125126067D01*
X133301069Y-125082212D01*
X133222289Y-125037762D01*
X133149462Y-124993312D01*
X133149462Y-124836150D01*
X134132125Y-124836150D01*
X134132125Y-125012362D01*
G37*
G36*
X133412194Y-126276806D02*
G01*
X133326072Y-126239698D01*
X133256619Y-126190288D01*
X133203636Y-126128573D01*
X133166925Y-126054556D01*
X133145494Y-125970220D01*
X133139696Y-125895013D01*
X133308212Y-125895013D01*
X133335994Y-126001375D01*
X133409812Y-126066463D01*
X133516175Y-126099800D01*
X133640000Y-126109325D01*
X133710048Y-126106348D01*
X133774144Y-126097419D01*
X133879713Y-126057731D01*
X133949563Y-125984706D01*
X133974963Y-125872788D01*
X133974963Y-125855325D01*
X133973375Y-125837863D01*
X133312975Y-125837863D01*
X133309006Y-125866438D01*
X133308212Y-125895013D01*
X133139696Y-125895013D01*
X133138350Y-125877550D01*
X133143112Y-125768013D01*
X133162162Y-125642600D01*
X134121013Y-125642600D01*
X134139269Y-125749756D01*
X134144825Y-125852150D01*
X134137880Y-125947995D01*
X134117044Y-126035506D01*
X134081127Y-126113095D01*
X134028938Y-126179175D01*
X133959683Y-126232952D01*
X133872569Y-126273631D01*
X133766405Y-126299230D01*
X133640000Y-126307763D01*
X133516373Y-126300023D01*
X133412194Y-126276806D01*
G37*
%TO.C,kibuzzard-6234B014*%
G36*
X127692769Y-78449606D02*
G01*
X127468931Y-78749644D01*
X127402256Y-79040156D01*
X127499887Y-79316381D01*
X127778494Y-79425919D01*
X128030906Y-79337812D01*
X128288081Y-79113975D01*
X128424408Y-78973481D01*
X128566688Y-78823462D01*
X128717897Y-78673444D01*
X128881013Y-78532950D01*
X129057820Y-78409125D01*
X129250106Y-78309112D01*
X129459656Y-78243033D01*
X129688256Y-78221006D01*
X129788269Y-78218625D01*
X129907331Y-78230531D01*
X129907331Y-80154581D01*
X129421556Y-80154581D01*
X129421556Y-78887756D01*
X129264394Y-78937762D01*
X129095325Y-79059206D01*
X128933400Y-79211606D01*
X128797669Y-79354481D01*
X128559544Y-79597369D01*
X128302369Y-79811681D01*
X128028525Y-79964081D01*
X127735631Y-80021231D01*
X127366537Y-79945031D01*
X127102219Y-79740244D01*
X126945056Y-79444969D01*
X126892669Y-79097306D01*
X126916481Y-78849061D01*
X126987919Y-78599625D01*
X127109362Y-78364477D01*
X127283194Y-78159094D01*
X127692769Y-78449606D01*
G37*
G36*
X127226044Y-82833488D02*
G01*
X127559419Y-82912069D01*
X127808921Y-82975040D01*
X128068477Y-83043302D01*
X128338087Y-83116856D01*
X128612990Y-83194644D01*
X128888421Y-83275606D01*
X129164381Y-83359744D01*
X129557288Y-83484759D01*
X129907331Y-83602631D01*
X129907331Y-84207469D01*
X129653596Y-84298485D01*
X129394040Y-84387385D01*
X129128663Y-84474169D01*
X128861963Y-84557513D01*
X128598438Y-84636094D01*
X128338087Y-84709913D01*
X127958873Y-84811116D01*
X127597519Y-84900413D01*
X127261762Y-84977208D01*
X126959344Y-85040906D01*
X126959344Y-84426544D01*
X127206994Y-84383681D01*
X127492744Y-84331294D01*
X127801711Y-84271763D01*
X128119012Y-84207469D01*
X128438100Y-84138413D01*
X128752425Y-84064594D01*
X129047105Y-83988394D01*
X129307256Y-83912194D01*
X129043533Y-83835398D01*
X128747663Y-83757413D01*
X128433338Y-83681213D01*
X128114250Y-83609775D01*
X127797544Y-83543695D01*
X127490362Y-83483569D01*
X127206398Y-83433563D01*
X126959344Y-83397844D01*
X126959344Y-82778719D01*
X127226044Y-82833488D01*
G37*
G36*
X127162345Y-81564281D02*
G01*
X127390350Y-81373781D01*
X127632642Y-81188044D01*
X127878506Y-81011831D01*
X128123180Y-80847525D01*
X128361900Y-80697506D01*
X128585142Y-80567728D01*
X128783381Y-80464144D01*
X129212006Y-80464144D01*
X129212006Y-81692869D01*
X129907331Y-81692869D01*
X129907331Y-82278656D01*
X129212006Y-82278656D01*
X129212006Y-82597744D01*
X128730994Y-82597744D01*
X128730994Y-82278656D01*
X126959344Y-82278656D01*
X126959344Y-81754781D01*
X127025319Y-81692869D01*
X127692769Y-81692869D01*
X128730994Y-81692869D01*
X128730994Y-81026119D01*
X128459531Y-81168994D01*
X128185687Y-81338062D01*
X127926131Y-81516656D01*
X127692769Y-81692869D01*
X127025319Y-81692869D01*
X127162345Y-81564281D01*
G37*
%TO.C,C17*%
X204495000Y-70181252D02*
X204495000Y-69658748D01*
X205965000Y-70181252D02*
X205965000Y-69658748D01*
%TO.C,U2*%
X199780000Y-66300000D02*
X198280000Y-66300000D01*
X198280000Y-56850000D02*
X197180000Y-56850000D01*
X198280000Y-65350000D02*
X193155000Y-65350000D01*
X198280000Y-55900000D02*
X198280000Y-56850000D01*
X199780000Y-55900000D02*
X198280000Y-55900000D01*
X198280000Y-66300000D02*
X198280000Y-65350000D01*
%TO.C,J6*%
X149139554Y-43475913D02*
X148194191Y-42540398D01*
X148204039Y-44421276D02*
X149139554Y-43475913D01*
X145443397Y-39818260D02*
X136425877Y-48930709D01*
X145462649Y-43495165D02*
X147291476Y-41647086D01*
X147291476Y-41647086D02*
X145443397Y-39818260D01*
X140122034Y-52588362D02*
X136425877Y-48930709D01*
X147310728Y-45323991D02*
X145462649Y-43495165D01*
X147310728Y-45323991D02*
X140122034Y-52588362D01*
%TO.C,U1*%
X145850000Y-81135000D02*
X145850000Y-80735000D01*
X145850000Y-96435000D02*
X145850000Y-96035000D01*
X166850000Y-126935000D02*
X166850000Y-126535000D01*
X152650000Y-78335000D02*
X145850000Y-78335000D01*
X166850000Y-83735000D02*
X166850000Y-83335000D01*
X145850000Y-106535000D02*
X145850000Y-106135000D01*
X145850000Y-104035000D02*
X145850000Y-103635000D01*
X145850000Y-129335000D02*
X145850000Y-129035000D01*
X145850000Y-86235000D02*
X145850000Y-85835000D01*
X145850000Y-91335000D02*
X145850000Y-90935000D01*
X157450000Y-78335000D02*
X157850000Y-78335000D01*
X145850000Y-124335000D02*
X145850000Y-123935000D01*
X166850000Y-124335000D02*
X166850000Y-123935000D01*
X145850000Y-98935000D02*
X145850000Y-98535000D01*
X145850000Y-83735000D02*
X145850000Y-83335000D01*
X145850000Y-101535000D02*
X145850000Y-101135000D01*
X145850000Y-126935000D02*
X145850000Y-126535000D01*
X166850000Y-111635000D02*
X166850000Y-111235000D01*
X166850000Y-96435000D02*
X166850000Y-96035000D01*
X145850000Y-121835000D02*
X145850000Y-121435000D01*
X145850000Y-88735000D02*
X145850000Y-88335000D01*
X166850000Y-116735000D02*
X166850000Y-116335000D01*
X166850000Y-81135000D02*
X166850000Y-80735000D01*
X145850000Y-116735000D02*
X145850000Y-116335000D01*
X145850000Y-111635000D02*
X145850000Y-111235000D01*
X166850000Y-104035000D02*
X166850000Y-103635000D01*
X166850000Y-88735000D02*
X166850000Y-88335000D01*
X145850000Y-93835000D02*
X145850000Y-93435000D01*
X145850000Y-119235000D02*
X145850000Y-118835000D01*
X145850000Y-109135000D02*
X145850000Y-108735000D01*
X166850000Y-109135000D02*
X166850000Y-108735000D01*
X145850000Y-114235000D02*
X145850000Y-113835000D01*
X166850000Y-101535000D02*
X166850000Y-101135000D01*
X166850000Y-106535000D02*
X166850000Y-106135000D01*
X145850000Y-126668000D02*
X148857000Y-126668000D01*
X166850000Y-119235000D02*
X166850000Y-118835000D01*
X166850000Y-93835000D02*
X166850000Y-93435000D01*
X154850000Y-78335000D02*
X155250000Y-78335000D01*
X166850000Y-114235000D02*
X166850000Y-113835000D01*
X166850000Y-91335000D02*
X166850000Y-90935000D01*
X148857000Y-126668000D02*
X148857000Y-129335000D01*
X166850000Y-78335000D02*
X160050000Y-78335000D01*
X166850000Y-86235000D02*
X166850000Y-85835000D01*
X166850000Y-129335000D02*
X166850000Y-129035000D01*
X166850000Y-98935000D02*
X166850000Y-98535000D01*
X145850000Y-129335000D02*
X166850000Y-129335000D01*
X166850000Y-121835000D02*
X166850000Y-121435000D01*
%TO.C,C20*%
X185740000Y-72620000D02*
X185740000Y-70270000D01*
X192560000Y-66864437D02*
X191495563Y-65800000D01*
X193193750Y-66968750D02*
X193193750Y-67756250D01*
X192560000Y-66864437D02*
X192560000Y-68150000D01*
X191495563Y-72620000D02*
X185740000Y-72620000D01*
X191495563Y-65800000D02*
X185740000Y-65800000D01*
X192560000Y-71555563D02*
X192560000Y-70270000D01*
X192560000Y-71555563D02*
X191495563Y-72620000D01*
X185740000Y-65800000D02*
X185740000Y-68150000D01*
X193587500Y-67362500D02*
X192800000Y-67362500D01*
%TO.C,J4*%
X226123039Y-65678144D02*
X237018663Y-58922571D01*
X223382869Y-61258702D02*
X224083720Y-62389059D01*
X224513226Y-60557851D02*
X223382869Y-61258702D01*
X225592590Y-59888617D02*
X226962675Y-62098338D01*
X225592590Y-59888617D02*
X234278493Y-54503129D01*
X226962675Y-62098338D02*
X224752954Y-63468423D01*
X234278493Y-54503129D02*
X237018663Y-58922571D01*
X224752954Y-63468423D02*
X226123039Y-65678144D01*
%TO.C,J3*%
X166025961Y-147648724D02*
X165090446Y-148594087D01*
X166919272Y-146746009D02*
X174107966Y-139481638D01*
X166919272Y-146746009D02*
X168767351Y-148574835D01*
X168786603Y-152251740D02*
X177804123Y-143139291D01*
X165090446Y-148594087D02*
X166035809Y-149529602D01*
X168767351Y-148574835D02*
X166938524Y-150422914D01*
X166938524Y-150422914D02*
X168786603Y-152251740D01*
X174107966Y-139481638D02*
X177804123Y-143139291D01*
%TO.C,C21*%
X186560000Y-48400000D02*
X187560000Y-48400000D01*
X188864437Y-50250000D02*
X196520000Y-50250000D01*
X196520000Y-41530000D02*
X196520000Y-44380000D01*
X187060000Y-48900000D02*
X187060000Y-47900000D01*
X196520000Y-50250000D02*
X196520000Y-47400000D01*
X188864437Y-41530000D02*
X196520000Y-41530000D01*
X187800000Y-49185563D02*
X187800000Y-47400000D01*
X187800000Y-42594437D02*
X188864437Y-41530000D01*
X187800000Y-49185563D02*
X188864437Y-50250000D01*
X187800000Y-42594437D02*
X187800000Y-44380000D01*
%TO.C,kibuzzard-6233C655*%
G36*
X106444756Y-156721678D02*
G01*
X106423325Y-156799069D01*
X106388598Y-156864752D01*
X106341569Y-156918925D01*
X106282831Y-156961391D01*
X106212981Y-156991950D01*
X106132614Y-157010405D01*
X106042325Y-157016556D01*
X105913737Y-157004650D01*
X105805787Y-156975281D01*
X105832775Y-156808594D01*
X105922469Y-156833994D01*
X106034387Y-156846694D01*
X106120906Y-156836177D01*
X106189962Y-156804625D01*
X106235206Y-156754817D01*
X106250287Y-156689531D01*
X105766100Y-156689531D01*
X105763719Y-156656194D01*
X105762925Y-156616506D01*
X105768057Y-156554594D01*
X105951837Y-156554594D01*
X106250287Y-156554594D01*
X106236794Y-156495856D01*
X106208219Y-156445056D01*
X106162181Y-156410131D01*
X106096300Y-156397431D01*
X106029625Y-156410925D01*
X105985175Y-156446644D01*
X105959775Y-156496650D01*
X105951837Y-156554594D01*
X105768057Y-156554594D01*
X105772450Y-156501589D01*
X105801025Y-156406603D01*
X105848650Y-156331550D01*
X105914619Y-156277310D01*
X105998228Y-156244767D01*
X106099475Y-156233919D01*
X106165356Y-156240269D01*
X106229650Y-156259319D01*
X106289578Y-156290870D01*
X106342362Y-156334725D01*
X106386812Y-156390883D01*
X106421737Y-156459344D01*
X106444359Y-156539909D01*
X106451900Y-156632381D01*
X106444756Y-156721678D01*
G37*
G36*
X103951587Y-156254556D02*
G01*
X104073825Y-156281544D01*
X104073825Y-156999094D01*
X103915075Y-156999094D01*
X103915075Y-156413306D01*
X103888881Y-156408544D01*
X103865862Y-156406956D01*
X103817444Y-156437119D01*
X103802362Y-156543481D01*
X103802362Y-156714931D01*
X103643612Y-156714931D01*
X103643612Y-156565706D01*
X103646787Y-156484744D01*
X103654725Y-156418069D01*
X103626150Y-156409337D01*
X103595987Y-156406956D01*
X103571381Y-156411719D01*
X103550744Y-156430769D01*
X103536456Y-156472044D01*
X103530900Y-156543481D01*
X103530900Y-156999094D01*
X103372150Y-156999094D01*
X103372150Y-156553006D01*
X103374134Y-156480180D01*
X103380087Y-156417275D01*
X103411044Y-156321231D01*
X103473750Y-156264081D01*
X103575350Y-156245031D01*
X103651550Y-156258525D01*
X103715050Y-156289481D01*
X103771406Y-156255350D01*
X103845225Y-156245031D01*
X103951587Y-156254556D01*
G37*
G36*
X102305350Y-156065644D02*
G01*
X102305350Y-156252969D01*
X102475213Y-156252969D01*
X102475213Y-156414894D01*
X102305350Y-156414894D01*
X102305350Y-156721281D01*
X102300587Y-156806014D01*
X102286300Y-156872888D01*
X102230737Y-156962581D01*
X102141837Y-157005444D01*
X102021187Y-157016556D01*
X101899744Y-157007031D01*
X101783062Y-156975281D01*
X101810050Y-156807006D01*
X101860056Y-156827644D01*
X101904506Y-156839550D01*
X101948956Y-156845106D01*
X101998962Y-156846694D01*
X102045000Y-156841931D01*
X102079925Y-156822881D01*
X102102150Y-156783194D01*
X102110087Y-156716519D01*
X102110087Y-156414894D01*
X101797350Y-156414894D01*
X101797350Y-156252969D01*
X102110087Y-156252969D01*
X102110087Y-156033894D01*
X102305350Y-156065644D01*
G37*
G36*
X108360869Y-156379969D02*
G01*
X108376148Y-156446445D01*
X108391825Y-156512525D01*
X108408097Y-156578009D01*
X108425163Y-156642700D01*
X108458500Y-156762556D01*
X108505331Y-156642700D01*
X108527755Y-156577811D01*
X108548988Y-156511731D01*
X108569030Y-156445056D01*
X108587881Y-156378381D01*
X108620425Y-156252969D01*
X108823625Y-156252969D01*
X108794256Y-156359381D01*
X108763300Y-156461130D01*
X108730756Y-156558215D01*
X108696625Y-156650638D01*
X108650058Y-156766260D01*
X108603492Y-156872888D01*
X108556925Y-156970519D01*
X108612488Y-157061006D01*
X108704563Y-157099106D01*
X108757744Y-157093550D01*
X108814100Y-157073706D01*
X108850613Y-157237219D01*
X108783144Y-157257856D01*
X108693450Y-157265794D01*
X108591056Y-157251506D01*
X108511681Y-157207850D01*
X108446594Y-157132444D01*
X108387063Y-157022906D01*
X108348764Y-156934403D01*
X108313244Y-156843519D01*
X108280105Y-156750452D01*
X108248950Y-156655400D01*
X108219383Y-156558166D01*
X108191006Y-156458550D01*
X108162630Y-156356752D01*
X108133063Y-156252969D01*
X108333088Y-156252969D01*
X108360869Y-156379969D01*
G37*
G36*
X111093750Y-156178356D02*
G01*
X110765138Y-156178356D01*
X110765138Y-156659369D01*
X110776845Y-156751642D01*
X110811969Y-156809388D01*
X110866142Y-156839748D01*
X110935000Y-156849869D01*
X111034219Y-156826056D01*
X111122325Y-156776844D01*
X111196938Y-156932419D01*
X111084225Y-156994331D01*
X111009216Y-157013381D01*
X110917538Y-157019731D01*
X110829431Y-157012786D01*
X110755613Y-156991950D01*
X110695089Y-156959208D01*
X110646869Y-156916544D01*
X110586544Y-156805419D01*
X110572852Y-156739934D01*
X110568288Y-156670481D01*
X110568288Y-156016431D01*
X111093750Y-156016431D01*
X111093750Y-156178356D01*
G37*
G36*
X104596553Y-156002849D02*
G01*
X104678839Y-156028778D01*
X104746131Y-156071994D01*
X104813402Y-156164862D01*
X104835825Y-156287894D01*
X104810425Y-156404575D01*
X104746131Y-156483156D01*
X104659612Y-156535544D01*
X104567537Y-156572056D01*
X104500862Y-156599837D01*
X104440537Y-156633175D01*
X104396087Y-156675244D01*
X104378625Y-156729219D01*
X104385769Y-156776050D01*
X104411962Y-156817325D01*
X104463556Y-156845900D01*
X104545312Y-156856219D01*
X104624489Y-156850663D01*
X104690569Y-156833994D01*
X104792962Y-156786369D01*
X104850112Y-156945119D01*
X104740575Y-156993538D01*
X104655247Y-157013183D01*
X104545312Y-157019731D01*
X104433923Y-157011353D01*
X104343171Y-156986217D01*
X104273056Y-156944325D01*
X104205786Y-156853242D01*
X104183362Y-156730806D01*
X104190109Y-156656789D01*
X104210350Y-156596662D01*
X104279406Y-156507762D01*
X104371481Y-156450612D01*
X104467525Y-156411719D01*
X104528644Y-156387906D01*
X104584206Y-156358537D01*
X104624687Y-156320437D01*
X104640562Y-156270431D01*
X104623276Y-156207813D01*
X104571418Y-156170242D01*
X104484988Y-156157719D01*
X104373069Y-156173594D01*
X104284962Y-156211694D01*
X104227812Y-156060881D01*
X104341319Y-156014844D01*
X104414542Y-155999366D01*
X104499275Y-155994206D01*
X104596553Y-156002849D01*
G37*
G36*
X106574931Y-156279162D02*
G01*
X106612039Y-156193041D01*
X106661450Y-156123587D01*
X106723164Y-156070605D01*
X106797181Y-156033894D01*
X106881517Y-156012462D01*
X106974188Y-156005319D01*
X107083725Y-156010081D01*
X107209138Y-156029131D01*
X107209138Y-156987981D01*
X107101981Y-157006238D01*
X106999588Y-157011794D01*
X106903742Y-157004848D01*
X106816231Y-156984013D01*
X106738642Y-156948095D01*
X106672563Y-156895906D01*
X106618786Y-156826652D01*
X106578106Y-156739538D01*
X106552508Y-156633373D01*
X106543975Y-156506969D01*
X106742412Y-156506969D01*
X106745389Y-156577017D01*
X106754319Y-156641113D01*
X106794006Y-156746681D01*
X106867031Y-156816531D01*
X106978950Y-156841931D01*
X106996413Y-156841931D01*
X107013875Y-156840344D01*
X107013875Y-156179944D01*
X106985300Y-156175975D01*
X106956725Y-156175181D01*
X106850363Y-156202962D01*
X106785275Y-156276781D01*
X106751938Y-156383144D01*
X106742412Y-156506969D01*
X106543975Y-156506969D01*
X106551714Y-156383342D01*
X106574931Y-156279162D01*
G37*
G36*
X109619756Y-156721678D02*
G01*
X109598325Y-156799069D01*
X109563598Y-156864752D01*
X109516569Y-156918925D01*
X109457831Y-156961391D01*
X109387981Y-156991950D01*
X109307614Y-157010405D01*
X109217325Y-157016556D01*
X109088738Y-157004650D01*
X108980788Y-156975281D01*
X109007775Y-156808594D01*
X109097469Y-156833994D01*
X109209388Y-156846694D01*
X109295906Y-156836177D01*
X109364963Y-156804625D01*
X109410206Y-156754817D01*
X109425288Y-156689531D01*
X108941100Y-156689531D01*
X108938719Y-156656194D01*
X108937925Y-156616506D01*
X108943057Y-156554594D01*
X109126838Y-156554594D01*
X109425288Y-156554594D01*
X109411794Y-156495856D01*
X109383219Y-156445056D01*
X109337181Y-156410131D01*
X109271300Y-156397431D01*
X109204625Y-156410925D01*
X109160175Y-156446644D01*
X109134775Y-156496650D01*
X109126838Y-156554594D01*
X108943057Y-156554594D01*
X108947450Y-156501589D01*
X108976025Y-156406603D01*
X109023650Y-156331550D01*
X109089619Y-156277310D01*
X109173228Y-156244767D01*
X109274475Y-156233919D01*
X109340356Y-156240269D01*
X109404650Y-156259319D01*
X109464578Y-156290870D01*
X109517363Y-156334725D01*
X109561813Y-156390883D01*
X109596738Y-156459344D01*
X109619359Y-156539909D01*
X109626900Y-156632381D01*
X109619756Y-156721678D01*
G37*
G36*
X103269756Y-156721678D02*
G01*
X103248325Y-156799069D01*
X103213598Y-156864752D01*
X103166569Y-156918925D01*
X103107831Y-156961391D01*
X103037981Y-156991950D01*
X102957614Y-157010405D01*
X102867325Y-157016556D01*
X102738737Y-157004650D01*
X102630787Y-156975281D01*
X102657775Y-156808594D01*
X102747469Y-156833994D01*
X102859387Y-156846694D01*
X102945906Y-156836177D01*
X103014962Y-156804625D01*
X103060206Y-156754817D01*
X103075287Y-156689531D01*
X102591100Y-156689531D01*
X102588719Y-156656194D01*
X102587925Y-156616506D01*
X102593057Y-156554594D01*
X102776837Y-156554594D01*
X103075287Y-156554594D01*
X103061794Y-156495856D01*
X103033219Y-156445056D01*
X102987181Y-156410131D01*
X102921300Y-156397431D01*
X102854625Y-156410925D01*
X102810175Y-156446644D01*
X102784775Y-156496650D01*
X102776837Y-156554594D01*
X102593057Y-156554594D01*
X102597450Y-156501589D01*
X102626025Y-156406603D01*
X102673650Y-156331550D01*
X102739619Y-156277310D01*
X102823228Y-156244767D01*
X102924475Y-156233919D01*
X102990356Y-156240269D01*
X103054650Y-156259319D01*
X103114578Y-156290870D01*
X103167362Y-156334725D01*
X103211812Y-156390883D01*
X103246737Y-156459344D01*
X103269359Y-156539909D01*
X103276900Y-156632381D01*
X103269756Y-156721678D01*
G37*
G36*
X109745963Y-156464900D02*
G01*
X109776720Y-156397828D01*
X109818194Y-156341075D01*
X109869391Y-156295434D01*
X109929319Y-156261700D01*
X109996986Y-156240864D01*
X110071400Y-156233919D01*
X110144822Y-156240864D01*
X110212688Y-156261700D01*
X110273211Y-156295434D01*
X110324606Y-156341075D01*
X110366278Y-156397828D01*
X110397631Y-156464900D01*
X110417277Y-156540902D01*
X110423825Y-156624444D01*
X110417475Y-156709177D01*
X110398425Y-156785575D01*
X110367667Y-156852845D01*
X110326194Y-156910194D01*
X110274997Y-156956628D01*
X110215069Y-156991156D01*
X110147005Y-157012588D01*
X110071400Y-157019731D01*
X109995795Y-157012588D01*
X109927731Y-156991156D01*
X109868002Y-156956628D01*
X109817400Y-156910194D01*
X109776522Y-156852845D01*
X109745963Y-156785575D01*
X109726913Y-156709177D01*
X109720682Y-156626031D01*
X109920588Y-156626031D01*
X109930311Y-156716519D01*
X109959481Y-156787956D01*
X110007702Y-156834391D01*
X110074575Y-156849869D01*
X110143036Y-156834391D01*
X110189669Y-156787956D01*
X110216458Y-156716519D01*
X110225388Y-156626031D01*
X110215664Y-156535742D01*
X110186494Y-156464900D01*
X110138273Y-156419061D01*
X110071400Y-156403781D01*
X110002939Y-156419061D01*
X109956306Y-156464900D01*
X109929517Y-156535742D01*
X109920588Y-156626031D01*
X109720682Y-156626031D01*
X109720563Y-156624444D01*
X109726913Y-156540902D01*
X109745963Y-156464900D01*
G37*
%TO.C,C18*%
X202275000Y-70181252D02*
X202275000Y-69658748D01*
X203745000Y-70181252D02*
X203745000Y-69658748D01*
%TD*%
M02*
