%TF.GenerationSoftware,KiCad,Pcbnew,(6.0.1)*%
%TF.CreationDate,2022-03-23T16:25:01+01:00*%
%TF.ProjectId,pcb_v1,7063625f-7631-42e6-9b69-6361645f7063,v1*%
%TF.SameCoordinates,Original*%
%TF.FileFunction,Paste,Top*%
%TF.FilePolarity,Positive*%
%FSLAX46Y46*%
G04 Gerber Fmt 4.6, Leading zero omitted, Abs format (unit mm)*
G04 Created by KiCad (PCBNEW (6.0.1)) date 2022-03-23 16:25:01*
%MOMM*%
%LPD*%
G01*
G04 APERTURE LIST*
G04 Aperture macros list*
%AMRoundRect*
0 Rectangle with rounded corners*
0 $1 Rounding radius*
0 $2 $3 $4 $5 $6 $7 $8 $9 X,Y pos of 4 corners*
0 Add a 4 corners polygon primitive as box body*
4,1,4,$2,$3,$4,$5,$6,$7,$8,$9,$2,$3,0*
0 Add four circle primitives for the rounded corners*
1,1,$1+$1,$2,$3*
1,1,$1+$1,$4,$5*
1,1,$1+$1,$6,$7*
1,1,$1+$1,$8,$9*
0 Add four rect primitives between the rounded corners*
20,1,$1+$1,$2,$3,$4,$5,0*
20,1,$1+$1,$4,$5,$6,$7,0*
20,1,$1+$1,$6,$7,$8,$9,0*
20,1,$1+$1,$8,$9,$2,$3,0*%
G04 Aperture macros list end*
%ADD10RoundRect,0.250000X0.475000X-0.250000X0.475000X0.250000X-0.475000X0.250000X-0.475000X-0.250000X0*%
%ADD11R,1.500000X1.000000*%
%ADD12RoundRect,0.250000X-0.475000X0.250000X-0.475000X-0.250000X0.475000X-0.250000X0.475000X0.250000X0*%
%ADD13RoundRect,0.250000X-0.250000X-0.475000X0.250000X-0.475000X0.250000X0.475000X-0.250000X0.475000X0*%
%ADD14R,1.000000X1.500000*%
%ADD15RoundRect,0.250000X0.250000X0.475000X-0.250000X0.475000X-0.250000X-0.475000X0.250000X-0.475000X0*%
G04 APERTURE END LIST*
D10*
%TO.C,C13*%
X166390000Y-42720000D03*
X166390000Y-40820000D03*
%TD*%
D11*
%TO.C,D10*%
X191900000Y-75325000D03*
X191900000Y-72125000D03*
X187000000Y-72125000D03*
X187000000Y-75325000D03*
%TD*%
D12*
%TO.C,C4*%
X81000000Y-160400000D03*
X81000000Y-162300000D03*
%TD*%
D11*
%TO.C,D2*%
X110200000Y-123400000D03*
X110200000Y-126600000D03*
X115100000Y-126600000D03*
X115100000Y-123400000D03*
%TD*%
D13*
%TO.C,C14*%
X152340000Y-48670000D03*
X154240000Y-48670000D03*
%TD*%
D12*
%TO.C,C9*%
X180000000Y-83080000D03*
X180000000Y-84980000D03*
%TD*%
D14*
%TO.C,D16*%
X135425000Y-90850000D03*
X138625000Y-90850000D03*
X138625000Y-85950000D03*
X135425000Y-85950000D03*
%TD*%
D12*
%TO.C,C11*%
X223340000Y-48390000D03*
X223340000Y-50290000D03*
%TD*%
D15*
%TO.C,C5*%
X122970000Y-166030000D03*
X121070000Y-166030000D03*
%TD*%
D10*
%TO.C,C8*%
X179120000Y-118770000D03*
X179120000Y-116870000D03*
%TD*%
D11*
%TO.C,D7*%
X166375000Y-136600000D03*
X166375000Y-133400000D03*
X161475000Y-133400000D03*
X161475000Y-136600000D03*
%TD*%
%TO.C,D12*%
X201625000Y-40125000D03*
X201625000Y-43325000D03*
X206525000Y-43325000D03*
X206525000Y-40125000D03*
%TD*%
D15*
%TO.C,C12*%
X203520000Y-37660000D03*
X201620000Y-37660000D03*
%TD*%
D11*
%TO.C,D6*%
X139625000Y-158450000D03*
X139625000Y-155250000D03*
X134725000Y-155250000D03*
X134725000Y-158450000D03*
%TD*%
D12*
%TO.C,C16*%
X132830000Y-88960000D03*
X132830000Y-90860000D03*
%TD*%
D13*
%TO.C,C10*%
X190010000Y-77840000D03*
X191910000Y-77840000D03*
%TD*%
D14*
%TO.C,D4*%
X75225000Y-165575000D03*
X78425000Y-165575000D03*
X78425000Y-160675000D03*
X75225000Y-160675000D03*
%TD*%
D10*
%TO.C,C2*%
X107880000Y-125280000D03*
X107880000Y-123380000D03*
%TD*%
%TO.C,C15*%
X127920000Y-77200000D03*
X127920000Y-75300000D03*
%TD*%
D11*
%TO.C,D14*%
X154225000Y-51400000D03*
X154225000Y-54600000D03*
X159125000Y-54600000D03*
X159125000Y-51400000D03*
%TD*%
D12*
%TO.C,C7*%
X168760000Y-134720000D03*
X168760000Y-136620000D03*
%TD*%
D13*
%TO.C,C6*%
X137730000Y-160840000D03*
X139630000Y-160840000D03*
%TD*%
D15*
%TO.C,C3*%
X88040000Y-141200000D03*
X86140000Y-141200000D03*
%TD*%
D14*
%TO.C,D11*%
X220825000Y-50300000D03*
X217625000Y-50300000D03*
X217625000Y-55200000D03*
X220825000Y-55200000D03*
%TD*%
D11*
%TO.C,D1*%
X133025000Y-114450000D03*
X133025000Y-117650000D03*
X137925000Y-117650000D03*
X137925000Y-114450000D03*
%TD*%
%TO.C,D5*%
X121075000Y-163325000D03*
X121075000Y-160125000D03*
X116175000Y-160125000D03*
X116175000Y-163325000D03*
%TD*%
D14*
%TO.C,D8*%
X176600000Y-116875000D03*
X173400000Y-116875000D03*
X173400000Y-121775000D03*
X176600000Y-121775000D03*
%TD*%
D10*
%TO.C,C1*%
X130720000Y-116340000D03*
X130720000Y-114440000D03*
%TD*%
D14*
%TO.C,D9*%
X177400000Y-84950000D03*
X174200000Y-84950000D03*
X174200000Y-89850000D03*
X177400000Y-89850000D03*
%TD*%
D11*
%TO.C,D3*%
X86100000Y-143600000D03*
X86100000Y-146800000D03*
X91000000Y-146800000D03*
X91000000Y-143600000D03*
%TD*%
D14*
%TO.C,D15*%
X122100000Y-76900000D03*
X125300000Y-76900000D03*
X125300000Y-72000000D03*
X122100000Y-72000000D03*
%TD*%
D11*
%TO.C,D13*%
X168775000Y-40850000D03*
X168775000Y-44050000D03*
X173675000Y-44050000D03*
X173675000Y-40850000D03*
%TD*%
M02*
