%TF.GenerationSoftware,KiCad,Pcbnew,(6.0.1)*%
%TF.CreationDate,2022-03-23T16:25:01+01:00*%
%TF.ProjectId,pcb_v1,7063625f-7631-42e6-9b69-6361645f7063,v1*%
%TF.SameCoordinates,Original*%
%TF.FileFunction,Paste,Bot*%
%TF.FilePolarity,Positive*%
%FSLAX46Y46*%
G04 Gerber Fmt 4.6, Leading zero omitted, Abs format (unit mm)*
G04 Created by KiCad (PCBNEW (6.0.1)) date 2022-03-23 16:25:01*
%MOMM*%
%LPD*%
G01*
G04 APERTURE LIST*
G04 Aperture macros list*
%AMRoundRect*
0 Rectangle with rounded corners*
0 $1 Rounding radius*
0 $2 $3 $4 $5 $6 $7 $8 $9 X,Y pos of 4 corners*
0 Add a 4 corners polygon primitive as box body*
4,1,4,$2,$3,$4,$5,$6,$7,$8,$9,$2,$3,0*
0 Add four circle primitives for the rounded corners*
1,1,$1+$1,$2,$3*
1,1,$1+$1,$4,$5*
1,1,$1+$1,$6,$7*
1,1,$1+$1,$8,$9*
0 Add four rect primitives between the rounded corners*
20,1,$1+$1,$2,$3,$4,$5,0*
20,1,$1+$1,$4,$5,$6,$7,0*
20,1,$1+$1,$6,$7,$8,$9,0*
20,1,$1+$1,$8,$9,$2,$3,0*%
%AMRotRect*
0 Rectangle, with rotation*
0 The origin of the aperture is its center*
0 $1 length*
0 $2 width*
0 $3 Rotation angle, in degrees counterclockwise*
0 Add horizontal line*
21,1,$1,$2,0,0,$3*%
G04 Aperture macros list end*
%ADD10RoundRect,0.250000X0.262500X0.450000X-0.262500X0.450000X-0.262500X-0.450000X0.262500X-0.450000X0*%
%ADD11RotRect,3.000000X2.000000X6.300000*%
%ADD12RoundRect,0.250000X0.250000X0.475000X-0.250000X0.475000X-0.250000X-0.475000X0.250000X-0.475000X0*%
%ADD13R,1.800000X3.500000*%
%ADD14RoundRect,0.250000X0.475000X-0.250000X0.475000X0.250000X-0.475000X0.250000X-0.475000X-0.250000X0*%
%ADD15R,5.400000X2.900000*%
%ADD16R,4.550000X5.250000*%
%ADD17R,4.600000X1.100000*%
%ADD18RoundRect,0.250000X1.500000X0.550000X-1.500000X0.550000X-1.500000X-0.550000X1.500000X-0.550000X0*%
%ADD19RoundRect,0.250000X-1.950000X-1.000000X1.950000X-1.000000X1.950000X1.000000X-1.950000X1.000000X0*%
G04 APERTURE END LIST*
D10*
%TO.C,R1*%
X195422500Y-52870000D03*
X193597500Y-52870000D03*
%TD*%
%TO.C,R4*%
X157312500Y-73230000D03*
X155487500Y-73230000D03*
%TD*%
%TO.C,R3*%
X157312500Y-75360000D03*
X155487500Y-75360000D03*
%TD*%
D11*
%TO.C,J7*%
X78614661Y-174292270D03*
X77956255Y-168328504D03*
X67022685Y-169535582D03*
X67681091Y-175499348D03*
%TD*%
D10*
%TO.C,R2*%
X199072500Y-52860000D03*
X197247500Y-52860000D03*
%TD*%
D12*
%TO.C,C22*%
X181930000Y-44720000D03*
X180030000Y-44720000D03*
%TD*%
D13*
%TO.C,D17*%
X176680000Y-62690000D03*
X176680000Y-57690000D03*
%TD*%
D14*
%TO.C,C19*%
X200800000Y-70890000D03*
X200800000Y-68990000D03*
%TD*%
D12*
%TO.C,C24*%
X181920000Y-49440000D03*
X180020000Y-49440000D03*
%TD*%
D15*
%TO.C,L1*%
X185660000Y-62780000D03*
X185660000Y-52880000D03*
%TD*%
D12*
%TO.C,C23*%
X181930000Y-47060000D03*
X180030000Y-47060000D03*
%TD*%
D14*
%TO.C,C17*%
X205230000Y-70870000D03*
X205230000Y-68970000D03*
%TD*%
D16*
%TO.C,U2*%
X207030000Y-58325000D03*
X207030000Y-63875000D03*
X202180000Y-58325000D03*
X202180000Y-63875000D03*
D17*
X195455000Y-64500000D03*
X195455000Y-62800000D03*
X195455000Y-61100000D03*
X195455000Y-59400000D03*
X195455000Y-57700000D03*
%TD*%
D18*
%TO.C,C20*%
X191850000Y-69210000D03*
X186450000Y-69210000D03*
%TD*%
D19*
%TO.C,C21*%
X188460000Y-45890000D03*
X195860000Y-45890000D03*
%TD*%
D14*
%TO.C,C18*%
X203010000Y-70870000D03*
X203010000Y-68970000D03*
%TD*%
M02*
