%TF.GenerationSoftware,KiCad,Pcbnew,(6.0.1)*%
%TF.CreationDate,2022-03-23T16:25:01+01:00*%
%TF.ProjectId,pcb_v1,7063625f-7631-42e6-9b69-6361645f7063,v1*%
%TF.SameCoordinates,Original*%
%TF.FileFunction,Soldermask,Top*%
%TF.FilePolarity,Negative*%
%FSLAX46Y46*%
G04 Gerber Fmt 4.6, Leading zero omitted, Abs format (unit mm)*
G04 Created by KiCad (PCBNEW (6.0.1)) date 2022-03-23 16:25:01*
%MOMM*%
%LPD*%
G01*
G04 APERTURE LIST*
G04 Aperture macros list*
%AMRoundRect*
0 Rectangle with rounded corners*
0 $1 Rounding radius*
0 $2 $3 $4 $5 $6 $7 $8 $9 X,Y pos of 4 corners*
0 Add a 4 corners polygon primitive as box body*
4,1,4,$2,$3,$4,$5,$6,$7,$8,$9,$2,$3,0*
0 Add four circle primitives for the rounded corners*
1,1,$1+$1,$2,$3*
1,1,$1+$1,$4,$5*
1,1,$1+$1,$6,$7*
1,1,$1+$1,$8,$9*
0 Add four rect primitives between the rounded corners*
20,1,$1+$1,$2,$3,$4,$5,0*
20,1,$1+$1,$4,$5,$6,$7,0*
20,1,$1+$1,$6,$7,$8,$9,0*
20,1,$1+$1,$8,$9,$2,$3,0*%
%AMHorizOval*
0 Thick line with rounded ends*
0 $1 width*
0 $2 $3 position (X,Y) of the first rounded end (center of the circle)*
0 $4 $5 position (X,Y) of the second rounded end (center of the circle)*
0 Add line between two ends*
20,1,$1,$2,$3,$4,$5,0*
0 Add two circle primitives to create the rounded ends*
1,1,$1,$2,$3*
1,1,$1,$4,$5*%
%AMRotRect*
0 Rectangle, with rotation*
0 The origin of the aperture is its center*
0 $1 length*
0 $2 width*
0 $3 Rotation angle, in degrees counterclockwise*
0 Add horizontal line*
21,1,$1,$2,0,0,$3*%
G04 Aperture macros list end*
%ADD10RoundRect,0.250000X0.475000X-0.250000X0.475000X0.250000X-0.475000X0.250000X-0.475000X-0.250000X0*%
%ADD11R,1.500000X1.000000*%
%ADD12RoundRect,0.250000X-0.475000X0.250000X-0.475000X-0.250000X0.475000X-0.250000X0.475000X0.250000X0*%
%ADD13RoundRect,0.250000X-0.250000X-0.475000X0.250000X-0.475000X0.250000X0.475000X-0.250000X0.475000X0*%
%ADD14R,1.000000X1.500000*%
%ADD15RoundRect,0.250000X0.250000X0.475000X-0.250000X0.475000X-0.250000X-0.475000X0.250000X-0.475000X0*%
%ADD16R,1.700000X1.700000*%
%ADD17O,1.700000X1.700000*%
%ADD18HorizOval,1.500000X0.248490X0.027434X-0.248490X-0.027434X0*%
%ADD19C,2.000000*%
%ADD20RotRect,1.700000X1.700000X262.800000*%
%ADD21HorizOval,1.700000X0.000000X0.000000X0.000000X0.000000X0*%
%ADD22RotRect,1.700000X1.700000X121.800000*%
%ADD23HorizOval,1.700000X0.000000X0.000000X0.000000X0.000000X0*%
%ADD24RotRect,1.700000X1.700000X82.800000*%
%ADD25HorizOval,1.700000X0.000000X0.000000X0.000000X0.000000X0*%
%ADD26RotRect,1.700000X1.700000X135.300000*%
%ADD27HorizOval,1.700000X0.000000X0.000000X0.000000X0.000000X0*%
%ADD28O,1.500000X1.500000*%
%ADD29O,1.800000X1.800000*%
%ADD30RotRect,1.700000X1.700000X301.800000*%
%ADD31HorizOval,1.700000X0.000000X0.000000X0.000000X0.000000X0*%
%ADD32RotRect,1.700000X1.700000X315.300000*%
%ADD33HorizOval,1.700000X0.000000X0.000000X0.000000X0.000000X0*%
G04 APERTURE END LIST*
D10*
%TO.C,C13*%
X166390000Y-42720000D03*
X166390000Y-40820000D03*
%TD*%
D11*
%TO.C,D10*%
X191900000Y-75325000D03*
X191900000Y-72125000D03*
X187000000Y-72125000D03*
X187000000Y-75325000D03*
%TD*%
D12*
%TO.C,C4*%
X81000000Y-160400000D03*
X81000000Y-162300000D03*
%TD*%
D11*
%TO.C,D2*%
X110200000Y-123400000D03*
X110200000Y-126600000D03*
X115100000Y-126600000D03*
X115100000Y-123400000D03*
%TD*%
D13*
%TO.C,C14*%
X152340000Y-48670000D03*
X154240000Y-48670000D03*
%TD*%
D12*
%TO.C,C9*%
X180000000Y-83080000D03*
X180000000Y-84980000D03*
%TD*%
D14*
%TO.C,D16*%
X135425000Y-90850000D03*
X138625000Y-90850000D03*
X138625000Y-85950000D03*
X135425000Y-85950000D03*
%TD*%
D12*
%TO.C,C11*%
X223340000Y-48390000D03*
X223340000Y-50290000D03*
%TD*%
D15*
%TO.C,C5*%
X122970000Y-166030000D03*
X121070000Y-166030000D03*
%TD*%
D10*
%TO.C,C8*%
X179120000Y-118770000D03*
X179120000Y-116870000D03*
%TD*%
D11*
%TO.C,D7*%
X166375000Y-136600000D03*
X166375000Y-133400000D03*
X161475000Y-133400000D03*
X161475000Y-136600000D03*
%TD*%
%TO.C,D12*%
X201625000Y-40125000D03*
X201625000Y-43325000D03*
X206525000Y-43325000D03*
X206525000Y-40125000D03*
%TD*%
D15*
%TO.C,C12*%
X203520000Y-37660000D03*
X201620000Y-37660000D03*
%TD*%
D11*
%TO.C,D6*%
X139625000Y-158450000D03*
X139625000Y-155250000D03*
X134725000Y-155250000D03*
X134725000Y-158450000D03*
%TD*%
D12*
%TO.C,C16*%
X132830000Y-88960000D03*
X132830000Y-90860000D03*
%TD*%
D13*
%TO.C,C10*%
X190010000Y-77840000D03*
X191910000Y-77840000D03*
%TD*%
D14*
%TO.C,D4*%
X75225000Y-165575000D03*
X78425000Y-165575000D03*
X78425000Y-160675000D03*
X75225000Y-160675000D03*
%TD*%
D10*
%TO.C,C2*%
X107880000Y-125280000D03*
X107880000Y-123380000D03*
%TD*%
%TO.C,C15*%
X127920000Y-77200000D03*
X127920000Y-75300000D03*
%TD*%
D11*
%TO.C,D14*%
X154225000Y-51400000D03*
X154225000Y-54600000D03*
X159125000Y-54600000D03*
X159125000Y-51400000D03*
%TD*%
D12*
%TO.C,C7*%
X168760000Y-134720000D03*
X168760000Y-136620000D03*
%TD*%
D13*
%TO.C,C6*%
X137730000Y-160840000D03*
X139630000Y-160840000D03*
%TD*%
D15*
%TO.C,C3*%
X88040000Y-141200000D03*
X86140000Y-141200000D03*
%TD*%
D14*
%TO.C,D11*%
X220825000Y-50300000D03*
X217625000Y-50300000D03*
X217625000Y-55200000D03*
X220825000Y-55200000D03*
%TD*%
D11*
%TO.C,D1*%
X133025000Y-114450000D03*
X133025000Y-117650000D03*
X137925000Y-117650000D03*
X137925000Y-114450000D03*
%TD*%
%TO.C,D5*%
X121075000Y-163325000D03*
X121075000Y-160125000D03*
X116175000Y-160125000D03*
X116175000Y-163325000D03*
%TD*%
D14*
%TO.C,D8*%
X176600000Y-116875000D03*
X173400000Y-116875000D03*
X173400000Y-121775000D03*
X176600000Y-121775000D03*
%TD*%
D10*
%TO.C,C1*%
X130720000Y-116340000D03*
X130720000Y-114440000D03*
%TD*%
D14*
%TO.C,D9*%
X177400000Y-84950000D03*
X174200000Y-84950000D03*
X174200000Y-89850000D03*
X177400000Y-89850000D03*
%TD*%
D11*
%TO.C,D3*%
X86100000Y-143600000D03*
X86100000Y-146800000D03*
X91000000Y-146800000D03*
X91000000Y-143600000D03*
%TD*%
D14*
%TO.C,D15*%
X122100000Y-76900000D03*
X125300000Y-76900000D03*
X125300000Y-72000000D03*
X122100000Y-72000000D03*
%TD*%
D11*
%TO.C,D13*%
X168775000Y-40850000D03*
X168775000Y-44050000D03*
X173675000Y-44050000D03*
X173675000Y-40850000D03*
%TD*%
D16*
%TO.C,J8*%
X138750000Y-128220000D03*
D17*
X136210000Y-128220000D03*
X133670000Y-128220000D03*
X131130000Y-128220000D03*
X128590000Y-128220000D03*
%TD*%
D18*
%TO.C,J7*%
X73136903Y-174796413D03*
D19*
X72654072Y-170422985D03*
%TD*%
D20*
%TO.C,J2*%
X109748404Y-172103336D03*
D21*
X109430058Y-174623307D03*
X112268375Y-172421682D03*
X111950029Y-174941654D03*
X114788347Y-172740029D03*
X114470000Y-175260000D03*
X117308318Y-173058375D03*
X116989972Y-175578347D03*
X119828289Y-173376722D03*
X119509943Y-175896693D03*
%TD*%
D22*
%TO.C,J1*%
X112555923Y-113691792D03*
D23*
X111217455Y-111533065D03*
X110397196Y-115030260D03*
X109058728Y-112871532D03*
X108238468Y-116368727D03*
X106900000Y-114210000D03*
X106079741Y-117707195D03*
X104741273Y-115548468D03*
X103921013Y-119045663D03*
X102582546Y-116886935D03*
%TD*%
D24*
%TO.C,J5*%
X209651596Y-35136664D03*
D25*
X209969942Y-32616693D03*
X207131625Y-34818318D03*
X207449971Y-32298346D03*
X204611653Y-34499971D03*
X204930000Y-31980000D03*
X202091682Y-34181625D03*
X202410028Y-31661653D03*
X199571711Y-33863278D03*
X199890057Y-31343307D03*
%TD*%
D26*
%TO.C,J6*%
X147258676Y-43485761D03*
D27*
X145453245Y-41699138D03*
X145472053Y-45291192D03*
X143666623Y-43504569D03*
X143685431Y-47096622D03*
X141880000Y-45310000D03*
X141898808Y-48902053D03*
X140093378Y-47115430D03*
X140112186Y-50707484D03*
X138306755Y-48920861D03*
%TD*%
D17*
%TO.C,U1*%
X158890000Y-79935000D03*
D16*
X156350000Y-79935000D03*
D17*
X153810000Y-79935000D03*
X165240000Y-127965000D03*
X165240000Y-125425000D03*
D16*
X165240000Y-122885000D03*
D17*
X165240000Y-120345000D03*
X165240000Y-117805000D03*
X165240000Y-115265000D03*
X165240000Y-112725000D03*
D16*
X165240000Y-110185000D03*
D17*
X165240000Y-107645000D03*
X165240000Y-105105000D03*
X165240000Y-102565000D03*
X165240000Y-100025000D03*
D16*
X165240000Y-97485000D03*
D17*
X165240000Y-94945000D03*
X165240000Y-92405000D03*
X165240000Y-89865000D03*
X165240000Y-87325000D03*
D16*
X165240000Y-84785000D03*
D17*
X165240000Y-82245000D03*
X165240000Y-79705000D03*
X147460000Y-79705000D03*
X147460000Y-82245000D03*
D16*
X147460000Y-84785000D03*
D17*
X147460000Y-87325000D03*
X147460000Y-89865000D03*
X147460000Y-92405000D03*
X147460000Y-94945000D03*
D16*
X147460000Y-97485000D03*
D17*
X147460000Y-100025000D03*
X147460000Y-102565000D03*
X147460000Y-105105000D03*
X147460000Y-107645000D03*
D16*
X147460000Y-110185000D03*
D17*
X147460000Y-112725000D03*
X147460000Y-115265000D03*
X147460000Y-117805000D03*
X147460000Y-120345000D03*
D16*
X147460000Y-122885000D03*
D17*
X147460000Y-125425000D03*
X147460000Y-127965000D03*
D28*
X158775000Y-124805000D03*
D29*
X153625000Y-127835000D03*
X159075000Y-127835000D03*
D28*
X153925000Y-124805000D03*
%TD*%
D30*
%TO.C,J4*%
X225214077Y-61688208D03*
D31*
X226552545Y-63846935D03*
X227372804Y-60349740D03*
X228711272Y-62508468D03*
X229531532Y-59011273D03*
X230870000Y-61170000D03*
X231690259Y-57672805D03*
X233028727Y-59831532D03*
X233848987Y-56334337D03*
X235187454Y-58493065D03*
%TD*%
D32*
%TO.C,J3*%
X166971324Y-148584239D03*
D33*
X168776755Y-150370862D03*
X168757947Y-146778808D03*
X170563377Y-148565431D03*
X170544569Y-144973378D03*
X172350000Y-146760000D03*
X172331192Y-143167947D03*
X174136622Y-144954570D03*
X174117814Y-141362516D03*
X175923245Y-143149139D03*
%TD*%
M02*
