%TF.GenerationSoftware,KiCad,Pcbnew,(6.0.1)*%
%TF.CreationDate,2022-03-23T16:25:01+01:00*%
%TF.ProjectId,pcb_v1,7063625f-7631-42e6-9b69-6361645f7063,v1*%
%TF.SameCoordinates,Original*%
%TF.FileFunction,Legend,Top*%
%TF.FilePolarity,Positive*%
%FSLAX46Y46*%
G04 Gerber Fmt 4.6, Leading zero omitted, Abs format (unit mm)*
G04 Created by KiCad (PCBNEW (6.0.1)) date 2022-03-23 16:25:01*
%MOMM*%
%LPD*%
G01*
G04 APERTURE LIST*
%ADD10C,0.150000*%
%ADD11C,0.120000*%
G04 APERTURE END LIST*
D10*
%TO.C,C13*%
X165537142Y-44677142D02*
X165489523Y-44724761D01*
X165346666Y-44772380D01*
X165251428Y-44772380D01*
X165108571Y-44724761D01*
X165013333Y-44629523D01*
X164965714Y-44534285D01*
X164918095Y-44343809D01*
X164918095Y-44200952D01*
X164965714Y-44010476D01*
X165013333Y-43915238D01*
X165108571Y-43820000D01*
X165251428Y-43772380D01*
X165346666Y-43772380D01*
X165489523Y-43820000D01*
X165537142Y-43867619D01*
X166489523Y-44772380D02*
X165918095Y-44772380D01*
X166203809Y-44772380D02*
X166203809Y-43772380D01*
X166108571Y-43915238D01*
X166013333Y-44010476D01*
X165918095Y-44058095D01*
X166822857Y-43772380D02*
X167441904Y-43772380D01*
X167108571Y-44153333D01*
X167251428Y-44153333D01*
X167346666Y-44200952D01*
X167394285Y-44248571D01*
X167441904Y-44343809D01*
X167441904Y-44581904D01*
X167394285Y-44677142D01*
X167346666Y-44724761D01*
X167251428Y-44772380D01*
X166965714Y-44772380D01*
X166870476Y-44724761D01*
X166822857Y-44677142D01*
%TO.C,D10*%
X193565714Y-76392380D02*
X193565714Y-75392380D01*
X193803809Y-75392380D01*
X193946666Y-75440000D01*
X194041904Y-75535238D01*
X194089523Y-75630476D01*
X194137142Y-75820952D01*
X194137142Y-75963809D01*
X194089523Y-76154285D01*
X194041904Y-76249523D01*
X193946666Y-76344761D01*
X193803809Y-76392380D01*
X193565714Y-76392380D01*
X195089523Y-76392380D02*
X194518095Y-76392380D01*
X194803809Y-76392380D02*
X194803809Y-75392380D01*
X194708571Y-75535238D01*
X194613333Y-75630476D01*
X194518095Y-75678095D01*
X195708571Y-75392380D02*
X195803809Y-75392380D01*
X195899047Y-75440000D01*
X195946666Y-75487619D01*
X195994285Y-75582857D01*
X196041904Y-75773333D01*
X196041904Y-76011428D01*
X195994285Y-76201904D01*
X195946666Y-76297142D01*
X195899047Y-76344761D01*
X195803809Y-76392380D01*
X195708571Y-76392380D01*
X195613333Y-76344761D01*
X195565714Y-76297142D01*
X195518095Y-76201904D01*
X195470476Y-76011428D01*
X195470476Y-75773333D01*
X195518095Y-75582857D01*
X195565714Y-75487619D01*
X195613333Y-75440000D01*
X195708571Y-75392380D01*
%TO.C,C4*%
X80813333Y-164207142D02*
X80765714Y-164254761D01*
X80622857Y-164302380D01*
X80527619Y-164302380D01*
X80384761Y-164254761D01*
X80289523Y-164159523D01*
X80241904Y-164064285D01*
X80194285Y-163873809D01*
X80194285Y-163730952D01*
X80241904Y-163540476D01*
X80289523Y-163445238D01*
X80384761Y-163350000D01*
X80527619Y-163302380D01*
X80622857Y-163302380D01*
X80765714Y-163350000D01*
X80813333Y-163397619D01*
X81670476Y-163635714D02*
X81670476Y-164302380D01*
X81432380Y-163254761D02*
X81194285Y-163969047D01*
X81813333Y-163969047D01*
%TO.C,D2*%
X109011904Y-129202380D02*
X109011904Y-128202380D01*
X109250000Y-128202380D01*
X109392857Y-128250000D01*
X109488095Y-128345238D01*
X109535714Y-128440476D01*
X109583333Y-128630952D01*
X109583333Y-128773809D01*
X109535714Y-128964285D01*
X109488095Y-129059523D01*
X109392857Y-129154761D01*
X109250000Y-129202380D01*
X109011904Y-129202380D01*
X109964285Y-128297619D02*
X110011904Y-128250000D01*
X110107142Y-128202380D01*
X110345238Y-128202380D01*
X110440476Y-128250000D01*
X110488095Y-128297619D01*
X110535714Y-128392857D01*
X110535714Y-128488095D01*
X110488095Y-128630952D01*
X109916666Y-129202380D01*
X110535714Y-129202380D01*
%TO.C,C14*%
X156047142Y-49097142D02*
X155999523Y-49144761D01*
X155856666Y-49192380D01*
X155761428Y-49192380D01*
X155618571Y-49144761D01*
X155523333Y-49049523D01*
X155475714Y-48954285D01*
X155428095Y-48763809D01*
X155428095Y-48620952D01*
X155475714Y-48430476D01*
X155523333Y-48335238D01*
X155618571Y-48240000D01*
X155761428Y-48192380D01*
X155856666Y-48192380D01*
X155999523Y-48240000D01*
X156047142Y-48287619D01*
X156999523Y-49192380D02*
X156428095Y-49192380D01*
X156713809Y-49192380D02*
X156713809Y-48192380D01*
X156618571Y-48335238D01*
X156523333Y-48430476D01*
X156428095Y-48478095D01*
X157856666Y-48525714D02*
X157856666Y-49192380D01*
X157618571Y-48144761D02*
X157380476Y-48859047D01*
X157999523Y-48859047D01*
%TO.C,C9*%
X179803333Y-87027142D02*
X179755714Y-87074761D01*
X179612857Y-87122380D01*
X179517619Y-87122380D01*
X179374761Y-87074761D01*
X179279523Y-86979523D01*
X179231904Y-86884285D01*
X179184285Y-86693809D01*
X179184285Y-86550952D01*
X179231904Y-86360476D01*
X179279523Y-86265238D01*
X179374761Y-86170000D01*
X179517619Y-86122380D01*
X179612857Y-86122380D01*
X179755714Y-86170000D01*
X179803333Y-86217619D01*
X180279523Y-87122380D02*
X180470000Y-87122380D01*
X180565238Y-87074761D01*
X180612857Y-87027142D01*
X180708095Y-86884285D01*
X180755714Y-86693809D01*
X180755714Y-86312857D01*
X180708095Y-86217619D01*
X180660476Y-86170000D01*
X180565238Y-86122380D01*
X180374761Y-86122380D01*
X180279523Y-86170000D01*
X180231904Y-86217619D01*
X180184285Y-86312857D01*
X180184285Y-86550952D01*
X180231904Y-86646190D01*
X180279523Y-86693809D01*
X180374761Y-86741428D01*
X180565238Y-86741428D01*
X180660476Y-86693809D01*
X180708095Y-86646190D01*
X180755714Y-86550952D01*
%TO.C,D16*%
X134285714Y-93452380D02*
X134285714Y-92452380D01*
X134523809Y-92452380D01*
X134666666Y-92500000D01*
X134761904Y-92595238D01*
X134809523Y-92690476D01*
X134857142Y-92880952D01*
X134857142Y-93023809D01*
X134809523Y-93214285D01*
X134761904Y-93309523D01*
X134666666Y-93404761D01*
X134523809Y-93452380D01*
X134285714Y-93452380D01*
X135809523Y-93452380D02*
X135238095Y-93452380D01*
X135523809Y-93452380D02*
X135523809Y-92452380D01*
X135428571Y-92595238D01*
X135333333Y-92690476D01*
X135238095Y-92738095D01*
X136666666Y-92452380D02*
X136476190Y-92452380D01*
X136380952Y-92500000D01*
X136333333Y-92547619D01*
X136238095Y-92690476D01*
X136190476Y-92880952D01*
X136190476Y-93261904D01*
X136238095Y-93357142D01*
X136285714Y-93404761D01*
X136380952Y-93452380D01*
X136571428Y-93452380D01*
X136666666Y-93404761D01*
X136714285Y-93357142D01*
X136761904Y-93261904D01*
X136761904Y-93023809D01*
X136714285Y-92928571D01*
X136666666Y-92880952D01*
X136571428Y-92833333D01*
X136380952Y-92833333D01*
X136285714Y-92880952D01*
X136238095Y-92928571D01*
X136190476Y-93023809D01*
%TO.C,C11*%
X219857142Y-48607142D02*
X219809523Y-48654761D01*
X219666666Y-48702380D01*
X219571428Y-48702380D01*
X219428571Y-48654761D01*
X219333333Y-48559523D01*
X219285714Y-48464285D01*
X219238095Y-48273809D01*
X219238095Y-48130952D01*
X219285714Y-47940476D01*
X219333333Y-47845238D01*
X219428571Y-47750000D01*
X219571428Y-47702380D01*
X219666666Y-47702380D01*
X219809523Y-47750000D01*
X219857142Y-47797619D01*
X220809523Y-48702380D02*
X220238095Y-48702380D01*
X220523809Y-48702380D02*
X220523809Y-47702380D01*
X220428571Y-47845238D01*
X220333333Y-47940476D01*
X220238095Y-47988095D01*
X221761904Y-48702380D02*
X221190476Y-48702380D01*
X221476190Y-48702380D02*
X221476190Y-47702380D01*
X221380952Y-47845238D01*
X221285714Y-47940476D01*
X221190476Y-47988095D01*
%TO.C,C5*%
X117833333Y-166357142D02*
X117785714Y-166404761D01*
X117642857Y-166452380D01*
X117547619Y-166452380D01*
X117404761Y-166404761D01*
X117309523Y-166309523D01*
X117261904Y-166214285D01*
X117214285Y-166023809D01*
X117214285Y-165880952D01*
X117261904Y-165690476D01*
X117309523Y-165595238D01*
X117404761Y-165500000D01*
X117547619Y-165452380D01*
X117642857Y-165452380D01*
X117785714Y-165500000D01*
X117833333Y-165547619D01*
X118738095Y-165452380D02*
X118261904Y-165452380D01*
X118214285Y-165928571D01*
X118261904Y-165880952D01*
X118357142Y-165833333D01*
X118595238Y-165833333D01*
X118690476Y-165880952D01*
X118738095Y-165928571D01*
X118785714Y-166023809D01*
X118785714Y-166261904D01*
X118738095Y-166357142D01*
X118690476Y-166404761D01*
X118595238Y-166452380D01*
X118357142Y-166452380D01*
X118261904Y-166404761D01*
X118214285Y-166357142D01*
%TO.C,C8*%
X178973333Y-115607142D02*
X178925714Y-115654761D01*
X178782857Y-115702380D01*
X178687619Y-115702380D01*
X178544761Y-115654761D01*
X178449523Y-115559523D01*
X178401904Y-115464285D01*
X178354285Y-115273809D01*
X178354285Y-115130952D01*
X178401904Y-114940476D01*
X178449523Y-114845238D01*
X178544761Y-114750000D01*
X178687619Y-114702380D01*
X178782857Y-114702380D01*
X178925714Y-114750000D01*
X178973333Y-114797619D01*
X179544761Y-115130952D02*
X179449523Y-115083333D01*
X179401904Y-115035714D01*
X179354285Y-114940476D01*
X179354285Y-114892857D01*
X179401904Y-114797619D01*
X179449523Y-114750000D01*
X179544761Y-114702380D01*
X179735238Y-114702380D01*
X179830476Y-114750000D01*
X179878095Y-114797619D01*
X179925714Y-114892857D01*
X179925714Y-114940476D01*
X179878095Y-115035714D01*
X179830476Y-115083333D01*
X179735238Y-115130952D01*
X179544761Y-115130952D01*
X179449523Y-115178571D01*
X179401904Y-115226190D01*
X179354285Y-115321428D01*
X179354285Y-115511904D01*
X179401904Y-115607142D01*
X179449523Y-115654761D01*
X179544761Y-115702380D01*
X179735238Y-115702380D01*
X179830476Y-115654761D01*
X179878095Y-115607142D01*
X179925714Y-115511904D01*
X179925714Y-115321428D01*
X179878095Y-115226190D01*
X179830476Y-115178571D01*
X179735238Y-115130952D01*
%TO.C,D7*%
X160511904Y-139202380D02*
X160511904Y-138202380D01*
X160750000Y-138202380D01*
X160892857Y-138250000D01*
X160988095Y-138345238D01*
X161035714Y-138440476D01*
X161083333Y-138630952D01*
X161083333Y-138773809D01*
X161035714Y-138964285D01*
X160988095Y-139059523D01*
X160892857Y-139154761D01*
X160750000Y-139202380D01*
X160511904Y-139202380D01*
X161416666Y-138202380D02*
X162083333Y-138202380D01*
X161654761Y-139202380D01*
%TO.C,D12*%
X200785714Y-45952380D02*
X200785714Y-44952380D01*
X201023809Y-44952380D01*
X201166666Y-45000000D01*
X201261904Y-45095238D01*
X201309523Y-45190476D01*
X201357142Y-45380952D01*
X201357142Y-45523809D01*
X201309523Y-45714285D01*
X201261904Y-45809523D01*
X201166666Y-45904761D01*
X201023809Y-45952380D01*
X200785714Y-45952380D01*
X202309523Y-45952380D02*
X201738095Y-45952380D01*
X202023809Y-45952380D02*
X202023809Y-44952380D01*
X201928571Y-45095238D01*
X201833333Y-45190476D01*
X201738095Y-45238095D01*
X202690476Y-45047619D02*
X202738095Y-45000000D01*
X202833333Y-44952380D01*
X203071428Y-44952380D01*
X203166666Y-45000000D01*
X203214285Y-45047619D01*
X203261904Y-45142857D01*
X203261904Y-45238095D01*
X203214285Y-45380952D01*
X202642857Y-45952380D01*
X203261904Y-45952380D01*
%TO.C,C12*%
X205327142Y-38047142D02*
X205279523Y-38094761D01*
X205136666Y-38142380D01*
X205041428Y-38142380D01*
X204898571Y-38094761D01*
X204803333Y-37999523D01*
X204755714Y-37904285D01*
X204708095Y-37713809D01*
X204708095Y-37570952D01*
X204755714Y-37380476D01*
X204803333Y-37285238D01*
X204898571Y-37190000D01*
X205041428Y-37142380D01*
X205136666Y-37142380D01*
X205279523Y-37190000D01*
X205327142Y-37237619D01*
X206279523Y-38142380D02*
X205708095Y-38142380D01*
X205993809Y-38142380D02*
X205993809Y-37142380D01*
X205898571Y-37285238D01*
X205803333Y-37380476D01*
X205708095Y-37428095D01*
X206660476Y-37237619D02*
X206708095Y-37190000D01*
X206803333Y-37142380D01*
X207041428Y-37142380D01*
X207136666Y-37190000D01*
X207184285Y-37237619D01*
X207231904Y-37332857D01*
X207231904Y-37428095D01*
X207184285Y-37570952D01*
X206612857Y-38142380D01*
X207231904Y-38142380D01*
%TO.C,D6*%
X141231904Y-159572380D02*
X141231904Y-158572380D01*
X141470000Y-158572380D01*
X141612857Y-158620000D01*
X141708095Y-158715238D01*
X141755714Y-158810476D01*
X141803333Y-159000952D01*
X141803333Y-159143809D01*
X141755714Y-159334285D01*
X141708095Y-159429523D01*
X141612857Y-159524761D01*
X141470000Y-159572380D01*
X141231904Y-159572380D01*
X142660476Y-158572380D02*
X142470000Y-158572380D01*
X142374761Y-158620000D01*
X142327142Y-158667619D01*
X142231904Y-158810476D01*
X142184285Y-159000952D01*
X142184285Y-159381904D01*
X142231904Y-159477142D01*
X142279523Y-159524761D01*
X142374761Y-159572380D01*
X142565238Y-159572380D01*
X142660476Y-159524761D01*
X142708095Y-159477142D01*
X142755714Y-159381904D01*
X142755714Y-159143809D01*
X142708095Y-159048571D01*
X142660476Y-159000952D01*
X142565238Y-158953333D01*
X142374761Y-158953333D01*
X142279523Y-159000952D01*
X142231904Y-159048571D01*
X142184285Y-159143809D01*
%TO.C,C16*%
X131857142Y-87357142D02*
X131809523Y-87404761D01*
X131666666Y-87452380D01*
X131571428Y-87452380D01*
X131428571Y-87404761D01*
X131333333Y-87309523D01*
X131285714Y-87214285D01*
X131238095Y-87023809D01*
X131238095Y-86880952D01*
X131285714Y-86690476D01*
X131333333Y-86595238D01*
X131428571Y-86500000D01*
X131571428Y-86452380D01*
X131666666Y-86452380D01*
X131809523Y-86500000D01*
X131857142Y-86547619D01*
X132809523Y-87452380D02*
X132238095Y-87452380D01*
X132523809Y-87452380D02*
X132523809Y-86452380D01*
X132428571Y-86595238D01*
X132333333Y-86690476D01*
X132238095Y-86738095D01*
X133666666Y-86452380D02*
X133476190Y-86452380D01*
X133380952Y-86500000D01*
X133333333Y-86547619D01*
X133238095Y-86690476D01*
X133190476Y-86880952D01*
X133190476Y-87261904D01*
X133238095Y-87357142D01*
X133285714Y-87404761D01*
X133380952Y-87452380D01*
X133571428Y-87452380D01*
X133666666Y-87404761D01*
X133714285Y-87357142D01*
X133761904Y-87261904D01*
X133761904Y-87023809D01*
X133714285Y-86928571D01*
X133666666Y-86880952D01*
X133571428Y-86833333D01*
X133380952Y-86833333D01*
X133285714Y-86880952D01*
X133238095Y-86928571D01*
X133190476Y-87023809D01*
%TO.C,C10*%
X186857142Y-78107142D02*
X186809523Y-78154761D01*
X186666666Y-78202380D01*
X186571428Y-78202380D01*
X186428571Y-78154761D01*
X186333333Y-78059523D01*
X186285714Y-77964285D01*
X186238095Y-77773809D01*
X186238095Y-77630952D01*
X186285714Y-77440476D01*
X186333333Y-77345238D01*
X186428571Y-77250000D01*
X186571428Y-77202380D01*
X186666666Y-77202380D01*
X186809523Y-77250000D01*
X186857142Y-77297619D01*
X187809523Y-78202380D02*
X187238095Y-78202380D01*
X187523809Y-78202380D02*
X187523809Y-77202380D01*
X187428571Y-77345238D01*
X187333333Y-77440476D01*
X187238095Y-77488095D01*
X188428571Y-77202380D02*
X188523809Y-77202380D01*
X188619047Y-77250000D01*
X188666666Y-77297619D01*
X188714285Y-77392857D01*
X188761904Y-77583333D01*
X188761904Y-77821428D01*
X188714285Y-78011904D01*
X188666666Y-78107142D01*
X188619047Y-78154761D01*
X188523809Y-78202380D01*
X188428571Y-78202380D01*
X188333333Y-78154761D01*
X188285714Y-78107142D01*
X188238095Y-78011904D01*
X188190476Y-77821428D01*
X188190476Y-77583333D01*
X188238095Y-77392857D01*
X188285714Y-77297619D01*
X188333333Y-77250000D01*
X188428571Y-77202380D01*
%TO.C,D4*%
X80011904Y-166702380D02*
X80011904Y-165702380D01*
X80250000Y-165702380D01*
X80392857Y-165750000D01*
X80488095Y-165845238D01*
X80535714Y-165940476D01*
X80583333Y-166130952D01*
X80583333Y-166273809D01*
X80535714Y-166464285D01*
X80488095Y-166559523D01*
X80392857Y-166654761D01*
X80250000Y-166702380D01*
X80011904Y-166702380D01*
X81440476Y-166035714D02*
X81440476Y-166702380D01*
X81202380Y-165654761D02*
X80964285Y-166369047D01*
X81583333Y-166369047D01*
%TO.C,C2*%
X107703333Y-127317142D02*
X107655714Y-127364761D01*
X107512857Y-127412380D01*
X107417619Y-127412380D01*
X107274761Y-127364761D01*
X107179523Y-127269523D01*
X107131904Y-127174285D01*
X107084285Y-126983809D01*
X107084285Y-126840952D01*
X107131904Y-126650476D01*
X107179523Y-126555238D01*
X107274761Y-126460000D01*
X107417619Y-126412380D01*
X107512857Y-126412380D01*
X107655714Y-126460000D01*
X107703333Y-126507619D01*
X108084285Y-126507619D02*
X108131904Y-126460000D01*
X108227142Y-126412380D01*
X108465238Y-126412380D01*
X108560476Y-126460000D01*
X108608095Y-126507619D01*
X108655714Y-126602857D01*
X108655714Y-126698095D01*
X108608095Y-126840952D01*
X108036666Y-127412380D01*
X108655714Y-127412380D01*
%TO.C,C15*%
X127537142Y-74167142D02*
X127489523Y-74214761D01*
X127346666Y-74262380D01*
X127251428Y-74262380D01*
X127108571Y-74214761D01*
X127013333Y-74119523D01*
X126965714Y-74024285D01*
X126918095Y-73833809D01*
X126918095Y-73690952D01*
X126965714Y-73500476D01*
X127013333Y-73405238D01*
X127108571Y-73310000D01*
X127251428Y-73262380D01*
X127346666Y-73262380D01*
X127489523Y-73310000D01*
X127537142Y-73357619D01*
X128489523Y-74262380D02*
X127918095Y-74262380D01*
X128203809Y-74262380D02*
X128203809Y-73262380D01*
X128108571Y-73405238D01*
X128013333Y-73500476D01*
X127918095Y-73548095D01*
X129394285Y-73262380D02*
X128918095Y-73262380D01*
X128870476Y-73738571D01*
X128918095Y-73690952D01*
X129013333Y-73643333D01*
X129251428Y-73643333D01*
X129346666Y-73690952D01*
X129394285Y-73738571D01*
X129441904Y-73833809D01*
X129441904Y-74071904D01*
X129394285Y-74167142D01*
X129346666Y-74214761D01*
X129251428Y-74262380D01*
X129013333Y-74262380D01*
X128918095Y-74214761D01*
X128870476Y-74167142D01*
%TO.C,D14*%
X153285714Y-57202380D02*
X153285714Y-56202380D01*
X153523809Y-56202380D01*
X153666666Y-56250000D01*
X153761904Y-56345238D01*
X153809523Y-56440476D01*
X153857142Y-56630952D01*
X153857142Y-56773809D01*
X153809523Y-56964285D01*
X153761904Y-57059523D01*
X153666666Y-57154761D01*
X153523809Y-57202380D01*
X153285714Y-57202380D01*
X154809523Y-57202380D02*
X154238095Y-57202380D01*
X154523809Y-57202380D02*
X154523809Y-56202380D01*
X154428571Y-56345238D01*
X154333333Y-56440476D01*
X154238095Y-56488095D01*
X155666666Y-56535714D02*
X155666666Y-57202380D01*
X155428571Y-56154761D02*
X155190476Y-56869047D01*
X155809523Y-56869047D01*
%TO.C,C7*%
X168703333Y-133607142D02*
X168655714Y-133654761D01*
X168512857Y-133702380D01*
X168417619Y-133702380D01*
X168274761Y-133654761D01*
X168179523Y-133559523D01*
X168131904Y-133464285D01*
X168084285Y-133273809D01*
X168084285Y-133130952D01*
X168131904Y-132940476D01*
X168179523Y-132845238D01*
X168274761Y-132750000D01*
X168417619Y-132702380D01*
X168512857Y-132702380D01*
X168655714Y-132750000D01*
X168703333Y-132797619D01*
X169036666Y-132702380D02*
X169703333Y-132702380D01*
X169274761Y-133702380D01*
%TO.C,C6*%
X135623333Y-161127142D02*
X135575714Y-161174761D01*
X135432857Y-161222380D01*
X135337619Y-161222380D01*
X135194761Y-161174761D01*
X135099523Y-161079523D01*
X135051904Y-160984285D01*
X135004285Y-160793809D01*
X135004285Y-160650952D01*
X135051904Y-160460476D01*
X135099523Y-160365238D01*
X135194761Y-160270000D01*
X135337619Y-160222380D01*
X135432857Y-160222380D01*
X135575714Y-160270000D01*
X135623333Y-160317619D01*
X136480476Y-160222380D02*
X136290000Y-160222380D01*
X136194761Y-160270000D01*
X136147142Y-160317619D01*
X136051904Y-160460476D01*
X136004285Y-160650952D01*
X136004285Y-161031904D01*
X136051904Y-161127142D01*
X136099523Y-161174761D01*
X136194761Y-161222380D01*
X136385238Y-161222380D01*
X136480476Y-161174761D01*
X136528095Y-161127142D01*
X136575714Y-161031904D01*
X136575714Y-160793809D01*
X136528095Y-160698571D01*
X136480476Y-160650952D01*
X136385238Y-160603333D01*
X136194761Y-160603333D01*
X136099523Y-160650952D01*
X136051904Y-160698571D01*
X136004285Y-160793809D01*
%TO.C,C3*%
X89833333Y-141607142D02*
X89785714Y-141654761D01*
X89642857Y-141702380D01*
X89547619Y-141702380D01*
X89404761Y-141654761D01*
X89309523Y-141559523D01*
X89261904Y-141464285D01*
X89214285Y-141273809D01*
X89214285Y-141130952D01*
X89261904Y-140940476D01*
X89309523Y-140845238D01*
X89404761Y-140750000D01*
X89547619Y-140702380D01*
X89642857Y-140702380D01*
X89785714Y-140750000D01*
X89833333Y-140797619D01*
X90166666Y-140702380D02*
X90785714Y-140702380D01*
X90452380Y-141083333D01*
X90595238Y-141083333D01*
X90690476Y-141130952D01*
X90738095Y-141178571D01*
X90785714Y-141273809D01*
X90785714Y-141511904D01*
X90738095Y-141607142D01*
X90690476Y-141654761D01*
X90595238Y-141702380D01*
X90309523Y-141702380D01*
X90214285Y-141654761D01*
X90166666Y-141607142D01*
%TO.C,D11*%
X222495714Y-56122380D02*
X222495714Y-55122380D01*
X222733809Y-55122380D01*
X222876666Y-55170000D01*
X222971904Y-55265238D01*
X223019523Y-55360476D01*
X223067142Y-55550952D01*
X223067142Y-55693809D01*
X223019523Y-55884285D01*
X222971904Y-55979523D01*
X222876666Y-56074761D01*
X222733809Y-56122380D01*
X222495714Y-56122380D01*
X224019523Y-56122380D02*
X223448095Y-56122380D01*
X223733809Y-56122380D02*
X223733809Y-55122380D01*
X223638571Y-55265238D01*
X223543333Y-55360476D01*
X223448095Y-55408095D01*
X224971904Y-56122380D02*
X224400476Y-56122380D01*
X224686190Y-56122380D02*
X224686190Y-55122380D01*
X224590952Y-55265238D01*
X224495714Y-55360476D01*
X224400476Y-55408095D01*
%TO.C,D1*%
X131761904Y-120202380D02*
X131761904Y-119202380D01*
X132000000Y-119202380D01*
X132142857Y-119250000D01*
X132238095Y-119345238D01*
X132285714Y-119440476D01*
X132333333Y-119630952D01*
X132333333Y-119773809D01*
X132285714Y-119964285D01*
X132238095Y-120059523D01*
X132142857Y-120154761D01*
X132000000Y-120202380D01*
X131761904Y-120202380D01*
X133285714Y-120202380D02*
X132714285Y-120202380D01*
X133000000Y-120202380D02*
X133000000Y-119202380D01*
X132904761Y-119345238D01*
X132809523Y-119440476D01*
X132714285Y-119488095D01*
%TO.C,D5*%
X122761904Y-164452380D02*
X122761904Y-163452380D01*
X123000000Y-163452380D01*
X123142857Y-163500000D01*
X123238095Y-163595238D01*
X123285714Y-163690476D01*
X123333333Y-163880952D01*
X123333333Y-164023809D01*
X123285714Y-164214285D01*
X123238095Y-164309523D01*
X123142857Y-164404761D01*
X123000000Y-164452380D01*
X122761904Y-164452380D01*
X124238095Y-163452380D02*
X123761904Y-163452380D01*
X123714285Y-163928571D01*
X123761904Y-163880952D01*
X123857142Y-163833333D01*
X124095238Y-163833333D01*
X124190476Y-163880952D01*
X124238095Y-163928571D01*
X124285714Y-164023809D01*
X124285714Y-164261904D01*
X124238095Y-164357142D01*
X124190476Y-164404761D01*
X124095238Y-164452380D01*
X123857142Y-164452380D01*
X123761904Y-164404761D01*
X123714285Y-164357142D01*
%TO.C,D8*%
X178221904Y-122722380D02*
X178221904Y-121722380D01*
X178460000Y-121722380D01*
X178602857Y-121770000D01*
X178698095Y-121865238D01*
X178745714Y-121960476D01*
X178793333Y-122150952D01*
X178793333Y-122293809D01*
X178745714Y-122484285D01*
X178698095Y-122579523D01*
X178602857Y-122674761D01*
X178460000Y-122722380D01*
X178221904Y-122722380D01*
X179364761Y-122150952D02*
X179269523Y-122103333D01*
X179221904Y-122055714D01*
X179174285Y-121960476D01*
X179174285Y-121912857D01*
X179221904Y-121817619D01*
X179269523Y-121770000D01*
X179364761Y-121722380D01*
X179555238Y-121722380D01*
X179650476Y-121770000D01*
X179698095Y-121817619D01*
X179745714Y-121912857D01*
X179745714Y-121960476D01*
X179698095Y-122055714D01*
X179650476Y-122103333D01*
X179555238Y-122150952D01*
X179364761Y-122150952D01*
X179269523Y-122198571D01*
X179221904Y-122246190D01*
X179174285Y-122341428D01*
X179174285Y-122531904D01*
X179221904Y-122627142D01*
X179269523Y-122674761D01*
X179364761Y-122722380D01*
X179555238Y-122722380D01*
X179650476Y-122674761D01*
X179698095Y-122627142D01*
X179745714Y-122531904D01*
X179745714Y-122341428D01*
X179698095Y-122246190D01*
X179650476Y-122198571D01*
X179555238Y-122150952D01*
%TO.C,C1*%
X130553333Y-113107142D02*
X130505714Y-113154761D01*
X130362857Y-113202380D01*
X130267619Y-113202380D01*
X130124761Y-113154761D01*
X130029523Y-113059523D01*
X129981904Y-112964285D01*
X129934285Y-112773809D01*
X129934285Y-112630952D01*
X129981904Y-112440476D01*
X130029523Y-112345238D01*
X130124761Y-112250000D01*
X130267619Y-112202380D01*
X130362857Y-112202380D01*
X130505714Y-112250000D01*
X130553333Y-112297619D01*
X131505714Y-113202380D02*
X130934285Y-113202380D01*
X131220000Y-113202380D02*
X131220000Y-112202380D01*
X131124761Y-112345238D01*
X131029523Y-112440476D01*
X130934285Y-112488095D01*
%TO.C,D9*%
X178991904Y-90862380D02*
X178991904Y-89862380D01*
X179230000Y-89862380D01*
X179372857Y-89910000D01*
X179468095Y-90005238D01*
X179515714Y-90100476D01*
X179563333Y-90290952D01*
X179563333Y-90433809D01*
X179515714Y-90624285D01*
X179468095Y-90719523D01*
X179372857Y-90814761D01*
X179230000Y-90862380D01*
X178991904Y-90862380D01*
X180039523Y-90862380D02*
X180230000Y-90862380D01*
X180325238Y-90814761D01*
X180372857Y-90767142D01*
X180468095Y-90624285D01*
X180515714Y-90433809D01*
X180515714Y-90052857D01*
X180468095Y-89957619D01*
X180420476Y-89910000D01*
X180325238Y-89862380D01*
X180134761Y-89862380D01*
X180039523Y-89910000D01*
X179991904Y-89957619D01*
X179944285Y-90052857D01*
X179944285Y-90290952D01*
X179991904Y-90386190D01*
X180039523Y-90433809D01*
X180134761Y-90481428D01*
X180325238Y-90481428D01*
X180420476Y-90433809D01*
X180468095Y-90386190D01*
X180515714Y-90290952D01*
%TO.C,D3*%
X85011904Y-149452380D02*
X85011904Y-148452380D01*
X85250000Y-148452380D01*
X85392857Y-148500000D01*
X85488095Y-148595238D01*
X85535714Y-148690476D01*
X85583333Y-148880952D01*
X85583333Y-149023809D01*
X85535714Y-149214285D01*
X85488095Y-149309523D01*
X85392857Y-149404761D01*
X85250000Y-149452380D01*
X85011904Y-149452380D01*
X85916666Y-148452380D02*
X86535714Y-148452380D01*
X86202380Y-148833333D01*
X86345238Y-148833333D01*
X86440476Y-148880952D01*
X86488095Y-148928571D01*
X86535714Y-149023809D01*
X86535714Y-149261904D01*
X86488095Y-149357142D01*
X86440476Y-149404761D01*
X86345238Y-149452380D01*
X86059523Y-149452380D01*
X85964285Y-149404761D01*
X85916666Y-149357142D01*
%TO.C,D15*%
X120995714Y-79322380D02*
X120995714Y-78322380D01*
X121233809Y-78322380D01*
X121376666Y-78370000D01*
X121471904Y-78465238D01*
X121519523Y-78560476D01*
X121567142Y-78750952D01*
X121567142Y-78893809D01*
X121519523Y-79084285D01*
X121471904Y-79179523D01*
X121376666Y-79274761D01*
X121233809Y-79322380D01*
X120995714Y-79322380D01*
X122519523Y-79322380D02*
X121948095Y-79322380D01*
X122233809Y-79322380D02*
X122233809Y-78322380D01*
X122138571Y-78465238D01*
X122043333Y-78560476D01*
X121948095Y-78608095D01*
X123424285Y-78322380D02*
X122948095Y-78322380D01*
X122900476Y-78798571D01*
X122948095Y-78750952D01*
X123043333Y-78703333D01*
X123281428Y-78703333D01*
X123376666Y-78750952D01*
X123424285Y-78798571D01*
X123471904Y-78893809D01*
X123471904Y-79131904D01*
X123424285Y-79227142D01*
X123376666Y-79274761D01*
X123281428Y-79322380D01*
X123043333Y-79322380D01*
X122948095Y-79274761D01*
X122900476Y-79227142D01*
%TO.C,D13*%
X167785714Y-46702380D02*
X167785714Y-45702380D01*
X168023809Y-45702380D01*
X168166666Y-45750000D01*
X168261904Y-45845238D01*
X168309523Y-45940476D01*
X168357142Y-46130952D01*
X168357142Y-46273809D01*
X168309523Y-46464285D01*
X168261904Y-46559523D01*
X168166666Y-46654761D01*
X168023809Y-46702380D01*
X167785714Y-46702380D01*
X169309523Y-46702380D02*
X168738095Y-46702380D01*
X169023809Y-46702380D02*
X169023809Y-45702380D01*
X168928571Y-45845238D01*
X168833333Y-45940476D01*
X168738095Y-45988095D01*
X169642857Y-45702380D02*
X170261904Y-45702380D01*
X169928571Y-46083333D01*
X170071428Y-46083333D01*
X170166666Y-46130952D01*
X170214285Y-46178571D01*
X170261904Y-46273809D01*
X170261904Y-46511904D01*
X170214285Y-46607142D01*
X170166666Y-46654761D01*
X170071428Y-46702380D01*
X169785714Y-46702380D01*
X169690476Y-46654761D01*
X169642857Y-46607142D01*
D11*
%TO.C,C13*%
X167125000Y-42031252D02*
X167125000Y-41508748D01*
X165655000Y-42031252D02*
X165655000Y-41508748D01*
%TO.C,D10*%
X185800000Y-70975000D02*
X185800000Y-72125000D01*
X193100000Y-70975000D02*
X185800000Y-70975000D01*
X193100000Y-76475000D02*
X185800000Y-76475000D01*
%TO.C,C4*%
X80265000Y-161088748D02*
X80265000Y-161611252D01*
X81735000Y-161088748D02*
X81735000Y-161611252D01*
%TO.C,D2*%
X116300000Y-127750000D02*
X116300000Y-126600000D01*
X109000000Y-122250000D02*
X116300000Y-122250000D01*
X109000000Y-127750000D02*
X116300000Y-127750000D01*
%TO.C,C14*%
X153028748Y-47935000D02*
X153551252Y-47935000D01*
X153028748Y-49405000D02*
X153551252Y-49405000D01*
%TO.C,C9*%
X180735000Y-83768748D02*
X180735000Y-84291252D01*
X179265000Y-83768748D02*
X179265000Y-84291252D01*
%TO.C,D16*%
X139775000Y-84750000D02*
X138625000Y-84750000D01*
X139775000Y-92050000D02*
X139775000Y-84750000D01*
X134275000Y-92050000D02*
X134275000Y-84750000D01*
%TO.C,C11*%
X222605000Y-49078748D02*
X222605000Y-49601252D01*
X224075000Y-49078748D02*
X224075000Y-49601252D01*
%TO.C,C5*%
X122281252Y-166765000D02*
X121758748Y-166765000D01*
X122281252Y-165295000D02*
X121758748Y-165295000D01*
%TO.C,C8*%
X179855000Y-118081252D02*
X179855000Y-117558748D01*
X178385000Y-118081252D02*
X178385000Y-117558748D01*
%TO.C,D7*%
X167575000Y-132250000D02*
X160275000Y-132250000D01*
X167575000Y-137750000D02*
X160275000Y-137750000D01*
X160275000Y-132250000D02*
X160275000Y-133400000D01*
%TO.C,D12*%
X207725000Y-44475000D02*
X207725000Y-43325000D01*
X200425000Y-44475000D02*
X207725000Y-44475000D01*
X200425000Y-38975000D02*
X207725000Y-38975000D01*
%TO.C,C12*%
X202831252Y-36925000D02*
X202308748Y-36925000D01*
X202831252Y-38395000D02*
X202308748Y-38395000D01*
%TO.C,D6*%
X140825000Y-159600000D02*
X133525000Y-159600000D01*
X133525000Y-154100000D02*
X133525000Y-155250000D01*
X140825000Y-154100000D02*
X133525000Y-154100000D01*
%TO.C,C16*%
X133565000Y-89648748D02*
X133565000Y-90171252D01*
X132095000Y-89648748D02*
X132095000Y-90171252D01*
%TO.C,C10*%
X190698748Y-77105000D02*
X191221252Y-77105000D01*
X190698748Y-78575000D02*
X191221252Y-78575000D01*
%TO.C,D4*%
X74075000Y-166775000D02*
X74075000Y-159475000D01*
X79575000Y-166775000D02*
X79575000Y-159475000D01*
X79575000Y-159475000D02*
X78425000Y-159475000D01*
%TO.C,C2*%
X107145000Y-124591252D02*
X107145000Y-124068748D01*
X108615000Y-124591252D02*
X108615000Y-124068748D01*
%TO.C,C15*%
X127185000Y-76511252D02*
X127185000Y-75988748D01*
X128655000Y-76511252D02*
X128655000Y-75988748D01*
%TO.C,D14*%
X153025000Y-50250000D02*
X160325000Y-50250000D01*
X160325000Y-55750000D02*
X160325000Y-54600000D01*
X153025000Y-55750000D02*
X160325000Y-55750000D01*
%TO.C,C7*%
X168025000Y-135408748D02*
X168025000Y-135931252D01*
X169495000Y-135408748D02*
X169495000Y-135931252D01*
%TO.C,C6*%
X138418748Y-161575000D02*
X138941252Y-161575000D01*
X138418748Y-160105000D02*
X138941252Y-160105000D01*
%TO.C,C3*%
X87351252Y-141935000D02*
X86828748Y-141935000D01*
X87351252Y-140465000D02*
X86828748Y-140465000D01*
%TO.C,D11*%
X216475000Y-56400000D02*
X217625000Y-56400000D01*
X216475000Y-49100000D02*
X216475000Y-56400000D01*
X221975000Y-49100000D02*
X221975000Y-56400000D01*
%TO.C,D1*%
X131825000Y-113300000D02*
X139125000Y-113300000D01*
X131825000Y-118800000D02*
X139125000Y-118800000D01*
X139125000Y-118800000D02*
X139125000Y-117650000D01*
%TO.C,D5*%
X122275000Y-164475000D02*
X114975000Y-164475000D01*
X122275000Y-158975000D02*
X114975000Y-158975000D01*
X114975000Y-158975000D02*
X114975000Y-160125000D01*
%TO.C,D8*%
X177750000Y-115675000D02*
X177750000Y-122975000D01*
X172250000Y-115675000D02*
X172250000Y-122975000D01*
X172250000Y-122975000D02*
X173400000Y-122975000D01*
%TO.C,C1*%
X129985000Y-115651252D02*
X129985000Y-115128748D01*
X131455000Y-115651252D02*
X131455000Y-115128748D01*
%TO.C,D9*%
X173050000Y-83750000D02*
X173050000Y-91050000D01*
X173050000Y-91050000D02*
X174200000Y-91050000D01*
X178550000Y-83750000D02*
X178550000Y-91050000D01*
%TO.C,D3*%
X84900000Y-147950000D02*
X92200000Y-147950000D01*
X84900000Y-142450000D02*
X92200000Y-142450000D01*
X92200000Y-147950000D02*
X92200000Y-146800000D01*
%TO.C,D15*%
X126450000Y-78100000D02*
X126450000Y-70800000D01*
X126450000Y-70800000D02*
X125300000Y-70800000D01*
X120950000Y-78100000D02*
X120950000Y-70800000D01*
%TO.C,D13*%
X167575000Y-45200000D02*
X174875000Y-45200000D01*
X167575000Y-39700000D02*
X174875000Y-39700000D01*
X174875000Y-45200000D02*
X174875000Y-44050000D01*
%TD*%
M02*
