M48
; DRILL file {KiCad (6.0.1)} date Wed Mar 23 16:25:14 2022
; FORMAT={-:-/ absolute / inch / decimal}
; #@! TF.CreationDate,2022-03-23T16:25:14+01:00
; #@! TF.GenerationSoftware,Kicad,Pcbnew,(6.0.1)
; #@! TF.FileFunction,MixedPlating,1,2
FMAT,2
INCH
; #@! TA.AperFunction,Plated,PTH,ViaDrill
T1C0.0157
; #@! TA.AperFunction,Plated,PTH,ComponentDrill
T2C0.0394
; #@! TA.AperFunction,Plated,PTH,ComponentDrill
T3C0.0402
; #@! TA.AperFunction,NonPlated,NPTH,ComponentDrill
T4C0.0591
; #@! TA.AperFunction,NonPlated,NPTH,ComponentDrill
T5C0.0709
; #@! TA.AperFunction,NonPlated,NPTH,ComponentDrill
T6C0.0787
%
G90
G05
T1
X2.6969Y-5.8661
X2.6969Y-6.0039
X2.6969Y-6.1417
X2.6969Y-6.2795
X2.6969Y-6.437
X2.7165Y-6.5551
X2.7756Y-6.6535
X3.2768Y-6.3783
X3.5322Y-5.4975
X3.5433Y-5.8661
X3.5433Y-5.9843
X3.5433Y-6.1417
X3.5433Y-6.2598
X3.6614Y-5.5906
X3.7008Y-5.6693
X3.7008Y-5.8268
X3.7008Y-5.9843
X3.7008Y-6.1417
X3.7008Y-6.2795
X3.7402Y-5.5118
X3.8189Y-5.4331
X3.8583Y-5.6693
X3.8583Y-5.8268
X3.8583Y-5.9843
X3.8583Y-6.1417
X3.8583Y-6.2992
X3.8976Y-5.3543
X3.8976Y-5.5512
X3.9764Y-5.2756
X4.0157Y-5.5118
X4.0157Y-5.6693
X4.0157Y-5.8268
X4.0157Y-5.9843
X4.0157Y-6.1417
X4.0157Y-6.2992
X4.0551Y-5.1969
X4.0551Y-5.3937
X4.1732Y-5.3543
X4.1732Y-5.5118
X4.1732Y-5.6693
X4.1732Y-5.8268
X4.1732Y-5.9843
X4.1732Y-6.1417
X4.1732Y-6.2992
X4.1823Y-4.954
X4.2126Y-5.2362
X4.3307Y-5.0787
X4.3307Y-5.1969
X4.3307Y-5.3543
X4.3307Y-5.5118
X4.3307Y-5.6693
X4.3307Y-5.8268
X4.3307Y-5.9843
X4.3307Y-6.1417
X4.3307Y-6.2992
X4.4291Y-4.9803
X4.4882Y-5.0787
X4.4882Y-5.1969
X4.4882Y-5.3543
X4.4882Y-5.5118
X4.4882Y-5.6693
X4.4882Y-5.8268
X4.4882Y-5.9843
X4.4882Y-6.1417
X4.4882Y-6.2992
X4.6063Y-2.8346
X4.6063Y-2.9921
X4.6063Y-3.1496
X4.6063Y-3.3071
X4.6063Y-3.4646
X4.6457Y-4.8819
X4.6457Y-5.0394
X4.6457Y-5.1969
X4.6457Y-5.3543
X4.6457Y-5.5118
X4.6457Y-5.6693
X4.6457Y-5.8268
X4.6457Y-5.9843
X4.6457Y-6.1417
X4.7124Y-6.5412
X4.7244Y-2.7165
X4.7244Y-2.8346
X4.7244Y-2.9921
X4.7244Y-3.1496
X4.7244Y-3.3071
X4.7244Y-3.4646
X4.7244Y-3.622
X4.8031Y-4.7638
X4.8031Y-5.0394
X4.8031Y-5.1969
X4.8031Y-5.3543
X4.8031Y-5.5118
X4.8031Y-5.6693
X4.8031Y-5.8268
X4.8031Y-5.9843
X4.8031Y-6.1417
X4.8425Y-2.5984
X4.8425Y-3.1496
X4.8425Y-3.3071
X4.8425Y-3.4646
X4.8425Y-3.622
X4.8425Y-3.7402
X4.8819Y-6.378
X4.9213Y-4.685
X4.9606Y-5.0394
X5.0Y-4.8819
X5.0Y-5.1969
X5.0Y-5.3543
X5.0Y-5.5118
X5.0Y-5.6693
X5.0Y-5.8268
X5.0Y-5.9843
X5.0Y-6.1417
X5.0Y-6.378
X5.0056Y-4.4316
X5.1181Y-6.378
X5.1575Y-4.7835
X5.1575Y-5.1969
X5.1575Y-5.3543
X5.1575Y-5.5118
X5.1575Y-5.6693
X5.1575Y-5.8268
X5.1575Y-5.9843
X5.1575Y-6.1417
X5.315Y-4.4488
X5.315Y-4.5669
X5.315Y-4.9213
X5.315Y-5.1969
X5.315Y-5.3543
X5.315Y-5.5118
X5.315Y-5.6693
X5.315Y-5.8268
X5.315Y-5.9843
X5.3454Y-2.9629
X5.3455Y-3.6541
X5.3937Y-4.3701
X5.4331Y-4.7244
X5.4331Y-4.8819
X5.4724Y-5.1969
X5.4724Y-5.3543
X5.4724Y-5.5118
X5.4724Y-5.6693
X5.4724Y-5.8268
X5.4724Y-5.9843
X5.5118Y-2.7165
X5.5118Y-2.874
X5.5118Y-2.9921
X5.5118Y-3.1496
X5.5118Y-3.3071
X5.5118Y-3.4646
X5.5118Y-3.622
X5.5118Y-3.7795
X5.5118Y-3.937
X5.5118Y-4.1339
X5.5118Y-4.3307
X5.5512Y-4.6063
X5.5512Y-4.8819
X5.5719Y-6.283
X5.6299Y-2.5591
X5.6299Y-2.7165
X5.6299Y-2.874
X5.6299Y-2.9921
X5.6299Y-3.1496
X5.6299Y-3.3071
X5.6299Y-3.4646
X5.6299Y-3.622
X5.6299Y-3.7795
X5.6299Y-3.937
X5.6299Y-4.1339
X5.6299Y-4.3307
X5.6299Y-4.8031
X5.6299Y-5.1969
X5.6299Y-5.3543
X5.6299Y-5.5118
X5.6299Y-5.6693
X5.6299Y-5.8268
X5.6299Y-5.9843
X5.748Y-2.4016
X5.748Y-2.5591
X5.748Y-2.7165
X5.748Y-2.874
X5.748Y-2.9921
X5.7874Y-5.1969
X5.7874Y-5.3543
X5.7874Y-5.5118
X5.7874Y-5.6693
X5.7874Y-5.8268
X5.9055Y-2.2835
X5.9055Y-2.4016
X5.9055Y-2.9921
X5.9055Y-3.1496
X5.9055Y-3.3071
X5.9055Y-3.4646
X5.9055Y-3.622
X5.9055Y-3.7795
X5.9449Y-2.5591
X5.9449Y-2.7165
X5.9449Y-2.874
X5.9449Y-4.0945
X5.9449Y-4.252
X5.9449Y-4.4094
X5.9449Y-4.5669
X5.9449Y-4.7244
X5.9449Y-4.8819
X5.9449Y-5.0394
X5.9449Y-5.1969
X5.9449Y-5.3543
X5.9449Y-5.5118
X5.9449Y-5.6693
X5.9646Y-2.1457
X5.9843Y-5.8661
X6.0387Y-1.8509
X6.063Y-2.2441
X6.1024Y-2.4016
X6.1024Y-2.5591
X6.1024Y-2.7165
X6.1024Y-3.3071
X6.1024Y-3.4646
X6.1024Y-3.622
X6.1024Y-3.7795
X6.1024Y-3.937
X6.1024Y-4.0945
X6.1024Y-4.252
X6.1024Y-4.4094
X6.1024Y-4.5669
X6.1024Y-4.7244
X6.1024Y-4.8425
X6.1024Y-5.1969
X6.1024Y-5.3543
X6.1024Y-5.5118
X6.1811Y-5.6693
X6.2205Y-1.9291
X6.2205Y-3.3071
X6.2205Y-3.4646
X6.2205Y-3.622
X6.2205Y-3.7795
X6.2205Y-3.937
X6.2205Y-4.0945
X6.2205Y-4.252
X6.2205Y-4.4094
X6.2205Y-4.5669
X6.2205Y-4.7244
X6.2205Y-4.8425
X6.2205Y-5.1969
X6.2205Y-5.3543
X6.2205Y-5.5118
X6.2598Y-2.2441
X6.2598Y-2.4016
X6.2598Y-2.5591
X6.2598Y-2.7165
X6.2598Y-2.874
X6.2992Y-1.8504
X6.3386Y-5.5118
X6.378Y-1.9291
X6.378Y-2.0866
X6.378Y-3.189
X6.378Y-3.3071
X6.378Y-3.4646
X6.378Y-3.622
X6.378Y-3.7795
X6.378Y-3.937
X6.378Y-4.0945
X6.378Y-4.252
X6.378Y-4.4094
X6.378Y-4.5669
X6.378Y-4.7244
X6.378Y-4.8819
X6.378Y-5.0394
X6.378Y-5.1575
X6.4567Y-2.874
X6.4567Y-2.9921
X6.4663Y-1.6443
X6.5748Y-2.9921
X6.5955Y-5.4502
X6.6142Y-5.1969
X6.6929Y-3.1496
X6.6929Y-3.3071
X6.6929Y-3.5433
X6.6929Y-3.7008
X6.6929Y-3.8583
X6.6929Y-4.0157
X6.6929Y-4.1732
X6.6929Y-4.3307
X6.6929Y-4.4882
X6.6929Y-4.6457
X6.6929Y-4.8031
X6.6929Y-5.1181
X6.7323Y-1.7717
X6.7717Y-5.0394
X6.7913Y-2.0079
X6.7913Y-2.126
X6.7913Y-2.2441
X6.7913Y-2.3622
X6.7913Y-2.4803
X6.7913Y-2.5984
X6.8504Y-3.1496
X6.8504Y-3.7008
X6.8504Y-3.8583
X6.8504Y-4.0157
X6.8701Y-1.8898
X6.8701Y-2.7165
X6.9213Y-3.4413
X6.9685Y-1.7717
X6.9685Y-1.8898
X6.9685Y-2.0079
X6.9685Y-2.126
X6.9685Y-2.5984
X6.9685Y-2.7165
X6.9685Y-2.8346
X6.9706Y-4.5187
X6.9882Y-3.248
X7.0866Y-3.4449
X7.0902Y-3.176
X7.126Y-2.5984
X7.126Y-2.7165
X7.126Y-2.8346
X7.2098Y-3.2531
X7.2441Y-2.5984
X7.2441Y-2.7165
X7.2441Y-2.8346
X7.2664Y-3.4825
X7.3622Y-2.5984
X7.4606Y-2.8346
X7.4606Y-2.9724
X7.4803Y-1.9291
X7.4803Y-2.5984
X7.4945Y-3.2516
X7.5591Y-1.7126
X7.5591Y-1.811
X7.6378Y-1.9291
X7.6772Y-3.0118
X7.6772Y-3.1299
X7.7362Y-2.185
X7.7953Y-1.9291
X7.8346Y-2.6575
X7.8587Y-1.5991
X7.874Y-1.8504
X7.9528Y-1.7717
X7.9528Y-1.9291
X7.9528Y-2.0866
X8.1102Y-1.7717
X8.1102Y-1.9291
X8.1102Y-2.0866
X8.1693Y-2.6772
X8.2677Y-1.811
X8.2677Y-1.9291
X8.2677Y-2.0866
X8.3071Y-2.2441
X8.3071Y-2.4016
X8.3071Y-2.5197
X8.4252Y-1.9291
X8.4252Y-2.0866
X8.4252Y-2.2441
X8.4252Y-2.4016
X8.5433Y-2.2835
X8.622Y-2.0866
X8.7894Y-2.0295
T2
X4.0387Y-4.6018
X4.0914Y-4.6868
X4.1237Y-4.5492
X4.1764Y-4.6341
X4.2087Y-4.4965
X4.2614Y-4.5814
X4.2937Y-4.4438
X4.3083Y-6.8749
X4.3208Y-6.7757
X4.3463Y-4.5288
X4.3786Y-4.3911
X4.4075Y-6.8875
X4.42Y-6.7883
X4.4313Y-4.4761
X4.5067Y-6.9
X4.5192Y-6.8008
X4.6059Y-6.9125
X4.6184Y-6.8133
X4.7051Y-6.9251
X4.7176Y-6.8259
X5.0626Y-5.048
X5.1626Y-5.048
X5.2626Y-5.048
X5.3626Y-5.048
X5.4451Y-1.926
X5.4626Y-5.048
X5.5155Y-1.8549
X5.5162Y-1.9964
X5.5858Y-1.7839
X5.5866Y-1.9253
X5.6562Y-1.7128
X5.6569Y-1.8542
X5.7265Y-1.6417
X5.7272Y-1.7831
X5.7976Y-1.712
X6.5737Y-5.8498
X6.644Y-5.7787
X6.6448Y-5.9201
X6.7144Y-5.7076
X6.7151Y-5.849
X6.7847Y-5.6365
X6.7854Y-5.778
X6.855Y-5.5655
X6.8558Y-5.7069
X6.9261Y-5.6358
X7.8572Y-1.3332
X7.8697Y-1.234
X7.9564Y-1.3457
X7.9689Y-1.2465
X8.0556Y-1.3583
X8.0681Y-1.2591
X8.1548Y-1.3708
X8.1673Y-1.2716
X8.254Y-1.3833
X8.2665Y-1.2841
X8.8667Y-2.4287
X8.9194Y-2.5137
X8.9517Y-2.376
X9.0044Y-2.461
X9.0367Y-2.3233
X9.0894Y-2.4083
X9.1217Y-2.2706
X9.1744Y-2.3556
X9.2067Y-2.2179
X9.2593Y-2.3029
T3
X5.8055Y-3.138
X5.8055Y-3.238
X5.8055Y-3.338
X5.8055Y-3.438
X5.8055Y-3.538
X5.8055Y-3.638
X5.8055Y-3.738
X5.8055Y-3.838
X5.8055Y-3.938
X5.8055Y-4.038
X5.8055Y-4.138
X5.8055Y-4.238
X5.8055Y-4.338
X5.8055Y-4.438
X5.8055Y-4.538
X5.8055Y-4.638
X5.8055Y-4.738
X5.8055Y-4.838
X5.8055Y-4.938
X5.8055Y-5.038
X6.0555Y-3.147
X6.1555Y-3.147
X6.2555Y-3.147
X6.5055Y-3.138
X6.5055Y-3.238
X6.5055Y-3.338
X6.5055Y-3.438
X6.5055Y-3.538
X6.5055Y-3.638
X6.5055Y-3.738
X6.5055Y-3.838
X6.5055Y-3.938
X6.5055Y-4.038
X6.5055Y-4.138
X6.5055Y-4.238
X6.5055Y-4.338
X6.5055Y-4.438
X6.5055Y-4.538
X6.5055Y-4.638
X6.5055Y-4.738
X6.5055Y-4.838
X6.5055Y-4.938
X6.5055Y-5.038
T4
X6.06Y-4.9136
X6.251Y-4.9136
T5
X6.0482Y-5.0329
X6.2628Y-5.0329
T6
X2.8604Y-6.7096
T4
G00X2.8696Y-6.8828
M15
G01X2.8892Y-6.8807
M16
G05
T0
M30
