%TF.GenerationSoftware,KiCad,Pcbnew,(6.0.1)*%
%TF.CreationDate,2022-03-18T19:46:04+01:00*%
%TF.ProjectId,pcb_v1,7063625f-7631-42e6-9b69-6361645f7063,v1*%
%TF.SameCoordinates,Original*%
%TF.FileFunction,Soldermask,Bot*%
%TF.FilePolarity,Negative*%
%FSLAX46Y46*%
G04 Gerber Fmt 4.6, Leading zero omitted, Abs format (unit mm)*
G04 Created by KiCad (PCBNEW (6.0.1)) date 2022-03-18 19:46:04*
%MOMM*%
%LPD*%
G01*
G04 APERTURE LIST*
G04 Aperture macros list*
%AMRoundRect*
0 Rectangle with rounded corners*
0 $1 Rounding radius*
0 $2 $3 $4 $5 $6 $7 $8 $9 X,Y pos of 4 corners*
0 Add a 4 corners polygon primitive as box body*
4,1,4,$2,$3,$4,$5,$6,$7,$8,$9,$2,$3,0*
0 Add four circle primitives for the rounded corners*
1,1,$1+$1,$2,$3*
1,1,$1+$1,$4,$5*
1,1,$1+$1,$6,$7*
1,1,$1+$1,$8,$9*
0 Add four rect primitives between the rounded corners*
20,1,$1+$1,$2,$3,$4,$5,0*
20,1,$1+$1,$4,$5,$6,$7,0*
20,1,$1+$1,$6,$7,$8,$9,0*
20,1,$1+$1,$8,$9,$2,$3,0*%
%AMHorizOval*
0 Thick line with rounded ends*
0 $1 width*
0 $2 $3 position (X,Y) of the first rounded end (center of the circle)*
0 $4 $5 position (X,Y) of the second rounded end (center of the circle)*
0 Add line between two ends*
20,1,$1,$2,$3,$4,$5,0*
0 Add two circle primitives to create the rounded ends*
1,1,$1,$2,$3*
1,1,$1,$4,$5*%
%AMRotRect*
0 Rectangle, with rotation*
0 The origin of the aperture is its center*
0 $1 length*
0 $2 width*
0 $3 Rotation angle, in degrees counterclockwise*
0 Add horizontal line*
21,1,$1,$2,0,0,$3*%
G04 Aperture macros list end*
%ADD10RoundRect,0.250000X0.262500X0.450000X-0.262500X0.450000X-0.262500X-0.450000X0.262500X-0.450000X0*%
%ADD11R,1.700000X1.700000*%
%ADD12O,1.700000X1.700000*%
%ADD13RoundRect,0.250000X1.750000X1.000000X-1.750000X1.000000X-1.750000X-1.000000X1.750000X-1.000000X0*%
%ADD14HorizOval,1.500000X0.248490X0.027434X-0.248490X-0.027434X0*%
%ADD15C,2.000000*%
%ADD16RotRect,3.000000X2.000000X6.300000*%
%ADD17RotRect,1.700000X1.700000X262.800000*%
%ADD18HorizOval,1.700000X0.000000X0.000000X0.000000X0.000000X0*%
%ADD19RotRect,1.700000X1.700000X121.800000*%
%ADD20HorizOval,1.700000X0.000000X0.000000X0.000000X0.000000X0*%
%ADD21RoundRect,0.250000X-1.750000X-1.000000X1.750000X-1.000000X1.750000X1.000000X-1.750000X1.000000X0*%
%ADD22R,5.400000X2.900000*%
%ADD23RotRect,1.700000X1.700000X82.800000*%
%ADD24HorizOval,1.700000X0.000000X0.000000X0.000000X0.000000X0*%
%ADD25R,4.600000X1.100000*%
%ADD26R,9.400000X10.800000*%
%ADD27R,3.200000X3.200000*%
%ADD28O,3.200000X3.200000*%
%ADD29RotRect,1.700000X1.700000X135.300000*%
%ADD30HorizOval,1.700000X0.000000X0.000000X0.000000X0.000000X0*%
%ADD31O,1.500000X1.500000*%
%ADD32O,1.800000X1.800000*%
%ADD33R,3.500000X1.700000*%
%ADD34R,1.700000X3.500000*%
%ADD35RotRect,1.700000X1.700000X301.800000*%
%ADD36HorizOval,1.700000X0.000000X0.000000X0.000000X0.000000X0*%
%ADD37RotRect,1.700000X1.700000X315.300000*%
%ADD38HorizOval,1.700000X0.000000X0.000000X0.000000X0.000000X0*%
G04 APERTURE END LIST*
D10*
%TO.C,R1*%
X195422500Y-52870000D03*
X193597500Y-52870000D03*
%TD*%
D11*
%TO.C,J8*%
X138750000Y-128220000D03*
D12*
X136210000Y-128220000D03*
X133670000Y-128220000D03*
X131130000Y-128220000D03*
X128590000Y-128220000D03*
%TD*%
D13*
%TO.C,C17*%
X195482500Y-72310000D03*
X187482500Y-72310000D03*
%TD*%
D14*
%TO.C,J7*%
X73136903Y-174796413D03*
D15*
X72654072Y-170422985D03*
D16*
X78614661Y-174292270D03*
X77956255Y-168328504D03*
X67022685Y-169535582D03*
X67681091Y-175499348D03*
%TD*%
D10*
%TO.C,R2*%
X199072500Y-52860000D03*
X197247500Y-52860000D03*
%TD*%
D17*
%TO.C,J2*%
X109748404Y-172103336D03*
D18*
X109430058Y-174623307D03*
X112268375Y-172421682D03*
X111950029Y-174941654D03*
X114788347Y-172740029D03*
X114470000Y-175260000D03*
X117308318Y-173058375D03*
X116989972Y-175578347D03*
X119828289Y-173376722D03*
X119509943Y-175896693D03*
%TD*%
D19*
%TO.C,J1*%
X112555923Y-113691792D03*
D20*
X111217455Y-111533065D03*
X110397196Y-115030260D03*
X109058728Y-112871532D03*
X108238468Y-116368727D03*
X106900000Y-114210000D03*
X106079741Y-117707195D03*
X104741273Y-115548468D03*
X103921013Y-119045663D03*
X102582546Y-116886935D03*
%TD*%
D21*
%TO.C,C18*%
X185657500Y-45060000D03*
X193657500Y-45060000D03*
%TD*%
D22*
%TO.C,L1*%
X185660000Y-62780000D03*
X185660000Y-52880000D03*
%TD*%
D23*
%TO.C,J5*%
X209651596Y-35136664D03*
D24*
X209969942Y-32616693D03*
X207131625Y-34818318D03*
X207449971Y-32298346D03*
X204611653Y-34499971D03*
X204930000Y-31980000D03*
X202091682Y-34181625D03*
X202410028Y-31661653D03*
X199571711Y-33863278D03*
X199890057Y-31343307D03*
%TD*%
D25*
%TO.C,U2*%
X195455000Y-64500000D03*
X195455000Y-62800000D03*
X195455000Y-61100000D03*
D26*
X204605000Y-61100000D03*
D25*
X195455000Y-59400000D03*
X195455000Y-57700000D03*
%TD*%
D27*
%TO.C,D17*%
X175495000Y-68110000D03*
D28*
X175495000Y-52870000D03*
%TD*%
D29*
%TO.C,J6*%
X147258676Y-43485761D03*
D30*
X145453245Y-41699138D03*
X145472053Y-45291192D03*
X143666623Y-43504569D03*
X143685431Y-47096622D03*
X141880000Y-45310000D03*
X141898808Y-48902053D03*
X140093378Y-47115430D03*
X140112186Y-50707484D03*
X138306755Y-48920861D03*
%TD*%
D31*
%TO.C,U1*%
X153925000Y-124805000D03*
D32*
X159075000Y-127835000D03*
X153625000Y-127835000D03*
D31*
X158775000Y-124805000D03*
D12*
X147460000Y-127965000D03*
D33*
X146560000Y-127965000D03*
X146560000Y-125425000D03*
D12*
X147460000Y-125425000D03*
D33*
X146560000Y-122885000D03*
D11*
X147460000Y-122885000D03*
D33*
X146560000Y-120345000D03*
D12*
X147460000Y-120345000D03*
D33*
X146560000Y-117805000D03*
D12*
X147460000Y-117805000D03*
D33*
X146560000Y-115265000D03*
D12*
X147460000Y-115265000D03*
X147460000Y-112725000D03*
D33*
X146560000Y-112725000D03*
X146560000Y-110185000D03*
D11*
X147460000Y-110185000D03*
D12*
X147460000Y-107645000D03*
D33*
X146560000Y-107645000D03*
X146560000Y-105105000D03*
D12*
X147460000Y-105105000D03*
X147460000Y-102565000D03*
D33*
X146560000Y-102565000D03*
D12*
X147460000Y-100025000D03*
D33*
X146560000Y-100025000D03*
D11*
X147460000Y-97485000D03*
D33*
X146560000Y-97485000D03*
X146560000Y-94945000D03*
D12*
X147460000Y-94945000D03*
X147460000Y-92405000D03*
D33*
X146560000Y-92405000D03*
D12*
X147460000Y-89865000D03*
D33*
X146560000Y-89865000D03*
D12*
X147460000Y-87325000D03*
D33*
X146560000Y-87325000D03*
D11*
X147460000Y-84785000D03*
D33*
X146560000Y-84785000D03*
D12*
X147460000Y-82245000D03*
D33*
X146560000Y-82245000D03*
X146560000Y-79705000D03*
D12*
X147460000Y-79705000D03*
X165240000Y-79705000D03*
D33*
X166140000Y-79705000D03*
X166140000Y-82245000D03*
D12*
X165240000Y-82245000D03*
D11*
X165240000Y-84785000D03*
D33*
X166140000Y-84785000D03*
D12*
X165240000Y-87325000D03*
D33*
X166140000Y-87325000D03*
X166140000Y-89865000D03*
D12*
X165240000Y-89865000D03*
D33*
X166140000Y-92405000D03*
D12*
X165240000Y-92405000D03*
X165240000Y-94945000D03*
D33*
X166140000Y-94945000D03*
X166140000Y-97485000D03*
D11*
X165240000Y-97485000D03*
D12*
X165240000Y-100025000D03*
D33*
X166140000Y-100025000D03*
D12*
X165240000Y-102565000D03*
D33*
X166140000Y-102565000D03*
D12*
X165240000Y-105105000D03*
D33*
X166140000Y-105105000D03*
D12*
X165240000Y-107645000D03*
D33*
X166140000Y-107645000D03*
D11*
X165240000Y-110185000D03*
D33*
X166140000Y-110185000D03*
X166140000Y-112725000D03*
D12*
X165240000Y-112725000D03*
D33*
X166140000Y-115265000D03*
D12*
X165240000Y-115265000D03*
X165240000Y-117805000D03*
D33*
X166140000Y-117805000D03*
X166140000Y-120345000D03*
D12*
X165240000Y-120345000D03*
D11*
X165240000Y-122885000D03*
D33*
X166140000Y-122885000D03*
D12*
X165240000Y-125425000D03*
D33*
X166140000Y-125425000D03*
D12*
X165240000Y-127965000D03*
D33*
X166140000Y-127965000D03*
D12*
X153810000Y-79935000D03*
D34*
X153810000Y-79035000D03*
D11*
X156350000Y-79935000D03*
D34*
X156350000Y-79035000D03*
D12*
X158890000Y-79935000D03*
D34*
X158890000Y-79035000D03*
%TD*%
D35*
%TO.C,J4*%
X225214077Y-61688208D03*
D36*
X226552545Y-63846935D03*
X227372804Y-60349740D03*
X228711272Y-62508468D03*
X229531532Y-59011273D03*
X230870000Y-61170000D03*
X231690259Y-57672805D03*
X233028727Y-59831532D03*
X233848987Y-56334337D03*
X235187454Y-58493065D03*
%TD*%
D37*
%TO.C,J3*%
X166971324Y-148584239D03*
D38*
X168776755Y-150370862D03*
X168757947Y-146778808D03*
X170563377Y-148565431D03*
X170544569Y-144973378D03*
X172350000Y-146760000D03*
X172331192Y-143167947D03*
X174136622Y-144954570D03*
X174117814Y-141362516D03*
X175923245Y-143149139D03*
%TD*%
M02*
