%TF.GenerationSoftware,KiCad,Pcbnew,(6.0.1)*%
%TF.CreationDate,2022-03-18T19:46:03+01:00*%
%TF.ProjectId,pcb_v1,7063625f-7631-42e6-9b69-6361645f7063,v1*%
%TF.SameCoordinates,Original*%
%TF.FileFunction,Copper,L2,Bot*%
%TF.FilePolarity,Positive*%
%FSLAX46Y46*%
G04 Gerber Fmt 4.6, Leading zero omitted, Abs format (unit mm)*
G04 Created by KiCad (PCBNEW (6.0.1)) date 2022-03-18 19:46:03*
%MOMM*%
%LPD*%
G01*
G04 APERTURE LIST*
G04 Aperture macros list*
%AMRoundRect*
0 Rectangle with rounded corners*
0 $1 Rounding radius*
0 $2 $3 $4 $5 $6 $7 $8 $9 X,Y pos of 4 corners*
0 Add a 4 corners polygon primitive as box body*
4,1,4,$2,$3,$4,$5,$6,$7,$8,$9,$2,$3,0*
0 Add four circle primitives for the rounded corners*
1,1,$1+$1,$2,$3*
1,1,$1+$1,$4,$5*
1,1,$1+$1,$6,$7*
1,1,$1+$1,$8,$9*
0 Add four rect primitives between the rounded corners*
20,1,$1+$1,$2,$3,$4,$5,0*
20,1,$1+$1,$4,$5,$6,$7,0*
20,1,$1+$1,$6,$7,$8,$9,0*
20,1,$1+$1,$8,$9,$2,$3,0*%
%AMHorizOval*
0 Thick line with rounded ends*
0 $1 width*
0 $2 $3 position (X,Y) of the first rounded end (center of the circle)*
0 $4 $5 position (X,Y) of the second rounded end (center of the circle)*
0 Add line between two ends*
20,1,$1,$2,$3,$4,$5,0*
0 Add two circle primitives to create the rounded ends*
1,1,$1,$2,$3*
1,1,$1,$4,$5*%
%AMRotRect*
0 Rectangle, with rotation*
0 The origin of the aperture is its center*
0 $1 length*
0 $2 width*
0 $3 Rotation angle, in degrees counterclockwise*
0 Add horizontal line*
21,1,$1,$2,0,0,$3*%
G04 Aperture macros list end*
%TA.AperFunction,SMDPad,CuDef*%
%ADD10RoundRect,0.250000X0.262500X0.450000X-0.262500X0.450000X-0.262500X-0.450000X0.262500X-0.450000X0*%
%TD*%
%TA.AperFunction,ComponentPad*%
%ADD11R,1.700000X1.700000*%
%TD*%
%TA.AperFunction,ComponentPad*%
%ADD12O,1.700000X1.700000*%
%TD*%
%TA.AperFunction,SMDPad,CuDef*%
%ADD13RoundRect,0.250000X1.750000X1.000000X-1.750000X1.000000X-1.750000X-1.000000X1.750000X-1.000000X0*%
%TD*%
%TA.AperFunction,SMDPad,CuDef*%
%ADD14RotRect,3.000000X2.000000X6.300000*%
%TD*%
%TA.AperFunction,ComponentPad*%
%ADD15RotRect,1.700000X1.700000X262.800000*%
%TD*%
%TA.AperFunction,ComponentPad*%
%ADD16HorizOval,1.700000X0.000000X0.000000X0.000000X0.000000X0*%
%TD*%
%TA.AperFunction,ComponentPad*%
%ADD17RotRect,1.700000X1.700000X121.800000*%
%TD*%
%TA.AperFunction,ComponentPad*%
%ADD18HorizOval,1.700000X0.000000X0.000000X0.000000X0.000000X0*%
%TD*%
%TA.AperFunction,SMDPad,CuDef*%
%ADD19RoundRect,0.250000X-1.750000X-1.000000X1.750000X-1.000000X1.750000X1.000000X-1.750000X1.000000X0*%
%TD*%
%TA.AperFunction,SMDPad,CuDef*%
%ADD20R,5.400000X2.900000*%
%TD*%
%TA.AperFunction,ComponentPad*%
%ADD21RotRect,1.700000X1.700000X82.800000*%
%TD*%
%TA.AperFunction,ComponentPad*%
%ADD22HorizOval,1.700000X0.000000X0.000000X0.000000X0.000000X0*%
%TD*%
%TA.AperFunction,SMDPad,CuDef*%
%ADD23R,4.600000X1.100000*%
%TD*%
%TA.AperFunction,SMDPad,CuDef*%
%ADD24R,9.400000X10.800000*%
%TD*%
%TA.AperFunction,ComponentPad*%
%ADD25R,3.200000X3.200000*%
%TD*%
%TA.AperFunction,ComponentPad*%
%ADD26O,3.200000X3.200000*%
%TD*%
%TA.AperFunction,ComponentPad*%
%ADD27RotRect,1.700000X1.700000X135.300000*%
%TD*%
%TA.AperFunction,ComponentPad*%
%ADD28HorizOval,1.700000X0.000000X0.000000X0.000000X0.000000X0*%
%TD*%
%TA.AperFunction,SMDPad,CuDef*%
%ADD29R,3.500000X1.700000*%
%TD*%
%TA.AperFunction,SMDPad,CuDef*%
%ADD30R,1.700000X3.500000*%
%TD*%
%TA.AperFunction,ComponentPad*%
%ADD31RotRect,1.700000X1.700000X301.800000*%
%TD*%
%TA.AperFunction,ComponentPad*%
%ADD32HorizOval,1.700000X0.000000X0.000000X0.000000X0.000000X0*%
%TD*%
%TA.AperFunction,ComponentPad*%
%ADD33RotRect,1.700000X1.700000X315.300000*%
%TD*%
%TA.AperFunction,ComponentPad*%
%ADD34HorizOval,1.700000X0.000000X0.000000X0.000000X0.000000X0*%
%TD*%
%TA.AperFunction,ViaPad*%
%ADD35C,0.800000*%
%TD*%
%TA.AperFunction,Conductor*%
%ADD36C,5.000000*%
%TD*%
%TA.AperFunction,Conductor*%
%ADD37C,1.000000*%
%TD*%
%TA.AperFunction,Conductor*%
%ADD38C,2.000000*%
%TD*%
%TA.AperFunction,Conductor*%
%ADD39C,7.500000*%
%TD*%
%TA.AperFunction,Conductor*%
%ADD40C,0.250000*%
%TD*%
G04 APERTURE END LIST*
D10*
%TO.P,R1,1*%
%TO.N,Net-(R1-Pad1)*%
X195422500Y-52870000D03*
%TO.P,R1,2*%
%TO.N,+5V*%
X193597500Y-52870000D03*
%TD*%
D11*
%TO.P,J8,1,Pin_1*%
%TO.N,/RX*%
X138750000Y-128220000D03*
D12*
%TO.P,J8,2,Pin_2*%
%TO.N,/CS*%
X136210000Y-128220000D03*
%TO.P,J8,3,Pin_3*%
%TO.N,GND*%
X133670000Y-128220000D03*
%TO.P,J8,4,Pin_4*%
%TO.N,/CSK*%
X131130000Y-128220000D03*
%TO.P,J8,5,Pin_5*%
%TO.N,/TX*%
X128590000Y-128220000D03*
%TD*%
D13*
%TO.P,C17,1*%
%TO.N,+24V*%
X195482500Y-72310000D03*
%TO.P,C17,2*%
%TO.N,GND*%
X187482500Y-72310000D03*
%TD*%
D14*
%TO.P,J7,1*%
%TO.N,+24V*%
X78614661Y-174292270D03*
X77956255Y-168328504D03*
%TO.P,J7,2*%
%TO.N,GND*%
X67022685Y-169535582D03*
%TO.P,J7,3*%
X67681091Y-175499348D03*
%TD*%
D10*
%TO.P,R2,1*%
%TO.N,GND*%
X199072500Y-52860000D03*
%TO.P,R2,2*%
%TO.N,Net-(R1-Pad1)*%
X197247500Y-52860000D03*
%TD*%
D15*
%TO.P,J2,1,Pin_1*%
%TO.N,GND*%
X109748404Y-172103336D03*
D16*
%TO.P,J2,2,Pin_2*%
%TO.N,+24V*%
X109430058Y-174623307D03*
%TO.P,J2,3,Pin_3*%
%TO.N,/SDA*%
X112268375Y-172421682D03*
%TO.P,J2,4,Pin_4*%
%TO.N,/SCL*%
X111950029Y-174941654D03*
%TO.P,J2,5,Pin_5*%
%TO.N,/SEL2*%
X114788347Y-172740029D03*
%TO.P,J2,6,Pin_6*%
X114470000Y-175260000D03*
%TO.P,J2,7,Pin_7*%
%TO.N,/SDA*%
X117308318Y-173058375D03*
%TO.P,J2,8,Pin_8*%
%TO.N,/SCL*%
X116989972Y-175578347D03*
%TO.P,J2,9,Pin_9*%
%TO.N,GND*%
X119828289Y-173376722D03*
%TO.P,J2,10,Pin_10*%
%TO.N,+24V*%
X119509943Y-175896693D03*
%TD*%
D17*
%TO.P,J1,1,Pin_1*%
%TO.N,GND*%
X112555923Y-113691792D03*
D18*
%TO.P,J1,2,Pin_2*%
%TO.N,+24V*%
X111217455Y-111533065D03*
%TO.P,J1,3,Pin_3*%
%TO.N,/SDA*%
X110397196Y-115030260D03*
%TO.P,J1,4,Pin_4*%
%TO.N,/SCL*%
X109058728Y-112871532D03*
%TO.P,J1,5,Pin_5*%
%TO.N,/SEL1*%
X108238468Y-116368727D03*
%TO.P,J1,6,Pin_6*%
X106900000Y-114210000D03*
%TO.P,J1,7,Pin_7*%
%TO.N,/SDA*%
X106079741Y-117707195D03*
%TO.P,J1,8,Pin_8*%
%TO.N,/SCL*%
X104741273Y-115548468D03*
%TO.P,J1,9,Pin_9*%
%TO.N,GND*%
X103921013Y-119045663D03*
%TO.P,J1,10,Pin_10*%
%TO.N,+24V*%
X102582546Y-116886935D03*
%TD*%
D19*
%TO.P,C18,1*%
%TO.N,+5V*%
X185657500Y-45060000D03*
%TO.P,C18,2*%
%TO.N,GND*%
X193657500Y-45060000D03*
%TD*%
D20*
%TO.P,L1,1,1*%
%TO.N,Net-(D17-Pad1)*%
X185660000Y-62780000D03*
%TO.P,L1,2,2*%
%TO.N,+5V*%
X185660000Y-52880000D03*
%TD*%
D21*
%TO.P,J5,1,Pin_1*%
%TO.N,GND*%
X209651596Y-35136664D03*
D22*
%TO.P,J5,2,Pin_2*%
%TO.N,+24V*%
X209969942Y-32616693D03*
%TO.P,J5,3,Pin_3*%
%TO.N,/SDA*%
X207131625Y-34818318D03*
%TO.P,J5,4,Pin_4*%
%TO.N,/SCL*%
X207449971Y-32298346D03*
%TO.P,J5,5,Pin_5*%
%TO.N,/SEL5*%
X204611653Y-34499971D03*
%TO.P,J5,6,Pin_6*%
X204930000Y-31980000D03*
%TO.P,J5,7,Pin_7*%
%TO.N,/SDA*%
X202091682Y-34181625D03*
%TO.P,J5,8,Pin_8*%
%TO.N,/SCL*%
X202410028Y-31661653D03*
%TO.P,J5,9,Pin_9*%
%TO.N,GND*%
X199571711Y-33863278D03*
%TO.P,J5,10,Pin_10*%
%TO.N,+24V*%
X199890057Y-31343307D03*
%TD*%
D23*
%TO.P,U2,1,VIN*%
%TO.N,+24V*%
X195455000Y-64500000D03*
%TO.P,U2,2,OUT*%
%TO.N,Net-(D17-Pad1)*%
X195455000Y-62800000D03*
%TO.P,U2,3,GND*%
%TO.N,GND*%
X195455000Y-61100000D03*
D24*
X204605000Y-61100000D03*
D23*
%TO.P,U2,4,FB*%
%TO.N,Net-(R1-Pad1)*%
X195455000Y-59400000D03*
%TO.P,U2,5,~{ON}/OFF*%
%TO.N,GND*%
X195455000Y-57700000D03*
%TD*%
D25*
%TO.P,D17,1,K*%
%TO.N,Net-(D17-Pad1)*%
X175495000Y-68110000D03*
D26*
%TO.P,D17,2,A*%
%TO.N,GND*%
X175495000Y-52870000D03*
%TD*%
D27*
%TO.P,J6,1,Pin_1*%
%TO.N,GND*%
X147258676Y-43485761D03*
D28*
%TO.P,J6,2,Pin_2*%
%TO.N,+24V*%
X145453245Y-41699138D03*
%TO.P,J6,3,Pin_3*%
%TO.N,/SDA*%
X145472053Y-45291192D03*
%TO.P,J6,4,Pin_4*%
%TO.N,/SCL*%
X143666623Y-43504569D03*
%TO.P,J6,5,Pin_5*%
%TO.N,/SEL6*%
X143685431Y-47096622D03*
%TO.P,J6,6,Pin_6*%
X141880000Y-45310000D03*
%TO.P,J6,7,Pin_7*%
%TO.N,/SDA*%
X141898808Y-48902053D03*
%TO.P,J6,8,Pin_8*%
%TO.N,/SCL*%
X140093378Y-47115430D03*
%TO.P,J6,9,Pin_9*%
%TO.N,GND*%
X140112186Y-50707484D03*
%TO.P,J6,10,Pin_10*%
%TO.N,+24V*%
X138306755Y-48920861D03*
%TD*%
D12*
%TO.P,U1,1,GPIO0*%
%TO.N,/RX*%
X147460000Y-127965000D03*
D29*
X146560000Y-127965000D03*
%TO.P,U1,2,GPIO1*%
%TO.N,/CS*%
X146560000Y-125425000D03*
D12*
X147460000Y-125425000D03*
D29*
%TO.P,U1,3,GND*%
%TO.N,GND*%
X146560000Y-122885000D03*
D11*
X147460000Y-122885000D03*
D29*
%TO.P,U1,4,GPIO2*%
%TO.N,/CSK*%
X146560000Y-120345000D03*
D12*
X147460000Y-120345000D03*
D29*
%TO.P,U1,5,GPIO3*%
%TO.N,/TX*%
X146560000Y-117805000D03*
D12*
X147460000Y-117805000D03*
D29*
%TO.P,U1,6,GPIO4*%
%TO.N,/RGB_IN*%
X146560000Y-115265000D03*
D12*
X147460000Y-115265000D03*
%TO.P,U1,7,GPIO5*%
%TO.N,/SEL2*%
X147460000Y-112725000D03*
D29*
X146560000Y-112725000D03*
%TO.P,U1,8,GND*%
%TO.N,GND*%
X146560000Y-110185000D03*
D11*
X147460000Y-110185000D03*
D12*
%TO.P,U1,9,GPIO6*%
%TO.N,/SEL1*%
X147460000Y-107645000D03*
D29*
X146560000Y-107645000D03*
%TO.P,U1,10,GPIO7*%
%TO.N,unconnected-(U1-Pad10)*%
X146560000Y-105105000D03*
D12*
X147460000Y-105105000D03*
%TO.P,U1,11,GPIO8*%
%TO.N,/SDA*%
X147460000Y-102565000D03*
D29*
X146560000Y-102565000D03*
D12*
%TO.P,U1,12,GPIO9*%
%TO.N,/SCL*%
X147460000Y-100025000D03*
D29*
X146560000Y-100025000D03*
D11*
%TO.P,U1,13,GND*%
%TO.N,GND*%
X147460000Y-97485000D03*
D29*
X146560000Y-97485000D03*
%TO.P,U1,14,GPIO10*%
%TO.N,unconnected-(U1-Pad14)*%
X146560000Y-94945000D03*
D12*
X147460000Y-94945000D03*
%TO.P,U1,15,GPIO11*%
%TO.N,unconnected-(U1-Pad15)*%
X147460000Y-92405000D03*
D29*
X146560000Y-92405000D03*
D12*
%TO.P,U1,16,GPIO12*%
%TO.N,unconnected-(U1-Pad16)*%
X147460000Y-89865000D03*
D29*
X146560000Y-89865000D03*
D12*
%TO.P,U1,17,GPIO13*%
%TO.N,unconnected-(U1-Pad17)*%
X147460000Y-87325000D03*
D29*
X146560000Y-87325000D03*
D11*
%TO.P,U1,18,GND*%
%TO.N,GND*%
X147460000Y-84785000D03*
D29*
X146560000Y-84785000D03*
D12*
%TO.P,U1,19,GPIO14*%
%TO.N,unconnected-(U1-Pad19)*%
X147460000Y-82245000D03*
D29*
X146560000Y-82245000D03*
%TO.P,U1,20,GPIO15*%
%TO.N,/SEL6*%
X146560000Y-79705000D03*
D12*
X147460000Y-79705000D03*
%TO.P,U1,21,GPIO16*%
%TO.N,/SEL5*%
X165240000Y-79705000D03*
D29*
X166140000Y-79705000D03*
%TO.P,U1,22,GPIO17*%
%TO.N,unconnected-(U1-Pad22)*%
X166140000Y-82245000D03*
D12*
X165240000Y-82245000D03*
D11*
%TO.P,U1,23,GND*%
%TO.N,GND*%
X165240000Y-84785000D03*
D29*
X166140000Y-84785000D03*
D12*
%TO.P,U1,24,GPIO18*%
%TO.N,/SEL4*%
X165240000Y-87325000D03*
D29*
X166140000Y-87325000D03*
%TO.P,U1,25,GPIO19*%
%TO.N,unconnected-(U1-Pad25)*%
X166140000Y-89865000D03*
D12*
X165240000Y-89865000D03*
D29*
%TO.P,U1,26,GPIO20*%
%TO.N,unconnected-(U1-Pad26)*%
X166140000Y-92405000D03*
D12*
X165240000Y-92405000D03*
%TO.P,U1,27,GPIO21*%
%TO.N,unconnected-(U1-Pad27)*%
X165240000Y-94945000D03*
D29*
X166140000Y-94945000D03*
%TO.P,U1,28,GND*%
%TO.N,GND*%
X166140000Y-97485000D03*
D11*
X165240000Y-97485000D03*
D12*
%TO.P,U1,29,GPIO22*%
%TO.N,unconnected-(U1-Pad29)*%
X165240000Y-100025000D03*
D29*
X166140000Y-100025000D03*
D12*
%TO.P,U1,30,RUN*%
%TO.N,unconnected-(U1-Pad30)*%
X165240000Y-102565000D03*
D29*
X166140000Y-102565000D03*
D12*
%TO.P,U1,31,GPIO26_ADC0*%
%TO.N,unconnected-(U1-Pad31)*%
X165240000Y-105105000D03*
D29*
X166140000Y-105105000D03*
D12*
%TO.P,U1,32,GPIO27_ADC1*%
%TO.N,unconnected-(U1-Pad32)*%
X165240000Y-107645000D03*
D29*
X166140000Y-107645000D03*
D11*
%TO.P,U1,33,AGND*%
%TO.N,GND*%
X165240000Y-110185000D03*
D29*
X166140000Y-110185000D03*
%TO.P,U1,34,GPIO28_ADC2*%
%TO.N,/SEL3*%
X166140000Y-112725000D03*
D12*
X165240000Y-112725000D03*
D29*
%TO.P,U1,35,ADC_VREF*%
%TO.N,unconnected-(U1-Pad35)*%
X166140000Y-115265000D03*
D12*
X165240000Y-115265000D03*
%TO.P,U1,36,3V3*%
%TO.N,unconnected-(U1-Pad36)*%
X165240000Y-117805000D03*
D29*
X166140000Y-117805000D03*
%TO.P,U1,37,3V3_EN*%
%TO.N,unconnected-(U1-Pad37)*%
X166140000Y-120345000D03*
D12*
X165240000Y-120345000D03*
D11*
%TO.P,U1,38,GND*%
%TO.N,GND*%
X165240000Y-122885000D03*
D29*
X166140000Y-122885000D03*
D12*
%TO.P,U1,39,VSYS*%
%TO.N,+5V*%
X165240000Y-125425000D03*
D29*
X166140000Y-125425000D03*
D12*
%TO.P,U1,40,VBUS*%
%TO.N,unconnected-(U1-Pad40)*%
X165240000Y-127965000D03*
D29*
X166140000Y-127965000D03*
D12*
%TO.P,U1,41,SWCLK*%
%TO.N,unconnected-(U1-Pad41)*%
X153810000Y-79935000D03*
D30*
X153810000Y-79035000D03*
D11*
%TO.P,U1,42,GND*%
%TO.N,unconnected-(U1-Pad42)*%
X156350000Y-79935000D03*
D30*
X156350000Y-79035000D03*
D12*
%TO.P,U1,43,SWDIO*%
%TO.N,unconnected-(U1-Pad43)*%
X158890000Y-79935000D03*
D30*
X158890000Y-79035000D03*
%TD*%
D31*
%TO.P,J4,1,Pin_1*%
%TO.N,GND*%
X225214077Y-61688208D03*
D32*
%TO.P,J4,2,Pin_2*%
%TO.N,+24V*%
X226552545Y-63846935D03*
%TO.P,J4,3,Pin_3*%
%TO.N,/SDA*%
X227372804Y-60349740D03*
%TO.P,J4,4,Pin_4*%
%TO.N,/SCL*%
X228711272Y-62508468D03*
%TO.P,J4,5,Pin_5*%
%TO.N,/SEL4*%
X229531532Y-59011273D03*
%TO.P,J4,6,Pin_6*%
X230870000Y-61170000D03*
%TO.P,J4,7,Pin_7*%
%TO.N,/SDA*%
X231690259Y-57672805D03*
%TO.P,J4,8,Pin_8*%
%TO.N,/SCL*%
X233028727Y-59831532D03*
%TO.P,J4,9,Pin_9*%
%TO.N,GND*%
X233848987Y-56334337D03*
%TO.P,J4,10,Pin_10*%
%TO.N,+24V*%
X235187454Y-58493065D03*
%TD*%
D33*
%TO.P,J3,1,Pin_1*%
%TO.N,GND*%
X166971324Y-148584239D03*
D34*
%TO.P,J3,2,Pin_2*%
%TO.N,+24V*%
X168776755Y-150370862D03*
%TO.P,J3,3,Pin_3*%
%TO.N,/SDA*%
X168757947Y-146778808D03*
%TO.P,J3,4,Pin_4*%
%TO.N,/SCL*%
X170563377Y-148565431D03*
%TO.P,J3,5,Pin_5*%
%TO.N,/SEL3*%
X170544569Y-144973378D03*
%TO.P,J3,6,Pin_6*%
X172350000Y-146760000D03*
%TO.P,J3,7,Pin_7*%
%TO.N,/SDA*%
X172331192Y-143167947D03*
%TO.P,J3,8,Pin_8*%
%TO.N,/SCL*%
X174136622Y-144954570D03*
%TO.P,J3,9,Pin_9*%
%TO.N,GND*%
X174117814Y-141362516D03*
%TO.P,J3,10,Pin_10*%
%TO.N,+24V*%
X175923245Y-143149139D03*
%TD*%
D35*
%TO.N,GND*%
X188000000Y-66000000D03*
X122000000Y-128000000D03*
X151000000Y-88000000D03*
X155000000Y-73000000D03*
X210000000Y-53000000D03*
X162000000Y-92000000D03*
X98000000Y-144000000D03*
X110000000Y-160000000D03*
X140000000Y-73000000D03*
X110000000Y-129000000D03*
X143000000Y-88000000D03*
X139000000Y-140000000D03*
X127000000Y-124000000D03*
X122000000Y-144000000D03*
X174000000Y-80000000D03*
X131000000Y-144000000D03*
X114000000Y-132000000D03*
X190000000Y-49000000D03*
X138000000Y-120000000D03*
X151000000Y-84000000D03*
X143000000Y-136000000D03*
X159000000Y-65000000D03*
X186000000Y-68000000D03*
X140000000Y-92000000D03*
X131000000Y-140000000D03*
X172000000Y-128000000D03*
X147000000Y-140000000D03*
X162000000Y-104000000D03*
X168000000Y-132000000D03*
X155000000Y-88000000D03*
X122000000Y-152000000D03*
X198000000Y-49000000D03*
X135000000Y-125000000D03*
X214000000Y-49000000D03*
X90000000Y-149000000D03*
X162000000Y-128000000D03*
X143000000Y-65000000D03*
X170000000Y-114000000D03*
X124000000Y-80000000D03*
X219000000Y-53000000D03*
X188000000Y-68000000D03*
X139000000Y-136000000D03*
X210000000Y-49000000D03*
X210000000Y-46000000D03*
X211000000Y-61000000D03*
X102000000Y-160000000D03*
X118000000Y-156000000D03*
X118000000Y-144000000D03*
X170000000Y-84000000D03*
X206000000Y-45000000D03*
X135000000Y-116000000D03*
X121000000Y-92000000D03*
X147000000Y-136000000D03*
X127000000Y-156000000D03*
X170000000Y-122000000D03*
X159000000Y-73000000D03*
X164000000Y-76000000D03*
X193500000Y-79000000D03*
X139000000Y-132000000D03*
X146000000Y-69000000D03*
X126000000Y-128000000D03*
X106000000Y-156000000D03*
X143000000Y-105000000D03*
X114000000Y-140000000D03*
X117000000Y-76000000D03*
X143000000Y-152000000D03*
X131000000Y-148000000D03*
X162000000Y-84000000D03*
X121000000Y-80000000D03*
X110000000Y-132000000D03*
X131000000Y-136000000D03*
X162000000Y-131000000D03*
X226000000Y-55000000D03*
X170000000Y-90000000D03*
X127000000Y-162000000D03*
X140000000Y-100000000D03*
X173000000Y-57000000D03*
X143000000Y-80000000D03*
X117000000Y-84000000D03*
X139000000Y-152000000D03*
X162000000Y-96000000D03*
X155000000Y-120000000D03*
X118000000Y-124000000D03*
X147000000Y-144000000D03*
X151000000Y-128000000D03*
X151000000Y-96000000D03*
X158000000Y-120000000D03*
X143000000Y-69000000D03*
X118000000Y-128000000D03*
X151000000Y-80000000D03*
X110000000Y-144000000D03*
X140000000Y-84000000D03*
X121000000Y-88000000D03*
X161000000Y-140000000D03*
X127000000Y-144000000D03*
X173000000Y-61000000D03*
X189000000Y-60000000D03*
X174000000Y-98000000D03*
X185000000Y-57000000D03*
X124000000Y-84000000D03*
X151000000Y-65000000D03*
X190000000Y-64000000D03*
X151000000Y-73000000D03*
X181000000Y-53000000D03*
X131000000Y-156000000D03*
X158000000Y-92000000D03*
X140000000Y-96000000D03*
X98000000Y-152000000D03*
X127000000Y-148000000D03*
X160000000Y-47000000D03*
X155000000Y-84000000D03*
X94000000Y-156000000D03*
X69000000Y-148000000D03*
X140000000Y-110000000D03*
X102000000Y-140000000D03*
X181000000Y-49000000D03*
X122000000Y-136000000D03*
X94000000Y-148000000D03*
X202000000Y-53000000D03*
X162000000Y-49000000D03*
X151000000Y-112000000D03*
X159000000Y-57000000D03*
X158000000Y-100000000D03*
X127000000Y-152000000D03*
X127000000Y-136000000D03*
X195000000Y-80500000D03*
X181000000Y-72000000D03*
X69000000Y-167000000D03*
X190000000Y-66000000D03*
X211000000Y-57000000D03*
X110000000Y-136000000D03*
X159000000Y-69000000D03*
X194000000Y-49000000D03*
X143000000Y-144000000D03*
X124000000Y-162000000D03*
X177000000Y-45000000D03*
X143000000Y-73000000D03*
X189000000Y-57000000D03*
X140000000Y-76000000D03*
X122000000Y-148000000D03*
X170000000Y-80000000D03*
X118000000Y-140000000D03*
X171000000Y-55000000D03*
X106000000Y-144000000D03*
X146000000Y-73000000D03*
X147000000Y-132000000D03*
X69000000Y-152000000D03*
X155000000Y-61000000D03*
X175800000Y-87410000D03*
X167000000Y-76000000D03*
X200000000Y-69000000D03*
X131000000Y-132000000D03*
X158000000Y-136000000D03*
X155000000Y-108000000D03*
X158000000Y-84000000D03*
X122000000Y-121000000D03*
X135000000Y-132000000D03*
X170000000Y-110000000D03*
X162000000Y-88000000D03*
X177000000Y-49000000D03*
X94000000Y-152000000D03*
X183130000Y-82630000D03*
X155000000Y-104000000D03*
X130000000Y-162000000D03*
X135000000Y-144000000D03*
X211000000Y-64000000D03*
X69000000Y-160000000D03*
X162000000Y-112000000D03*
X146000000Y-65000000D03*
X180090000Y-80670000D03*
X155000000Y-132000000D03*
X181000000Y-61000000D03*
X162000000Y-81000000D03*
X151000000Y-100000000D03*
X98000000Y-160000000D03*
X151000000Y-76000000D03*
X143000000Y-132000000D03*
X155000000Y-140000000D03*
X150000000Y-61000000D03*
X173000000Y-65000000D03*
X143000000Y-100000000D03*
X143000000Y-148000000D03*
X198000000Y-45000000D03*
X122000000Y-132000000D03*
X140000000Y-69000000D03*
X114000000Y-129000000D03*
X106000000Y-136000000D03*
X110000000Y-156000000D03*
X114000000Y-156000000D03*
X102000000Y-148000000D03*
X151000000Y-116000000D03*
X131000000Y-121000000D03*
X135000000Y-136000000D03*
X177000000Y-61000000D03*
X206000000Y-69000000D03*
X202000000Y-45000000D03*
X170000000Y-98000000D03*
X158000000Y-116000000D03*
X139000000Y-148000000D03*
X110000000Y-140000000D03*
X229000000Y-52000000D03*
X158000000Y-132000000D03*
X146000000Y-76000000D03*
X114000000Y-136000000D03*
X158000000Y-49000000D03*
X164000000Y-73000000D03*
X123000000Y-66000000D03*
X118000000Y-152000000D03*
X127000000Y-132000000D03*
X159000000Y-76000000D03*
X143000000Y-84000000D03*
X157000000Y-144000000D03*
X223000000Y-55000000D03*
X151000000Y-140000000D03*
X162000000Y-53000000D03*
X170000000Y-94000000D03*
X206000000Y-53000000D03*
X174000000Y-102000000D03*
X155000000Y-100000000D03*
X106000000Y-132000000D03*
X214000000Y-61000000D03*
X106000000Y-148000000D03*
X102000000Y-144000000D03*
X162000000Y-100000000D03*
X154000000Y-57000000D03*
X125000000Y-119000000D03*
X158000000Y-112000000D03*
X120000000Y-69000000D03*
X118000000Y-132000000D03*
X69000000Y-156000000D03*
X155000000Y-112000000D03*
X94000000Y-144000000D03*
X189500000Y-75500000D03*
X127000000Y-140000000D03*
X222000000Y-58500000D03*
X155000000Y-123000000D03*
X151000000Y-69000000D03*
X177000000Y-57000000D03*
X151000000Y-124000000D03*
X114000000Y-144000000D03*
X190000000Y-45000000D03*
X151000000Y-108000000D03*
X162000000Y-120000000D03*
X158000000Y-123000000D03*
X131000000Y-152000000D03*
X102000000Y-136000000D03*
X98000000Y-148000000D03*
X143000000Y-140000000D03*
X214000000Y-53000000D03*
X135000000Y-152000000D03*
X151000000Y-136000000D03*
X146000000Y-61000000D03*
X162000000Y-108000000D03*
X117000000Y-88000000D03*
X122000000Y-156000000D03*
X102000000Y-152000000D03*
X114000000Y-148000000D03*
X94000000Y-160000000D03*
X139000000Y-144000000D03*
X141000000Y-117000000D03*
X143000000Y-92000000D03*
X98000000Y-140000000D03*
X140000000Y-88000000D03*
X137000000Y-111000000D03*
X138000000Y-124000000D03*
X184000000Y-70000000D03*
X114000000Y-160000000D03*
X155000000Y-92000000D03*
X203000000Y-69000000D03*
X155000000Y-116000000D03*
X143000000Y-110000000D03*
X202000000Y-49000000D03*
X181000000Y-57000000D03*
X106000000Y-152000000D03*
X140000000Y-105000000D03*
X143000000Y-122000000D03*
X155000000Y-136000000D03*
X151000000Y-92000000D03*
X158000000Y-88000000D03*
X121000000Y-84000000D03*
X206000000Y-49000000D03*
X185000000Y-59000000D03*
X181000000Y-45000000D03*
X190000000Y-68000000D03*
X135000000Y-113000000D03*
X124000000Y-95000000D03*
X143000000Y-96000000D03*
X151000000Y-132000000D03*
X220000000Y-60000000D03*
X71000000Y-169000000D03*
X151000000Y-120000000D03*
X90000000Y-156000000D03*
X106000000Y-140000000D03*
X170000000Y-118000000D03*
X171000000Y-52000000D03*
X170000000Y-102000000D03*
X118000000Y-148000000D03*
X143000000Y-76000000D03*
X155000000Y-65000000D03*
X140000000Y-80000000D03*
X151000000Y-144000000D03*
X177000000Y-64000000D03*
X214000000Y-57000000D03*
X117000000Y-72000000D03*
X106000000Y-160000000D03*
X69000000Y-164000000D03*
X159000000Y-61000000D03*
X152000000Y-149000000D03*
X147000000Y-148000000D03*
X173000000Y-49000000D03*
X155000000Y-96000000D03*
X155000000Y-69000000D03*
X162000000Y-124000000D03*
X158000000Y-108000000D03*
X177000000Y-72000000D03*
X174000000Y-94000000D03*
X158000000Y-104000000D03*
X102000000Y-156000000D03*
X155000000Y-76000000D03*
X162000000Y-116000000D03*
X141000000Y-124000000D03*
X170000000Y-106000000D03*
X158000000Y-96000000D03*
X124000000Y-88000000D03*
X151000000Y-104000000D03*
X135000000Y-140000000D03*
X110000000Y-148000000D03*
X135000000Y-148000000D03*
X122000000Y-140000000D03*
X114000000Y-152000000D03*
X217000000Y-58000000D03*
X118000000Y-136000000D03*
X170000000Y-130000000D03*
X117000000Y-80000000D03*
X90000000Y-152000000D03*
X110000000Y-152000000D03*
X150000000Y-57000000D03*
X158000000Y-140000000D03*
X98000000Y-156000000D03*
%TO.N,+5V*%
X119694741Y-166145259D03*
X143215610Y-158535610D03*
X153383856Y-47013856D03*
X108476512Y-124406512D03*
X190360000Y-82590000D03*
X199612192Y-40617808D03*
X167525693Y-138435693D03*
X127141746Y-112561746D03*
X83230000Y-162010000D03*
X177054367Y-114774367D03*
X223251605Y-51548395D03*
X184566416Y-88456416D03*
X135776643Y-92813357D03*
X84476754Y-144976754D03*
X166881351Y-41461351D03*
X135772381Y-74697619D03*
%TD*%
D36*
%TO.N,Net-(D17-Pad1)*%
X175495000Y-68110000D02*
X180330000Y-68110000D01*
X180330000Y-68110000D02*
X185660000Y-62780000D01*
D37*
X195435000Y-62780000D02*
X195455000Y-62800000D01*
X185660000Y-62780000D02*
X195435000Y-62780000D01*
D36*
%TO.N,+5V*%
X190360000Y-82590000D02*
X183925489Y-76155489D01*
X135780000Y-107080000D02*
X135776643Y-92813357D01*
D38*
X165240000Y-125425000D02*
X175474438Y-125425000D01*
D36*
X175370000Y-130610000D02*
X171485391Y-134485391D01*
X173945489Y-76155489D02*
X166881351Y-69091351D01*
X171485391Y-134485391D02*
X167525693Y-138435693D01*
X154300000Y-151630000D02*
X143215610Y-158535610D01*
X83080000Y-146400000D02*
X84476754Y-144976754D01*
X216460000Y-42750000D02*
X224680000Y-51050000D01*
X141576673Y-159556673D02*
X129260000Y-167230000D01*
X187917449Y-85037449D02*
X184566416Y-88456416D01*
X135770000Y-64580000D02*
X153383856Y-47013856D01*
X185660000Y-45062500D02*
X185657500Y-45060000D01*
X179280000Y-93850000D02*
X177054367Y-114774367D01*
X135772381Y-74697619D02*
X135770000Y-64580000D01*
X133088193Y-108788193D02*
X135780000Y-107080000D01*
X166881351Y-41461351D02*
X179708910Y-39988910D01*
X177054367Y-114774367D02*
X175974719Y-124924719D01*
X199612192Y-40617808D02*
X216460000Y-42750000D01*
X190360000Y-82594898D02*
X187917449Y-85037449D01*
X167525693Y-138435693D02*
X154300000Y-151630000D01*
X127141746Y-112561746D02*
X133088193Y-108788193D01*
D37*
X193587500Y-52880000D02*
X193597500Y-52870000D01*
D36*
X179708910Y-39988910D02*
X185853580Y-39283580D01*
X185657500Y-45060000D02*
X185657500Y-39479660D01*
D38*
X175474438Y-125425000D02*
X175974719Y-124924719D01*
D36*
X83230000Y-162010000D02*
X83080000Y-146400000D01*
D37*
X185660000Y-52880000D02*
X193587500Y-52880000D01*
D36*
X129260000Y-167230000D02*
X119694741Y-166145259D01*
X119694741Y-166145259D02*
X83230000Y-162010000D01*
X175974719Y-124924719D02*
X175370000Y-130610000D01*
X157920000Y-42490000D02*
X166881351Y-41461351D01*
X166881351Y-69091351D02*
X166881351Y-41461351D01*
X84476754Y-144976754D02*
X98370000Y-130820000D01*
X108084976Y-124654976D02*
X108476512Y-124406512D01*
X108476512Y-124406512D02*
X127141746Y-112561746D01*
X184566416Y-88456416D02*
X179280000Y-93850000D01*
X98370000Y-130820000D02*
X108084976Y-124654976D01*
X135776643Y-92813357D02*
X135772381Y-74697619D01*
X183925489Y-76155489D02*
X173945489Y-76155489D01*
X185657500Y-39479660D02*
X185853580Y-39283580D01*
X190360000Y-82590000D02*
X190360000Y-82594898D01*
X185660000Y-52880000D02*
X185660000Y-45062500D01*
X187540000Y-39090000D02*
X199612192Y-40617808D01*
X185853580Y-39283580D02*
X187540000Y-39090000D01*
X153383856Y-47013856D02*
X157920000Y-42490000D01*
X143215610Y-158535610D02*
X141576673Y-159556673D01*
D38*
%TO.N,+24V*%
X232510000Y-54300000D02*
X235660000Y-51590000D01*
X150560000Y-39220000D02*
X147670000Y-39460000D01*
D39*
X203506955Y-79846955D02*
X214230000Y-69090000D01*
X154400000Y-35390000D02*
X187500000Y-31710000D01*
X128400000Y-102800686D02*
X128400000Y-61560000D01*
D38*
X177870000Y-140900000D02*
X175923245Y-143149139D01*
X164340000Y-147670000D02*
X173210000Y-138670000D01*
X114880000Y-115270000D02*
X116700000Y-110360000D01*
D39*
X130420000Y-175230000D02*
X158640000Y-157740000D01*
D38*
X222700000Y-60220000D02*
X232510000Y-54300000D01*
X116700000Y-110360000D02*
X114040000Y-109920000D01*
X220950000Y-65010000D02*
X222700000Y-60220000D01*
X109040000Y-169420000D02*
X121030000Y-171000000D01*
D39*
X79680000Y-168990000D02*
X104360000Y-171870000D01*
D38*
X114040000Y-109920000D02*
X111217455Y-111533065D01*
X163530000Y-152840000D02*
X166090000Y-152880000D01*
X214220000Y-33170000D02*
X209969942Y-32616693D01*
X106620000Y-174240000D02*
X109430058Y-174623307D01*
X178320000Y-138100000D02*
X177870000Y-140900000D01*
D39*
X220420000Y-35890000D02*
X235660000Y-51590000D01*
X93078509Y-124935445D02*
X75380000Y-142824539D01*
D38*
X210020000Y-37760000D02*
X215040000Y-35210000D01*
D39*
X77956255Y-168328504D02*
X77956255Y-171956255D01*
D38*
X196200000Y-30950000D02*
X199890057Y-31343307D01*
X136190000Y-51300000D02*
X138306755Y-48920861D01*
X163530000Y-152840000D02*
X164340000Y-147670000D01*
X123290000Y-176370000D02*
X119509943Y-175896693D01*
D39*
X185770000Y-97640000D02*
X203506955Y-79846955D01*
D38*
X104360000Y-171870000D02*
X109040000Y-169420000D01*
D39*
X220420000Y-35890000D02*
X215040000Y-35210000D01*
D38*
X104360000Y-171870000D02*
X106620000Y-174240000D01*
D39*
X127875381Y-103325305D02*
X128400000Y-102800686D01*
D38*
X104320000Y-121860000D02*
X114880000Y-115270000D01*
X135920000Y-54060000D02*
X136190000Y-51300000D01*
X124880000Y-174510000D02*
X123290000Y-176370000D01*
D39*
X187500000Y-31710000D02*
X194380000Y-32540000D01*
D38*
X194380000Y-32540000D02*
X198150000Y-36260000D01*
D39*
X130420000Y-175230000D02*
X124880000Y-174510000D01*
D38*
X147670000Y-39460000D02*
X145453245Y-41699138D01*
X238010000Y-55330000D02*
X235187454Y-58493065D01*
D39*
X214230000Y-69090000D02*
X220950000Y-65010000D01*
X93078509Y-124935445D02*
X99050000Y-121250000D01*
D38*
X215040000Y-35210000D02*
X214220000Y-33170000D01*
X220950000Y-65010000D02*
X223810000Y-65230000D01*
D39*
X195482500Y-72310000D02*
X203506955Y-79846955D01*
D38*
X198150000Y-36260000D02*
X210020000Y-37760000D01*
D39*
X195482500Y-72310000D02*
X195470000Y-67380000D01*
X182100000Y-134260000D02*
X185770000Y-97640000D01*
D38*
X141090000Y-53290000D02*
X149850000Y-44520000D01*
X149850000Y-44520000D02*
X150560000Y-39220000D01*
D39*
X158640000Y-157740000D02*
X163530000Y-152840000D01*
D38*
X166090000Y-152880000D02*
X168776755Y-150370862D01*
D39*
X75380000Y-165590000D02*
X79680000Y-168990000D01*
D38*
X100030000Y-118470000D02*
X102582546Y-116886935D01*
X121030000Y-171000000D02*
X124880000Y-174510000D01*
X194380000Y-32540000D02*
X196200000Y-30950000D01*
D39*
X75380000Y-142824539D02*
X75380000Y-165590000D01*
X182100000Y-134260000D02*
X178320000Y-138100000D01*
D36*
X235660000Y-51590000D02*
X238010000Y-55330000D01*
D38*
X173210000Y-138670000D02*
X178320000Y-138100000D01*
X99050000Y-121250000D02*
X104320000Y-121860000D01*
X99050000Y-121250000D02*
X100030000Y-118470000D01*
D39*
X127875381Y-103325305D02*
X116700000Y-110360000D01*
X128400000Y-61560000D02*
X135920000Y-54060000D01*
D38*
X223810000Y-65230000D02*
X226552545Y-63846935D01*
D39*
X154400000Y-35390000D02*
X150560000Y-39220000D01*
D38*
X135920000Y-54060000D02*
X141090000Y-53290000D01*
D39*
X77956255Y-171956255D02*
X78000000Y-172000000D01*
D40*
%TO.N,/SDA*%
X141910000Y-47130000D02*
X143620000Y-45380000D01*
X106079741Y-117707195D02*
X106390000Y-115940000D01*
X141898808Y-48902053D02*
X141910000Y-47130000D01*
X229180000Y-60720000D02*
X231210000Y-59430000D01*
X172340000Y-144970000D02*
X172331192Y-143167947D01*
X115840000Y-174210000D02*
X117308318Y-173058375D01*
X231210000Y-59430000D02*
X231690259Y-57672805D01*
X227372804Y-60349740D02*
X229180000Y-60720000D01*
X113320000Y-173930000D02*
X115840000Y-174210000D01*
X203500000Y-33090000D02*
X206020000Y-33410000D01*
X206020000Y-33410000D02*
X207131625Y-34818318D01*
X170580000Y-146790000D02*
X172340000Y-144970000D01*
X202091682Y-34181625D02*
X203500000Y-33090000D01*
X112268375Y-172421682D02*
X113320000Y-173930000D01*
X108640000Y-114620000D02*
X110397196Y-115030260D01*
X168757947Y-146778808D02*
X170580000Y-146790000D01*
X106390000Y-115940000D02*
X108640000Y-114620000D01*
X143620000Y-45380000D02*
X145472053Y-45291192D01*
%TO.N,/SCL*%
X107170000Y-112490000D02*
X109058728Y-112871532D01*
X172340000Y-148660000D02*
X174060000Y-146890000D01*
X140093378Y-47115430D02*
X140070000Y-45290000D01*
X111950029Y-174941654D02*
X112960000Y-176430000D01*
X228711272Y-62508468D02*
X230390000Y-62980000D01*
X170563377Y-148565431D02*
X172340000Y-148660000D01*
X174060000Y-146890000D02*
X174136622Y-144954570D01*
X112960000Y-176430000D02*
X115450000Y-176740000D01*
X115450000Y-176740000D02*
X116989972Y-175578347D01*
X104741273Y-115548468D02*
X105090000Y-113790000D01*
X140070000Y-45290000D02*
X141730000Y-43600000D01*
X202410028Y-31661653D02*
X203840000Y-30510000D01*
X230390000Y-62980000D02*
X232600000Y-61600000D01*
X206320000Y-30830000D02*
X207449971Y-32298346D01*
X105090000Y-113790000D02*
X107170000Y-112490000D01*
X141730000Y-43600000D02*
X143666623Y-43504569D01*
X232600000Y-61600000D02*
X233028727Y-59831532D01*
X203840000Y-30510000D02*
X206320000Y-30830000D01*
D37*
%TO.N,Net-(R1-Pad1)*%
X195422500Y-52870000D02*
X197237500Y-52870000D01*
X192040000Y-55400000D02*
X190790000Y-56650000D01*
X195422500Y-53483478D02*
X193505978Y-55400000D01*
X190790000Y-56650000D02*
X190790000Y-58400000D01*
X193505978Y-55400000D02*
X192040000Y-55400000D01*
X197237500Y-52870000D02*
X197247500Y-52860000D01*
X190790000Y-58400000D02*
X191790000Y-59400000D01*
X195422500Y-52870000D02*
X195422500Y-53483478D01*
X191790000Y-59400000D02*
X195455000Y-59400000D01*
%TD*%
%TA.AperFunction,Conductor*%
%TO.N,GND*%
G36*
X163802440Y-44863160D02*
G01*
X163854748Y-44911164D01*
X163872851Y-44976235D01*
X163872851Y-68917920D01*
X163872385Y-68926392D01*
X163872470Y-68926396D01*
X163872280Y-68930029D01*
X163871882Y-68933631D01*
X163871901Y-68937257D01*
X163872849Y-69118375D01*
X163872851Y-69119035D01*
X163872851Y-69179783D01*
X163872956Y-69181602D01*
X163872956Y-69181609D01*
X163873013Y-69182592D01*
X163873219Y-69189168D01*
X163873698Y-69280576D01*
X163882707Y-69355022D01*
X163883408Y-69362871D01*
X163887724Y-69437725D01*
X163888347Y-69441293D01*
X163903438Y-69527759D01*
X163904400Y-69534282D01*
X163915380Y-69625013D01*
X163916226Y-69628538D01*
X163916227Y-69628542D01*
X163932882Y-69697915D01*
X163934487Y-69705665D01*
X163947375Y-69779509D01*
X163973335Y-69867150D01*
X163975032Y-69873478D01*
X163996374Y-69962376D01*
X163997618Y-69965774D01*
X164022141Y-70032786D01*
X164024617Y-70040273D01*
X164045914Y-70112171D01*
X164047335Y-70115502D01*
X164047338Y-70115511D01*
X164053110Y-70129042D01*
X164081603Y-70195842D01*
X164081771Y-70196237D01*
X164084199Y-70202370D01*
X164111979Y-70278280D01*
X164115607Y-70288195D01*
X164117236Y-70291433D01*
X164117239Y-70291441D01*
X164149290Y-70355169D01*
X164152622Y-70362346D01*
X164159502Y-70378476D01*
X164182035Y-70431303D01*
X164227331Y-70510715D01*
X164230434Y-70516503D01*
X164237905Y-70531358D01*
X164271498Y-70598150D01*
X164312658Y-70660810D01*
X164316782Y-70667540D01*
X164353934Y-70732675D01*
X164404728Y-70801822D01*
X164408046Y-70806339D01*
X164411811Y-70811756D01*
X164431718Y-70842061D01*
X164461981Y-70888133D01*
X164464306Y-70890914D01*
X164464310Y-70890919D01*
X164510067Y-70945645D01*
X164514951Y-70951873D01*
X164526690Y-70967853D01*
X164559333Y-71012291D01*
X164566287Y-71019774D01*
X164621553Y-71079248D01*
X164625901Y-71084180D01*
X164658468Y-71123130D01*
X164711429Y-71176091D01*
X164714634Y-71179415D01*
X164795509Y-71266447D01*
X164834769Y-71299979D01*
X164842022Y-71306684D01*
X171695520Y-78160182D01*
X171701188Y-78166510D01*
X171701252Y-78166452D01*
X171703677Y-78169145D01*
X171705948Y-78171980D01*
X171708528Y-78174533D01*
X171837366Y-78302029D01*
X171837833Y-78302495D01*
X171880689Y-78345351D01*
X171882794Y-78347226D01*
X171887594Y-78351734D01*
X171949973Y-78413464D01*
X171949983Y-78413473D01*
X171952560Y-78416023D01*
X171955417Y-78418263D01*
X171955418Y-78418264D01*
X172011556Y-78462281D01*
X172017607Y-78467340D01*
X172073599Y-78517227D01*
X172076566Y-78519313D01*
X172076567Y-78519313D01*
X172148380Y-78569784D01*
X172153675Y-78573717D01*
X172225587Y-78630103D01*
X172228681Y-78631999D01*
X172228691Y-78632006D01*
X172289506Y-78669274D01*
X172296121Y-78673619D01*
X172354473Y-78714630D01*
X172354491Y-78714641D01*
X172357456Y-78716725D01*
X172437791Y-78760343D01*
X172443486Y-78763632D01*
X172521410Y-78811384D01*
X172524702Y-78812912D01*
X172524713Y-78812918D01*
X172589409Y-78842949D01*
X172596479Y-78846505D01*
X172659160Y-78880538D01*
X172659174Y-78880544D01*
X172662361Y-78882275D01*
X172665726Y-78883628D01*
X172665733Y-78883631D01*
X172747157Y-78916363D01*
X172753210Y-78918982D01*
X172832825Y-78955938D01*
X172832830Y-78955940D01*
X172836109Y-78957462D01*
X172907288Y-78981002D01*
X172914722Y-78983723D01*
X172980905Y-79010329D01*
X172980910Y-79010331D01*
X172984274Y-79011683D01*
X173020190Y-79021509D01*
X173072430Y-79035800D01*
X173078740Y-79037704D01*
X173165512Y-79066402D01*
X173229054Y-79079561D01*
X173238912Y-79081602D01*
X173246609Y-79083450D01*
X173315421Y-79102275D01*
X173315424Y-79102276D01*
X173318927Y-79103234D01*
X173376277Y-79112010D01*
X173409273Y-79117059D01*
X173415765Y-79118227D01*
X173501688Y-79136021D01*
X173501693Y-79136022D01*
X173505253Y-79136759D01*
X173559437Y-79141595D01*
X173579912Y-79143422D01*
X173587770Y-79144373D01*
X173640543Y-79152448D01*
X173661884Y-79155714D01*
X173726914Y-79158098D01*
X173753217Y-79159063D01*
X173759800Y-79159477D01*
X173807563Y-79163740D01*
X173807573Y-79163740D01*
X173810358Y-79163989D01*
X173885266Y-79163989D01*
X173889883Y-79164074D01*
X174004962Y-79168294D01*
X174004969Y-79168294D01*
X174008601Y-79168427D01*
X174012222Y-79168142D01*
X174012224Y-79168142D01*
X174060062Y-79164377D01*
X174069948Y-79163989D01*
X182627137Y-79163989D01*
X182695258Y-79183991D01*
X182716232Y-79200894D01*
X186018692Y-82503354D01*
X186052718Y-82565666D01*
X186047653Y-82636481D01*
X186018692Y-82681544D01*
X185878601Y-82821635D01*
X185871309Y-82828374D01*
X185863468Y-82835065D01*
X185779857Y-82920371D01*
X185778967Y-82921269D01*
X185727587Y-82972649D01*
X185719273Y-82981981D01*
X185715201Y-82986338D01*
X182355946Y-86413693D01*
X182355939Y-86413702D01*
X182355923Y-86413718D01*
X181374931Y-87414597D01*
X177565643Y-91301109D01*
X177253721Y-91619354D01*
X177248322Y-91624283D01*
X177248430Y-91624401D01*
X177245753Y-91626857D01*
X177242936Y-91629156D01*
X177110813Y-91765158D01*
X177110533Y-91765444D01*
X177069531Y-91807277D01*
X177068330Y-91808653D01*
X177067106Y-91809976D01*
X177067103Y-91809974D01*
X177063979Y-91813367D01*
X177001179Y-91878009D01*
X176998974Y-91880876D01*
X176998969Y-91880881D01*
X176954698Y-91938428D01*
X176949743Y-91944470D01*
X176901991Y-91999160D01*
X176901981Y-91999173D01*
X176899599Y-92001901D01*
X176897547Y-92004883D01*
X176897536Y-92004898D01*
X176848516Y-92076155D01*
X176844575Y-92081570D01*
X176791837Y-92150122D01*
X176791825Y-92150140D01*
X176789626Y-92152998D01*
X176787762Y-92156103D01*
X176787757Y-92156111D01*
X176750386Y-92218376D01*
X176746160Y-92224947D01*
X176702959Y-92287746D01*
X176660740Y-92367400D01*
X176657479Y-92373176D01*
X176611082Y-92450481D01*
X176579618Y-92519934D01*
X176576181Y-92526934D01*
X176542184Y-92591075D01*
X176542179Y-92591086D01*
X176540477Y-92594297D01*
X176507712Y-92678228D01*
X176505111Y-92684402D01*
X176467912Y-92766514D01*
X176466807Y-92769960D01*
X176466806Y-92769964D01*
X176444643Y-92839115D01*
X176442032Y-92846468D01*
X176414305Y-92917492D01*
X176413385Y-92920994D01*
X176413383Y-92920999D01*
X176391393Y-93004671D01*
X176389525Y-93011081D01*
X176362016Y-93096908D01*
X176347242Y-93171716D01*
X176345502Y-93179284D01*
X176326116Y-93253047D01*
X176325603Y-93256639D01*
X176325603Y-93256640D01*
X176313377Y-93342279D01*
X176312256Y-93348873D01*
X176302668Y-93397422D01*
X176302371Y-93400215D01*
X176302370Y-93400221D01*
X176294619Y-93473097D01*
X176294063Y-93477566D01*
X176277081Y-93596513D01*
X176276984Y-93600153D01*
X176276984Y-93600154D01*
X176275741Y-93646824D01*
X176275079Y-93656796D01*
X174151711Y-113619717D01*
X174077035Y-114321788D01*
X173070615Y-123783692D01*
X173068473Y-123803827D01*
X173041378Y-123869450D01*
X172983106Y-123910007D01*
X172943180Y-123916500D01*
X168523599Y-123916500D01*
X168455478Y-123896498D01*
X168408985Y-123842842D01*
X168397783Y-123783692D01*
X168398000Y-123779682D01*
X168398000Y-123528115D01*
X168393525Y-123512876D01*
X168392135Y-123511671D01*
X168384452Y-123510000D01*
X163900116Y-123510000D01*
X163884877Y-123514475D01*
X163883672Y-123515865D01*
X163882001Y-123523548D01*
X163882001Y-123779669D01*
X163882371Y-123786490D01*
X163887895Y-123837352D01*
X163891521Y-123852604D01*
X163936676Y-123973054D01*
X163945214Y-123988649D01*
X164012942Y-124079018D01*
X164037790Y-124145525D01*
X164022737Y-124214907D01*
X164012942Y-124230148D01*
X163939385Y-124328295D01*
X163888255Y-124464684D01*
X163881500Y-124526866D01*
X163881500Y-124731207D01*
X163873131Y-124776361D01*
X163788167Y-124997702D01*
X163787133Y-125002652D01*
X163787132Y-125002655D01*
X163782596Y-125024371D01*
X163738526Y-125235320D01*
X163727514Y-125477817D01*
X163728095Y-125482837D01*
X163728095Y-125482841D01*
X163743623Y-125617038D01*
X163755415Y-125718956D01*
X163821510Y-125952532D01*
X163823644Y-125957108D01*
X163823646Y-125957114D01*
X163869695Y-126055866D01*
X163881500Y-126109116D01*
X163881500Y-126323134D01*
X163888255Y-126385316D01*
X163939385Y-126521705D01*
X163959372Y-126548373D01*
X164012630Y-126619435D01*
X164037478Y-126685941D01*
X164022425Y-126755324D01*
X164012632Y-126770562D01*
X163939385Y-126868295D01*
X163888255Y-127004684D01*
X163881500Y-127066866D01*
X163881500Y-127885219D01*
X163880787Y-127898607D01*
X163877251Y-127931695D01*
X163877548Y-127936848D01*
X163877548Y-127936851D01*
X163881291Y-128001763D01*
X163881500Y-128009016D01*
X163881500Y-128863134D01*
X163888255Y-128925316D01*
X163939385Y-129061705D01*
X164026739Y-129178261D01*
X164143295Y-129265615D01*
X164279684Y-129316745D01*
X164341866Y-129323500D01*
X165210826Y-129323500D01*
X165215443Y-129323585D01*
X165296673Y-129326564D01*
X165296677Y-129326564D01*
X165301837Y-129326753D01*
X165306957Y-129326097D01*
X165306959Y-129326097D01*
X165319261Y-129324521D01*
X165335271Y-129323500D01*
X167938134Y-129323500D01*
X168000316Y-129316745D01*
X168136705Y-129265615D01*
X168253261Y-129178261D01*
X168340615Y-129061705D01*
X168391745Y-128925316D01*
X168398500Y-128863134D01*
X168398500Y-127066866D01*
X168398391Y-127065864D01*
X168414574Y-126997212D01*
X168465636Y-126947885D01*
X168524101Y-126933500D01*
X172595470Y-126933500D01*
X172663591Y-126953502D01*
X172710084Y-127007158D01*
X172720763Y-127072827D01*
X172577723Y-128417616D01*
X172499729Y-129150886D01*
X172495766Y-129188140D01*
X172468671Y-129253763D01*
X172459463Y-129264014D01*
X172273698Y-129449338D01*
X169332153Y-132383904D01*
X165496560Y-136210395D01*
X165496556Y-136210398D01*
X152428198Y-149247744D01*
X152405842Y-149265481D01*
X141549719Y-156028879D01*
X141549714Y-156028883D01*
X139910782Y-157049942D01*
X139910776Y-157049946D01*
X128595443Y-164099434D01*
X128527050Y-164118478D01*
X128514625Y-164117688D01*
X119945876Y-163145955D01*
X119945871Y-163145955D01*
X119945860Y-163145954D01*
X111102080Y-162143031D01*
X86323519Y-159333035D01*
X86258087Y-159305484D01*
X86217936Y-159246931D01*
X86211724Y-159209048D01*
X86100841Y-147669780D01*
X86120187Y-147601470D01*
X86136906Y-147580315D01*
X86529319Y-147180458D01*
X86529328Y-147180449D01*
X88255338Y-145421702D01*
X100264370Y-133184899D01*
X100286778Y-133166773D01*
X108134492Y-128186695D01*
X127227251Y-128186695D01*
X127227548Y-128191848D01*
X127227548Y-128191851D01*
X127236565Y-128348229D01*
X127240110Y-128409715D01*
X127241247Y-128414761D01*
X127241248Y-128414767D01*
X127262275Y-128508069D01*
X127289222Y-128627639D01*
X127373266Y-128834616D01*
X127410685Y-128895678D01*
X127487291Y-129020688D01*
X127489987Y-129025088D01*
X127636250Y-129193938D01*
X127726382Y-129268767D01*
X127795437Y-129326097D01*
X127808126Y-129336632D01*
X128001000Y-129449338D01*
X128209692Y-129529030D01*
X128214760Y-129530061D01*
X128214763Y-129530062D01*
X128322017Y-129551883D01*
X128428597Y-129573567D01*
X128433772Y-129573757D01*
X128433774Y-129573757D01*
X128646673Y-129581564D01*
X128646677Y-129581564D01*
X128651837Y-129581753D01*
X128656957Y-129581097D01*
X128656959Y-129581097D01*
X128868288Y-129554025D01*
X128868289Y-129554025D01*
X128873416Y-129553368D01*
X128878366Y-129551883D01*
X129082429Y-129490661D01*
X129082434Y-129490659D01*
X129087384Y-129489174D01*
X129287994Y-129390896D01*
X129469860Y-129261173D01*
X129484870Y-129246216D01*
X129564124Y-129167238D01*
X129628096Y-129103489D01*
X129664163Y-129053297D01*
X129758453Y-128922077D01*
X129759776Y-128923028D01*
X129806645Y-128879857D01*
X129876580Y-128867625D01*
X129942026Y-128895144D01*
X129969875Y-128926994D01*
X130029987Y-129025088D01*
X130176250Y-129193938D01*
X130266382Y-129268767D01*
X130335437Y-129326097D01*
X130348126Y-129336632D01*
X130541000Y-129449338D01*
X130749692Y-129529030D01*
X130754760Y-129530061D01*
X130754763Y-129530062D01*
X130862017Y-129551883D01*
X130968597Y-129573567D01*
X130973772Y-129573757D01*
X130973774Y-129573757D01*
X131186673Y-129581564D01*
X131186677Y-129581564D01*
X131191837Y-129581753D01*
X131196957Y-129581097D01*
X131196959Y-129581097D01*
X131408288Y-129554025D01*
X131408289Y-129554025D01*
X131413416Y-129553368D01*
X131418366Y-129551883D01*
X131622429Y-129490661D01*
X131622434Y-129490659D01*
X131627384Y-129489174D01*
X131827994Y-129390896D01*
X132009860Y-129261173D01*
X132024870Y-129246216D01*
X132104124Y-129167238D01*
X132168096Y-129103489D01*
X132204163Y-129053297D01*
X132298453Y-128922077D01*
X132299640Y-128922930D01*
X132346960Y-128879362D01*
X132416897Y-128867145D01*
X132482338Y-128894678D01*
X132510166Y-128926511D01*
X132567694Y-129020388D01*
X132573777Y-129028699D01*
X132713213Y-129189667D01*
X132720580Y-129196883D01*
X132884434Y-129332916D01*
X132892881Y-129338831D01*
X133029359Y-129418582D01*
X133043046Y-129421978D01*
X133043965Y-129420822D01*
X133045000Y-129415526D01*
X133045000Y-129407984D01*
X134295000Y-129407984D01*
X134298973Y-129421515D01*
X134302842Y-129422071D01*
X134303867Y-129421755D01*
X134363095Y-129392739D01*
X134371945Y-129387464D01*
X134545328Y-129263792D01*
X134553200Y-129257139D01*
X134704052Y-129106812D01*
X134710730Y-129098965D01*
X134838022Y-128921819D01*
X134839279Y-128922722D01*
X134886373Y-128879362D01*
X134956311Y-128867145D01*
X135021751Y-128894678D01*
X135049579Y-128926511D01*
X135109987Y-129025088D01*
X135256250Y-129193938D01*
X135346382Y-129268767D01*
X135415437Y-129326097D01*
X135428126Y-129336632D01*
X135621000Y-129449338D01*
X135829692Y-129529030D01*
X135834760Y-129530061D01*
X135834763Y-129530062D01*
X135942017Y-129551883D01*
X136048597Y-129573567D01*
X136053772Y-129573757D01*
X136053774Y-129573757D01*
X136266673Y-129581564D01*
X136266677Y-129581564D01*
X136271837Y-129581753D01*
X136276957Y-129581097D01*
X136276959Y-129581097D01*
X136488288Y-129554025D01*
X136488289Y-129554025D01*
X136493416Y-129553368D01*
X136498366Y-129551883D01*
X136702429Y-129490661D01*
X136702434Y-129490659D01*
X136707384Y-129489174D01*
X136907994Y-129390896D01*
X137089860Y-129261173D01*
X137198091Y-129153319D01*
X137260462Y-129119404D01*
X137331268Y-129124592D01*
X137388030Y-129167238D01*
X137405012Y-129198341D01*
X137449385Y-129316705D01*
X137536739Y-129433261D01*
X137653295Y-129520615D01*
X137789684Y-129571745D01*
X137851866Y-129578500D01*
X139648134Y-129578500D01*
X139710316Y-129571745D01*
X139846705Y-129520615D01*
X139963261Y-129433261D01*
X140050615Y-129316705D01*
X140101745Y-129180316D01*
X140108500Y-129118134D01*
X140108500Y-128863134D01*
X144301500Y-128863134D01*
X144308255Y-128925316D01*
X144359385Y-129061705D01*
X144446739Y-129178261D01*
X144563295Y-129265615D01*
X144699684Y-129316745D01*
X144761866Y-129323500D01*
X147430826Y-129323500D01*
X147435443Y-129323585D01*
X147516673Y-129326564D01*
X147516677Y-129326564D01*
X147521837Y-129326753D01*
X147526957Y-129326097D01*
X147526959Y-129326097D01*
X147539261Y-129324521D01*
X147555271Y-129323500D01*
X148358134Y-129323500D01*
X148420316Y-129316745D01*
X148556705Y-129265615D01*
X148673261Y-129178261D01*
X148760615Y-129061705D01*
X148811745Y-128925316D01*
X148818500Y-128863134D01*
X148818500Y-128062856D01*
X148819578Y-128046409D01*
X148821092Y-128034908D01*
X148821529Y-128031590D01*
X148822258Y-128001763D01*
X148823074Y-127968365D01*
X148823074Y-127968361D01*
X148823156Y-127965000D01*
X148818924Y-127913524D01*
X148818500Y-127903200D01*
X148818500Y-127800469D01*
X152212095Y-127800469D01*
X152212392Y-127805622D01*
X152212392Y-127805625D01*
X152218018Y-127903200D01*
X152225427Y-128031697D01*
X152226564Y-128036743D01*
X152226565Y-128036749D01*
X152258741Y-128179523D01*
X152276346Y-128257642D01*
X152278288Y-128262424D01*
X152278289Y-128262428D01*
X152354202Y-128449379D01*
X152363484Y-128472237D01*
X152484501Y-128669719D01*
X152636147Y-128844784D01*
X152814349Y-128992730D01*
X153014322Y-129109584D01*
X153230694Y-129192209D01*
X153235760Y-129193240D01*
X153235761Y-129193240D01*
X153288846Y-129204040D01*
X153457656Y-129238385D01*
X153588324Y-129243176D01*
X153683949Y-129246683D01*
X153683953Y-129246683D01*
X153689113Y-129246872D01*
X153694233Y-129246216D01*
X153694235Y-129246216D01*
X153801263Y-129232505D01*
X153918847Y-129217442D01*
X153923795Y-129215957D01*
X153923802Y-129215956D01*
X154135747Y-129152369D01*
X154140690Y-129150886D01*
X154194363Y-129124592D01*
X154344049Y-129051262D01*
X154344052Y-129051260D01*
X154348684Y-129048991D01*
X154537243Y-128914494D01*
X154701303Y-128751005D01*
X154836458Y-128562917D01*
X154863566Y-128508069D01*
X154936784Y-128359922D01*
X154936785Y-128359920D01*
X154939078Y-128355280D01*
X155006408Y-128133671D01*
X155036640Y-127904041D01*
X155038327Y-127835000D01*
X155035488Y-127800469D01*
X157662095Y-127800469D01*
X157662392Y-127805622D01*
X157662392Y-127805625D01*
X157668018Y-127903200D01*
X157675427Y-128031697D01*
X157676564Y-128036743D01*
X157676565Y-128036749D01*
X157708741Y-128179523D01*
X157726346Y-128257642D01*
X157728288Y-128262424D01*
X157728289Y-128262428D01*
X157804202Y-128449379D01*
X157813484Y-128472237D01*
X157934501Y-128669719D01*
X158086147Y-128844784D01*
X158264349Y-128992730D01*
X158464322Y-129109584D01*
X158680694Y-129192209D01*
X158685760Y-129193240D01*
X158685761Y-129193240D01*
X158738846Y-129204040D01*
X158907656Y-129238385D01*
X159038324Y-129243176D01*
X159133949Y-129246683D01*
X159133953Y-129246683D01*
X159139113Y-129246872D01*
X159144233Y-129246216D01*
X159144235Y-129246216D01*
X159251263Y-129232505D01*
X159368847Y-129217442D01*
X159373795Y-129215957D01*
X159373802Y-129215956D01*
X159585747Y-129152369D01*
X159590690Y-129150886D01*
X159644363Y-129124592D01*
X159794049Y-129051262D01*
X159794052Y-129051260D01*
X159798684Y-129048991D01*
X159987243Y-128914494D01*
X160151303Y-128751005D01*
X160286458Y-128562917D01*
X160313566Y-128508069D01*
X160386784Y-128359922D01*
X160386785Y-128359920D01*
X160389078Y-128355280D01*
X160456408Y-128133671D01*
X160486640Y-127904041D01*
X160488327Y-127835000D01*
X160479810Y-127731406D01*
X160469773Y-127609318D01*
X160469772Y-127609312D01*
X160469349Y-127604167D01*
X160416289Y-127392926D01*
X160414184Y-127384544D01*
X160414183Y-127384540D01*
X160412925Y-127379533D01*
X160407355Y-127366722D01*
X160322630Y-127171868D01*
X160322628Y-127171865D01*
X160320570Y-127167131D01*
X160194764Y-126972665D01*
X160186295Y-126963357D01*
X160130527Y-126902069D01*
X160038887Y-126801358D01*
X160034836Y-126798159D01*
X160034832Y-126798155D01*
X159861177Y-126661011D01*
X159861172Y-126661008D01*
X159857123Y-126657810D01*
X159852607Y-126655317D01*
X159852604Y-126655315D01*
X159658879Y-126548373D01*
X159658875Y-126548371D01*
X159654355Y-126545876D01*
X159649486Y-126544152D01*
X159649482Y-126544150D01*
X159440903Y-126470288D01*
X159440899Y-126470287D01*
X159436028Y-126468562D01*
X159430935Y-126467655D01*
X159430932Y-126467654D01*
X159213095Y-126428851D01*
X159213089Y-126428850D01*
X159208006Y-126427945D01*
X159135096Y-126427054D01*
X158981581Y-126425179D01*
X158981579Y-126425179D01*
X158976411Y-126425116D01*
X158747464Y-126460150D01*
X158527314Y-126532106D01*
X158522726Y-126534494D01*
X158522722Y-126534496D01*
X158496065Y-126548373D01*
X158321872Y-126639052D01*
X158317739Y-126642155D01*
X158317736Y-126642157D01*
X158171787Y-126751739D01*
X158136655Y-126778117D01*
X158133083Y-126781855D01*
X157988168Y-126933500D01*
X157976639Y-126945564D01*
X157973725Y-126949836D01*
X157973724Y-126949837D01*
X157958152Y-126972665D01*
X157846119Y-127136899D01*
X157748602Y-127346981D01*
X157686707Y-127570169D01*
X157662095Y-127800469D01*
X155035488Y-127800469D01*
X155029810Y-127731406D01*
X155019773Y-127609318D01*
X155019772Y-127609312D01*
X155019349Y-127604167D01*
X154966289Y-127392926D01*
X154964184Y-127384544D01*
X154964183Y-127384540D01*
X154962925Y-127379533D01*
X154957355Y-127366722D01*
X154872630Y-127171868D01*
X154872628Y-127171865D01*
X154870570Y-127167131D01*
X154744764Y-126972665D01*
X154736295Y-126963357D01*
X154680527Y-126902069D01*
X154588887Y-126801358D01*
X154584836Y-126798159D01*
X154584832Y-126798155D01*
X154411177Y-126661011D01*
X154411172Y-126661008D01*
X154407123Y-126657810D01*
X154402607Y-126655317D01*
X154402604Y-126655315D01*
X154208879Y-126548373D01*
X154208875Y-126548371D01*
X154204355Y-126545876D01*
X154199486Y-126544152D01*
X154199482Y-126544150D01*
X153990903Y-126470288D01*
X153990899Y-126470287D01*
X153986028Y-126468562D01*
X153980935Y-126467655D01*
X153980932Y-126467654D01*
X153763095Y-126428851D01*
X153763089Y-126428850D01*
X153758006Y-126427945D01*
X153685096Y-126427054D01*
X153531581Y-126425179D01*
X153531579Y-126425179D01*
X153526411Y-126425116D01*
X153297464Y-126460150D01*
X153077314Y-126532106D01*
X153072726Y-126534494D01*
X153072722Y-126534496D01*
X153046065Y-126548373D01*
X152871872Y-126639052D01*
X152867739Y-126642155D01*
X152867736Y-126642157D01*
X152721787Y-126751739D01*
X152686655Y-126778117D01*
X152683083Y-126781855D01*
X152538168Y-126933500D01*
X152526639Y-126945564D01*
X152523725Y-126949836D01*
X152523724Y-126949837D01*
X152508152Y-126972665D01*
X152396119Y-127136899D01*
X152298602Y-127346981D01*
X152236707Y-127570169D01*
X152212095Y-127800469D01*
X148818500Y-127800469D01*
X148818500Y-127066866D01*
X148811745Y-127004684D01*
X148760615Y-126868295D01*
X148687370Y-126770564D01*
X148662522Y-126704059D01*
X148677575Y-126634676D01*
X148687370Y-126619435D01*
X148740628Y-126548373D01*
X148760615Y-126521705D01*
X148811745Y-126385316D01*
X148818500Y-126323134D01*
X148818500Y-125522856D01*
X148819578Y-125506409D01*
X148821092Y-125494908D01*
X148821529Y-125491590D01*
X148823156Y-125425000D01*
X148818924Y-125373524D01*
X148818500Y-125363200D01*
X148818500Y-124805000D01*
X152661693Y-124805000D01*
X152680885Y-125024371D01*
X152737880Y-125237076D01*
X152740205Y-125242061D01*
X152828618Y-125431666D01*
X152828621Y-125431671D01*
X152830944Y-125436653D01*
X152834100Y-125441160D01*
X152834101Y-125441162D01*
X152879788Y-125506409D01*
X152957251Y-125617038D01*
X153112962Y-125772749D01*
X153293346Y-125899056D01*
X153492924Y-125992120D01*
X153705629Y-126049115D01*
X153925000Y-126068307D01*
X154144371Y-126049115D01*
X154357076Y-125992120D01*
X154556654Y-125899056D01*
X154737038Y-125772749D01*
X154892749Y-125617038D01*
X154970213Y-125506409D01*
X155015899Y-125441162D01*
X155015900Y-125441160D01*
X155019056Y-125436653D01*
X155021379Y-125431671D01*
X155021382Y-125431666D01*
X155109795Y-125242061D01*
X155112120Y-125237076D01*
X155169115Y-125024371D01*
X155188307Y-124805000D01*
X157511693Y-124805000D01*
X157530885Y-125024371D01*
X157587880Y-125237076D01*
X157590205Y-125242061D01*
X157678618Y-125431666D01*
X157678621Y-125431671D01*
X157680944Y-125436653D01*
X157684100Y-125441160D01*
X157684101Y-125441162D01*
X157729788Y-125506409D01*
X157807251Y-125617038D01*
X157962962Y-125772749D01*
X158143346Y-125899056D01*
X158342924Y-125992120D01*
X158555629Y-126049115D01*
X158775000Y-126068307D01*
X158994371Y-126049115D01*
X159207076Y-125992120D01*
X159406654Y-125899056D01*
X159587038Y-125772749D01*
X159742749Y-125617038D01*
X159820213Y-125506409D01*
X159865899Y-125441162D01*
X159865900Y-125441160D01*
X159869056Y-125436653D01*
X159871379Y-125431671D01*
X159871382Y-125431666D01*
X159959795Y-125242061D01*
X159962120Y-125237076D01*
X160019115Y-125024371D01*
X160038307Y-124805000D01*
X160019115Y-124585629D01*
X159962120Y-124372924D01*
X159888436Y-124214907D01*
X159871382Y-124178334D01*
X159871379Y-124178329D01*
X159869056Y-124173347D01*
X159865899Y-124168838D01*
X159745908Y-123997473D01*
X159745906Y-123997470D01*
X159742749Y-123992962D01*
X159587038Y-123837251D01*
X159406654Y-123710944D01*
X159207076Y-123617880D01*
X158994371Y-123560885D01*
X158775000Y-123541693D01*
X158555629Y-123560885D01*
X158342924Y-123617880D01*
X158249562Y-123661415D01*
X158148334Y-123708618D01*
X158148329Y-123708621D01*
X158143347Y-123710944D01*
X158138840Y-123714100D01*
X158138838Y-123714101D01*
X157967473Y-123834092D01*
X157967470Y-123834094D01*
X157962962Y-123837251D01*
X157807251Y-123992962D01*
X157804094Y-123997470D01*
X157804092Y-123997473D01*
X157684101Y-124168838D01*
X157680944Y-124173347D01*
X157678621Y-124178329D01*
X157678618Y-124178334D01*
X157661564Y-124214907D01*
X157587880Y-124372924D01*
X157530885Y-124585629D01*
X157511693Y-124805000D01*
X155188307Y-124805000D01*
X155169115Y-124585629D01*
X155112120Y-124372924D01*
X155038436Y-124214907D01*
X155021382Y-124178334D01*
X155021379Y-124178329D01*
X155019056Y-124173347D01*
X155015899Y-124168838D01*
X154895908Y-123997473D01*
X154895906Y-123997470D01*
X154892749Y-123992962D01*
X154737038Y-123837251D01*
X154556654Y-123710944D01*
X154357076Y-123617880D01*
X154144371Y-123560885D01*
X153925000Y-123541693D01*
X153705629Y-123560885D01*
X153492924Y-123617880D01*
X153399562Y-123661415D01*
X153298334Y-123708618D01*
X153298329Y-123708621D01*
X153293347Y-123710944D01*
X153288840Y-123714100D01*
X153288838Y-123714101D01*
X153117473Y-123834092D01*
X153117470Y-123834094D01*
X153112962Y-123837251D01*
X152957251Y-123992962D01*
X152954094Y-123997470D01*
X152954092Y-123997473D01*
X152834101Y-124168838D01*
X152830944Y-124173347D01*
X152828621Y-124178329D01*
X152828618Y-124178334D01*
X152811564Y-124214907D01*
X152737880Y-124372924D01*
X152680885Y-124585629D01*
X152661693Y-124805000D01*
X148818500Y-124805000D01*
X148818500Y-124526866D01*
X148811745Y-124464684D01*
X148760615Y-124328295D01*
X148687058Y-124230148D01*
X148662210Y-124163642D01*
X148677263Y-124094259D01*
X148687058Y-124079018D01*
X148754786Y-123988649D01*
X148763324Y-123973054D01*
X148808478Y-123852606D01*
X148812105Y-123837351D01*
X148817631Y-123786486D01*
X148818000Y-123779672D01*
X148818000Y-123528115D01*
X148813525Y-123512876D01*
X148812135Y-123511671D01*
X148804452Y-123510000D01*
X144320116Y-123510000D01*
X144304877Y-123514475D01*
X144303672Y-123515865D01*
X144302001Y-123523548D01*
X144302001Y-123779669D01*
X144302371Y-123786490D01*
X144307895Y-123837352D01*
X144311521Y-123852604D01*
X144356676Y-123973054D01*
X144365214Y-123988649D01*
X144432942Y-124079018D01*
X144457790Y-124145525D01*
X144442737Y-124214907D01*
X144432942Y-124230148D01*
X144359385Y-124328295D01*
X144308255Y-124464684D01*
X144301500Y-124526866D01*
X144301500Y-126323134D01*
X144308255Y-126385316D01*
X144359385Y-126521705D01*
X144379372Y-126548373D01*
X144432630Y-126619435D01*
X144457478Y-126685941D01*
X144442425Y-126755324D01*
X144432632Y-126770562D01*
X144359385Y-126868295D01*
X144308255Y-127004684D01*
X144301500Y-127066866D01*
X144301500Y-128863134D01*
X140108500Y-128863134D01*
X140108500Y-127321866D01*
X140101745Y-127259684D01*
X140050615Y-127123295D01*
X139963261Y-127006739D01*
X139846705Y-126919385D01*
X139710316Y-126868255D01*
X139648134Y-126861500D01*
X137851866Y-126861500D01*
X137789684Y-126868255D01*
X137653295Y-126919385D01*
X137536739Y-127006739D01*
X137449385Y-127123295D01*
X137446233Y-127131703D01*
X137404919Y-127241907D01*
X137362277Y-127298671D01*
X137295716Y-127323371D01*
X137226367Y-127308163D01*
X137193743Y-127282476D01*
X137143151Y-127226875D01*
X137143142Y-127226866D01*
X137139670Y-127223051D01*
X137135619Y-127219852D01*
X137135615Y-127219848D01*
X136968414Y-127087800D01*
X136968410Y-127087798D01*
X136964359Y-127084598D01*
X136932238Y-127066866D01*
X136912136Y-127055769D01*
X136768789Y-126976638D01*
X136763920Y-126974914D01*
X136763916Y-126974912D01*
X136563087Y-126903795D01*
X136563083Y-126903794D01*
X136558212Y-126902069D01*
X136553119Y-126901162D01*
X136553116Y-126901161D01*
X136343373Y-126863800D01*
X136343367Y-126863799D01*
X136338284Y-126862894D01*
X136264452Y-126861992D01*
X136120081Y-126860228D01*
X136120079Y-126860228D01*
X136114911Y-126860165D01*
X135894091Y-126893955D01*
X135681756Y-126963357D01*
X135483607Y-127066507D01*
X135479474Y-127069610D01*
X135479471Y-127069612D01*
X135349588Y-127167131D01*
X135304965Y-127200635D01*
X135279541Y-127227240D01*
X135211280Y-127298671D01*
X135150629Y-127362138D01*
X135147720Y-127366403D01*
X135147714Y-127366411D01*
X135138763Y-127379533D01*
X135043204Y-127519618D01*
X135042898Y-127520066D01*
X134987987Y-127565069D01*
X134917462Y-127573240D01*
X134853715Y-127541986D01*
X134833018Y-127517502D01*
X134752426Y-127392926D01*
X134746136Y-127384757D01*
X134602806Y-127227240D01*
X134595273Y-127220215D01*
X134428139Y-127088222D01*
X134419552Y-127082517D01*
X134310861Y-127022516D01*
X134297093Y-127019454D01*
X134295712Y-127021281D01*
X134295000Y-127025179D01*
X134295000Y-129407984D01*
X133045000Y-129407984D01*
X133045000Y-127032403D01*
X133041027Y-127018872D01*
X133037958Y-127018431D01*
X133035555Y-127019205D01*
X132948463Y-127064542D01*
X132939738Y-127070036D01*
X132769433Y-127197905D01*
X132761726Y-127204748D01*
X132614590Y-127358717D01*
X132608109Y-127366722D01*
X132503498Y-127520074D01*
X132448587Y-127565076D01*
X132378062Y-127573247D01*
X132314315Y-127541993D01*
X132293618Y-127517509D01*
X132212822Y-127392617D01*
X132212820Y-127392614D01*
X132210014Y-127388277D01*
X132059670Y-127223051D01*
X132055619Y-127219852D01*
X132055615Y-127219848D01*
X131888414Y-127087800D01*
X131888410Y-127087798D01*
X131884359Y-127084598D01*
X131852238Y-127066866D01*
X131832136Y-127055769D01*
X131688789Y-126976638D01*
X131683920Y-126974914D01*
X131683916Y-126974912D01*
X131483087Y-126903795D01*
X131483083Y-126903794D01*
X131478212Y-126902069D01*
X131473119Y-126901162D01*
X131473116Y-126901161D01*
X131263373Y-126863800D01*
X131263367Y-126863799D01*
X131258284Y-126862894D01*
X131184452Y-126861992D01*
X131040081Y-126860228D01*
X131040079Y-126860228D01*
X131034911Y-126860165D01*
X130814091Y-126893955D01*
X130601756Y-126963357D01*
X130403607Y-127066507D01*
X130399474Y-127069610D01*
X130399471Y-127069612D01*
X130269588Y-127167131D01*
X130224965Y-127200635D01*
X130199541Y-127227240D01*
X130131280Y-127298671D01*
X130070629Y-127362138D01*
X129963201Y-127519621D01*
X129908293Y-127564621D01*
X129837768Y-127572792D01*
X129774021Y-127541538D01*
X129753324Y-127517054D01*
X129672822Y-127392617D01*
X129672820Y-127392614D01*
X129670014Y-127388277D01*
X129519670Y-127223051D01*
X129515619Y-127219852D01*
X129515615Y-127219848D01*
X129348414Y-127087800D01*
X129348410Y-127087798D01*
X129344359Y-127084598D01*
X129312238Y-127066866D01*
X129292136Y-127055769D01*
X129148789Y-126976638D01*
X129143920Y-126974914D01*
X129143916Y-126974912D01*
X128943087Y-126903795D01*
X128943083Y-126903794D01*
X128938212Y-126902069D01*
X128933119Y-126901162D01*
X128933116Y-126901161D01*
X128723373Y-126863800D01*
X128723367Y-126863799D01*
X128718284Y-126862894D01*
X128644452Y-126861992D01*
X128500081Y-126860228D01*
X128500079Y-126860228D01*
X128494911Y-126860165D01*
X128274091Y-126893955D01*
X128061756Y-126963357D01*
X127863607Y-127066507D01*
X127859474Y-127069610D01*
X127859471Y-127069612D01*
X127729588Y-127167131D01*
X127684965Y-127200635D01*
X127659541Y-127227240D01*
X127591280Y-127298671D01*
X127530629Y-127362138D01*
X127527720Y-127366403D01*
X127527714Y-127366411D01*
X127518763Y-127379533D01*
X127404743Y-127546680D01*
X127310688Y-127749305D01*
X127250989Y-127964570D01*
X127227251Y-128186695D01*
X108134492Y-128186695D01*
X109694563Y-127196690D01*
X109974393Y-127019113D01*
X109974401Y-127019109D01*
X119076305Y-121243134D01*
X144301500Y-121243134D01*
X144308255Y-121305316D01*
X144359385Y-121441705D01*
X144364771Y-121448891D01*
X144432942Y-121539852D01*
X144457790Y-121606358D01*
X144442737Y-121675741D01*
X144432942Y-121690982D01*
X144365214Y-121781351D01*
X144356676Y-121796946D01*
X144311522Y-121917394D01*
X144307895Y-121932649D01*
X144302369Y-121983514D01*
X144302000Y-121990328D01*
X144302000Y-122241885D01*
X144306475Y-122257124D01*
X144307865Y-122258329D01*
X144315548Y-122260000D01*
X148799884Y-122260000D01*
X148815123Y-122255525D01*
X148816328Y-122254135D01*
X148817999Y-122246452D01*
X148817999Y-121990331D01*
X148817629Y-121983510D01*
X148812105Y-121932648D01*
X148808479Y-121917396D01*
X148763324Y-121796946D01*
X148754786Y-121781351D01*
X148687058Y-121690982D01*
X148662210Y-121624475D01*
X148677263Y-121555093D01*
X148687058Y-121539852D01*
X148755229Y-121448891D01*
X148760615Y-121441705D01*
X148811745Y-121305316D01*
X148818500Y-121243134D01*
X148818500Y-120442856D01*
X148819578Y-120426409D01*
X148821092Y-120414908D01*
X148821529Y-120411590D01*
X148823156Y-120345000D01*
X148820418Y-120311695D01*
X163877251Y-120311695D01*
X163877548Y-120316848D01*
X163877548Y-120316851D01*
X163881291Y-120381763D01*
X163881500Y-120389016D01*
X163881500Y-121243134D01*
X163888255Y-121305316D01*
X163939385Y-121441705D01*
X163944771Y-121448891D01*
X164012942Y-121539852D01*
X164037790Y-121606358D01*
X164022737Y-121675741D01*
X164012942Y-121690982D01*
X163945214Y-121781351D01*
X163936676Y-121796946D01*
X163891522Y-121917394D01*
X163887895Y-121932649D01*
X163882369Y-121983514D01*
X163882000Y-121990328D01*
X163882000Y-122241885D01*
X163886475Y-122257124D01*
X163887865Y-122258329D01*
X163895548Y-122260000D01*
X168379884Y-122260000D01*
X168395123Y-122255525D01*
X168396328Y-122254135D01*
X168397999Y-122246452D01*
X168397999Y-121990331D01*
X168397629Y-121983510D01*
X168392105Y-121932648D01*
X168388479Y-121917396D01*
X168343324Y-121796946D01*
X168334786Y-121781351D01*
X168267058Y-121690982D01*
X168242210Y-121624475D01*
X168257263Y-121555093D01*
X168267058Y-121539852D01*
X168335229Y-121448891D01*
X168340615Y-121441705D01*
X168391745Y-121305316D01*
X168398500Y-121243134D01*
X168398500Y-119446866D01*
X168391745Y-119384684D01*
X168340615Y-119248295D01*
X168267370Y-119150564D01*
X168242522Y-119084059D01*
X168257575Y-119014676D01*
X168267370Y-118999435D01*
X168340615Y-118901705D01*
X168391745Y-118765316D01*
X168398500Y-118703134D01*
X168398500Y-116906866D01*
X168391745Y-116844684D01*
X168340615Y-116708295D01*
X168267370Y-116610564D01*
X168242522Y-116544059D01*
X168257575Y-116474676D01*
X168267370Y-116459435D01*
X168340615Y-116361705D01*
X168391745Y-116225316D01*
X168398500Y-116163134D01*
X168398500Y-114366866D01*
X168391745Y-114304684D01*
X168340615Y-114168295D01*
X168267370Y-114070564D01*
X168242522Y-114004059D01*
X168257575Y-113934676D01*
X168267370Y-113919435D01*
X168340615Y-113821705D01*
X168391745Y-113685316D01*
X168398500Y-113623134D01*
X168398500Y-111826866D01*
X168391745Y-111764684D01*
X168340615Y-111628295D01*
X168267058Y-111530148D01*
X168242210Y-111463642D01*
X168257263Y-111394259D01*
X168267058Y-111379018D01*
X168334786Y-111288649D01*
X168343324Y-111273054D01*
X168388478Y-111152606D01*
X168392105Y-111137351D01*
X168397631Y-111086486D01*
X168398000Y-111079672D01*
X168398000Y-110828115D01*
X168393525Y-110812876D01*
X168392135Y-110811671D01*
X168384452Y-110810000D01*
X163900116Y-110810000D01*
X163884877Y-110814475D01*
X163883672Y-110815865D01*
X163882001Y-110823548D01*
X163882001Y-111079669D01*
X163882371Y-111086490D01*
X163887895Y-111137352D01*
X163891521Y-111152604D01*
X163936676Y-111273054D01*
X163945214Y-111288649D01*
X164012942Y-111379018D01*
X164037790Y-111445525D01*
X164022737Y-111514907D01*
X164012942Y-111530148D01*
X163939385Y-111628295D01*
X163888255Y-111764684D01*
X163881500Y-111826866D01*
X163881500Y-112645219D01*
X163880787Y-112658607D01*
X163877251Y-112691695D01*
X163877548Y-112696848D01*
X163877548Y-112696851D01*
X163881291Y-112761763D01*
X163881500Y-112769016D01*
X163881500Y-113623134D01*
X163888255Y-113685316D01*
X163939385Y-113821705D01*
X164012630Y-113919435D01*
X164037478Y-113985941D01*
X164022425Y-114055324D01*
X164012632Y-114070562D01*
X163939385Y-114168295D01*
X163888255Y-114304684D01*
X163881500Y-114366866D01*
X163881500Y-115185219D01*
X163880787Y-115198607D01*
X163877251Y-115231695D01*
X163877548Y-115236848D01*
X163877548Y-115236851D01*
X163881291Y-115301763D01*
X163881500Y-115309016D01*
X163881500Y-116163134D01*
X163888255Y-116225316D01*
X163939385Y-116361705D01*
X164012630Y-116459435D01*
X164037478Y-116525941D01*
X164022425Y-116595324D01*
X164012632Y-116610562D01*
X163939385Y-116708295D01*
X163888255Y-116844684D01*
X163881500Y-116906866D01*
X163881500Y-117725219D01*
X163880787Y-117738607D01*
X163877251Y-117771695D01*
X163877548Y-117776848D01*
X163877548Y-117776851D01*
X163881291Y-117841763D01*
X163881500Y-117849016D01*
X163881500Y-118703134D01*
X163888255Y-118765316D01*
X163939385Y-118901705D01*
X164012630Y-118999435D01*
X164037478Y-119065941D01*
X164022425Y-119135324D01*
X164012632Y-119150562D01*
X163939385Y-119248295D01*
X163888255Y-119384684D01*
X163881500Y-119446866D01*
X163881500Y-120265219D01*
X163880787Y-120278607D01*
X163877251Y-120311695D01*
X148820418Y-120311695D01*
X148818924Y-120293524D01*
X148818500Y-120283200D01*
X148818500Y-119446866D01*
X148811745Y-119384684D01*
X148760615Y-119248295D01*
X148687370Y-119150564D01*
X148662522Y-119084059D01*
X148677575Y-119014676D01*
X148687370Y-118999435D01*
X148760615Y-118901705D01*
X148811745Y-118765316D01*
X148818500Y-118703134D01*
X148818500Y-117902856D01*
X148819578Y-117886409D01*
X148821092Y-117874908D01*
X148821529Y-117871590D01*
X148823156Y-117805000D01*
X148818924Y-117753524D01*
X148818500Y-117743200D01*
X148818500Y-116906866D01*
X148811745Y-116844684D01*
X148760615Y-116708295D01*
X148687370Y-116610564D01*
X148662522Y-116544059D01*
X148677575Y-116474676D01*
X148687370Y-116459435D01*
X148760615Y-116361705D01*
X148811745Y-116225316D01*
X148818500Y-116163134D01*
X148818500Y-115362856D01*
X148819578Y-115346409D01*
X148821092Y-115334908D01*
X148821529Y-115331590D01*
X148823156Y-115265000D01*
X148818924Y-115213524D01*
X148818500Y-115203200D01*
X148818500Y-114366866D01*
X148811745Y-114304684D01*
X148760615Y-114168295D01*
X148687370Y-114070564D01*
X148662522Y-114004059D01*
X148677575Y-113934676D01*
X148687370Y-113919435D01*
X148760615Y-113821705D01*
X148811745Y-113685316D01*
X148818500Y-113623134D01*
X148818500Y-112822856D01*
X148819578Y-112806409D01*
X148821092Y-112794908D01*
X148821529Y-112791590D01*
X148823156Y-112725000D01*
X148818924Y-112673524D01*
X148818500Y-112663200D01*
X148818500Y-111826866D01*
X148811745Y-111764684D01*
X148760615Y-111628295D01*
X148687058Y-111530148D01*
X148662210Y-111463642D01*
X148677263Y-111394259D01*
X148687058Y-111379018D01*
X148754786Y-111288649D01*
X148763324Y-111273054D01*
X148808478Y-111152606D01*
X148812105Y-111137351D01*
X148817631Y-111086486D01*
X148818000Y-111079672D01*
X148818000Y-110828115D01*
X148813525Y-110812876D01*
X148812135Y-110811671D01*
X148804452Y-110810000D01*
X144320116Y-110810000D01*
X144304877Y-110814475D01*
X144303672Y-110815865D01*
X144302001Y-110823548D01*
X144302001Y-111079669D01*
X144302371Y-111086490D01*
X144307895Y-111137352D01*
X144311521Y-111152604D01*
X144356676Y-111273054D01*
X144365214Y-111288649D01*
X144432942Y-111379018D01*
X144457790Y-111445525D01*
X144442737Y-111514907D01*
X144432942Y-111530148D01*
X144359385Y-111628295D01*
X144308255Y-111764684D01*
X144301500Y-111826866D01*
X144301500Y-113623134D01*
X144308255Y-113685316D01*
X144359385Y-113821705D01*
X144432630Y-113919435D01*
X144457478Y-113985941D01*
X144442425Y-114055324D01*
X144432632Y-114070562D01*
X144359385Y-114168295D01*
X144308255Y-114304684D01*
X144301500Y-114366866D01*
X144301500Y-116163134D01*
X144308255Y-116225316D01*
X144359385Y-116361705D01*
X144432630Y-116459435D01*
X144457478Y-116525941D01*
X144442425Y-116595324D01*
X144432632Y-116610562D01*
X144359385Y-116708295D01*
X144308255Y-116844684D01*
X144301500Y-116906866D01*
X144301500Y-118703134D01*
X144308255Y-118765316D01*
X144359385Y-118901705D01*
X144432630Y-118999435D01*
X144457478Y-119065941D01*
X144442425Y-119135324D01*
X144432632Y-119150562D01*
X144359385Y-119248295D01*
X144308255Y-119384684D01*
X144301500Y-119446866D01*
X144301500Y-121243134D01*
X119076305Y-121243134D01*
X128828394Y-115054558D01*
X134774840Y-111281006D01*
X134774844Y-111281004D01*
X137368241Y-109635261D01*
X137368771Y-109634927D01*
X137523224Y-109537988D01*
X137523236Y-109537979D01*
X137526299Y-109536057D01*
X137529130Y-109533788D01*
X137597290Y-109479156D01*
X137602568Y-109475148D01*
X137673521Y-109424165D01*
X137676469Y-109422047D01*
X137732223Y-109371317D01*
X137738205Y-109366207D01*
X137794175Y-109321345D01*
X137794177Y-109321343D01*
X137797018Y-109319066D01*
X137861028Y-109254352D01*
X137865769Y-109249804D01*
X137933089Y-109188550D01*
X137935480Y-109185809D01*
X137935489Y-109185800D01*
X137982634Y-109131759D01*
X137988000Y-109125983D01*
X138038445Y-109074983D01*
X138041003Y-109072397D01*
X138097140Y-109000768D01*
X138101365Y-108995660D01*
X138158781Y-108929846D01*
X138158784Y-108929842D01*
X138161171Y-108927106D01*
X138163229Y-108924112D01*
X138203854Y-108865006D01*
X138208519Y-108858654D01*
X138252781Y-108802176D01*
X138252789Y-108802164D01*
X138255019Y-108799319D01*
X138302552Y-108721712D01*
X138306156Y-108716163D01*
X138355628Y-108644182D01*
X138355630Y-108644179D01*
X138357691Y-108641180D01*
X138359392Y-108637968D01*
X138359396Y-108637961D01*
X138392955Y-108574582D01*
X138396860Y-108567733D01*
X138409846Y-108546531D01*
X138411927Y-108543134D01*
X144301500Y-108543134D01*
X144308255Y-108605316D01*
X144359385Y-108741705D01*
X144364771Y-108748891D01*
X144432942Y-108839852D01*
X144457790Y-108906358D01*
X144442737Y-108975741D01*
X144432942Y-108990982D01*
X144365214Y-109081351D01*
X144356676Y-109096946D01*
X144311522Y-109217394D01*
X144307895Y-109232649D01*
X144302369Y-109283514D01*
X144302000Y-109290328D01*
X144302000Y-109541885D01*
X144306475Y-109557124D01*
X144307865Y-109558329D01*
X144315548Y-109560000D01*
X148799884Y-109560000D01*
X148815123Y-109555525D01*
X148816328Y-109554135D01*
X148817999Y-109546452D01*
X148817999Y-109290331D01*
X148817629Y-109283510D01*
X148812105Y-109232648D01*
X148808479Y-109217396D01*
X148763324Y-109096946D01*
X148754786Y-109081351D01*
X148687058Y-108990982D01*
X148662210Y-108924475D01*
X148677263Y-108855093D01*
X148687058Y-108839852D01*
X148755229Y-108748891D01*
X148760615Y-108741705D01*
X148811745Y-108605316D01*
X148818500Y-108543134D01*
X148818500Y-107742856D01*
X148819578Y-107726409D01*
X148821092Y-107714908D01*
X148821529Y-107711590D01*
X148822320Y-107679234D01*
X148823074Y-107648365D01*
X148823074Y-107648361D01*
X148823156Y-107645000D01*
X148820418Y-107611695D01*
X163877251Y-107611695D01*
X163877548Y-107616848D01*
X163877548Y-107616851D01*
X163881291Y-107681763D01*
X163881500Y-107689016D01*
X163881500Y-108543134D01*
X163888255Y-108605316D01*
X163939385Y-108741705D01*
X163944771Y-108748891D01*
X164012942Y-108839852D01*
X164037790Y-108906358D01*
X164022737Y-108975741D01*
X164012942Y-108990982D01*
X163945214Y-109081351D01*
X163936676Y-109096946D01*
X163891522Y-109217394D01*
X163887895Y-109232649D01*
X163882369Y-109283514D01*
X163882000Y-109290328D01*
X163882000Y-109541885D01*
X163886475Y-109557124D01*
X163887865Y-109558329D01*
X163895548Y-109560000D01*
X168379884Y-109560000D01*
X168395123Y-109555525D01*
X168396328Y-109554135D01*
X168397999Y-109546452D01*
X168397999Y-109290331D01*
X168397629Y-109283510D01*
X168392105Y-109232648D01*
X168388479Y-109217396D01*
X168343324Y-109096946D01*
X168334786Y-109081351D01*
X168267058Y-108990982D01*
X168242210Y-108924475D01*
X168257263Y-108855093D01*
X168267058Y-108839852D01*
X168335229Y-108748891D01*
X168340615Y-108741705D01*
X168391745Y-108605316D01*
X168398500Y-108543134D01*
X168398500Y-106746866D01*
X168391745Y-106684684D01*
X168340615Y-106548295D01*
X168267370Y-106450564D01*
X168242522Y-106384059D01*
X168257575Y-106314676D01*
X168267370Y-106299435D01*
X168335229Y-106208891D01*
X168340615Y-106201705D01*
X168391745Y-106065316D01*
X168398500Y-106003134D01*
X168398500Y-104206866D01*
X168391745Y-104144684D01*
X168340615Y-104008295D01*
X168267370Y-103910564D01*
X168242522Y-103844059D01*
X168257575Y-103774676D01*
X168267370Y-103759435D01*
X168340615Y-103661705D01*
X168391745Y-103525316D01*
X168398500Y-103463134D01*
X168398500Y-101666866D01*
X168391745Y-101604684D01*
X168340615Y-101468295D01*
X168267370Y-101370564D01*
X168242522Y-101304059D01*
X168257575Y-101234676D01*
X168267370Y-101219435D01*
X168335229Y-101128891D01*
X168340615Y-101121705D01*
X168391745Y-100985316D01*
X168398500Y-100923134D01*
X168398500Y-99126866D01*
X168391745Y-99064684D01*
X168340615Y-98928295D01*
X168267058Y-98830148D01*
X168242210Y-98763642D01*
X168257263Y-98694259D01*
X168267058Y-98679018D01*
X168334786Y-98588649D01*
X168343324Y-98573054D01*
X168388478Y-98452606D01*
X168392105Y-98437351D01*
X168397631Y-98386486D01*
X168398000Y-98379672D01*
X168398000Y-98128115D01*
X168393525Y-98112876D01*
X168392135Y-98111671D01*
X168384452Y-98110000D01*
X163900116Y-98110000D01*
X163884877Y-98114475D01*
X163883672Y-98115865D01*
X163882001Y-98123548D01*
X163882001Y-98379669D01*
X163882371Y-98386490D01*
X163887895Y-98437352D01*
X163891521Y-98452604D01*
X163936676Y-98573054D01*
X163945214Y-98588649D01*
X164012942Y-98679018D01*
X164037790Y-98745525D01*
X164022737Y-98814907D01*
X164012942Y-98830148D01*
X163939385Y-98928295D01*
X163888255Y-99064684D01*
X163881500Y-99126866D01*
X163881500Y-99945219D01*
X163880787Y-99958607D01*
X163877251Y-99991695D01*
X163877548Y-99996848D01*
X163877548Y-99996851D01*
X163881291Y-100061763D01*
X163881500Y-100069016D01*
X163881500Y-100923134D01*
X163888255Y-100985316D01*
X163939385Y-101121705D01*
X163944771Y-101128891D01*
X164012630Y-101219435D01*
X164037478Y-101285941D01*
X164022425Y-101355324D01*
X164012632Y-101370562D01*
X163939385Y-101468295D01*
X163888255Y-101604684D01*
X163881500Y-101666866D01*
X163881500Y-102485219D01*
X163880787Y-102498607D01*
X163877251Y-102531695D01*
X163877548Y-102536848D01*
X163877548Y-102536851D01*
X163881291Y-102601763D01*
X163881500Y-102609016D01*
X163881500Y-103463134D01*
X163888255Y-103525316D01*
X163939385Y-103661705D01*
X164012630Y-103759435D01*
X164037478Y-103825941D01*
X164022425Y-103895324D01*
X164012632Y-103910562D01*
X163939385Y-104008295D01*
X163888255Y-104144684D01*
X163881500Y-104206866D01*
X163881500Y-105025219D01*
X163880787Y-105038607D01*
X163877251Y-105071695D01*
X163877548Y-105076848D01*
X163877548Y-105076851D01*
X163881291Y-105141763D01*
X163881500Y-105149016D01*
X163881500Y-106003134D01*
X163888255Y-106065316D01*
X163939385Y-106201705D01*
X163944771Y-106208891D01*
X164012630Y-106299435D01*
X164037478Y-106365941D01*
X164022425Y-106435324D01*
X164012632Y-106450562D01*
X163939385Y-106548295D01*
X163888255Y-106684684D01*
X163881500Y-106746866D01*
X163881500Y-107565219D01*
X163880787Y-107578607D01*
X163877251Y-107611695D01*
X148820418Y-107611695D01*
X148818924Y-107593524D01*
X148818500Y-107583200D01*
X148818500Y-106746866D01*
X148811745Y-106684684D01*
X148760615Y-106548295D01*
X148687370Y-106450564D01*
X148662522Y-106384059D01*
X148677575Y-106314676D01*
X148687370Y-106299435D01*
X148755229Y-106208891D01*
X148760615Y-106201705D01*
X148811745Y-106065316D01*
X148818500Y-106003134D01*
X148818500Y-105202856D01*
X148819578Y-105186409D01*
X148821092Y-105174908D01*
X148821529Y-105171590D01*
X148823156Y-105105000D01*
X148818924Y-105053524D01*
X148818500Y-105043200D01*
X148818500Y-104206866D01*
X148811745Y-104144684D01*
X148760615Y-104008295D01*
X148687370Y-103910564D01*
X148662522Y-103844059D01*
X148677575Y-103774676D01*
X148687370Y-103759435D01*
X148760615Y-103661705D01*
X148811745Y-103525316D01*
X148818500Y-103463134D01*
X148818500Y-102662856D01*
X148819578Y-102646409D01*
X148821092Y-102634908D01*
X148821529Y-102631590D01*
X148823156Y-102565000D01*
X148818924Y-102513524D01*
X148818500Y-102503200D01*
X148818500Y-101666866D01*
X148811745Y-101604684D01*
X148760615Y-101468295D01*
X148687370Y-101370564D01*
X148662522Y-101304059D01*
X148677575Y-101234676D01*
X148687370Y-101219435D01*
X148755229Y-101128891D01*
X148760615Y-101121705D01*
X148811745Y-100985316D01*
X148818500Y-100923134D01*
X148818500Y-100122856D01*
X148819578Y-100106409D01*
X148821092Y-100094908D01*
X148821529Y-100091590D01*
X148823156Y-100025000D01*
X148818924Y-99973524D01*
X148818500Y-99963200D01*
X148818500Y-99126866D01*
X148811745Y-99064684D01*
X148760615Y-98928295D01*
X148687058Y-98830148D01*
X148662210Y-98763642D01*
X148677263Y-98694259D01*
X148687058Y-98679018D01*
X148754786Y-98588649D01*
X148763324Y-98573054D01*
X148808478Y-98452606D01*
X148812105Y-98437351D01*
X148817631Y-98386486D01*
X148818000Y-98379672D01*
X148818000Y-98128115D01*
X148813525Y-98112876D01*
X148812135Y-98111671D01*
X148804452Y-98110000D01*
X144320116Y-98110000D01*
X144304877Y-98114475D01*
X144303672Y-98115865D01*
X144302001Y-98123548D01*
X144302001Y-98379669D01*
X144302371Y-98386490D01*
X144307895Y-98437352D01*
X144311521Y-98452604D01*
X144356676Y-98573054D01*
X144365214Y-98588649D01*
X144432942Y-98679018D01*
X144457790Y-98745525D01*
X144442737Y-98814907D01*
X144432942Y-98830148D01*
X144359385Y-98928295D01*
X144308255Y-99064684D01*
X144301500Y-99126866D01*
X144301500Y-100923134D01*
X144308255Y-100985316D01*
X144359385Y-101121705D01*
X144364771Y-101128891D01*
X144432630Y-101219435D01*
X144457478Y-101285941D01*
X144442425Y-101355324D01*
X144432632Y-101370562D01*
X144359385Y-101468295D01*
X144308255Y-101604684D01*
X144301500Y-101666866D01*
X144301500Y-103463134D01*
X144308255Y-103525316D01*
X144359385Y-103661705D01*
X144432630Y-103759435D01*
X144457478Y-103825941D01*
X144442425Y-103895324D01*
X144432632Y-103910562D01*
X144359385Y-104008295D01*
X144308255Y-104144684D01*
X144301500Y-104206866D01*
X144301500Y-106003134D01*
X144308255Y-106065316D01*
X144359385Y-106201705D01*
X144364771Y-106208891D01*
X144432630Y-106299435D01*
X144457478Y-106365941D01*
X144442425Y-106435324D01*
X144432632Y-106450562D01*
X144359385Y-106548295D01*
X144308255Y-106684684D01*
X144301500Y-106746866D01*
X144301500Y-108543134D01*
X138411927Y-108543134D01*
X138436230Y-108503454D01*
X138474521Y-108420911D01*
X138477464Y-108414982D01*
X138518352Y-108337763D01*
X138518355Y-108337756D01*
X138520047Y-108334561D01*
X138547428Y-108264337D01*
X138550520Y-108257086D01*
X138580703Y-108192021D01*
X138580705Y-108192016D01*
X138582234Y-108188720D01*
X138610783Y-108102328D01*
X138613018Y-108096116D01*
X138646083Y-108011314D01*
X138665212Y-107938405D01*
X138667439Y-107930880D01*
X138691096Y-107859292D01*
X138709529Y-107770179D01*
X138711042Y-107763725D01*
X138733210Y-107679234D01*
X138733211Y-107679227D01*
X138734131Y-107675722D01*
X138744753Y-107601103D01*
X138746106Y-107593345D01*
X138749155Y-107578608D01*
X138761374Y-107519534D01*
X138769443Y-107428886D01*
X138770204Y-107422302D01*
X138782513Y-107335824D01*
X138783024Y-107332235D01*
X138784999Y-107256900D01*
X138785452Y-107249033D01*
X138788283Y-107217226D01*
X138788283Y-107217216D01*
X138788532Y-107214423D01*
X138788510Y-107124544D01*
X138788553Y-107121242D01*
X138792019Y-106989036D01*
X138792019Y-106989033D01*
X138792114Y-106985405D01*
X138788966Y-106950125D01*
X138788467Y-106938956D01*
X138785856Y-95843134D01*
X144301500Y-95843134D01*
X144308255Y-95905316D01*
X144359385Y-96041705D01*
X144364771Y-96048891D01*
X144432942Y-96139852D01*
X144457790Y-96206358D01*
X144442737Y-96275741D01*
X144432942Y-96290982D01*
X144365214Y-96381351D01*
X144356676Y-96396946D01*
X144311522Y-96517394D01*
X144307895Y-96532649D01*
X144302369Y-96583514D01*
X144302000Y-96590328D01*
X144302000Y-96841885D01*
X144306475Y-96857124D01*
X144307865Y-96858329D01*
X144315548Y-96860000D01*
X148799884Y-96860000D01*
X148815123Y-96855525D01*
X148816328Y-96854135D01*
X148817999Y-96846452D01*
X148817999Y-96590331D01*
X148817629Y-96583510D01*
X148812105Y-96532648D01*
X148808479Y-96517396D01*
X148763324Y-96396946D01*
X148754786Y-96381351D01*
X148687058Y-96290982D01*
X148662210Y-96224475D01*
X148677263Y-96155093D01*
X148687058Y-96139852D01*
X148755229Y-96048891D01*
X148760615Y-96041705D01*
X148811745Y-95905316D01*
X148818500Y-95843134D01*
X148818500Y-95042856D01*
X148819578Y-95026409D01*
X148821092Y-95014908D01*
X148821529Y-95011590D01*
X148823156Y-94945000D01*
X148820418Y-94911695D01*
X163877251Y-94911695D01*
X163877548Y-94916848D01*
X163877548Y-94916851D01*
X163881291Y-94981763D01*
X163881500Y-94989016D01*
X163881500Y-95843134D01*
X163888255Y-95905316D01*
X163939385Y-96041705D01*
X163944771Y-96048891D01*
X164012942Y-96139852D01*
X164037790Y-96206358D01*
X164022737Y-96275741D01*
X164012942Y-96290982D01*
X163945214Y-96381351D01*
X163936676Y-96396946D01*
X163891522Y-96517394D01*
X163887895Y-96532649D01*
X163882369Y-96583514D01*
X163882000Y-96590328D01*
X163882000Y-96841885D01*
X163886475Y-96857124D01*
X163887865Y-96858329D01*
X163895548Y-96860000D01*
X168379884Y-96860000D01*
X168395123Y-96855525D01*
X168396328Y-96854135D01*
X168397999Y-96846452D01*
X168397999Y-96590331D01*
X168397629Y-96583510D01*
X168392105Y-96532648D01*
X168388479Y-96517396D01*
X168343324Y-96396946D01*
X168334786Y-96381351D01*
X168267058Y-96290982D01*
X168242210Y-96224475D01*
X168257263Y-96155093D01*
X168267058Y-96139852D01*
X168335229Y-96048891D01*
X168340615Y-96041705D01*
X168391745Y-95905316D01*
X168398500Y-95843134D01*
X168398500Y-94046866D01*
X168391745Y-93984684D01*
X168340615Y-93848295D01*
X168267370Y-93750564D01*
X168242522Y-93684059D01*
X168257575Y-93614676D01*
X168267370Y-93599435D01*
X168335229Y-93508891D01*
X168340615Y-93501705D01*
X168391745Y-93365316D01*
X168398500Y-93303134D01*
X168398500Y-91506866D01*
X168391745Y-91444684D01*
X168340615Y-91308295D01*
X168267370Y-91210564D01*
X168242522Y-91144059D01*
X168257575Y-91074676D01*
X168267370Y-91059435D01*
X168335229Y-90968891D01*
X168340615Y-90961705D01*
X168391745Y-90825316D01*
X168398500Y-90763134D01*
X168398500Y-88966866D01*
X168391745Y-88904684D01*
X168340615Y-88768295D01*
X168267370Y-88670564D01*
X168242522Y-88604059D01*
X168257575Y-88534676D01*
X168267370Y-88519435D01*
X168335229Y-88428891D01*
X168340615Y-88421705D01*
X168391745Y-88285316D01*
X168398500Y-88223134D01*
X168398500Y-86426866D01*
X168391745Y-86364684D01*
X168340615Y-86228295D01*
X168267058Y-86130148D01*
X168242210Y-86063642D01*
X168257263Y-85994259D01*
X168267058Y-85979018D01*
X168334786Y-85888649D01*
X168343324Y-85873054D01*
X168388478Y-85752606D01*
X168392105Y-85737351D01*
X168397631Y-85686486D01*
X168398000Y-85679672D01*
X168398000Y-85428115D01*
X168393525Y-85412876D01*
X168392135Y-85411671D01*
X168384452Y-85410000D01*
X163900116Y-85410000D01*
X163884877Y-85414475D01*
X163883672Y-85415865D01*
X163882001Y-85423548D01*
X163882001Y-85679669D01*
X163882371Y-85686490D01*
X163887895Y-85737352D01*
X163891521Y-85752604D01*
X163936676Y-85873054D01*
X163945214Y-85888649D01*
X164012942Y-85979018D01*
X164037790Y-86045525D01*
X164022737Y-86114907D01*
X164012942Y-86130148D01*
X163939385Y-86228295D01*
X163888255Y-86364684D01*
X163881500Y-86426866D01*
X163881500Y-87245219D01*
X163880787Y-87258607D01*
X163877251Y-87291695D01*
X163877548Y-87296848D01*
X163877548Y-87296851D01*
X163881291Y-87361763D01*
X163881500Y-87369016D01*
X163881500Y-88223134D01*
X163888255Y-88285316D01*
X163939385Y-88421705D01*
X163944771Y-88428891D01*
X164012630Y-88519435D01*
X164037478Y-88585941D01*
X164022425Y-88655324D01*
X164012632Y-88670562D01*
X163939385Y-88768295D01*
X163888255Y-88904684D01*
X163881500Y-88966866D01*
X163881500Y-89785219D01*
X163880787Y-89798607D01*
X163877251Y-89831695D01*
X163877548Y-89836848D01*
X163877548Y-89836851D01*
X163881291Y-89901763D01*
X163881500Y-89909016D01*
X163881500Y-90763134D01*
X163888255Y-90825316D01*
X163939385Y-90961705D01*
X163944771Y-90968891D01*
X164012630Y-91059435D01*
X164037478Y-91125941D01*
X164022425Y-91195324D01*
X164012632Y-91210562D01*
X163939385Y-91308295D01*
X163888255Y-91444684D01*
X163881500Y-91506866D01*
X163881500Y-92325219D01*
X163880787Y-92338607D01*
X163877251Y-92371695D01*
X163877548Y-92376848D01*
X163877548Y-92376851D01*
X163881291Y-92441763D01*
X163881500Y-92449016D01*
X163881500Y-93303134D01*
X163888255Y-93365316D01*
X163939385Y-93501705D01*
X163944771Y-93508891D01*
X164012630Y-93599435D01*
X164037478Y-93665941D01*
X164022425Y-93735324D01*
X164012632Y-93750562D01*
X163939385Y-93848295D01*
X163888255Y-93984684D01*
X163881500Y-94046866D01*
X163881500Y-94865219D01*
X163880787Y-94878607D01*
X163877251Y-94911695D01*
X148820418Y-94911695D01*
X148818924Y-94893524D01*
X148818500Y-94883200D01*
X148818500Y-94046866D01*
X148811745Y-93984684D01*
X148760615Y-93848295D01*
X148687370Y-93750564D01*
X148662522Y-93684059D01*
X148677575Y-93614676D01*
X148687370Y-93599435D01*
X148755229Y-93508891D01*
X148760615Y-93501705D01*
X148811745Y-93365316D01*
X148818500Y-93303134D01*
X148818500Y-92502856D01*
X148819578Y-92486409D01*
X148821092Y-92474908D01*
X148821529Y-92471590D01*
X148823156Y-92405000D01*
X148818924Y-92353524D01*
X148818500Y-92343200D01*
X148818500Y-91506866D01*
X148811745Y-91444684D01*
X148760615Y-91308295D01*
X148687370Y-91210564D01*
X148662522Y-91144059D01*
X148677575Y-91074676D01*
X148687370Y-91059435D01*
X148755229Y-90968891D01*
X148760615Y-90961705D01*
X148811745Y-90825316D01*
X148818500Y-90763134D01*
X148818500Y-89962856D01*
X148819578Y-89946409D01*
X148821092Y-89934908D01*
X148821529Y-89931590D01*
X148823156Y-89865000D01*
X148818924Y-89813524D01*
X148818500Y-89803200D01*
X148818500Y-88966866D01*
X148811745Y-88904684D01*
X148760615Y-88768295D01*
X148687370Y-88670564D01*
X148662522Y-88604059D01*
X148677575Y-88534676D01*
X148687370Y-88519435D01*
X148755229Y-88428891D01*
X148760615Y-88421705D01*
X148811745Y-88285316D01*
X148818500Y-88223134D01*
X148818500Y-87422856D01*
X148819578Y-87406409D01*
X148821092Y-87394908D01*
X148821529Y-87391590D01*
X148823156Y-87325000D01*
X148818924Y-87273524D01*
X148818500Y-87263200D01*
X148818500Y-86426866D01*
X148811745Y-86364684D01*
X148760615Y-86228295D01*
X148687058Y-86130148D01*
X148662210Y-86063642D01*
X148677263Y-85994259D01*
X148687058Y-85979018D01*
X148754786Y-85888649D01*
X148763324Y-85873054D01*
X148808478Y-85752606D01*
X148812105Y-85737351D01*
X148817631Y-85686486D01*
X148818000Y-85679672D01*
X148818000Y-85428115D01*
X148813525Y-85412876D01*
X148812135Y-85411671D01*
X148804452Y-85410000D01*
X144320116Y-85410000D01*
X144304877Y-85414475D01*
X144303672Y-85415865D01*
X144302001Y-85423548D01*
X144302001Y-85679669D01*
X144302371Y-85686490D01*
X144307895Y-85737352D01*
X144311521Y-85752604D01*
X144356676Y-85873054D01*
X144365214Y-85888649D01*
X144432942Y-85979018D01*
X144457790Y-86045525D01*
X144442737Y-86114907D01*
X144432942Y-86130148D01*
X144359385Y-86228295D01*
X144308255Y-86364684D01*
X144301500Y-86426866D01*
X144301500Y-88223134D01*
X144308255Y-88285316D01*
X144359385Y-88421705D01*
X144364771Y-88428891D01*
X144432630Y-88519435D01*
X144457478Y-88585941D01*
X144442425Y-88655324D01*
X144432632Y-88670562D01*
X144359385Y-88768295D01*
X144308255Y-88904684D01*
X144301500Y-88966866D01*
X144301500Y-90763134D01*
X144308255Y-90825316D01*
X144359385Y-90961705D01*
X144364771Y-90968891D01*
X144432630Y-91059435D01*
X144457478Y-91125941D01*
X144442425Y-91195324D01*
X144432632Y-91210562D01*
X144359385Y-91308295D01*
X144308255Y-91444684D01*
X144301500Y-91506866D01*
X144301500Y-93303134D01*
X144308255Y-93365316D01*
X144359385Y-93501705D01*
X144364771Y-93508891D01*
X144432630Y-93599435D01*
X144457478Y-93665941D01*
X144442425Y-93735324D01*
X144432632Y-93750562D01*
X144359385Y-93848295D01*
X144308255Y-93984684D01*
X144301500Y-94046866D01*
X144301500Y-95843134D01*
X138785856Y-95843134D01*
X138785175Y-92947781D01*
X138782868Y-83143134D01*
X144301500Y-83143134D01*
X144308255Y-83205316D01*
X144359385Y-83341705D01*
X144364771Y-83348891D01*
X144432942Y-83439852D01*
X144457790Y-83506358D01*
X144442737Y-83575741D01*
X144432942Y-83590982D01*
X144365214Y-83681351D01*
X144356676Y-83696946D01*
X144311522Y-83817394D01*
X144307895Y-83832649D01*
X144302369Y-83883514D01*
X144302000Y-83890328D01*
X144302000Y-84141885D01*
X144306475Y-84157124D01*
X144307865Y-84158329D01*
X144315548Y-84160000D01*
X148799884Y-84160000D01*
X148815123Y-84155525D01*
X148816328Y-84154135D01*
X148817999Y-84146452D01*
X148817999Y-83890331D01*
X148817629Y-83883510D01*
X148812105Y-83832648D01*
X148808479Y-83817396D01*
X148763324Y-83696946D01*
X148754786Y-83681351D01*
X148687058Y-83590982D01*
X148662210Y-83524475D01*
X148677263Y-83455093D01*
X148687058Y-83439852D01*
X148755229Y-83348891D01*
X148760615Y-83341705D01*
X148811745Y-83205316D01*
X148818500Y-83143134D01*
X148818500Y-82342856D01*
X148819578Y-82326409D01*
X148821092Y-82314908D01*
X148821529Y-82311590D01*
X148823156Y-82245000D01*
X148820418Y-82211695D01*
X163877251Y-82211695D01*
X163877548Y-82216848D01*
X163877548Y-82216851D01*
X163881291Y-82281763D01*
X163881500Y-82289016D01*
X163881500Y-83143134D01*
X163888255Y-83205316D01*
X163939385Y-83341705D01*
X163944771Y-83348891D01*
X164012942Y-83439852D01*
X164037790Y-83506358D01*
X164022737Y-83575741D01*
X164012942Y-83590982D01*
X163945214Y-83681351D01*
X163936676Y-83696946D01*
X163891522Y-83817394D01*
X163887895Y-83832649D01*
X163882369Y-83883514D01*
X163882000Y-83890328D01*
X163882000Y-84141885D01*
X163886475Y-84157124D01*
X163887865Y-84158329D01*
X163895548Y-84160000D01*
X168379884Y-84160000D01*
X168395123Y-84155525D01*
X168396328Y-84154135D01*
X168397999Y-84146452D01*
X168397999Y-83890331D01*
X168397629Y-83883510D01*
X168392105Y-83832648D01*
X168388479Y-83817396D01*
X168343324Y-83696946D01*
X168334786Y-83681351D01*
X168267058Y-83590982D01*
X168242210Y-83524475D01*
X168257263Y-83455093D01*
X168267058Y-83439852D01*
X168335229Y-83348891D01*
X168340615Y-83341705D01*
X168391745Y-83205316D01*
X168398500Y-83143134D01*
X168398500Y-81346866D01*
X168391745Y-81284684D01*
X168340615Y-81148295D01*
X168267370Y-81050564D01*
X168242522Y-80984059D01*
X168257575Y-80914676D01*
X168267370Y-80899435D01*
X168267492Y-80899272D01*
X168340615Y-80801705D01*
X168391745Y-80665316D01*
X168398500Y-80603134D01*
X168398500Y-78806866D01*
X168391745Y-78744684D01*
X168340615Y-78608295D01*
X168253261Y-78491739D01*
X168136705Y-78404385D01*
X168000316Y-78353255D01*
X167938134Y-78346500D01*
X165254985Y-78346500D01*
X165253446Y-78346491D01*
X165150081Y-78345228D01*
X165150079Y-78345228D01*
X165144911Y-78345165D01*
X165139797Y-78345948D01*
X165136289Y-78346193D01*
X165127496Y-78346500D01*
X164341866Y-78346500D01*
X164279684Y-78353255D01*
X164143295Y-78404385D01*
X164026739Y-78491739D01*
X163939385Y-78608295D01*
X163888255Y-78744684D01*
X163881500Y-78806866D01*
X163881500Y-79625219D01*
X163880787Y-79638607D01*
X163877251Y-79671695D01*
X163877548Y-79676848D01*
X163877548Y-79676851D01*
X163881291Y-79741763D01*
X163881500Y-79749016D01*
X163881500Y-80603134D01*
X163888255Y-80665316D01*
X163939385Y-80801705D01*
X164012508Y-80899272D01*
X164012630Y-80899435D01*
X164037478Y-80965941D01*
X164022425Y-81035324D01*
X164012632Y-81050562D01*
X163939385Y-81148295D01*
X163888255Y-81284684D01*
X163881500Y-81346866D01*
X163881500Y-82165219D01*
X163880787Y-82178607D01*
X163877251Y-82211695D01*
X148820418Y-82211695D01*
X148818924Y-82193524D01*
X148818500Y-82183200D01*
X148818500Y-81346866D01*
X148811745Y-81284684D01*
X148760615Y-81148295D01*
X148687370Y-81050564D01*
X148662522Y-80984059D01*
X148677575Y-80914676D01*
X148687370Y-80899435D01*
X148687492Y-80899272D01*
X148760615Y-80801705D01*
X148811745Y-80665316D01*
X148818500Y-80603134D01*
X148818500Y-79901695D01*
X152447251Y-79901695D01*
X152447548Y-79906848D01*
X152447548Y-79906851D01*
X152451291Y-79971763D01*
X152451500Y-79979016D01*
X152451500Y-80833134D01*
X152458255Y-80895316D01*
X152509385Y-81031705D01*
X152596739Y-81148261D01*
X152713295Y-81235615D01*
X152849684Y-81286745D01*
X152911866Y-81293500D01*
X153780826Y-81293500D01*
X153785443Y-81293585D01*
X153866673Y-81296564D01*
X153866677Y-81296564D01*
X153871837Y-81296753D01*
X153876957Y-81296097D01*
X153876959Y-81296097D01*
X153889261Y-81294521D01*
X153905271Y-81293500D01*
X154708134Y-81293500D01*
X154770316Y-81286745D01*
X154906705Y-81235615D01*
X155004436Y-81162370D01*
X155070941Y-81137522D01*
X155140324Y-81152575D01*
X155155562Y-81162368D01*
X155253295Y-81235615D01*
X155389684Y-81286745D01*
X155451866Y-81293500D01*
X157248134Y-81293500D01*
X157310316Y-81286745D01*
X157446705Y-81235615D01*
X157544436Y-81162370D01*
X157610941Y-81137522D01*
X157680324Y-81152575D01*
X157695562Y-81162368D01*
X157793295Y-81235615D01*
X157929684Y-81286745D01*
X157991866Y-81293500D01*
X158860826Y-81293500D01*
X158865443Y-81293585D01*
X158946673Y-81296564D01*
X158946677Y-81296564D01*
X158951837Y-81296753D01*
X158956957Y-81296097D01*
X158956959Y-81296097D01*
X158969261Y-81294521D01*
X158985271Y-81293500D01*
X159788134Y-81293500D01*
X159850316Y-81286745D01*
X159986705Y-81235615D01*
X160103261Y-81148261D01*
X160190615Y-81031705D01*
X160241745Y-80895316D01*
X160248500Y-80833134D01*
X160248500Y-80032856D01*
X160249578Y-80016409D01*
X160251092Y-80004908D01*
X160251529Y-80001590D01*
X160253156Y-79935000D01*
X160248924Y-79883524D01*
X160248500Y-79873200D01*
X160248500Y-77236866D01*
X160241745Y-77174684D01*
X160190615Y-77038295D01*
X160103261Y-76921739D01*
X159986705Y-76834385D01*
X159850316Y-76783255D01*
X159788134Y-76776500D01*
X157991866Y-76776500D01*
X157929684Y-76783255D01*
X157793295Y-76834385D01*
X157695565Y-76907630D01*
X157629059Y-76932478D01*
X157559676Y-76917425D01*
X157544435Y-76907630D01*
X157446705Y-76834385D01*
X157310316Y-76783255D01*
X157248134Y-76776500D01*
X155451866Y-76776500D01*
X155389684Y-76783255D01*
X155253295Y-76834385D01*
X155155565Y-76907630D01*
X155089059Y-76932478D01*
X155019676Y-76917425D01*
X155004435Y-76907630D01*
X154906705Y-76834385D01*
X154770316Y-76783255D01*
X154708134Y-76776500D01*
X152911866Y-76776500D01*
X152849684Y-76783255D01*
X152713295Y-76834385D01*
X152596739Y-76921739D01*
X152509385Y-77038295D01*
X152458255Y-77174684D01*
X152451500Y-77236866D01*
X152451500Y-79855219D01*
X152450787Y-79868607D01*
X152447251Y-79901695D01*
X148818500Y-79901695D01*
X148818500Y-79802856D01*
X148819578Y-79786409D01*
X148821092Y-79774908D01*
X148821529Y-79771590D01*
X148823156Y-79705000D01*
X148818924Y-79653524D01*
X148818500Y-79643200D01*
X148818500Y-78806866D01*
X148811745Y-78744684D01*
X148760615Y-78608295D01*
X148673261Y-78491739D01*
X148556705Y-78404385D01*
X148420316Y-78353255D01*
X148358134Y-78346500D01*
X147474985Y-78346500D01*
X147473446Y-78346491D01*
X147370081Y-78345228D01*
X147370079Y-78345228D01*
X147364911Y-78345165D01*
X147359797Y-78345948D01*
X147356289Y-78346193D01*
X147347496Y-78346500D01*
X144761866Y-78346500D01*
X144699684Y-78353255D01*
X144563295Y-78404385D01*
X144446739Y-78491739D01*
X144359385Y-78608295D01*
X144308255Y-78744684D01*
X144301500Y-78806866D01*
X144301500Y-80603134D01*
X144308255Y-80665316D01*
X144359385Y-80801705D01*
X144432508Y-80899272D01*
X144432630Y-80899435D01*
X144457478Y-80965941D01*
X144442425Y-81035324D01*
X144432632Y-81050562D01*
X144359385Y-81148295D01*
X144308255Y-81284684D01*
X144301500Y-81346866D01*
X144301500Y-83143134D01*
X138782868Y-83143134D01*
X138780883Y-74703677D01*
X138780731Y-74057166D01*
X138778806Y-65880567D01*
X138798792Y-65812442D01*
X138815831Y-65791322D01*
X138816707Y-65790449D01*
X155570915Y-49081624D01*
X155570916Y-49081622D01*
X156313329Y-48341220D01*
X159272117Y-45390448D01*
X159334476Y-45356507D01*
X159346723Y-45354486D01*
X163732482Y-44851057D01*
X163802440Y-44863160D01*
G37*
%TD.AperFunction*%
%TA.AperFunction,Conductor*%
G36*
X193187651Y-42837241D02*
G01*
X194876674Y-43050997D01*
X194941744Y-43079394D01*
X194981132Y-43138462D01*
X194982333Y-43209449D01*
X194944965Y-43269815D01*
X194880892Y-43300396D01*
X194860854Y-43302000D01*
X194300615Y-43302000D01*
X194285376Y-43306475D01*
X194284171Y-43307865D01*
X194282500Y-43315548D01*
X194282500Y-44416885D01*
X194286975Y-44432124D01*
X194288365Y-44433329D01*
X194296048Y-44435000D01*
X196147384Y-44435000D01*
X196162623Y-44430525D01*
X196163828Y-44429135D01*
X196165499Y-44421452D01*
X196165499Y-44012905D01*
X196165162Y-44006386D01*
X196155243Y-43910794D01*
X196152351Y-43897400D01*
X196100912Y-43743216D01*
X196094739Y-43730038D01*
X196009437Y-43592193D01*
X196000401Y-43580792D01*
X195885671Y-43466261D01*
X195874260Y-43457249D01*
X195797973Y-43410225D01*
X195750480Y-43357453D01*
X195739056Y-43287381D01*
X195767330Y-43222257D01*
X195826324Y-43182758D01*
X195879907Y-43177962D01*
X199100394Y-43585534D01*
X199100399Y-43585535D01*
X207487967Y-44647032D01*
X215009552Y-45598934D01*
X215074622Y-45627331D01*
X215083258Y-45635274D01*
X222509616Y-53133908D01*
X222604620Y-53229837D01*
X222796695Y-53402645D01*
X223079583Y-53603515D01*
X223082761Y-53605261D01*
X223082765Y-53605263D01*
X223380488Y-53768786D01*
X223380492Y-53768788D01*
X223383682Y-53770540D01*
X223704964Y-53901506D01*
X223827933Y-53935787D01*
X224035682Y-53993704D01*
X224035688Y-53993705D01*
X224039170Y-53994676D01*
X224042750Y-53995242D01*
X224042752Y-53995242D01*
X224100842Y-54004419D01*
X224381870Y-54048816D01*
X224728521Y-54063208D01*
X224896121Y-54050834D01*
X225070905Y-54037930D01*
X225070913Y-54037929D01*
X225074529Y-54037662D01*
X225415307Y-53972516D01*
X225605756Y-53912751D01*
X225742872Y-53869723D01*
X225742878Y-53869721D01*
X225746341Y-53868634D01*
X225749665Y-53867153D01*
X225749669Y-53867151D01*
X226059924Y-53728870D01*
X226059931Y-53728866D01*
X226063239Y-53727392D01*
X226146377Y-53678180D01*
X226358671Y-53552518D01*
X226358677Y-53552514D01*
X226361804Y-53550663D01*
X226556651Y-53402645D01*
X226635188Y-53342984D01*
X226635192Y-53342981D01*
X226638077Y-53340789D01*
X226888397Y-53100552D01*
X227109447Y-52833135D01*
X227298295Y-52542084D01*
X227452439Y-52231256D01*
X227569834Y-51904772D01*
X227570659Y-51901250D01*
X227570661Y-51901242D01*
X227648102Y-51570485D01*
X227648928Y-51566957D01*
X227688670Y-51222292D01*
X227688645Y-51156469D01*
X227688536Y-50880520D01*
X227708511Y-50812392D01*
X227762149Y-50765878D01*
X227832419Y-50755746D01*
X227866105Y-50765508D01*
X228379450Y-50995796D01*
X229719413Y-51596908D01*
X229758251Y-51624109D01*
X230444178Y-52330739D01*
X231193870Y-53103059D01*
X231223815Y-53133908D01*
X231256910Y-53196719D01*
X231250793Y-53267452D01*
X231207406Y-53323649D01*
X231198507Y-53329548D01*
X230963626Y-53471290D01*
X222015950Y-58870906D01*
X222000757Y-58878722D01*
X221995763Y-58880876D01*
X221995759Y-58880878D01*
X221991120Y-58882879D01*
X221904692Y-58938004D01*
X221902174Y-58939568D01*
X221868366Y-58959969D01*
X221856323Y-58968626D01*
X221850573Y-58972522D01*
X221786458Y-59013416D01*
X221782681Y-59016785D01*
X221782674Y-59016790D01*
X221760031Y-59036985D01*
X221749709Y-59045261D01*
X221725059Y-59062981D01*
X221720951Y-59065934D01*
X221717369Y-59069505D01*
X221717364Y-59069509D01*
X221667107Y-59119608D01*
X221662020Y-59124405D01*
X221609082Y-59171621D01*
X221609076Y-59171627D01*
X221605299Y-59174996D01*
X221582973Y-59202498D01*
X221574126Y-59212296D01*
X221549031Y-59237312D01*
X221546063Y-59241414D01*
X221546061Y-59241416D01*
X221504470Y-59298892D01*
X221500220Y-59304436D01*
X221452304Y-59363460D01*
X221449789Y-59367839D01*
X221449785Y-59367845D01*
X221434666Y-59394170D01*
X221427483Y-59405282D01*
X221409689Y-59429872D01*
X221409683Y-59429882D01*
X221406724Y-59433971D01*
X221395007Y-59457278D01*
X221372579Y-59501889D01*
X221369268Y-59508043D01*
X221339335Y-59560164D01*
X221331411Y-59573962D01*
X221329883Y-59577621D01*
X221320745Y-59599496D01*
X221320736Y-59599519D01*
X221320188Y-59600831D01*
X221315644Y-59613270D01*
X221309869Y-59626629D01*
X221297690Y-59650853D01*
X221296168Y-59655684D01*
X221272049Y-59732220D01*
X221270224Y-59737588D01*
X220929373Y-60670547D01*
X220887209Y-60727667D01*
X220816551Y-60753188D01*
X220558867Y-60764500D01*
X220438330Y-60781470D01*
X220156735Y-60821114D01*
X220156726Y-60821116D01*
X220153755Y-60821534D01*
X219755975Y-60917134D01*
X219591187Y-60973919D01*
X219372039Y-61049436D01*
X219372035Y-61049438D01*
X219369187Y-61050419D01*
X219322474Y-61071721D01*
X218999312Y-61219087D01*
X218999300Y-61219093D01*
X218996956Y-61220162D01*
X218994703Y-61221424D01*
X218994696Y-61221428D01*
X218927419Y-61259127D01*
X218861803Y-61295894D01*
X218860889Y-61296449D01*
X218860870Y-61296460D01*
X212149158Y-65371429D01*
X212141641Y-65375648D01*
X212092435Y-65401089D01*
X212089888Y-65402733D01*
X211969147Y-65480666D01*
X211966237Y-65482488D01*
X211931326Y-65503684D01*
X211884941Y-65534988D01*
X211882912Y-65536327D01*
X211748709Y-65622948D01*
X211746340Y-65624822D01*
X211718179Y-65647094D01*
X211710513Y-65652701D01*
X211678237Y-65674482D01*
X211675912Y-65676400D01*
X211675910Y-65676401D01*
X211555020Y-65776103D01*
X211553013Y-65777723D01*
X211427830Y-65876731D01*
X211425925Y-65878513D01*
X211425924Y-65878514D01*
X211392138Y-65910121D01*
X211386226Y-65915315D01*
X211364960Y-65932853D01*
X211364950Y-65932862D01*
X211362622Y-65934782D01*
X211360485Y-65936920D01*
X211318732Y-65978693D01*
X211315702Y-65981624D01*
X211314693Y-65982568D01*
X211313903Y-65983360D01*
X211313887Y-65983376D01*
X211252897Y-66044559D01*
X211252778Y-66044679D01*
X211073409Y-66224134D01*
X211071856Y-66226019D01*
X211068643Y-66229396D01*
X203695778Y-73625576D01*
X203495691Y-73826296D01*
X203433433Y-73860419D01*
X203362609Y-73855466D01*
X203320193Y-73829183D01*
X199775931Y-70500241D01*
X199739972Y-70439024D01*
X199736193Y-70408718D01*
X199736095Y-70369798D01*
X199731551Y-68577823D01*
X199728227Y-67267032D01*
X199728227Y-67267023D01*
X199728223Y-67265545D01*
X199721867Y-67139865D01*
X199738403Y-67070821D01*
X199789642Y-67021677D01*
X199854526Y-67007686D01*
X199860318Y-67008000D01*
X203961885Y-67008000D01*
X203977124Y-67003525D01*
X203978329Y-67002135D01*
X203980000Y-66994452D01*
X203980000Y-66989884D01*
X205230000Y-66989884D01*
X205234475Y-67005123D01*
X205235865Y-67006328D01*
X205243548Y-67007999D01*
X209349669Y-67007999D01*
X209356490Y-67007629D01*
X209407352Y-67002105D01*
X209422604Y-66998479D01*
X209543054Y-66953324D01*
X209558649Y-66944786D01*
X209660724Y-66868285D01*
X209673285Y-66855724D01*
X209749786Y-66753649D01*
X209758324Y-66738054D01*
X209803478Y-66617606D01*
X209807105Y-66602351D01*
X209812631Y-66551486D01*
X209813000Y-66544672D01*
X209813000Y-61743115D01*
X209808525Y-61727876D01*
X209807135Y-61726671D01*
X209799452Y-61725000D01*
X205248115Y-61725000D01*
X205232876Y-61729475D01*
X205231671Y-61730865D01*
X205230000Y-61738548D01*
X205230000Y-66989884D01*
X203980000Y-66989884D01*
X203980000Y-61743115D01*
X203975525Y-61727876D01*
X203974135Y-61726671D01*
X203966452Y-61725000D01*
X199415116Y-61725000D01*
X199399877Y-61729475D01*
X199398672Y-61730865D01*
X199397001Y-61738548D01*
X199397001Y-65194078D01*
X199376999Y-65262199D01*
X199323343Y-65308692D01*
X199253069Y-65318796D01*
X199188489Y-65289302D01*
X199162319Y-65257829D01*
X199041287Y-65051495D01*
X199041283Y-65051489D01*
X199039755Y-65048884D01*
X198799893Y-64717471D01*
X198529371Y-64410572D01*
X198527167Y-64408509D01*
X198527160Y-64408502D01*
X198303400Y-64199077D01*
X198267333Y-64137924D01*
X198263500Y-64107084D01*
X198263500Y-63901866D01*
X198256745Y-63839684D01*
X198237557Y-63788500D01*
X198208766Y-63711699D01*
X198208764Y-63711696D01*
X198205615Y-63703295D01*
X198206466Y-63702976D01*
X198192945Y-63641151D01*
X198205958Y-63596834D01*
X198205615Y-63596705D01*
X198207372Y-63592019D01*
X198207373Y-63592015D01*
X198225397Y-63543938D01*
X198253971Y-63467715D01*
X198256745Y-63460316D01*
X198263500Y-63398134D01*
X198263500Y-62201866D01*
X198256745Y-62139684D01*
X198239024Y-62092414D01*
X198208766Y-62011699D01*
X198208764Y-62011696D01*
X198205615Y-62003295D01*
X198206307Y-62003036D01*
X198192657Y-61940626D01*
X198205580Y-61896615D01*
X198205172Y-61896462D01*
X198207262Y-61890888D01*
X198207826Y-61888966D01*
X198208321Y-61888061D01*
X198253478Y-61767606D01*
X198257105Y-61752351D01*
X198262631Y-61701486D01*
X198263000Y-61694672D01*
X198263000Y-61668115D01*
X198258525Y-61652876D01*
X198257135Y-61651671D01*
X198249452Y-61650000D01*
X192665116Y-61650000D01*
X192649877Y-61654475D01*
X192648672Y-61655865D01*
X192645101Y-61672282D01*
X192611076Y-61734595D01*
X192548764Y-61768620D01*
X192521980Y-61771500D01*
X188994500Y-61771500D01*
X188926379Y-61751498D01*
X188879886Y-61697842D01*
X188868500Y-61645500D01*
X188868500Y-61281866D01*
X188861745Y-61219684D01*
X188810615Y-61083295D01*
X188723261Y-60966739D01*
X188606705Y-60879385D01*
X188470316Y-60828255D01*
X188408134Y-60821500D01*
X188004952Y-60821500D01*
X187936831Y-60801498D01*
X187914468Y-60783185D01*
X187702361Y-60564308D01*
X187699833Y-60561699D01*
X187680073Y-60545525D01*
X187434158Y-60344246D01*
X187434156Y-60344245D01*
X187431349Y-60341947D01*
X187381640Y-60310034D01*
X187142443Y-60156473D01*
X187139387Y-60154511D01*
X186827816Y-60001874D01*
X186667466Y-59945091D01*
X186504188Y-59887271D01*
X186504181Y-59887269D01*
X186500767Y-59886060D01*
X186497231Y-59885250D01*
X186497227Y-59885249D01*
X186166121Y-59809416D01*
X186166115Y-59809415D01*
X186162574Y-59808604D01*
X185817720Y-59770531D01*
X185470774Y-59772348D01*
X185467173Y-59772784D01*
X185467169Y-59772784D01*
X185129948Y-59813592D01*
X185129946Y-59813592D01*
X185126338Y-59814029D01*
X185122813Y-59814875D01*
X185122809Y-59814876D01*
X184792504Y-59894175D01*
X184792496Y-59894178D01*
X184788974Y-59895023D01*
X184785567Y-59896270D01*
X184785563Y-59896271D01*
X184496991Y-60001874D01*
X184463156Y-60014256D01*
X184459928Y-60015880D01*
X184459920Y-60015883D01*
X184333379Y-60079527D01*
X184153201Y-60170147D01*
X184039223Y-60245016D01*
X183898638Y-60337363D01*
X183863217Y-60360630D01*
X183628221Y-60557117D01*
X183400743Y-60784595D01*
X183338431Y-60818621D01*
X183311648Y-60821500D01*
X182911866Y-60821500D01*
X182849684Y-60828255D01*
X182713295Y-60879385D01*
X182596739Y-60966739D01*
X182509385Y-61083295D01*
X182458255Y-61219684D01*
X182451500Y-61281866D01*
X182451500Y-61681648D01*
X182431498Y-61749769D01*
X182414595Y-61770743D01*
X179120743Y-65064595D01*
X179058431Y-65098621D01*
X179031648Y-65101500D01*
X175406568Y-65101500D01*
X175404749Y-65101605D01*
X175404745Y-65101605D01*
X175152246Y-65116164D01*
X175152241Y-65116165D01*
X175148626Y-65116373D01*
X175075160Y-65129195D01*
X174810415Y-65175400D01*
X174810408Y-65175402D01*
X174806842Y-65176024D01*
X174803367Y-65177053D01*
X174803360Y-65177055D01*
X174670137Y-65216518D01*
X174474180Y-65274563D01*
X174470844Y-65275986D01*
X174470841Y-65275987D01*
X174158386Y-65409260D01*
X174158383Y-65409262D01*
X174155048Y-65410684D01*
X174151901Y-65412479D01*
X174151897Y-65412481D01*
X173934724Y-65536354D01*
X173853676Y-65582583D01*
X173574060Y-65787982D01*
X173319904Y-66024158D01*
X173094578Y-66287981D01*
X172901069Y-66575953D01*
X172741940Y-66884259D01*
X172619302Y-67208811D01*
X172618418Y-67212332D01*
X172618416Y-67212337D01*
X172605051Y-67265545D01*
X172534780Y-67545308D01*
X172534307Y-67548901D01*
X172495300Y-67845189D01*
X172489494Y-67889289D01*
X172484044Y-68236196D01*
X172518503Y-68581431D01*
X172592414Y-68920417D01*
X172593587Y-68923844D01*
X172593589Y-68923850D01*
X172683301Y-69185876D01*
X172704797Y-69248661D01*
X172854163Y-69561812D01*
X173038532Y-69855721D01*
X173040804Y-69858557D01*
X173040809Y-69858564D01*
X173236332Y-70102616D01*
X173255459Y-70126491D01*
X173282077Y-70152832D01*
X173465841Y-70334681D01*
X173502071Y-70370534D01*
X173504929Y-70372775D01*
X173770937Y-70581351D01*
X173775098Y-70584614D01*
X173778187Y-70586507D01*
X173778190Y-70586509D01*
X173861264Y-70637417D01*
X174070921Y-70765895D01*
X174074206Y-70767420D01*
X174074210Y-70767422D01*
X174169720Y-70811756D01*
X174385620Y-70911973D01*
X174506266Y-70951873D01*
X174711578Y-71019774D01*
X174711583Y-71019775D01*
X174715023Y-71020913D01*
X174718578Y-71021649D01*
X174718581Y-71021650D01*
X175051214Y-71090535D01*
X175051217Y-71090535D01*
X175054764Y-71091270D01*
X175193221Y-71103627D01*
X175357076Y-71118251D01*
X175357082Y-71118251D01*
X175359869Y-71118500D01*
X180156569Y-71118500D01*
X180165041Y-71118966D01*
X180165045Y-71118881D01*
X180168678Y-71119071D01*
X180172280Y-71119469D01*
X180357024Y-71118502D01*
X180357684Y-71118500D01*
X180418432Y-71118500D01*
X180420251Y-71118395D01*
X180420258Y-71118395D01*
X180420761Y-71118366D01*
X180421248Y-71118338D01*
X180427817Y-71118132D01*
X180511299Y-71117695D01*
X180519225Y-71117653D01*
X180593671Y-71108644D01*
X180601520Y-71107943D01*
X180651097Y-71105085D01*
X180672753Y-71103836D01*
X180672756Y-71103836D01*
X180676374Y-71103627D01*
X180766419Y-71087911D01*
X180772931Y-71086951D01*
X180816708Y-71081653D01*
X180860052Y-71076408D01*
X180860054Y-71076408D01*
X180863662Y-71075971D01*
X180867187Y-71075125D01*
X180867191Y-71075124D01*
X180936564Y-71058469D01*
X180944314Y-71056864D01*
X181014588Y-71044599D01*
X181014587Y-71044599D01*
X181018158Y-71043976D01*
X181105799Y-71018016D01*
X181112127Y-71016319D01*
X181175552Y-71001093D01*
X181197506Y-70995822D01*
X181197509Y-70995821D01*
X181201025Y-70994977D01*
X181271444Y-70969207D01*
X181278922Y-70966734D01*
X181350820Y-70945437D01*
X181354151Y-70944016D01*
X181354160Y-70944013D01*
X181404357Y-70922602D01*
X181434898Y-70909575D01*
X181441019Y-70907152D01*
X181523437Y-70876991D01*
X181523440Y-70876990D01*
X181526844Y-70875744D01*
X181530082Y-70874115D01*
X181530090Y-70874112D01*
X181593818Y-70842061D01*
X181600995Y-70838729D01*
X181617171Y-70831829D01*
X181669952Y-70809316D01*
X181749364Y-70764020D01*
X181755152Y-70760917D01*
X181833560Y-70721482D01*
X181836799Y-70719853D01*
X181899459Y-70678693D01*
X181906189Y-70674569D01*
X181968173Y-70639214D01*
X181971324Y-70637417D01*
X182044987Y-70583305D01*
X182050405Y-70579540D01*
X182123756Y-70531358D01*
X182123760Y-70531355D01*
X182126782Y-70529370D01*
X182129563Y-70527045D01*
X182129568Y-70527041D01*
X182184294Y-70481284D01*
X182190522Y-70476400D01*
X182217793Y-70456367D01*
X182250940Y-70432018D01*
X182317897Y-70369798D01*
X182322829Y-70365450D01*
X182361779Y-70332883D01*
X182414740Y-70279922D01*
X182418064Y-70276717D01*
X182502441Y-70198309D01*
X182505096Y-70195842D01*
X182538628Y-70156582D01*
X182545333Y-70149329D01*
X187848569Y-64846092D01*
X187849861Y-64844800D01*
X187871521Y-64820490D01*
X187906989Y-64780681D01*
X187967239Y-64743125D01*
X188001065Y-64738500D01*
X188408134Y-64738500D01*
X188470316Y-64731745D01*
X188606705Y-64680615D01*
X188723261Y-64593261D01*
X188810615Y-64476705D01*
X188861745Y-64340316D01*
X188868500Y-64278134D01*
X188868500Y-63914500D01*
X188888502Y-63846379D01*
X188942158Y-63799886D01*
X188994500Y-63788500D01*
X192520500Y-63788500D01*
X192588621Y-63808502D01*
X192635114Y-63862158D01*
X192646500Y-63914500D01*
X192646500Y-64129350D01*
X192626498Y-64197471D01*
X192608718Y-64218426D01*
X192609152Y-64218861D01*
X192321491Y-64505471D01*
X192321483Y-64505480D01*
X192319341Y-64507614D01*
X192317416Y-64509940D01*
X192317411Y-64509946D01*
X192244023Y-64598642D01*
X192058539Y-64822816D01*
X191829150Y-65161562D01*
X191633284Y-65520736D01*
X191472745Y-65897028D01*
X191349011Y-66286975D01*
X191263221Y-66686987D01*
X191262874Y-66689981D01*
X191262873Y-66689989D01*
X191224469Y-67021677D01*
X191216167Y-67093380D01*
X191211152Y-67248223D01*
X191221316Y-71256438D01*
X191223614Y-72162854D01*
X191223314Y-72171852D01*
X191219965Y-72220292D01*
X191220046Y-72223304D01*
X191220046Y-72223314D01*
X191224111Y-72374070D01*
X191224157Y-72377133D01*
X191224277Y-72424455D01*
X191224353Y-72425953D01*
X191226756Y-72473476D01*
X191226871Y-72476444D01*
X191230991Y-72629250D01*
X191236600Y-72674636D01*
X191237390Y-72683722D01*
X191239699Y-72729395D01*
X191240138Y-72732371D01*
X191240139Y-72732379D01*
X191262017Y-72880617D01*
X191262412Y-72883530D01*
X191281162Y-73035270D01*
X191281821Y-73038231D01*
X191291093Y-73079906D01*
X191292751Y-73088873D01*
X191299429Y-73134119D01*
X191307614Y-73167203D01*
X191336148Y-73282545D01*
X191336826Y-73285435D01*
X191370019Y-73434611D01*
X191370954Y-73437481D01*
X191384182Y-73478087D01*
X191386692Y-73486857D01*
X191397675Y-73531254D01*
X191398681Y-73534111D01*
X191448443Y-73675455D01*
X191449397Y-73678269D01*
X191496741Y-73823598D01*
X191497950Y-73826372D01*
X191497952Y-73826378D01*
X191506613Y-73846254D01*
X191512786Y-73860419D01*
X191515004Y-73865510D01*
X191518344Y-73874001D01*
X191532045Y-73912917D01*
X191533533Y-73917145D01*
X191534805Y-73919885D01*
X191597883Y-74055805D01*
X191599102Y-74058514D01*
X191634172Y-74138998D01*
X191660163Y-74198647D01*
X191661629Y-74201287D01*
X191661631Y-74201291D01*
X191682358Y-74238615D01*
X191686496Y-74246746D01*
X191705752Y-74288238D01*
X191750352Y-74364271D01*
X191783087Y-74420078D01*
X191784560Y-74422658D01*
X191857308Y-74553660D01*
X191857318Y-74553676D01*
X191858779Y-74556307D01*
X191860490Y-74558793D01*
X191860491Y-74558794D01*
X191884705Y-74593968D01*
X191889600Y-74601661D01*
X191911220Y-74638517D01*
X191912745Y-74641116D01*
X191914506Y-74643549D01*
X191914517Y-74643566D01*
X192002390Y-74764979D01*
X192004051Y-74767330D01*
X192090761Y-74893284D01*
X192092701Y-74895592D01*
X192092703Y-74895595D01*
X192120177Y-74928285D01*
X192125790Y-74935477D01*
X192152607Y-74972530D01*
X192253750Y-75087274D01*
X192255608Y-75089432D01*
X192353973Y-75206475D01*
X192355821Y-75208336D01*
X192394579Y-75247374D01*
X192399684Y-75252831D01*
X192421124Y-75277154D01*
X192421130Y-75277161D01*
X192423129Y-75279428D01*
X192425333Y-75281491D01*
X192425340Y-75281498D01*
X192598160Y-75443247D01*
X192598322Y-75443398D01*
X196559301Y-79163740D01*
X197299155Y-79858647D01*
X197335114Y-79919864D01*
X197332270Y-79990803D01*
X197302129Y-80039444D01*
X193241933Y-84112480D01*
X193179675Y-84146603D01*
X193108851Y-84141650D01*
X193051948Y-84099193D01*
X193027032Y-84032712D01*
X193038410Y-83970473D01*
X193047460Y-83950977D01*
X193051016Y-83943908D01*
X193085051Y-83881223D01*
X193085056Y-83881212D01*
X193086786Y-83878026D01*
X193119590Y-83796423D01*
X193123346Y-83787988D01*
X193136530Y-83761077D01*
X193136531Y-83761076D01*
X193138127Y-83757817D01*
X193139386Y-83754262D01*
X193143866Y-83743287D01*
X193160442Y-83707576D01*
X193161973Y-83704278D01*
X193185515Y-83633095D01*
X193188234Y-83625665D01*
X193208304Y-83575741D01*
X193216194Y-83556113D01*
X193237532Y-83478117D01*
X193240285Y-83469330D01*
X193253940Y-83430768D01*
X193256019Y-83421689D01*
X193259208Y-83410268D01*
X193270913Y-83374875D01*
X193286113Y-83301475D01*
X193287961Y-83293778D01*
X193306787Y-83224964D01*
X193306789Y-83224954D01*
X193307745Y-83221460D01*
X193311418Y-83197460D01*
X193318856Y-83148848D01*
X193320586Y-83139777D01*
X193330587Y-83096111D01*
X193330587Y-83096109D01*
X193331397Y-83092574D01*
X193333054Y-83077565D01*
X193334911Y-83065841D01*
X193340532Y-83038699D01*
X193340533Y-83038694D01*
X193341270Y-83035134D01*
X193347933Y-82960475D01*
X193348884Y-82952617D01*
X193359675Y-82882096D01*
X193360225Y-82878503D01*
X193361884Y-82833252D01*
X193362639Y-82812675D01*
X193363315Y-82803467D01*
X193369071Y-82751324D01*
X193369469Y-82747720D01*
X193369422Y-82738689D01*
X193368927Y-82644188D01*
X193369010Y-82638911D01*
X193372805Y-82535425D01*
X193372805Y-82535417D01*
X193372938Y-82531786D01*
X193370701Y-82503354D01*
X193368373Y-82473778D01*
X193367987Y-82464553D01*
X193367672Y-82404406D01*
X193367653Y-82400775D01*
X193358644Y-82326329D01*
X193357942Y-82318465D01*
X193353836Y-82247245D01*
X193353835Y-82247240D01*
X193353627Y-82243626D01*
X193348516Y-82214340D01*
X193347028Y-82202563D01*
X193346495Y-82195788D01*
X193345717Y-82185905D01*
X193335992Y-82136338D01*
X193334549Y-82127221D01*
X193326408Y-82059951D01*
X193325971Y-82056338D01*
X193308469Y-81983436D01*
X193306864Y-81975686D01*
X193306494Y-81973565D01*
X193293976Y-81901842D01*
X193292951Y-81898382D01*
X193292946Y-81898360D01*
X193283844Y-81867633D01*
X193281013Y-81856108D01*
X193279621Y-81849015D01*
X193278921Y-81845447D01*
X193277819Y-81841994D01*
X193277817Y-81841986D01*
X193265871Y-81804553D01*
X193263389Y-81795661D01*
X193245826Y-81722507D01*
X193245821Y-81722490D01*
X193244977Y-81718975D01*
X193219207Y-81648556D01*
X193216734Y-81641078D01*
X193195437Y-81569180D01*
X193194013Y-81565842D01*
X193194010Y-81565833D01*
X193179167Y-81531033D01*
X193175033Y-81519919D01*
X193174543Y-81518383D01*
X193174538Y-81518371D01*
X193173437Y-81514920D01*
X193158803Y-81482510D01*
X193155313Y-81473959D01*
X193126989Y-81396559D01*
X193125744Y-81393156D01*
X193092051Y-81326164D01*
X193088730Y-81319008D01*
X193079238Y-81296753D01*
X193059316Y-81250048D01*
X193035886Y-81208969D01*
X193033696Y-81204961D01*
X193032159Y-81202021D01*
X193030663Y-81198709D01*
X193028794Y-81195586D01*
X193017910Y-81177399D01*
X193016588Y-81175138D01*
X193015580Y-81173372D01*
X193014033Y-81170659D01*
X193010915Y-81164844D01*
X192971491Y-81086455D01*
X192971488Y-81086449D01*
X192969854Y-81083201D01*
X192947052Y-81048489D01*
X192928701Y-81020552D01*
X192924564Y-81013803D01*
X192887417Y-80948676D01*
X192852888Y-80901670D01*
X192853626Y-80901128D01*
X192853030Y-80900583D01*
X192852486Y-80901000D01*
X192851160Y-80899272D01*
X192850195Y-80897987D01*
X192850171Y-80897965D01*
X192850099Y-80897859D01*
X192849574Y-80897160D01*
X192833290Y-80874990D01*
X192829561Y-80869626D01*
X192779370Y-80793218D01*
X192777054Y-80790448D01*
X192777045Y-80790436D01*
X192731284Y-80735706D01*
X192726400Y-80729478D01*
X192706367Y-80702207D01*
X192682018Y-80669060D01*
X192619798Y-80602103D01*
X192615450Y-80597171D01*
X192582883Y-80558221D01*
X192529922Y-80505260D01*
X192526717Y-80501936D01*
X192448309Y-80417559D01*
X192445842Y-80414904D01*
X192406582Y-80381372D01*
X192399329Y-80374667D01*
X186307757Y-74283095D01*
X186273731Y-74220783D01*
X186278796Y-74149968D01*
X186321343Y-74093132D01*
X186387863Y-74068321D01*
X186396852Y-74068000D01*
X186839385Y-74068000D01*
X186854624Y-74063525D01*
X186855829Y-74062135D01*
X186857500Y-74054452D01*
X186857500Y-74049884D01*
X188107500Y-74049884D01*
X188111975Y-74065123D01*
X188113365Y-74066328D01*
X188121048Y-74067999D01*
X189279595Y-74067999D01*
X189286114Y-74067662D01*
X189381706Y-74057743D01*
X189395100Y-74054851D01*
X189549284Y-74003412D01*
X189562462Y-73997239D01*
X189700307Y-73911937D01*
X189711708Y-73902901D01*
X189826239Y-73788171D01*
X189835251Y-73776760D01*
X189920316Y-73638757D01*
X189926463Y-73625576D01*
X189977638Y-73471290D01*
X189980505Y-73457914D01*
X189990172Y-73363562D01*
X189990500Y-73357146D01*
X189990500Y-72953115D01*
X189986025Y-72937876D01*
X189984635Y-72936671D01*
X189976952Y-72935000D01*
X188125615Y-72935000D01*
X188110376Y-72939475D01*
X188109171Y-72940865D01*
X188107500Y-72948548D01*
X188107500Y-74049884D01*
X186857500Y-74049884D01*
X186857500Y-72953115D01*
X186853025Y-72937876D01*
X186851635Y-72936671D01*
X186843952Y-72935000D01*
X184992616Y-72935000D01*
X184977377Y-72939475D01*
X184976172Y-72940865D01*
X184974501Y-72948548D01*
X184974501Y-73158214D01*
X184954499Y-73226335D01*
X184900843Y-73272828D01*
X184830569Y-73282932D01*
X184815258Y-73279749D01*
X184798538Y-73275175D01*
X184792257Y-73273279D01*
X184741358Y-73256446D01*
X184708911Y-73245715D01*
X184708906Y-73245714D01*
X184705466Y-73244576D01*
X184701911Y-73243840D01*
X184701908Y-73243839D01*
X184632064Y-73229375D01*
X184624367Y-73227527D01*
X184555555Y-73208702D01*
X184555545Y-73208700D01*
X184552051Y-73207744D01*
X184461711Y-73193920D01*
X184455231Y-73192755D01*
X184365725Y-73174219D01*
X184362103Y-73173896D01*
X184362098Y-73173895D01*
X184291052Y-73167555D01*
X184283193Y-73166604D01*
X184212688Y-73155815D01*
X184209094Y-73155265D01*
X184117769Y-73151916D01*
X184111192Y-73151502D01*
X184102764Y-73150750D01*
X184063414Y-73147238D01*
X184063406Y-73147238D01*
X184060620Y-73146989D01*
X183985702Y-73146989D01*
X183981085Y-73146904D01*
X183866016Y-73142684D01*
X183866008Y-73142684D01*
X183862377Y-73142551D01*
X183858756Y-73142836D01*
X183858754Y-73142836D01*
X183810916Y-73146601D01*
X183801030Y-73146989D01*
X175243841Y-73146989D01*
X175175720Y-73126987D01*
X175154746Y-73110084D01*
X173711547Y-71666885D01*
X184974500Y-71666885D01*
X184978975Y-71682124D01*
X184980365Y-71683329D01*
X184988048Y-71685000D01*
X186839385Y-71685000D01*
X186854624Y-71680525D01*
X186855829Y-71679135D01*
X186857500Y-71671452D01*
X186857500Y-71666885D01*
X188107500Y-71666885D01*
X188111975Y-71682124D01*
X188113365Y-71683329D01*
X188121048Y-71685000D01*
X189972384Y-71685000D01*
X189987623Y-71680525D01*
X189988828Y-71679135D01*
X189990499Y-71671452D01*
X189990499Y-71262905D01*
X189990162Y-71256386D01*
X189980243Y-71160794D01*
X189977351Y-71147400D01*
X189925912Y-70993216D01*
X189919739Y-70980038D01*
X189834437Y-70842193D01*
X189825401Y-70830792D01*
X189710671Y-70716261D01*
X189699260Y-70707249D01*
X189561257Y-70622184D01*
X189548076Y-70616037D01*
X189393790Y-70564862D01*
X189380414Y-70561995D01*
X189286062Y-70552328D01*
X189279645Y-70552000D01*
X188125615Y-70552000D01*
X188110376Y-70556475D01*
X188109171Y-70557865D01*
X188107500Y-70565548D01*
X188107500Y-71666885D01*
X186857500Y-71666885D01*
X186857500Y-70570116D01*
X186853025Y-70554877D01*
X186851635Y-70553672D01*
X186843952Y-70552001D01*
X185685405Y-70552001D01*
X185678886Y-70552338D01*
X185583294Y-70562257D01*
X185569900Y-70565149D01*
X185415716Y-70616588D01*
X185402538Y-70622761D01*
X185264693Y-70708063D01*
X185253292Y-70717099D01*
X185138761Y-70831829D01*
X185129749Y-70843240D01*
X185044684Y-70981243D01*
X185038537Y-70994424D01*
X184987362Y-71148710D01*
X184984495Y-71162086D01*
X184974828Y-71256438D01*
X184974500Y-71262855D01*
X184974500Y-71666885D01*
X173711547Y-71666885D01*
X169926756Y-67882094D01*
X169892730Y-67819782D01*
X169889851Y-67792999D01*
X169889851Y-53505605D01*
X173484452Y-53505605D01*
X173545782Y-53684736D01*
X173549098Y-53692623D01*
X173674389Y-53941736D01*
X173678745Y-53949102D01*
X173836687Y-54178907D01*
X173841995Y-54185605D01*
X174029670Y-54391858D01*
X174035841Y-54397775D01*
X174249761Y-54576641D01*
X174256693Y-54581676D01*
X174492895Y-54729846D01*
X174500446Y-54733895D01*
X174754581Y-54848640D01*
X174762612Y-54851627D01*
X174852628Y-54878291D01*
X174866733Y-54878325D01*
X174870000Y-54871215D01*
X174870000Y-54867288D01*
X176120000Y-54867288D01*
X176123973Y-54880819D01*
X176132695Y-54882073D01*
X176164786Y-54873654D01*
X176172902Y-54870923D01*
X176430521Y-54764213D01*
X176438183Y-54760410D01*
X176678943Y-54619721D01*
X176686008Y-54614920D01*
X176905451Y-54442854D01*
X176911807Y-54437131D01*
X177105861Y-54236882D01*
X177111381Y-54230351D01*
X177276464Y-54005617D01*
X177281048Y-53998393D01*
X177414099Y-53753346D01*
X177417667Y-53745553D01*
X177505940Y-53511946D01*
X177507006Y-53497885D01*
X177501775Y-53495000D01*
X176138115Y-53495000D01*
X176122876Y-53499475D01*
X176121671Y-53500865D01*
X176120000Y-53508548D01*
X176120000Y-54867288D01*
X174870000Y-54867288D01*
X174870000Y-53513115D01*
X174865525Y-53497876D01*
X174864135Y-53496671D01*
X174856452Y-53495000D01*
X173498936Y-53495000D01*
X173485405Y-53498973D01*
X173484452Y-53505605D01*
X169889851Y-53505605D01*
X169889851Y-52242059D01*
X173484274Y-52242059D01*
X173489740Y-52245000D01*
X174851885Y-52245000D01*
X174867124Y-52240525D01*
X174868329Y-52239135D01*
X174870000Y-52231452D01*
X174870000Y-52226885D01*
X176120000Y-52226885D01*
X176124475Y-52242124D01*
X176125865Y-52243329D01*
X176133548Y-52245000D01*
X177491865Y-52245000D01*
X177505396Y-52241027D01*
X177506313Y-52234645D01*
X177435579Y-52034897D01*
X177432183Y-52027049D01*
X177304286Y-51779254D01*
X177299858Y-51771942D01*
X177139515Y-51543798D01*
X177134129Y-51537147D01*
X176944318Y-51332886D01*
X176938078Y-51327027D01*
X176722296Y-51150411D01*
X176715324Y-51145456D01*
X176477560Y-50999754D01*
X176469990Y-50995796D01*
X176214657Y-50883714D01*
X176206597Y-50880812D01*
X176137424Y-50861107D01*
X176123321Y-50861221D01*
X176120000Y-50868653D01*
X176120000Y-52226885D01*
X174870000Y-52226885D01*
X174870000Y-50873604D01*
X174866027Y-50860073D01*
X174857647Y-50858868D01*
X174804263Y-50873472D01*
X174796192Y-50876282D01*
X174539694Y-50985688D01*
X174532071Y-50989572D01*
X174292806Y-51132768D01*
X174285777Y-51137653D01*
X174068153Y-51312004D01*
X174061864Y-51317787D01*
X173869913Y-51520061D01*
X173864460Y-51526654D01*
X173701747Y-51753092D01*
X173697230Y-51760377D01*
X173566757Y-52006799D01*
X173563271Y-52014627D01*
X173485193Y-52227988D01*
X173484274Y-52242059D01*
X169889851Y-52242059D01*
X169889851Y-44256633D01*
X169909853Y-44188512D01*
X169963509Y-44142019D01*
X170001481Y-44131455D01*
X179917743Y-42993194D01*
X179917749Y-42993194D01*
X182508631Y-42695794D01*
X182578589Y-42707897D01*
X182630897Y-42755901D01*
X182649000Y-42820972D01*
X182649000Y-44886569D01*
X182648534Y-44895041D01*
X182648619Y-44895045D01*
X182648429Y-44898678D01*
X182648031Y-44902280D01*
X182648050Y-44905906D01*
X182648998Y-45086979D01*
X182649000Y-45087639D01*
X182649000Y-45148432D01*
X182649105Y-45150251D01*
X182649105Y-45150258D01*
X182649162Y-45151241D01*
X182649368Y-45157817D01*
X182649847Y-45249225D01*
X182650283Y-45252824D01*
X182650283Y-45252831D01*
X182650587Y-45255341D01*
X182651500Y-45270478D01*
X182651500Y-50962671D01*
X182631498Y-51030792D01*
X182609593Y-51054332D01*
X182610269Y-51055008D01*
X182603919Y-51061358D01*
X182596739Y-51066739D01*
X182509385Y-51183295D01*
X182458255Y-51319684D01*
X182451500Y-51381866D01*
X182451500Y-54378134D01*
X182458255Y-54440316D01*
X182509385Y-54576705D01*
X182596739Y-54693261D01*
X182713295Y-54780615D01*
X182849684Y-54831745D01*
X182911866Y-54838500D01*
X183317968Y-54838500D01*
X183386089Y-54858502D01*
X183410268Y-54878729D01*
X183574158Y-55055096D01*
X183837981Y-55280422D01*
X184125953Y-55473931D01*
X184129170Y-55475592D01*
X184129171Y-55475592D01*
X184271522Y-55549065D01*
X184434259Y-55633060D01*
X184758811Y-55755698D01*
X184762332Y-55756582D01*
X184762337Y-55756584D01*
X184868934Y-55783359D01*
X185095308Y-55840220D01*
X185098901Y-55840693D01*
X185435685Y-55885032D01*
X185435693Y-55885033D01*
X185439289Y-55885506D01*
X185583955Y-55887779D01*
X185782554Y-55890899D01*
X185782558Y-55890899D01*
X185786196Y-55890956D01*
X185789810Y-55890595D01*
X185789816Y-55890595D01*
X186033157Y-55866306D01*
X186131431Y-55856497D01*
X186470417Y-55782586D01*
X186473844Y-55781413D01*
X186473850Y-55781411D01*
X186795235Y-55671376D01*
X186798661Y-55670203D01*
X187111812Y-55520837D01*
X187405721Y-55336468D01*
X187408557Y-55334196D01*
X187408564Y-55334191D01*
X187673655Y-55121813D01*
X187676491Y-55119541D01*
X187836098Y-54958254D01*
X187917622Y-54875872D01*
X187979756Y-54841521D01*
X188007183Y-54838500D01*
X188408134Y-54838500D01*
X188470316Y-54831745D01*
X188606705Y-54780615D01*
X188723261Y-54693261D01*
X188810615Y-54576705D01*
X188861745Y-54440316D01*
X188868500Y-54378134D01*
X188868500Y-54014500D01*
X188888502Y-53946379D01*
X188942158Y-53899886D01*
X188994500Y-53888500D01*
X192780305Y-53888500D01*
X192848426Y-53908502D01*
X192857019Y-53914636D01*
X192861697Y-53919305D01*
X192867924Y-53923143D01*
X192867926Y-53923145D01*
X193006032Y-54008275D01*
X193012262Y-54012115D01*
X193160386Y-54061245D01*
X193218744Y-54101674D01*
X193245981Y-54167238D01*
X193233448Y-54237120D01*
X193209812Y-54269932D01*
X193125149Y-54354595D01*
X193062837Y-54388621D01*
X193036054Y-54391500D01*
X192101843Y-54391500D01*
X192088236Y-54390763D01*
X192056738Y-54387341D01*
X192056733Y-54387341D01*
X192050612Y-54386676D01*
X192024362Y-54388973D01*
X192000612Y-54391050D01*
X191995786Y-54391379D01*
X191993314Y-54391500D01*
X191990231Y-54391500D01*
X191978262Y-54392674D01*
X191947494Y-54395690D01*
X191946181Y-54395812D01*
X191901916Y-54399685D01*
X191853587Y-54403913D01*
X191848468Y-54405400D01*
X191843167Y-54405920D01*
X191754166Y-54432791D01*
X191753033Y-54433126D01*
X191669586Y-54457370D01*
X191669582Y-54457372D01*
X191663664Y-54459091D01*
X191658932Y-54461544D01*
X191653831Y-54463084D01*
X191648388Y-54465978D01*
X191571740Y-54506731D01*
X191570574Y-54507343D01*
X191493547Y-54547271D01*
X191488074Y-54550108D01*
X191483911Y-54553431D01*
X191479204Y-54555934D01*
X191407082Y-54614755D01*
X191406226Y-54615446D01*
X191367027Y-54646738D01*
X191364523Y-54649242D01*
X191363805Y-54649884D01*
X191359472Y-54653585D01*
X191325938Y-54680935D01*
X191322011Y-54685682D01*
X191322009Y-54685684D01*
X191296713Y-54716262D01*
X191288723Y-54725042D01*
X190120621Y-55893145D01*
X190110478Y-55902247D01*
X190080975Y-55925968D01*
X190077008Y-55930696D01*
X190048709Y-55964421D01*
X190045528Y-55968069D01*
X190043885Y-55969881D01*
X190041691Y-55972075D01*
X190014358Y-56005349D01*
X190013696Y-56006147D01*
X189953846Y-56077474D01*
X189951278Y-56082144D01*
X189947897Y-56086261D01*
X189916860Y-56144145D01*
X189904023Y-56168086D01*
X189903394Y-56169245D01*
X189861538Y-56245381D01*
X189861535Y-56245389D01*
X189858567Y-56250787D01*
X189856955Y-56255869D01*
X189854438Y-56260563D01*
X189827238Y-56349531D01*
X189826918Y-56350559D01*
X189798765Y-56439306D01*
X189798171Y-56444602D01*
X189796613Y-56449698D01*
X189791700Y-56498069D01*
X189787218Y-56542187D01*
X189787089Y-56543393D01*
X189781500Y-56593227D01*
X189781500Y-56596754D01*
X189781445Y-56597739D01*
X189780998Y-56603419D01*
X189776626Y-56646462D01*
X189777206Y-56652593D01*
X189780941Y-56692109D01*
X189781500Y-56703967D01*
X189781500Y-58338157D01*
X189780763Y-58351764D01*
X189778252Y-58374882D01*
X189776676Y-58389388D01*
X189777213Y-58395523D01*
X189781050Y-58439388D01*
X189781379Y-58444214D01*
X189781500Y-58446686D01*
X189781500Y-58449769D01*
X189781801Y-58452837D01*
X189785690Y-58492506D01*
X189785812Y-58493819D01*
X189786050Y-58496539D01*
X189793913Y-58586413D01*
X189795400Y-58591532D01*
X189795920Y-58596833D01*
X189822791Y-58685834D01*
X189823126Y-58686967D01*
X189840725Y-58747540D01*
X189849091Y-58776336D01*
X189851544Y-58781068D01*
X189853084Y-58786169D01*
X189855978Y-58791612D01*
X189896731Y-58868260D01*
X189897343Y-58869426D01*
X189937271Y-58946453D01*
X189940108Y-58951926D01*
X189943431Y-58956089D01*
X189945934Y-58960796D01*
X190004755Y-59032918D01*
X190005446Y-59033774D01*
X190036738Y-59072973D01*
X190039242Y-59075477D01*
X190039884Y-59076195D01*
X190043585Y-59080528D01*
X190070935Y-59114062D01*
X190106267Y-59143291D01*
X190115037Y-59151272D01*
X191033149Y-60069383D01*
X191042251Y-60079527D01*
X191065968Y-60109025D01*
X191070696Y-60112992D01*
X191104421Y-60141291D01*
X191108070Y-60144473D01*
X191109883Y-60146117D01*
X191112075Y-60148309D01*
X191145276Y-60175580D01*
X191146164Y-60176318D01*
X191160446Y-60188301D01*
X191212753Y-60232193D01*
X191212756Y-60232195D01*
X191217474Y-60236154D01*
X191222147Y-60238723D01*
X191226262Y-60242103D01*
X191231691Y-60245014D01*
X191231694Y-60245016D01*
X191308180Y-60286028D01*
X191309338Y-60286657D01*
X191363505Y-60316435D01*
X191390787Y-60331433D01*
X191395865Y-60333044D01*
X191400563Y-60335563D01*
X191489498Y-60362753D01*
X191490702Y-60363128D01*
X191579306Y-60391235D01*
X191584597Y-60391828D01*
X191589698Y-60393388D01*
X191682311Y-60402795D01*
X191683431Y-60402915D01*
X191733227Y-60408500D01*
X191736756Y-60408500D01*
X191737739Y-60408555D01*
X191743426Y-60409003D01*
X191763683Y-60411060D01*
X191780336Y-60412752D01*
X191780339Y-60412752D01*
X191786463Y-60413374D01*
X191832112Y-60409059D01*
X191843969Y-60408500D01*
X192521000Y-60408500D01*
X192589121Y-60428502D01*
X192635614Y-60482158D01*
X192644805Y-60524408D01*
X192651475Y-60547124D01*
X192652865Y-60548329D01*
X192660548Y-60550000D01*
X198244884Y-60550000D01*
X198260123Y-60545525D01*
X198261328Y-60544135D01*
X198262999Y-60536452D01*
X198262999Y-60505331D01*
X198262629Y-60498510D01*
X198258108Y-60456885D01*
X199397000Y-60456885D01*
X199401475Y-60472124D01*
X199402865Y-60473329D01*
X199410548Y-60475000D01*
X203961885Y-60475000D01*
X203977124Y-60470525D01*
X203978329Y-60469135D01*
X203980000Y-60461452D01*
X203980000Y-60456885D01*
X205230000Y-60456885D01*
X205234475Y-60472124D01*
X205235865Y-60473329D01*
X205243548Y-60475000D01*
X209794884Y-60475000D01*
X209810123Y-60470525D01*
X209811328Y-60469135D01*
X209812999Y-60461452D01*
X209812999Y-55655331D01*
X209812629Y-55648510D01*
X209807105Y-55597648D01*
X209803479Y-55582396D01*
X209758324Y-55461946D01*
X209749786Y-55446351D01*
X209673285Y-55344276D01*
X209660724Y-55331715D01*
X209558649Y-55255214D01*
X209543054Y-55246676D01*
X209422606Y-55201522D01*
X209407351Y-55197895D01*
X209356486Y-55192369D01*
X209349672Y-55192000D01*
X205248115Y-55192000D01*
X205232876Y-55196475D01*
X205231671Y-55197865D01*
X205230000Y-55205548D01*
X205230000Y-60456885D01*
X203980000Y-60456885D01*
X203980000Y-55210116D01*
X203975525Y-55194877D01*
X203974135Y-55193672D01*
X203966452Y-55192001D01*
X199860331Y-55192001D01*
X199853510Y-55192371D01*
X199802648Y-55197895D01*
X199787396Y-55201521D01*
X199666946Y-55246676D01*
X199651351Y-55255214D01*
X199549276Y-55331715D01*
X199536715Y-55344276D01*
X199460214Y-55446351D01*
X199451676Y-55461946D01*
X199406522Y-55582394D01*
X199402895Y-55597649D01*
X199397369Y-55648514D01*
X199397000Y-55655328D01*
X199397000Y-60456885D01*
X198258108Y-60456885D01*
X198257105Y-60447648D01*
X198253479Y-60432396D01*
X198208321Y-60311939D01*
X198207826Y-60311034D01*
X198207607Y-60310034D01*
X198205172Y-60303538D01*
X198206110Y-60303186D01*
X198192657Y-60241677D01*
X198205838Y-60196788D01*
X198205615Y-60196705D01*
X198206756Y-60193663D01*
X198206758Y-60193656D01*
X198213242Y-60176362D01*
X198253971Y-60067715D01*
X198256745Y-60060316D01*
X198263500Y-59998134D01*
X198263500Y-58801866D01*
X198256745Y-58739684D01*
X198205615Y-58603295D01*
X198206307Y-58603036D01*
X198192657Y-58540626D01*
X198205580Y-58496615D01*
X198205172Y-58496462D01*
X198207262Y-58490888D01*
X198207826Y-58488966D01*
X198208321Y-58488061D01*
X198253478Y-58367606D01*
X198257105Y-58352351D01*
X198262631Y-58301486D01*
X198263000Y-58294672D01*
X198263000Y-58268115D01*
X198258525Y-58252876D01*
X198257135Y-58251671D01*
X198249452Y-58250000D01*
X192665116Y-58250000D01*
X192649877Y-58254475D01*
X192648672Y-58255865D01*
X192647001Y-58263548D01*
X192647001Y-58265500D01*
X192645363Y-58271080D01*
X192644122Y-58276783D01*
X192643714Y-58276694D01*
X192626999Y-58333621D01*
X192573343Y-58380114D01*
X192521001Y-58391500D01*
X192259924Y-58391500D01*
X192191803Y-58371498D01*
X192170829Y-58354595D01*
X191835405Y-58019171D01*
X191801379Y-57956859D01*
X191798500Y-57930076D01*
X191798500Y-57119926D01*
X191818502Y-57051805D01*
X191835404Y-57030831D01*
X192420829Y-56445405D01*
X192483142Y-56411380D01*
X192509925Y-56408500D01*
X192990603Y-56408500D01*
X193058724Y-56428502D01*
X193105217Y-56482158D01*
X193115321Y-56552432D01*
X193085827Y-56617012D01*
X193034833Y-56652482D01*
X192916946Y-56696676D01*
X192901351Y-56705214D01*
X192799276Y-56781715D01*
X192786715Y-56794276D01*
X192710214Y-56896351D01*
X192701676Y-56911946D01*
X192656522Y-57032394D01*
X192652895Y-57047649D01*
X192647369Y-57098514D01*
X192647000Y-57105328D01*
X192647000Y-57131885D01*
X192651475Y-57147124D01*
X192652865Y-57148329D01*
X192660548Y-57150000D01*
X194886885Y-57150000D01*
X194902124Y-57145525D01*
X194903329Y-57144135D01*
X194905000Y-57136452D01*
X194905000Y-57131885D01*
X196005000Y-57131885D01*
X196009475Y-57147124D01*
X196010865Y-57148329D01*
X196018548Y-57150000D01*
X198244884Y-57150000D01*
X198260123Y-57145525D01*
X198261328Y-57144135D01*
X198262999Y-57136452D01*
X198262999Y-57105331D01*
X198262629Y-57098510D01*
X198257105Y-57047648D01*
X198253479Y-57032396D01*
X198208324Y-56911946D01*
X198199786Y-56896351D01*
X198123285Y-56794276D01*
X198110724Y-56781715D01*
X198008649Y-56705214D01*
X197993054Y-56696676D01*
X197872606Y-56651522D01*
X197857351Y-56647895D01*
X197806486Y-56642369D01*
X197799672Y-56642000D01*
X196023115Y-56642000D01*
X196007876Y-56646475D01*
X196006671Y-56647865D01*
X196005000Y-56655548D01*
X196005000Y-57131885D01*
X194905000Y-57131885D01*
X194905000Y-56660116D01*
X194900525Y-56644877D01*
X194899135Y-56643672D01*
X194891452Y-56642001D01*
X193732669Y-56642001D01*
X193664548Y-56621999D01*
X193618055Y-56568343D01*
X193607951Y-56498069D01*
X193637445Y-56433489D01*
X193697171Y-56395105D01*
X193700376Y-56394319D01*
X193702811Y-56394080D01*
X193791812Y-56367209D01*
X193792945Y-56366874D01*
X193876392Y-56342630D01*
X193876396Y-56342628D01*
X193882314Y-56340909D01*
X193887046Y-56338456D01*
X193892147Y-56336916D01*
X193897590Y-56334022D01*
X193974238Y-56293269D01*
X193975404Y-56292657D01*
X194052431Y-56252729D01*
X194057904Y-56249892D01*
X194062067Y-56246569D01*
X194066774Y-56244066D01*
X194138896Y-56185245D01*
X194139752Y-56184554D01*
X194178951Y-56153262D01*
X194181455Y-56150758D01*
X194182173Y-56150116D01*
X194186506Y-56146415D01*
X194220040Y-56119065D01*
X194249266Y-56083737D01*
X194257255Y-56074958D01*
X196091879Y-54240333D01*
X196102022Y-54231231D01*
X196126718Y-54211375D01*
X196131525Y-54207510D01*
X196163820Y-54169022D01*
X196166978Y-54165403D01*
X196168624Y-54163588D01*
X196170809Y-54161403D01*
X196172764Y-54159023D01*
X196172773Y-54159013D01*
X196198049Y-54128242D01*
X196198891Y-54127227D01*
X196228202Y-54092296D01*
X196258654Y-54056004D01*
X196261223Y-54051330D01*
X196264602Y-54047217D01*
X196308474Y-53965396D01*
X196309085Y-53964270D01*
X196320204Y-53944045D01*
X196370550Y-53893987D01*
X196439967Y-53879094D01*
X196507960Y-53905574D01*
X196511697Y-53909305D01*
X196517929Y-53913147D01*
X196517931Y-53913148D01*
X196656032Y-53998275D01*
X196662262Y-54002115D01*
X196722485Y-54022090D01*
X196823611Y-54055632D01*
X196823613Y-54055632D01*
X196830139Y-54057797D01*
X196836975Y-54058497D01*
X196836978Y-54058498D01*
X196880031Y-54062909D01*
X196934600Y-54068500D01*
X197560400Y-54068500D01*
X197563646Y-54068163D01*
X197563650Y-54068163D01*
X197659308Y-54058238D01*
X197659312Y-54058237D01*
X197666166Y-54057526D01*
X197672702Y-54055345D01*
X197672704Y-54055345D01*
X197821756Y-54005617D01*
X197833946Y-54001550D01*
X197984348Y-53908478D01*
X197991308Y-53901506D01*
X198071138Y-53821537D01*
X198133421Y-53787458D01*
X198204241Y-53792461D01*
X198249329Y-53821382D01*
X198331829Y-53903739D01*
X198343240Y-53912751D01*
X198481243Y-53997816D01*
X198494424Y-54003963D01*
X198542806Y-54020011D01*
X198556899Y-54020500D01*
X198560000Y-54014289D01*
X198560000Y-54007578D01*
X199585000Y-54007578D01*
X199588973Y-54021109D01*
X199595799Y-54022090D01*
X199651784Y-54003412D01*
X199664962Y-53997239D01*
X199802807Y-53911937D01*
X199814208Y-53902901D01*
X199928739Y-53788171D01*
X199937751Y-53776760D01*
X200022816Y-53638757D01*
X200028963Y-53625576D01*
X200080138Y-53471290D01*
X200083005Y-53457914D01*
X200089910Y-53390523D01*
X200087181Y-53375823D01*
X200074948Y-53372500D01*
X199603115Y-53372500D01*
X199587876Y-53376975D01*
X199586671Y-53378365D01*
X199585000Y-53386048D01*
X199585000Y-54007578D01*
X198560000Y-54007578D01*
X198560000Y-52329385D01*
X199585000Y-52329385D01*
X199589475Y-52344624D01*
X199590865Y-52345829D01*
X199598548Y-52347500D01*
X200073625Y-52347500D01*
X200087942Y-52343296D01*
X200090001Y-52330739D01*
X200082744Y-52260795D01*
X200079851Y-52247398D01*
X200028412Y-52093216D01*
X200022239Y-52080038D01*
X199936937Y-51942193D01*
X199927901Y-51930792D01*
X199813171Y-51816261D01*
X199801760Y-51807249D01*
X199663757Y-51722184D01*
X199650576Y-51716037D01*
X199602194Y-51699989D01*
X199588101Y-51699500D01*
X199585000Y-51705711D01*
X199585000Y-52329385D01*
X198560000Y-52329385D01*
X198560000Y-51712422D01*
X198556027Y-51698891D01*
X198549201Y-51697910D01*
X198493216Y-51716588D01*
X198480038Y-51722761D01*
X198342193Y-51808063D01*
X198330792Y-51817099D01*
X198249570Y-51898462D01*
X198187287Y-51932541D01*
X198116467Y-51927538D01*
X198071380Y-51898617D01*
X197988488Y-51815870D01*
X197988483Y-51815866D01*
X197983303Y-51810695D01*
X197962452Y-51797842D01*
X197838968Y-51721725D01*
X197838966Y-51721724D01*
X197832738Y-51717885D01*
X197701538Y-51674368D01*
X197671389Y-51664368D01*
X197671387Y-51664368D01*
X197664861Y-51662203D01*
X197658025Y-51661503D01*
X197658022Y-51661502D01*
X197614969Y-51657091D01*
X197560400Y-51651500D01*
X196934600Y-51651500D01*
X196931354Y-51651837D01*
X196931350Y-51651837D01*
X196835692Y-51661762D01*
X196835688Y-51661763D01*
X196828834Y-51662474D01*
X196822298Y-51664655D01*
X196822296Y-51664655D01*
X196798860Y-51672474D01*
X196661054Y-51718450D01*
X196510652Y-51811522D01*
X196497680Y-51824517D01*
X196435398Y-51858597D01*
X196408506Y-51861500D01*
X196251306Y-51861500D01*
X196183185Y-51841498D01*
X196169298Y-51830317D01*
X196169229Y-51830404D01*
X196163483Y-51825866D01*
X196158303Y-51820695D01*
X196152072Y-51816854D01*
X196013968Y-51731725D01*
X196013966Y-51731724D01*
X196007738Y-51727885D01*
X195847254Y-51674655D01*
X195846389Y-51674368D01*
X195846387Y-51674368D01*
X195839861Y-51672203D01*
X195833025Y-51671503D01*
X195833022Y-51671502D01*
X195789969Y-51667091D01*
X195735400Y-51661500D01*
X195109600Y-51661500D01*
X195106354Y-51661837D01*
X195106350Y-51661837D01*
X195010692Y-51671762D01*
X195010688Y-51671763D01*
X195003834Y-51672474D01*
X194997298Y-51674655D01*
X194997296Y-51674655D01*
X194904211Y-51705711D01*
X194836054Y-51728450D01*
X194685652Y-51821522D01*
X194680479Y-51826704D01*
X194599216Y-51908109D01*
X194536934Y-51942188D01*
X194466114Y-51937185D01*
X194421025Y-51908264D01*
X194338483Y-51825866D01*
X194333303Y-51820695D01*
X194327072Y-51816854D01*
X194188968Y-51731725D01*
X194188966Y-51731724D01*
X194182738Y-51727885D01*
X194022254Y-51674655D01*
X194021389Y-51674368D01*
X194021387Y-51674368D01*
X194014861Y-51672203D01*
X194008025Y-51671503D01*
X194008022Y-51671502D01*
X193964969Y-51667091D01*
X193910400Y-51661500D01*
X193284600Y-51661500D01*
X193281354Y-51661837D01*
X193281350Y-51661837D01*
X193185692Y-51671762D01*
X193185688Y-51671763D01*
X193178834Y-51672474D01*
X193172298Y-51674655D01*
X193172296Y-51674655D01*
X193079211Y-51705711D01*
X193011054Y-51728450D01*
X192860652Y-51821522D01*
X192847680Y-51834517D01*
X192785398Y-51868597D01*
X192758506Y-51871500D01*
X188994500Y-51871500D01*
X188926379Y-51851498D01*
X188879886Y-51797842D01*
X188868500Y-51745500D01*
X188868500Y-51381866D01*
X188861745Y-51319684D01*
X188810615Y-51183295D01*
X188723261Y-51066739D01*
X188716081Y-51061358D01*
X188709731Y-51055008D01*
X188711366Y-51053373D01*
X188676421Y-51006641D01*
X188668500Y-50962671D01*
X188668500Y-46107095D01*
X191149501Y-46107095D01*
X191149838Y-46113614D01*
X191159757Y-46209206D01*
X191162649Y-46222600D01*
X191214088Y-46376784D01*
X191220261Y-46389962D01*
X191305563Y-46527807D01*
X191314599Y-46539208D01*
X191429329Y-46653739D01*
X191440740Y-46662751D01*
X191578743Y-46747816D01*
X191591924Y-46753963D01*
X191746210Y-46805138D01*
X191759586Y-46808005D01*
X191853938Y-46817672D01*
X191860354Y-46818000D01*
X193014385Y-46818000D01*
X193029624Y-46813525D01*
X193030829Y-46812135D01*
X193032500Y-46804452D01*
X193032500Y-46799884D01*
X194282500Y-46799884D01*
X194286975Y-46815123D01*
X194288365Y-46816328D01*
X194296048Y-46817999D01*
X195454595Y-46817999D01*
X195461114Y-46817662D01*
X195556706Y-46807743D01*
X195570100Y-46804851D01*
X195724284Y-46753412D01*
X195737462Y-46747239D01*
X195875307Y-46661937D01*
X195886708Y-46652901D01*
X196001239Y-46538171D01*
X196010251Y-46526760D01*
X196095316Y-46388757D01*
X196101463Y-46375576D01*
X196152638Y-46221290D01*
X196155505Y-46207914D01*
X196165172Y-46113562D01*
X196165500Y-46107146D01*
X196165500Y-45703115D01*
X196161025Y-45687876D01*
X196159635Y-45686671D01*
X196151952Y-45685000D01*
X194300615Y-45685000D01*
X194285376Y-45689475D01*
X194284171Y-45690865D01*
X194282500Y-45698548D01*
X194282500Y-46799884D01*
X193032500Y-46799884D01*
X193032500Y-45703115D01*
X193028025Y-45687876D01*
X193026635Y-45686671D01*
X193018952Y-45685000D01*
X191167616Y-45685000D01*
X191152377Y-45689475D01*
X191151172Y-45690865D01*
X191149501Y-45698548D01*
X191149501Y-46107095D01*
X188668500Y-46107095D01*
X188668500Y-45235931D01*
X188668966Y-45227459D01*
X188668881Y-45227455D01*
X188669071Y-45223822D01*
X188669469Y-45220220D01*
X188668502Y-45035476D01*
X188668500Y-45034816D01*
X188668500Y-44974068D01*
X188668338Y-44971252D01*
X188668132Y-44964683D01*
X188667672Y-44876905D01*
X188667653Y-44873275D01*
X188666913Y-44867159D01*
X188666000Y-44852022D01*
X188666000Y-44416885D01*
X191149500Y-44416885D01*
X191153975Y-44432124D01*
X191155365Y-44433329D01*
X191163048Y-44435000D01*
X193014385Y-44435000D01*
X193029624Y-44430525D01*
X193030829Y-44429135D01*
X193032500Y-44421452D01*
X193032500Y-43320116D01*
X193028025Y-43304877D01*
X193026635Y-43303672D01*
X193018952Y-43302001D01*
X191860405Y-43302001D01*
X191853886Y-43302338D01*
X191758294Y-43312257D01*
X191744900Y-43315149D01*
X191590716Y-43366588D01*
X191577538Y-43372761D01*
X191439693Y-43458063D01*
X191428292Y-43467099D01*
X191313761Y-43581829D01*
X191304749Y-43593240D01*
X191219684Y-43731243D01*
X191213537Y-43744424D01*
X191162362Y-43898710D01*
X191159495Y-43912086D01*
X191149828Y-44006438D01*
X191149500Y-44012855D01*
X191149500Y-44416885D01*
X188666000Y-44416885D01*
X188666000Y-42407950D01*
X188686002Y-42339829D01*
X188739658Y-42293336D01*
X188807819Y-42282947D01*
X193187651Y-42837241D01*
G37*
%TD.AperFunction*%
%TD*%
%TA.AperFunction,Conductor*%
%TO.N,GND*%
G36*
X71036147Y-142710237D02*
G01*
X71093209Y-142752479D01*
X71118666Y-142824005D01*
X71121419Y-142900657D01*
X71121500Y-142905179D01*
X71121500Y-165413681D01*
X71121097Y-165423749D01*
X71118704Y-165453601D01*
X71118752Y-165456610D01*
X71118752Y-165456614D01*
X71121484Y-165627348D01*
X71121500Y-165629364D01*
X71121500Y-165693658D01*
X71121573Y-165695175D01*
X71122970Y-165724265D01*
X71123099Y-165728294D01*
X71125249Y-165862656D01*
X71125586Y-165865652D01*
X71132424Y-165926456D01*
X71133067Y-165934481D01*
X71136149Y-165998636D01*
X71136584Y-166001636D01*
X71155434Y-166131641D01*
X71155949Y-166135640D01*
X71170630Y-166266190D01*
X71170632Y-166266200D01*
X71170969Y-166269200D01*
X71171596Y-166272171D01*
X71184227Y-166332021D01*
X71185639Y-166339958D01*
X71194853Y-166403510D01*
X71226791Y-166534030D01*
X71227686Y-166537958D01*
X71255445Y-166669492D01*
X71256352Y-166672383D01*
X71274666Y-166730763D01*
X71276832Y-166738530D01*
X71292092Y-166800893D01*
X71336421Y-166927831D01*
X71337652Y-166931544D01*
X71377899Y-167059843D01*
X71402911Y-167119007D01*
X71405789Y-167126472D01*
X71426971Y-167187127D01*
X71428239Y-167189877D01*
X71428240Y-167189880D01*
X71483242Y-167309188D01*
X71484865Y-167312863D01*
X71537202Y-167436661D01*
X71567767Y-167493150D01*
X71571365Y-167500342D01*
X71598248Y-167558656D01*
X71599772Y-167561268D01*
X71599776Y-167561277D01*
X71665958Y-167674760D01*
X71667933Y-167678275D01*
X71711473Y-167758743D01*
X71731888Y-167796475D01*
X71733568Y-167798973D01*
X71733581Y-167798995D01*
X71767717Y-167849761D01*
X71772001Y-167856593D01*
X71801445Y-167907082D01*
X71804346Y-167912057D01*
X71806113Y-167914511D01*
X71882869Y-168021132D01*
X71885172Y-168024442D01*
X71920172Y-168076495D01*
X71960164Y-168135972D01*
X71962087Y-168138312D01*
X71962088Y-168138313D01*
X72000937Y-168185580D01*
X72005854Y-168191968D01*
X72043367Y-168244078D01*
X72045359Y-168246350D01*
X72045373Y-168246367D01*
X72131976Y-168345117D01*
X72134572Y-168348173D01*
X72219929Y-168452028D01*
X72222050Y-168454155D01*
X72222058Y-168454164D01*
X72265274Y-168497505D01*
X72270771Y-168503382D01*
X72313110Y-168551661D01*
X72411003Y-168643749D01*
X72413895Y-168646559D01*
X72482959Y-168715825D01*
X72516893Y-168778187D01*
X72511725Y-168848995D01*
X72469096Y-168905768D01*
X72414654Y-168928840D01*
X72412107Y-168929045D01*
X72407199Y-168930251D01*
X72407196Y-168930251D01*
X72181280Y-168985741D01*
X72176366Y-168986948D01*
X72171714Y-168988923D01*
X72171710Y-168988924D01*
X72126410Y-169008153D01*
X71952916Y-169081797D01*
X71948632Y-169084495D01*
X71751784Y-169208457D01*
X71751781Y-169208459D01*
X71747505Y-169211152D01*
X71743711Y-169214497D01*
X71569214Y-169368335D01*
X71569211Y-169368338D01*
X71565417Y-169371683D01*
X71411338Y-169559263D01*
X71289231Y-169769063D01*
X71202239Y-169995687D01*
X71201205Y-170000637D01*
X71201204Y-170000640D01*
X71157004Y-170212217D01*
X71152598Y-170233305D01*
X71141586Y-170475802D01*
X71142167Y-170480822D01*
X71142167Y-170480826D01*
X71166598Y-170691970D01*
X71169487Y-170716941D01*
X71235582Y-170950517D01*
X71237716Y-170955093D01*
X71237718Y-170955099D01*
X71314036Y-171118764D01*
X71338171Y-171170521D01*
X71474616Y-171371292D01*
X71641404Y-171547666D01*
X71645430Y-171550744D01*
X71645431Y-171550745D01*
X71830226Y-171692032D01*
X71830230Y-171692035D01*
X71834246Y-171695105D01*
X72048181Y-171809816D01*
X72277703Y-171888847D01*
X72377050Y-171906007D01*
X72512998Y-171929489D01*
X72513004Y-171929490D01*
X72516908Y-171930164D01*
X72520869Y-171930344D01*
X72520870Y-171930344D01*
X72544578Y-171931421D01*
X72544597Y-171931421D01*
X72545997Y-171931485D01*
X72715073Y-171931485D01*
X72717581Y-171931283D01*
X72717586Y-171931283D01*
X72890996Y-171917331D01*
X72891001Y-171917330D01*
X72896037Y-171916925D01*
X72900945Y-171915719D01*
X72900948Y-171915719D01*
X73126864Y-171860229D01*
X73131778Y-171859022D01*
X73136430Y-171857047D01*
X73136434Y-171857046D01*
X73350570Y-171766150D01*
X73355228Y-171764173D01*
X73504613Y-171670100D01*
X73572914Y-171650725D01*
X73640848Y-171671353D01*
X73686845Y-171725434D01*
X73697755Y-171776720D01*
X73697755Y-171930821D01*
X73697754Y-171931371D01*
X73696998Y-172104721D01*
X73696834Y-172142225D01*
X73706798Y-172250667D01*
X73707179Y-172256122D01*
X73712404Y-172364891D01*
X73725284Y-172453723D01*
X73726051Y-172460197D01*
X73734267Y-172549617D01*
X73734831Y-172552586D01*
X73734831Y-172552588D01*
X73754581Y-172656614D01*
X73755488Y-172662036D01*
X73771108Y-172769765D01*
X73771826Y-172772699D01*
X73792436Y-172856924D01*
X73793834Y-172863362D01*
X73810576Y-172951544D01*
X73811422Y-172954446D01*
X73811424Y-172954455D01*
X73841046Y-173056081D01*
X73842469Y-173061392D01*
X73868347Y-173167148D01*
X73869344Y-173170002D01*
X73897931Y-173251863D01*
X73899942Y-173258146D01*
X73924208Y-173341401D01*
X73924212Y-173341414D01*
X73925056Y-173344308D01*
X73926179Y-173347122D01*
X73926179Y-173347123D01*
X73951295Y-173410079D01*
X73957959Y-173480762D01*
X73925351Y-173543827D01*
X73863824Y-173579252D01*
X73800383Y-173578126D01*
X73615662Y-173526551D01*
X73610084Y-173526024D01*
X73610080Y-173526023D01*
X73396600Y-173505843D01*
X73396598Y-173505843D01*
X73392007Y-173505409D01*
X73334983Y-173508398D01*
X73333166Y-173508599D01*
X73333161Y-173508599D01*
X73175381Y-173526018D01*
X72693655Y-173579202D01*
X72690896Y-173579758D01*
X72690898Y-173579758D01*
X72535036Y-173611185D01*
X72535032Y-173611186D01*
X72529533Y-173612295D01*
X72464939Y-173637870D01*
X72325874Y-173692930D01*
X72325870Y-173692932D01*
X72320657Y-173694996D01*
X72158823Y-173795338D01*
X72148363Y-173801824D01*
X72129728Y-173813378D01*
X71962780Y-173963699D01*
X71959343Y-173968130D01*
X71959342Y-173968131D01*
X71828529Y-174136773D01*
X71825089Y-174141208D01*
X71822490Y-174146179D01*
X71822489Y-174146181D01*
X71809476Y-174171073D01*
X71721010Y-174340295D01*
X71719332Y-174345651D01*
X71661749Y-174529398D01*
X71653830Y-174554667D01*
X71653126Y-174560240D01*
X71628731Y-174753349D01*
X71625674Y-174777546D01*
X71637433Y-175001890D01*
X71688732Y-175220606D01*
X71777952Y-175426781D01*
X71781051Y-175431445D01*
X71781053Y-175431449D01*
X71840581Y-175521044D01*
X71902273Y-175613898D01*
X72057764Y-175776042D01*
X72239510Y-175908088D01*
X72244560Y-175910529D01*
X72244563Y-175910531D01*
X72273570Y-175924553D01*
X72441769Y-176005862D01*
X72447171Y-176007370D01*
X72447173Y-176007371D01*
X72652750Y-176064769D01*
X72652753Y-176064770D01*
X72658145Y-176066275D01*
X72796225Y-176079328D01*
X72877206Y-176086983D01*
X72877208Y-176086983D01*
X72881799Y-176087417D01*
X72938824Y-176084428D01*
X73580151Y-176013624D01*
X73744274Y-175980531D01*
X73848711Y-175939181D01*
X73947932Y-175899896D01*
X73947936Y-175899894D01*
X73953149Y-175897830D01*
X74144078Y-175779448D01*
X74180318Y-175746818D01*
X74306851Y-175632887D01*
X74311027Y-175629127D01*
X74448717Y-175451618D01*
X74461702Y-175426781D01*
X74496951Y-175359354D01*
X74552797Y-175252531D01*
X74619976Y-175038159D01*
X74632076Y-174942379D01*
X74660456Y-174877307D01*
X74719516Y-174837905D01*
X74790502Y-174836688D01*
X74851812Y-174875096D01*
X74887372Y-174915644D01*
X74887378Y-174915650D01*
X74889365Y-174917916D01*
X74891561Y-174919981D01*
X74891566Y-174919987D01*
X74991222Y-175013733D01*
X74993984Y-175016412D01*
X75062083Y-175084512D01*
X75063189Y-175085517D01*
X75063202Y-175085529D01*
X75241163Y-175247176D01*
X75288094Y-175289805D01*
X75290507Y-175291607D01*
X75290512Y-175291611D01*
X75613471Y-175532776D01*
X75613479Y-175532782D01*
X75615893Y-175534584D01*
X75965643Y-175746818D01*
X76334126Y-175924553D01*
X76410198Y-175952617D01*
X76467184Y-175994960D01*
X76491566Y-176054830D01*
X76529830Y-176353734D01*
X76518640Y-176423840D01*
X76471322Y-176476769D01*
X76418691Y-176494967D01*
X63623920Y-177909068D01*
X63554015Y-177896671D01*
X63501909Y-177848447D01*
X63484146Y-177779708D01*
X63484701Y-177771332D01*
X63544828Y-177168215D01*
X63613575Y-176478631D01*
X65769006Y-176478631D01*
X65799856Y-176758066D01*
X65800968Y-176764782D01*
X65812042Y-176814744D01*
X65817319Y-176829501D01*
X65875423Y-176944278D01*
X65885613Y-176958830D01*
X65972854Y-177051896D01*
X65986724Y-177063009D01*
X66096582Y-177127848D01*
X66113008Y-177134618D01*
X66237687Y-177166284D01*
X66253250Y-177168215D01*
X66304430Y-177168126D01*
X66311211Y-177167747D01*
X67083093Y-177082530D01*
X67097751Y-177076410D01*
X67098795Y-177074896D01*
X67099613Y-177067077D01*
X67019909Y-176345127D01*
X67013789Y-176330469D01*
X67012275Y-176329425D01*
X67004456Y-176328607D01*
X65785526Y-176463178D01*
X65770868Y-176469298D01*
X65769824Y-176470812D01*
X65769006Y-176478631D01*
X63613575Y-176478631D01*
X63643747Y-176175983D01*
X68510349Y-176175983D01*
X68590053Y-176897933D01*
X68596173Y-176912591D01*
X68597687Y-176913635D01*
X68605506Y-176914453D01*
X69381914Y-176828737D01*
X69388642Y-176827623D01*
X69438600Y-176816549D01*
X69453362Y-176811270D01*
X69568131Y-176753171D01*
X69582690Y-176742976D01*
X69675753Y-176655736D01*
X69686865Y-176641867D01*
X69751704Y-176532010D01*
X69758474Y-176515584D01*
X69790140Y-176390904D01*
X69792071Y-176375341D01*
X69791982Y-176324161D01*
X69791603Y-176317380D01*
X69761253Y-176042479D01*
X69755133Y-176027821D01*
X69753619Y-176026777D01*
X69745800Y-176025959D01*
X68526869Y-176160530D01*
X68512211Y-176166650D01*
X68511167Y-176168164D01*
X68510349Y-176175983D01*
X63643747Y-176175983D01*
X63798532Y-174623355D01*
X65570111Y-174623355D01*
X65570200Y-174674535D01*
X65570579Y-174681316D01*
X65600929Y-174956217D01*
X65607049Y-174970875D01*
X65608563Y-174971919D01*
X65616382Y-174972737D01*
X66835313Y-174838166D01*
X66849971Y-174832046D01*
X66851015Y-174830532D01*
X66851833Y-174822713D01*
X66772129Y-174100763D01*
X66766009Y-174086105D01*
X66764495Y-174085061D01*
X66756676Y-174084243D01*
X65980268Y-174169959D01*
X65973540Y-174171073D01*
X65923582Y-174182147D01*
X65908820Y-174187426D01*
X65794051Y-174245525D01*
X65779492Y-174255720D01*
X65686429Y-174342960D01*
X65675317Y-174356829D01*
X65610478Y-174466686D01*
X65603708Y-174483112D01*
X65572042Y-174607792D01*
X65570111Y-174623355D01*
X63798532Y-174623355D01*
X63867493Y-173931619D01*
X68262569Y-173931619D01*
X68342273Y-174653569D01*
X68348393Y-174668227D01*
X68349907Y-174669271D01*
X68357726Y-174670089D01*
X69576656Y-174535518D01*
X69591314Y-174529398D01*
X69592358Y-174527884D01*
X69593176Y-174520065D01*
X69562326Y-174240630D01*
X69561214Y-174233914D01*
X69550140Y-174183952D01*
X69544863Y-174169195D01*
X69486759Y-174054418D01*
X69476569Y-174039866D01*
X69389328Y-173946800D01*
X69375458Y-173935687D01*
X69265600Y-173870848D01*
X69249174Y-173864078D01*
X69124495Y-173832412D01*
X69108932Y-173830481D01*
X69057752Y-173830570D01*
X69050971Y-173830949D01*
X68279089Y-173916166D01*
X68264431Y-173922286D01*
X68263387Y-173923800D01*
X68262569Y-173931619D01*
X63867493Y-173931619D01*
X64208119Y-170514865D01*
X65110600Y-170514865D01*
X65141450Y-170794300D01*
X65142562Y-170801016D01*
X65153636Y-170850978D01*
X65158913Y-170865735D01*
X65217017Y-170980512D01*
X65227207Y-170995064D01*
X65314448Y-171088130D01*
X65328318Y-171099243D01*
X65438176Y-171164082D01*
X65454602Y-171170852D01*
X65579281Y-171202518D01*
X65594844Y-171204449D01*
X65646024Y-171204360D01*
X65652805Y-171203981D01*
X66424687Y-171118764D01*
X66439345Y-171112644D01*
X66440389Y-171111130D01*
X66441207Y-171103311D01*
X66361503Y-170381361D01*
X66355383Y-170366703D01*
X66353869Y-170365659D01*
X66346050Y-170364841D01*
X65127120Y-170499412D01*
X65112462Y-170505532D01*
X65111418Y-170507046D01*
X65110600Y-170514865D01*
X64208119Y-170514865D01*
X64238291Y-170212217D01*
X67851943Y-170212217D01*
X67931647Y-170934167D01*
X67937767Y-170948825D01*
X67939281Y-170949869D01*
X67947100Y-170950687D01*
X68723508Y-170864971D01*
X68730236Y-170863857D01*
X68780194Y-170852783D01*
X68794956Y-170847504D01*
X68909725Y-170789405D01*
X68924284Y-170779210D01*
X69017347Y-170691970D01*
X69028459Y-170678101D01*
X69093298Y-170568244D01*
X69100068Y-170551818D01*
X69131734Y-170427138D01*
X69133665Y-170411575D01*
X69133576Y-170360395D01*
X69133197Y-170353614D01*
X69102847Y-170078713D01*
X69096727Y-170064055D01*
X69095213Y-170063011D01*
X69087394Y-170062193D01*
X67868463Y-170196764D01*
X67853805Y-170202884D01*
X67852761Y-170204398D01*
X67851943Y-170212217D01*
X64238291Y-170212217D01*
X64393076Y-168659589D01*
X64911705Y-168659589D01*
X64911794Y-168710769D01*
X64912173Y-168717550D01*
X64942523Y-168992451D01*
X64948643Y-169007109D01*
X64950157Y-169008153D01*
X64957976Y-169008971D01*
X66176907Y-168874400D01*
X66191565Y-168868280D01*
X66192609Y-168866766D01*
X66193427Y-168858947D01*
X66113723Y-168136997D01*
X66107603Y-168122339D01*
X66106089Y-168121295D01*
X66098270Y-168120477D01*
X65321862Y-168206193D01*
X65315134Y-168207307D01*
X65265176Y-168218381D01*
X65250414Y-168223660D01*
X65135645Y-168281759D01*
X65121086Y-168291954D01*
X65028023Y-168379194D01*
X65016911Y-168393063D01*
X64952072Y-168502920D01*
X64945302Y-168519346D01*
X64913636Y-168644026D01*
X64911705Y-168659589D01*
X64393076Y-168659589D01*
X64462037Y-167967853D01*
X67604163Y-167967853D01*
X67683867Y-168689803D01*
X67689987Y-168704461D01*
X67691501Y-168705505D01*
X67699320Y-168706323D01*
X68918250Y-168571752D01*
X68932908Y-168565632D01*
X68933952Y-168564118D01*
X68934770Y-168556299D01*
X68903920Y-168276864D01*
X68902808Y-168270148D01*
X68891734Y-168220186D01*
X68886457Y-168205429D01*
X68828353Y-168090652D01*
X68818163Y-168076100D01*
X68730922Y-167983034D01*
X68717052Y-167971921D01*
X68607194Y-167907082D01*
X68590768Y-167900312D01*
X68466089Y-167868646D01*
X68450526Y-167866715D01*
X68399346Y-167866804D01*
X68392565Y-167867183D01*
X67620683Y-167952400D01*
X67606025Y-167958520D01*
X67604981Y-167960034D01*
X67604163Y-167967853D01*
X64462037Y-167967853D01*
X66532704Y-147197371D01*
X66559365Y-147131570D01*
X66568511Y-147121253D01*
X66804973Y-146882245D01*
X70903177Y-142739909D01*
X70965305Y-142705552D01*
X71036147Y-142710237D01*
G37*
%TD.AperFunction*%
%TD*%
%TA.AperFunction,Conductor*%
%TO.N,GND*%
G36*
X124450153Y-59695713D02*
G01*
X124495811Y-59750081D01*
X124504827Y-59820503D01*
X124493818Y-59855534D01*
X124477669Y-59888901D01*
X124476621Y-59891731D01*
X124445478Y-59975800D01*
X124443092Y-59981768D01*
X124406518Y-60066898D01*
X124405599Y-60069769D01*
X124374217Y-60167807D01*
X124372369Y-60173162D01*
X124335558Y-60272534D01*
X124334786Y-60275452D01*
X124334784Y-60275457D01*
X124311845Y-60362117D01*
X124310042Y-60368286D01*
X124282719Y-60453645D01*
X124281796Y-60456530D01*
X124281156Y-60459477D01*
X124281154Y-60459485D01*
X124259312Y-60560084D01*
X124257986Y-60565591D01*
X124230873Y-60668021D01*
X124230383Y-60671007D01*
X124230382Y-60671010D01*
X124215858Y-60759452D01*
X124214657Y-60765755D01*
X124194992Y-60856323D01*
X124194638Y-60859314D01*
X124182536Y-60961558D01*
X124181744Y-60967166D01*
X124165064Y-61068734D01*
X124165063Y-61068745D01*
X124164574Y-61071721D01*
X124164372Y-61074744D01*
X124158391Y-61164165D01*
X124157799Y-61170565D01*
X124146907Y-61262595D01*
X124146816Y-61265197D01*
X124146816Y-61265199D01*
X124141621Y-61413956D01*
X124141417Y-61417966D01*
X124137274Y-61479916D01*
X124137363Y-61482948D01*
X124141446Y-61622707D01*
X124141500Y-61626387D01*
X124141500Y-99458720D01*
X124121498Y-99526841D01*
X124067842Y-99573334D01*
X123997568Y-99583438D01*
X123932988Y-99553944D01*
X123924622Y-99545996D01*
X100313757Y-74960736D01*
X100203682Y-74846119D01*
X100170923Y-74783132D01*
X100177418Y-74712433D01*
X100221105Y-74656469D01*
X100228078Y-74651810D01*
X124313927Y-59693608D01*
X124382349Y-59674661D01*
X124450153Y-59695713D01*
G37*
%TD.AperFunction*%
%TD*%
M02*
