%TF.GenerationSoftware,KiCad,Pcbnew,(6.0.1)*%
%TF.CreationDate,2022-03-23T16:26:21+01:00*%
%TF.ProjectId,tussenstukpw22,74757373-656e-4737-9475-6b707732322e,rev?*%
%TF.SameCoordinates,Original*%
%TF.FileFunction,Legend,Top*%
%TF.FilePolarity,Positive*%
%FSLAX46Y46*%
G04 Gerber Fmt 4.6, Leading zero omitted, Abs format (unit mm)*
G04 Created by KiCad (PCBNEW (6.0.1)) date 2022-03-23 16:26:21*
%MOMM*%
%LPD*%
G01*
G04 APERTURE LIST*
%ADD10C,0.150000*%
%ADD11C,0.120000*%
G04 APERTURE END LIST*
D10*
%TO.C,J1*%
X167181666Y-90497380D02*
X167181666Y-91211666D01*
X167134047Y-91354523D01*
X167038809Y-91449761D01*
X166895952Y-91497380D01*
X166800714Y-91497380D01*
X168181666Y-91497380D02*
X167610238Y-91497380D01*
X167895952Y-91497380D02*
X167895952Y-90497380D01*
X167800714Y-90640238D01*
X167705476Y-90735476D01*
X167610238Y-90783095D01*
%TO.C,J2*%
X179586666Y-90482380D02*
X179586666Y-91196666D01*
X179539047Y-91339523D01*
X179443809Y-91434761D01*
X179300952Y-91482380D01*
X179205714Y-91482380D01*
X180015238Y-90577619D02*
X180062857Y-90530000D01*
X180158095Y-90482380D01*
X180396190Y-90482380D01*
X180491428Y-90530000D01*
X180539047Y-90577619D01*
X180586666Y-90672857D01*
X180586666Y-90768095D01*
X180539047Y-90910952D01*
X179967619Y-91482380D01*
X180586666Y-91482380D01*
D11*
%TO.C,J1*%
X167515000Y-94645000D02*
X167515000Y-92045000D01*
X170115000Y-92045000D02*
X170115000Y-104865000D01*
X164915000Y-94645000D02*
X164915000Y-104865000D01*
X164915000Y-104865000D02*
X170115000Y-104865000D01*
X164915000Y-92045000D02*
X166245000Y-92045000D01*
X167515000Y-92045000D02*
X170115000Y-92045000D01*
X164915000Y-94645000D02*
X167515000Y-94645000D01*
X164915000Y-93375000D02*
X164915000Y-92045000D01*
%TO.C,J2*%
X182520000Y-104860000D02*
X181190000Y-104860000D01*
X182520000Y-102260000D02*
X182520000Y-92040000D01*
X182520000Y-102260000D02*
X179920000Y-102260000D01*
X177320000Y-104860000D02*
X177320000Y-92040000D01*
X179920000Y-102260000D02*
X179920000Y-104860000D01*
X182520000Y-92040000D02*
X177320000Y-92040000D01*
X182520000Y-103530000D02*
X182520000Y-104860000D01*
X179920000Y-104860000D02*
X177320000Y-104860000D01*
%TD*%
M02*
