0
SECTION
2
HEADER
9
$INSUNITS
70
4
9
$ACADVER
1
AC1014
9
$HANDSEED
5
FFFF
0
ENDSEC
0
SECTION
2
TABLES
0
TABLE
2
VPORT
5
8
100
AcDbSymbolTable
0
ENDTAB
0
TABLE
2
LTYPE
5
5
100
AcDbSymbolTable
0
LTYPE
5
14
100
AcDbSymbolTableRecord
100
AcDbLinetypeTableRecord
2
BYBLOCK
70
0
0
LTYPE
5
15
100
AcDbSymbolTableRecord
100
AcDbLinetypeTableRecord
2
BYLAYER
70
0
0
ENDTAB
0
TABLE
2
LAYER
5
2
100
AcDbSymbolTable
70
2
0
LAYER
5
50
100
AcDbSymbolTableRecord
100
AcDbLayerTableRecord
2
0
70
0
6
CONTINUOUS
0
ENDTAB
0
TABLE
2
STYLE
5
3
100
AcDbSymbolTable
70
1
0
STYLE
5
11
100
AcDbSymbolTableRecord
100
AcDbTextStyleTableRecord
2
STANDARD
70
0
0
ENDTAB
0
TABLE
2
VIEW
5
6
100
AcDbSymbolTable
70
0
0
ENDTAB
0
TABLE
2
UCS
5
7
100
AcDbSymbolTable
70
0
0
ENDTAB
0
TABLE
2
APPID
5
9
100
AcDbSymbolTable
70
2
0
APPID
5
12
100
AcDbSymbolTableRecord
100
AcDbRegAppTableRecord
2
ACAD
70
0
0
ENDTAB
0
TABLE
2
DIMSTYLE
5
A
100
AcDbSymbolTable
70
1
0
ENDTAB
0
TABLE
2
BLOCK_RECORD
5
1
100
AcDbSymbolTable
70
1
0
BLOCK_RECORD
5
1F
100
AcDbSymbolTableRecord
100
AcDbBlockTableRecord
2
*MODEL_SPACE
0
BLOCK_RECORD
5
1B
100
AcDbSymbolTableRecord
100
AcDbBlockTableRecord
2
*PAPER_SPACE
0
ENDTAB
0
ENDSEC
0
SECTION
2
BLOCKS
0
BLOCK
5
20
100
AcDbEntity
100
AcDbBlockBegin
2
*MODEL_SPACE
0
ENDBLK
5
21
100
AcDbEntity
100
AcDbBlockEnd
0
BLOCK
5
1C
100
AcDbEntity
100
AcDbBlockBegin
2
*PAPER_SPACE
0
ENDBLK
5
1D
100
AcDbEntity
100
AcDbBlockEnd
0
ENDSEC
0
SECTION
2
ENTITIES
0
LWPOLYLINE
5
100
100
AcDbEntity
8
0
100
AcDbPolyline
90
16
70
1
43
0.0
10
336.1693441228818
20
66.039469555450168
10
310.88690895104213
20
92.365283346893051
10
341.8939543930743
20
111.62179219340389
10
367.56476494984781
20
137.56903646631747
10
371.1856017888756
20
173.88899710210478
10
334.90650512485649
20
169.87936554262743
10
298.69099920490959
20
174.42767632381677
10
267.68392031766734
20
155.17122133126071
10
242.01290412010479
20
129.22418050991689
10
238.3917794319467
20
92.904248571753598
10
212.72068181921256
20
66.957288299739631
10
181.71378995253633
20
47.700532166677021
10
206.9964280397806
20
21.374913249936903
10
243.21197691557259
20
16.826944513773483
10
279.49112975127559
20
20.836067799942235
10
305.16230382840354
20
46.782952420293078
0
LINE
5
101
100
AcDbEntity
8
0
100
AcDbLine
10
299.14449358730184
20
172.35501072155881
30
0
11
268.93962972111768
21
153.59675865561616
31
0
0
LINE
5
102
100
AcDbEntity
8
0
100
AcDbLine
10
286.86831902408005
20
131.91946918578873
30
0
11
322.55979480444626
21
135.86301802807978
31
0
0
LINE
5
103
100
AcDbEntity
8
0
100
AcDbLine
10
274.94712590722378
20
66.770399171326375
30
0
11
275.16719614349341
21
96.347336695837384
31
0
0
LINE
5
104
100
AcDbEntity
8
0
100
AcDbLine
10
334.89154112296211
20
167.86553369860826
30
0
11
368.95046087092612
21
171.62978727878584
31
0
0
LINE
5
105
100
AcDbEntity
8
0
100
AcDbLine
10
368.95046087092612
20
171.62978727878584
30
0
11
365.64488796009528
21
138.47218218981033
31
0
0
LINE
5
106
100
AcDbEntity
8
0
100
AcDbLine
10
308.40858838306303
20
93.180459307642849
30
0
11
275.34632504310144
21
97.332695554467733
31
0
0
LINE
5
107
100
AcDbEntity
8
0
100
AcDbLine
10
287.01798689339745
20
130.92992048270889
30
0
11
322.70946275025807
21
134.87346933345185
31
0
0
LINE
5
108
100
AcDbEntity
8
0
100
AcDbLine
10
286.08651767517046
20
131.29594159944682
30
0
11
268.58554803727617
21
153.2388697495432
31
0
0
LINE
5
109
100
AcDbEntity
8
0
100
AcDbLine
10
308.28397885207539
20
92.188253449573537
30
0
11
275.16719614349341
21
96.347336695837384
31
0
0
LINE
5
110
100
AcDbEntity
8
0
100
AcDbLine
10
303.80108281621347
20
48.250768241287417
30
0
11
274.94712590722378
21
66.770399171326375
31
0
0
LINE
5
111
100
AcDbEntity
8
0
100
AcDbLine
10
340.99231717667971
20
113.55414250976622
30
0
11
323.49126394528531
21
135.49699711280337
31
0
0
LINE
5
112
100
AcDbEntity
8
0
100
AcDbLine
10
323.49126394528531
20
135.49699711280337
30
0
11
334.74269999243688
21
167.88422667835425
31
0
0
LINE
5
113
100
AcDbEntity
8
0
100
AcDbLine
10
307.7336475211556
20
92.761296356355203
30
0
11
333.01608316052113
21
66.435482078092164
31
0
0
LINE
5
114
100
AcDbEntity
8
0
100
AcDbLine
10
286.86831902408005
20
131.91946918578873
30
0
11
269.36735480534588
21
153.86239054127623
31
0
0
LINE
5
115
100
AcDbEntity
8
0
100
AcDbLine
10
322.55979480444626
20
135.86301802807978
30
0
11
333.72833128160789
21
168.01162139579276
31
0
0
LINE
5
116
100
AcDbEntity
8
0
100
AcDbLine
10
365.64488796009528
20
138.47218218981033
30
0
11
340.63823692457555
21
113.19624937767199
31
0
0
LINE
5
117
100
AcDbEntity
8
0
100
AcDbLine
10
207.94834953060109
20
23.271079204952116
30
0
11
184.86705396721945
21
47.304543948996894
31
0
0
LINE
5
118
100
AcDbEntity
8
0
100
AcDbLine
10
274.30268467647124
20
97.375828692467223
30
0
11
286.08651767517046
21
131.29594159944682
31
0
0
LINE
5
119
100
AcDbEntity
8
0
100
AcDbLine
10
214.80094475897445
20
66.216240899521807
30
0
11
243.44244377011421
21
47.833285709669994
31
0
0
LINE
5
120
100
AcDbEntity
8
0
100
AcDbLine
10
240.37337443474428
20
92.620191971119993
30
0
11
274.1672237787252
21
96.354771057702195
31
0
0
LINE
5
121
100
AcDbEntity
8
0
100
AcDbLine
10
214.08191379261936
20
65.489483197151173
30
0
11
242.93601380029216
21
46.970074444199732
31
0
0
LINE
5
122
100
AcDbEntity
8
0
100
AcDbLine
10
243.93598617747841
20
46.962641755288061
30
0
11
243.72737035022249
21
18.896074301901258
31
0
0
LINE
5
123
100
AcDbEntity
8
0
100
AcDbLine
10
303.08205043578374
20
47.524013393330186
30
0
11
274.44069155204483
21
65.907190353588931
31
0
0
LINE
5
124
100
AcDbEntity
8
0
100
AcDbLine
10
242.93601380029216
20
46.970074444199732
30
0
11
242.7273979730362
21
18.903506990812946
31
0
0
LINE
5
125
100
AcDbEntity
8
0
100
AcDbLine
10
334.89154112296211
20
167.86553369860826
30
0
11
299.14449358730184
21
172.35501072155881
31
0
0
LINE
5
126
100
AcDbEntity
8
0
100
AcDbLine
10
242.7273979730362
20
18.903506990812946
30
0
11
207.94834953060109
21
23.271079204952116
31
0
0
LINE
5
127
100
AcDbEntity
8
0
100
AcDbLine
10
278.56749988272924
20
22.746174529832935
30
0
11
303.9065982367955
21
48.35741690625629
31
0
0
LINE
5
128
100
AcDbEntity
8
0
100
AcDbLine
10
333.01608316052113
20
66.435482078092164
30
0
11
303.9065982367955
21
48.35741690625629
31
0
0
LINE
5
129
100
AcDbEntity
8
0
100
AcDbLine
10
340.21051368593771
20
112.93061760878626
30
0
11
322.70946275025807
21
134.87346933345185
31
0
0
LINE
5
130
100
AcDbEntity
8
0
100
AcDbLine
10
273.94715356866311
20
66.777837055427383
30
0
11
274.1672237787252
21
96.354771057702195
31
0
0
LINE
5
131
100
AcDbEntity
8
0
100
AcDbLine
10
243.93277395203015
20
128.32101957071072
30
0
11
240.31164891354314
21
92.001084118743904
31
0
0
LINE
5
132
100
AcDbEntity
8
0
100
AcDbLine
10
243.93598617747841
20
46.962641755288061
30
0
11
274.44069155204483
21
65.907190353588931
31
0
0
LINE
5
133
100
AcDbEntity
8
0
100
AcDbLine
10
240.31164891354314
20
92.001084118743904
30
0
11
213.97639544578709
21
65.382830945871206
31
0
0
LINE
5
134
100
AcDbEntity
8
0
100
AcDbLine
10
240.47479964840812
20
93.637488301492695
30
0
11
274.30268467647124
21
97.375828692467223
31
0
0
LINE
5
135
100
AcDbEntity
8
0
100
AcDbLine
10
184.86705396721945
20
47.304543948996894
30
0
11
213.97639544578709
21
65.382830945871206
31
0
0
LINE
5
136
100
AcDbEntity
8
0
100
AcDbLine
10
275.00000000000006
20
174.99999999999997
30
0
11
225.00000000000003
21
174.99999999999997
31
0
0
LINE
5
137
100
AcDbEntity
8
0
100
AcDbLine
10
243.72737035022249
20
18.896074301901258
30
0
11
278.56749988272924
21
22.746174529832935
31
0
0
LINE
5
138
100
AcDbEntity
8
0
100
AcDbLine
10
268.93962972111768
20
153.59675865561616
30
0
11
243.93277395203015
21
128.32101957071072
31
0
0
LINE
5
139
100
AcDbEntity
8
0
100
AcDbLine
10
243.44244377011421
20
47.833285709669994
30
0
11
273.94715356866311
21
66.777837055427383
31
0
0
LINE
5
140
100
AcDbEntity
8
0
100
AcDbLine
10
275.34632504310144
20
97.332695554467733
30
0
11
287.01798689339745
21
130.92992048270889
31
0
0
LINE
5
141
100
AcDbEntity
8
0
100
AcDbLine
10
340.63823692457555
20
113.19624937767199
30
0
11
307.7336475211556
21
92.761296356355203
31
0
0
ENDSEC
0
SECTION
2
OBJECTS
0
DICTIONARY
5
C
100
AcDbDictionary
3
ACAD_GROUP
350
D
3
ACAD_MLINESTYLE
350
17
0
DICTIONARY
5
D
100
AcDbDictionary
0
DICTIONARY
5
1A
330
C
100
AcDbDictionary
0
DICTIONARY
5
17
100
AcDbDictionary
0
ENDSEC
0
EOF
